<svg width="55" height="55" viewBox="0 0 55 55" fill="none" xmlns="http://www.w3.org/2000/svg">
<path d="M53 27.8923L52.9743 26.822V6.58907L47.3805 12.1828C42.8031 6.57892 35.8383 3 28.039 3C19.914 3 12.7093 6.87501 8.1499 12.875L17.3187 22.1407C18.2165 20.4822 19.4881 19.0554 21.0328 17.9735C22.6343 16.7235 24.9015 15.7032 28.039 15.7032C28.4179 15.7032 28.7109 15.7477 28.9258 15.8305C32.8133 16.1375 36.182 18.2836 38.1664 21.3962L31.6765 27.886L53 27.8907" fill="#1C3AA9"/>
<path d="M27.8923 3L26.8219 3.02578H6.58907L12.1828 8.61955C6.57814 13.1977 3 20.161 3 27.9626C3 36.0876 6.87501 43.2923 12.875 47.8517L22.1407 38.6829C20.4822 37.7851 19.0554 36.5136 17.9735 34.9689C16.7235 33.3673 15.7032 31.1001 15.7032 27.9626C15.7032 27.5837 15.7477 27.2907 15.8305 27.0759C16.1375 23.1883 18.2836 19.8196 21.3962 17.8352L27.886 24.3251L27.8907 3.00078" fill="#4285F4"/>
<path d="M3.00098 27.9629L3.02676 29.0332V49.2661L8.62053 43.6723C13.1987 49.2762 20.1628 52.8552 27.9643 52.8552C36.0894 52.8552 43.2941 48.9801 47.8535 42.9801L38.6847 33.7145C37.7869 35.373 36.5153 36.7997 34.9706 37.8817C33.369 39.1317 31.1018 40.152 27.9643 40.152C27.5854 40.152 27.2925 40.1075 27.0776 40.0247C23.1901 39.7176 19.8213 37.5715 17.837 34.459L24.3268 27.9691C16.1065 28.0004 6.82677 28.0207 3.00254 27.9652" fill="#ABABAB"/>
</svg>
