<?xml version="1.0" encoding="UTF-8"?>
<svg id="Layer_1" data-name="Layer 1" xmlns="http://www.w3.org/2000/svg" viewBox="0 0 236.79 212.2">
  <g style="opacity: .65;">
    <path d="m51.1,196.67c26.09,0,47.36-2.98,47.36-6.64s-21.27-6.64-47.36-6.64-47.36,2.99-47.36,6.64,21.28,6.64,47.36,6.64Z" style="fill: #aef4ff; fillRule: evenodd;"/>
    <path d="m166.8,212.2c30.68,0,55.7-2.99,55.7-6.65s-25.02-6.64-55.7-6.64-55.7,2.98-55.7,6.64,25.02,6.65,55.7,6.65Z" style="fill: #aef4ff; fillRule: evenodd;"/>
    <path d="m114.58,185.54C51.7,168,7.32,171.22.53,123.53-6.25,75.85,52.53,46.14,117.91,35.09c65.38-11.06,104.61,43.51,117.37,88.44,12.77,44.93-57.82,79.55-120.7,62.01Z" style="fill: #aef4ff; fillRule: evenodd;"/>
    <path d="m131.02,146.41l-2.11,1.22c-.71.41-.95,1.33-.54,2.04l.47.79c.55.95.31,1.37.14,1.52-.47.42-.9.87-1.34,1.33-.13.13-.54.59-1.61-.03l-.73-.43c-.71-.41-1.63-.17-2.04.54l-1.23,2.11c-.41.71-.17,1.63.54,2.04l.73.42c1,.58.98.88.85,1.31-.17.59-.36,1.17-.49,1.78-.11.54-.06.92-1.43.92h-.84c-.82,0-1.49.67-1.49,1.49v2.44c0,.82.67,1.49,1.49,1.49h.84c1.36,0,1.31.39,1.43.92.13.61.32,1.19.49,1.77.13.43.16.72-.85,1.31l-.73.42c-.71.41-.95,1.33-.54,2.04l1.23,2.1c.41.71,1.33.95,2.04.54l.73-.42c1.07-.63,1.48-.17,1.61-.03.43.45.87.91,1.34,1.33.17.15.41.58-.14,1.52l-.47.8c-.41.71-.17,1.63.54,2.04l2.11,1.22c.71.41,1.63.17,2.04-.54l.46-.79c.56-.95,1.11-.92,1.34-.85.67.22,1.29.35,1.98.53.25.07.69.25.69,1.39v.85c0,.82.67,1.5,1.5,1.5h2.43c.82,0,1.49-.67,1.49-1.5v-.85c0-1.14.43-1.33.69-1.39.7-.18,1.32-.32,1.98-.53.23-.08.78-.11,1.34.85l.46.79c.41.71,1.34.95,2.04.54l2.11-1.22c.71-.41.95-1.33.54-2.04l-.46-.8c-.55-.94-.31-1.37-.14-1.52.47-.42.9-.87,1.34-1.33.13-.14.53-.59,1.6.03l.73.42c.71.41,1.63.17,2.04-.54l1.22-2.1c.41-.71.17-1.63-.54-2.04l-.73-.42c-1-.58-.97-.88-.85-1.31.17-.58.36-1.17.49-1.77.11-.54.07-.92,1.43-.92h.84c.82,0,1.49-.67,1.49-1.49v-2.44c0-.82-.67-1.49-1.49-1.49h-.84c-1.36,0-1.32-.39-1.43-.92-.13-.61-.32-1.19-.49-1.78-.13-.42-.15-.72.85-1.31l.73-.42c.71-.41.95-1.33.54-2.04l-1.22-2.11c-.41-.71-1.33-.95-2.04-.54l-.73.43c-1.07.62-1.48.16-1.6.03-.44-.45-.87-.91-1.34-1.33-.17-.15-.41-.58.14-1.52l.46-.79c.41-.71.17-1.63-.54-2.04l-2.11-1.22c-.71-.41-1.63-.17-2.04.54l-.46.8c-.56.95-1.11.92-1.34.84-.67-.21-1.29-.35-1.98-.53-.25-.07-.69-.25-.69-1.39v-.86c0-.82-.67-1.49-1.49-1.49h-2.43c-.83,0-1.5.67-1.5,1.49v.86c0,1.14-.43,1.32-.69,1.39-.69.18-1.31.32-1.98.53-.23.08-.78.11-1.34-.84l-.46-.8c-.41-.71-1.33-.95-2.04-.54h0Zm9.22,6.33c6.59,0,11.94,5.35,11.94,11.94s-5.35,11.94-11.94,11.94-11.94-5.35-11.94-11.94,5.35-11.94,11.94-11.94Z" style="fill: #86b7f2; fillRule: evenodd;"/>
    <path d="m137.36,119.23l-1.05.61c-.36.21-.48.66-.27,1.02l.24.4c.27.47.16.68.07.76-.23.21-.45.44-.67.66-.06.07-.26.3-.8-.02l-.37-.21c-.36-.21-.81-.08-1.02.27l-.62,1.05c-.2.36-.08.82.27,1.03l.37.21c.5.29.49.44.42.65-.08.3-.18.59-.24.89-.06.27-.03.46-.72.46h-.42c-.41,0-.75.33-.75.74v1.22c0,.41.34.74.75.74h.42c.68,0,.66.19.72.46.07.3.16.59.24.88.07.22.08.37-.42.66l-.37.21c-.35.21-.48.67-.27,1.02l.62,1.05c.21.36.66.48,1.02.27l.37-.21c.54-.32.74-.08.8-.02.22.23.44.45.67.66.09.08.21.29-.07.76l-.24.4c-.21.35-.08.81.27,1.02l1.05.62c.35.2.81.08,1.02-.27l.24-.4c.28-.48.55-.46.67-.42.33.1.64.17.99.26.13.03.35.13.35.7v.43c0,.41.33.74.74.74h1.22c.41,0,.75-.33.75-.74v-.43c0-.57.22-.66.34-.7.34-.09.65-.16.99-.26.11-.04.39-.06.67.42l.23.4c.2.36.66.48,1.02.27l1.05-.62c.35-.2.48-.66.27-1.02l-.23-.4c-.28-.48-.16-.69-.08-.76.24-.21.46-.44.67-.66.06-.07.27-.3.8.02l.37.21c.35.21.81.08,1.02-.27l.61-1.05c.21-.35.08-.81-.26-1.02l-.37-.21c-.5-.29-.49-.44-.42-.66.08-.29.18-.58.24-.88.06-.27.03-.46.72-.46h.41c.41,0,.75-.33.75-.74v-1.22c0-.41-.33-.74-.75-.74h-.41c-.69,0-.66-.19-.72-.46-.07-.3-.16-.59-.24-.89-.07-.21-.08-.36.42-.65l.37-.21c.35-.21.47-.67.26-1.03l-.61-1.05c-.21-.35-.66-.48-1.02-.27l-.37.21c-.54.32-.74.08-.8.02-.22-.23-.44-.45-.67-.66-.08-.08-.2-.29.08-.76l.23-.4c.21-.35.08-.81-.27-1.02l-1.05-.61c-.36-.21-.82-.08-1.02.27l-.23.4c-.28.48-.55.46-.67.42-.34-.11-.65-.18-.99-.27-.13-.03-.34-.13-.34-.7v-.43c0-.41-.34-.74-.75-.74h-1.22c-.41,0-.74.33-.74.74v.43c0,.57-.22.66-.35.7-.34.09-.65.16-.99.27-.12.03-.39.06-.67-.42l-.24-.4c-.2-.35-.66-.48-1.02-.27h0Zm4.61,3.16c3.3,0,5.97,2.68,5.97,5.97s-2.68,5.97-5.97,5.97-5.97-2.68-5.97-5.97,2.67-5.97,5.97-5.97Z" style="fill: #86b7f2; fillRule: evenodd;"/>
    <path d="m150.41,1.45h-36.85v16.98c.29,1.28,1.58,2.68,3.06,2.58,2.57-.17,4.4-4.65,8.46-4.91,4.51-.29,8.17,4.17,8.17,9.32s-3.66,9.61-8.17,9.32c-4.06-.26-5.89-4.74-8.46-4.91-1.48-.1-2.77,1.3-3.06,2.58v16.98h16.99c1.28.29,2.68,1.58,2.58,3.06-.17,2.57-4.65,4.4-4.91,8.46-.28,4.5,4.18,8.17,9.32,8.17s9.61-3.66,9.33-8.17c-.26-4.06-4.74-5.89-4.91-8.46-.1-1.48,1.3-2.77,2.59-3.06h16.98V12.58c0-6.12-5-11.13-11.13-11.13Z" style="fill: #7767ff; fillRule: evenodd;"/>
    <path d="m204.79,57.29l-34.88-11.87,5.47-16.08c.14-1.31-.63-3.05-2.07-3.43-2.49-.67-5.66,2.98-9.59,1.92-4.36-1.18-6.39-6.58-4.73-11.46,1.67-4.88,6.57-7.92,10.74-6.2,3.76,1.55,4.05,6.38,6.43,7.37,1.37.57,3.04-.34,3.73-1.47l5.47-16.08,16.08,5.47c1.12.69,2.03,2.36,1.46,3.73-.99,2.38-5.82,2.67-7.37,6.43-1.72,4.17,1.32,9.08,6.2,10.73,4.87,1.66,10.27-.37,11.46-4.73,1.06-3.93-2.59-7.1-1.92-9.59.38-1.43,2.13-2.2,3.43-2.06l16.08,5.47-11.87,34.88c-1.97,5.79-8.33,8.92-14.12,6.95Z" style="fill: #86b7f2; fillRule: evenodd;"/>
    <path d="m76.72,97.4h36.84v-16.98c-.28-1.28-1.57-2.69-3.06-2.59-2.57.17-4.39,4.65-8.46,4.91-4.51.28-8.17-4.18-8.17-9.32s3.66-9.61,8.17-9.33c4.06.26,5.89,4.74,8.46,4.91,1.49.1,2.78-1.3,3.06-2.59v-16.98h-16.98c-1.28-.29-2.69-1.58-2.59-3.06.17-2.57,4.65-4.4,4.91-8.46.28-4.5-4.18-8.17-9.33-8.17s-9.61,3.66-9.33,8.17c.26,4.06,4.74,5.89,4.91,8.46.09,1.48-1.31,2.77-2.59,3.06h-16.98v36.84c0,6.12,5.01,11.13,11.13,11.13Z" style="fill: #d94559; fillRule: evenodd;"/>
    <path d="m172.83,202.88c1.88.18.1,1.58,1.32,1.96,2.75-1.36,4.39-5.31,5.54-7.04.6-.91.96.3,1.19,1.63.48,2.81.32,6.48-.37,7.7.8-.48,1.56-1.17,2.02-2.34,1.65.18.3,1.58,1.36,1.96,2.4-1.36,3.63-5.31,4.63-7.03.53-.91.84.29,1.03,1.63.42,2.87.28,6.19-.36,7.34-.77-.24-.89-3.1-1.22-4.72-2.39,2.24-1.76,4.85-3.16,5.67-3.29.26-3.68,1.19-7.56.24-.31-1.64,1.52-1.73,3.19-2.7-.45-.91-.76-3.51-1.14-5.12-2.73,2.24-2.26,4.85-3.86,5.67-3.77.26-5.8.29-8.65.24-.53-2.45,4.39-1.43,6.03-5.07Z" style="fill: #1b2452; fillRule: evenodd;"/>
    <path d="m226.4,136.38c.29-.81,1.19-1.24,1.99-.95.82.29,1.25,1.18.96,1.99-5.89,16.69-16.11,28.49-30.67,35.39-.78.37-1.71.04-2.08-.74-.37-.78-.03-1.71.75-2.08,13.76-6.53,23.45-17.73,29.04-33.61h0Zm-9.05,6.04c-2.32,3.76-4.71,7.19-7.28,10.22-2.54,3-5.25,5.6-8.24,7.75-.7.5-.86,1.48-.36,2.18.5.7,1.48.86,2.18.36,3.2-2.3,6.1-5.08,8.8-8.26,2.67-3.15,5.16-6.71,7.55-10.6.45-.73.22-1.69-.51-2.14-.73-.45-1.7-.22-2.14.51Z" style="fill: #fff; fillRule: evenodd;"/>
    <path d="m84.32,117.79c-1.65-.79-2.35-2.78-1.56-4.42.79-1.65,2.77-2.35,4.43-1.56,8.33,3.99,14.96,9.92,19.9,17.8,4.85,7.74,8.03,17.32,9.52,28.74.24,1.81-1.03,3.48-2.84,3.72-1.81.24-3.48-1.03-3.72-2.84-1.37-10.47-4.23-19.17-8.57-26.1-4.25-6.78-9.97-11.9-17.16-15.34h0Zm-1.64,14.61c3.73,1.99,6.58,4.61,8.57,7.86,2.02,3.3,3.18,7.3,3.49,12,.12,1.82,1.69,3.21,3.52,3.09,1.82-.12,3.21-1.7,3.09-3.52-.38-5.79-1.87-10.8-4.45-15.02-2.62-4.27-6.32-7.69-11.1-10.24-1.62-.87-3.62-.25-4.49,1.35-.87,1.61-.25,3.62,1.35,4.48Z" style="fill: #fff; fillRule: evenodd;"/>
    <path d="m196.79,98.02l-1.74,1.01c-.59.34-.79,1.1-.45,1.69l.39.66c.45.78.25,1.13.11,1.26-.39.35-.74.72-1.11,1.1-.11.11-.44.49-1.33-.03l-.61-.35c-.59-.34-1.35-.14-1.68.45l-1.02,1.74c-.34.59-.14,1.35.45,1.69l.6.35c.83.48.8.73.7,1.08-.14.48-.3.97-.4,1.47-.09.44-.05.76-1.18.76h-.69c-.68,0-1.23.56-1.23,1.23v2.01c0,.69.56,1.24,1.23,1.24h.69c1.13,0,1.09.32,1.18.77.1.5.26.98.4,1.46.1.35.13.6-.7,1.08l-.6.35c-.59.34-.79,1.1-.45,1.69l1.02,1.74c.34.58,1.1.79,1.68.45l.61-.35c.88-.52,1.22-.14,1.33-.03.36.38.72.75,1.11,1.1.14.12.34.48-.11,1.26l-.39.66c-.34.59-.14,1.35.45,1.69l1.74,1.01c.59.34,1.35.14,1.69-.45l.39-.66c.46-.79.91-.76,1.1-.7.56.17,1.07.29,1.64.44.21.05.57.21.57,1.15v.71c0,.68.56,1.23,1.23,1.23h2.01c.68,0,1.23-.56,1.23-1.23v-.71c0-.95.36-1.1.56-1.15.57-.15,1.09-.26,1.65-.44.19-.07.64-.09,1.1.7l.39.66c.34.59,1.1.79,1.68.45l1.74-1.01c.59-.34.79-1.1.45-1.69l-.39-.66c-.45-.78-.25-1.13-.11-1.26.39-.35.74-.72,1.1-1.1.11-.11.44-.49,1.33.03l.61.35c.58.34,1.35.14,1.68-.45l1.02-1.74c.34-.59.14-1.35-.45-1.69l-.6-.35c-.83-.48-.81-.73-.7-1.08.14-.48.3-.96.4-1.46.09-.45.05-.77,1.18-.77h.7c.68,0,1.23-.55,1.23-1.24v-2.01c0-.68-.55-1.23-1.23-1.23h-.7c-1.13,0-1.08-.32-1.18-.76-.11-.5-.26-.98-.4-1.47-.11-.35-.13-.6.7-1.08l.6-.35c.59-.34.79-1.1.45-1.69l-1.02-1.74c-.34-.59-1.1-.79-1.68-.45l-.61.35c-.89.52-1.22.14-1.33.03-.36-.37-.71-.75-1.1-1.1-.14-.13-.34-.48.11-1.26l.39-.66c.34-.59.14-1.35-.45-1.69l-1.74-1.01c-.58-.34-1.35-.14-1.68.45l-.39.66c-.46.79-.91.76-1.1.7-.56-.18-1.07-.29-1.65-.44-.21-.05-.56-.2-.56-1.15v-.71c0-.68-.55-1.23-1.23-1.23h-2.01c-.68,0-1.23.56-1.23,1.23v.71c0,.94-.36,1.1-.57,1.15-.57.15-1.09.26-1.64.44-.19.06-.64.09-1.1-.7l-.39-.66c-.34-.59-1.1-.79-1.69-.45h0Zm7.62,7.21c4.36,0,7.9,3.54,7.9,7.9s-3.54,7.9-7.9,7.9-7.9-3.54-7.9-7.9,3.54-7.9,7.9-7.9h0Zm0-1.97c5.46,0,9.87,4.42,9.87,9.87s-4.42,9.88-9.87,9.88-9.88-4.42-9.88-9.88,4.42-9.87,9.88-9.87Z" style="fill: #fff; fillRule: evenodd;"/>
    <path d="m191.46,71.59c.21,1.03.51,1.83.89,2.41.77.37,1.64,1.12,2.61,2.25.97-.19,2-.55,3.1-1.09,3.89-6.44,7.53-12.21,10.9-17.3.47-.03.94-.08,1.41-.17.52,2.38,2.2,3.13,5.04,2.26-6.88,12.99-11.08,20.25-12.62,21.78-2.69,3.74-5.63,6.36-8.8,7.86-6.31,7.15-6.68,15.93-1.11,26.33-11.79,1.76-17.17-3.05-16.16-14.45,1.35-8.62,3.63-16.91,6.84-24.87,3.94-1.54,6.58-3.21,7.91-5Z" style="fill: #9588c0; fillRule: evenodd;"/>
    <path d="m178.79,75.52c-.04-1.44.46-4.28,3.21-7.1-1.16.29-2.33.7-3.53,1.23-.37-.07-1.04-.15-2.03-.23-2.52-8.02-3.06-9.03-3.41-10.91-.59-3.07.9-7.2,2.37-11.22l-5.48-1.86.82-2.41c-.18-.15-.34-.28-.49-.4-1.86,6.09-3.69,10.18-4.61,14.26-.57,2.52,1.4,8.63,4.24,14.37.95,2.66.23,5.15.94,8.76-3.79,4.71-5.22,8.95-4.28,12.74,2.07,4.69.66,11.83-4.23,21.41,8.31,1.29,12.3-2.43,11.97-11.15.88-11.19,2.74-21.46,4.52-27.48Z" style="fill: #9588c0; fillRule: evenodd;"/>
    <path d="m177.69,110.34c-1.44-.05-3-.05-4.68.01.96-1.83,1.37-4.28,1.26-7.36.78-9.94,2.33-19.16,3.93-25.32,1.29,1.38,2.78,1.77,4.48,1.15-2.75,7.28-4.74,14.82-5.96,22.64-.32,3.62,0,6.58.97,8.88Z" style="fill: #6251a1; fillRule: evenodd;"/>
    <path d="m166.57,166.12c-3.97-19.69-5.99-37.14-2.33-51.76,4.3.26,7.22-1.07,8.76-4.01,1.68-.06,3.25-.07,4.68-.01,1.95,4.59,6.49,6.52,13.62,5.77,4.97,9.44,1.21,16.02-1.24,24.84-1.81,6.48-2.23,13.88-.72,25.6.87,5.29.84,15.23-.08,29.83-2.73.55-4.99.22-6.75-.98.54-9.52-.35-18.99-2.65-28.38-2.23-9.74-3.25-20.22-3.08-31.46-1.8,13.88-1.77,24.23.09,31.03,1.86,8.04,2.88,17.5,3.08,28.38-2.16.86-4.07.8-5.72-.17-2.22-12.39-2.92-21.52-7.65-28.68Z" style="fill: #38308d; fillRule: evenodd;"/>
    <path d="m217.25,56c-.64,1.07-1.4,2.43-2.26,4.07-2.58.67-4.12-.12-4.61-2.38,2.64-.49,5.05-1.92,6.74-4.05.46.21.24.08.67.33.51-.58.07-1.69-.41-2.65.1-.72-1.25-4.61,1.47-5.67,1.8,2.06,3.52,2.82,2.12,8.3-.79,1.39-2.03,2.07-3.72,2.05Z" style="fill: #fab688; fillRule: evenodd;"/>
    <path d="m171.21,39.33c-.15.99-.36,2.17-.64,3.55l.16.13,1.82-5.35c-.41-.05-.11.02-.5-.12-.03-.71.65-1.59,1.57-2,3.2-1.5,1.03-4.32.05-5.35-2.53.41-3.83,2.23-3.92,5.43-.26,1.48.23,2.71,1.46,3.7Z" style="fill: #fab688; fillRule: evenodd;"/>
    <path d="m182.3,68.85c1,3.74,3.66,4.63,7.97,2.67l-.96,2.11c-1.43,1.03-3.35,2.02-5.75,2.96-.3.74-.59,1.49-.87,2.23-1.7.62-3.19.24-4.48-1.15.2-.77.4-1.49.59-2.16-.03-1.09.24-2.97,1.57-5.04.56-.26,1.21-.8,1.94-1.62Z" style="fill: #fab688; fillRule: evenodd;"/>
    <path d="m190.27,71.53c-3.53.96-6.18.07-7.97-2.67-.1-.16-.2-.32-.3-.49.09-1.09-.07-2.71-.48-4.87,1.62-.93,3.06-3.21,4.32-6.84,1.04.44,2.04-.17,2.99-1.84,1.4,3.14,3.62,4.9,6.67,5.3-.79,2.23-.95,4.19-.47,5.86-1.89,1.7-3.04,3.41-3.46,5.13-.44.17-.87.31-1.3.42Z" style="fill: #fab688; fillRule: evenodd;"/>
    <path d="m189.3,73.64l.96-2.11c.42-.12.86-.25,1.3-.42-.04.16-.08.32-.1.48-.52.7-1.24,1.38-2.16,2.04Z" style="fill: #40308e; fillRule: evenodd;"/>
    <path d="m182.3,68.85c-.73.82-1.38,1.36-1.94,1.62.43-.67.96-1.36,1.64-2.05,0-.02,0-.03,0-.05.09.17.19.33.3.49Z" style="fill: #40308e; fillRule: evenodd;"/>
    <path d="m196.48,75.83c-.52.19-1.03.33-1.52.43-.96-1.13-1.83-1.88-2.61-2.25-.39-.58-.69-1.39-.89-2.41.03-.16.06-.32.1-.48.42-1.72,1.58-3.43,3.46-5.13-.48-1.67-.32-3.62.47-5.86-3.05-.4-5.27-2.16-6.67-5.3-.95,1.66-1.95,2.27-2.99,1.84-1.26,3.63-2.7,5.91-4.32,6.84.41,2.15.57,3.77.48,4.87,0,.02,0,.04,0,.05-1.16.29-2.33.7-3.53,1.23-.27-.05-.71-.11-1.31-.17.58-.71,1.24-1.82,1.98-3.3-.49-1.2-.39-2.75.29-4.66,1.31-8.18,4.59-11.27,9.83-9.28.12-.04.24-.08.35-.12l6.92,2.35c1,1.54,1.75,3.71,2.26,6.53,2.51,1.94-1.75,7.41-1.97,10.86.03,1.6-.08,2.92-.34,3.97Z" style="fill: #1b2452; fillRule: evenodd;"/>
    <path d="m178.79,75.52c-1.02.67-1.86,1.34-2.52,2.03-.03-2.66.76-5.31,2.36-7.97,1.14-.49,2.26-.88,3.37-1.16-.68.69-1.21,1.38-1.64,2.05-1.32,2.07-1.59,3.95-1.57,5.04Z" style="fill: #6251a1; fillRule: evenodd;"/>
    <path d="m185.36,80.94c-.51-1.9-1.11-3.36-1.8-4.35,2.4-.94,4.31-1.92,5.75-2.96.92-.66,1.64-1.34,2.16-2.04.21,1.03.51,1.83.89,2.41-2.3,3.69-4.63,6.01-7,6.94Z" style="fill: #6251a1; fillRule: evenodd;"/>
    <path d="m179.68,197.81c-1.14,1.73-2.79,5.67-5.53,7.03-1.02-.32.06-1.35-.66-1.78.9-2.13,1.39-4.76,1.45-7.89,1.29.54,2.73.56,4.31.07.11.85.25,1.71.43,2.58h0Zm8.4-1.23c-.16,1.55-.12,2.81.09,3.8-.94,1.92-2.14,5.17-4.28,6.38-.87-.31-.12-1.32-.74-1.76.73-2.2.95-5.16.66-8.89,1.24.5,2.66.66,4.27.48Z" style="fill: #fab688; fillRule: evenodd;"/>
    <path d="m190.27,71.53c-3.96,2.56-8.22,1.61-7.97-2.67,1.78,2.74,4.44,3.64,7.97,2.67Z" style="fill: #ed7d57; fillRule: evenodd;"/>
    <path d="m54.76,105.37c1.88,5.75,3.27,18.76,3.44,39.03.29,9.85-1.42,22.9-3.63,40.06-1.81.77-4.45.88-6.46.77-2.33-23.81-2.73-33.91-1.18-40.46-3.15-7.05-4.99-13.97-6.73-21.25-1.2,10.09-2.63,18.09-4.27,24.02-3.64,9.48-9.03,21.9-16.17,37.26-1.66.22-4.59-.27-6.3-1.39,3.6-16.89,6.17-34.4,11.77-37.58-3.73-20.99-1.49-33.19,2.69-40.83,10.67,1.46,19.62,1.58,26.84.36Z" style="fill: #1b2452; fillRule: evenodd;"/>
    <path d="m57.2,70.48c1.02,15.13-2.09,13.79-2.45,34.88-5.38.9-11.72,1.07-19.01.49.43,2.04.78,3.86,1.03,5.23-1.52-.04-3.88-.12-5.53,2-1.5-2.48-2.8-4.78-3.93-6.92-3.57-6.78-5.36-11.94-5.88-16.23-3.3-25.3,2.93-33.42,18.09-33.54.94,2.5,6.37,4.22,7.96,4.1,1.13-.62,1.7-2.4,2.63-4.04,4.59.94,9.15,3.56,11.64,5.72-2.14-3.59-3.87-7.13-5.2-10.64.5-1.56,1.8-2.79,3.89-3.69,15.84,14.13,21.36,22.88,16.55,26.26-5.08,1.92-11.68.71-19.81-3.63Z" style="fill: #f59b1d; fillRule: evenodd;"/>
    <path d="m60.94,191.43c-5.19.24-9.64.52-11.59.11-2.28-.48-1.52-1.82-.45-3.94,2.03.66,4.06.49,6.11-.51,1.76,1.24,4.3,1.99,7.61,2.24,1.45.94.95,1.89-1.68,2.09h0Zm-42.12.8c-2.9-.82-5.55-1.62-6.65-2.35-1.56-1.03-.72-2.03.79-3.6,1.75,1.22,3.74,1.65,6,1.29,1.59,2.26,6.76,1.31,7.27,2.86.63,2.88-6.03,2.2-7.41,1.81Z" style="fill: #1b2452; fillRule: evenodd;"/>
    <path d="m35.75,105.86c-1.11-5.26-2.83-11.99-5.2-16.28,1.07-4.46,1.17-10.1.86-15.46,1.13,3.99,1.97,9.56,1.61,15.47,1.96,4.38,3.27,9.9,4.11,16.37-.46-.03-.91-.06-1.38-.1h0Zm29.47-38.36c-3.21-4.09-6.39-7.14-9.53-9.16,2.46,1.15,4.63,2.57,6.08,3.83,1.05,1.77,2.21,3.54,3.45,5.32Z" style="fill: #bc772a; fillRule: evenodd;"/>
    <path d="m47.49,60.5c-1.59.12-7.03-1.61-7.96-4.1,1.09-1.6,1.73-3.42,1.86-4.43-.26-.47-.56-1.08-.87-1.82-3.67-1.67-4.4-3.25-2.19-4.72.53.19,1.27.92,2.22,2.19.57-.12.95-.48,1.14-1.09-1.07-2.23-1.84-4.07-2.3-5.5,1.21-2.68,4.94-3.67,10.07-3.87.46,1.3.89,2.68,1.29,4.14,1.03.67,1.43,3.71,1.2,7.34.74,1.91-.3,3.21-3.12,3.87.1.92.71,3.21,1.31,3.95-.94,1.65-1.5,3.42-2.63,4.04Z" style="fill: #fab688; fillRule: evenodd;"/>
    <path d="m49.45,37.15c-5.13.2-8.85,1.19-10.07,3.87.46,1.43,1.22,3.26,2.3,5.5-.2.61-.57.97-1.14,1.09-.95-1.27-1.69-2-2.22-2.19-2.21,1.47-1.48,3.05,2.19,4.72.32.74.61,1.34.87,1.82-3.07-.16-5.99-2.38-6.53-3.47-4.6-6.21-1.25-9.73.63-11.13-.24-6.88,10.55-2.59,14.9-6.67,2.4,2.36.57,6.14-.94,6.46Z" style="fill: #a14527; fillRule: evenodd;"/>
    <path d="m44.91,52.26c.93.19,2.64.38,3.91.24.05.5.26,1.41.53,2.25-1.38-.09-3.76-1.61-4.44-2.5Z" style="fill: #ed7d57; fillRule: evenodd;"/>
    <path d="m18.9,184.85c-.29.89-.41,1.82-.36,2.78-1.84.22-3.52-.11-5.01-.99.44-.82.76-1.72.98-2.69,1.37.58,3.08.89,4.39.89h0Zm30.45,2.88c.1-.85.14-1.67.11-2.47,1.43,0,3-.13,4.3-.51.14,1.07.43,1.91.86,2.53-1.77.77-3.53.92-5.27.46Z" style="fill: #fab688; fillRule: evenodd;"/>
    <path d="m55.72,43.86c3.91-1.3,3.39,1.45,4.01,4.35-1.48.76-2.47,1.72-2.98,2.88-1.03-.72-1.83-.58-2.53-1.69-1.24-1.54-2.77-4.5-1.17-4.68.48,1.3,1.08,1.59,1.82,2.13-.06-.65-.18-1.29-.37-1.92-.22-.83-.7-1.7-1.45-2.62-1.47-.41-2.06-.87-1.77-1.38,1.84-.29,3.32.69,4.44,2.94Z" style="fill: #fab688; fillRule: evenodd;"/>
    <path d="m34.05,116.93l36.18,6.93-3.19,16.68c.04,1.31,1.05,2.93,2.52,3.11,2.56.32,5.19-3.74,9.24-3.23,4.48.57,7.23,5.63,6.27,10.7-.97,5.06-5.41,8.75-9.77,7.62-3.95-1.02-4.89-5.76-7.39-6.41-1.43-.38-2.97.76-3.49,1.97l-3.19,16.68-16.68-3.19c-1.21-.53-2.34-2.06-1.97-3.49.65-2.5,5.39-3.45,6.41-7.39,1.12-4.37-2.56-8.8-7.62-9.77-5.06-.97-10.13,1.79-10.7,6.27-.51,4.04,3.55,6.67,3.23,9.23-.18,1.48-1.8,2.48-3.11,2.52l-16.68-3.19,6.93-36.18c1.15-6.01,7.01-9.99,13.03-8.84Z" style="fill: #98bc67; fillRule: evenodd;"/>
    <path d="m36.59,111.08c.65,2.32,1.09,4.57,1.32,6.76-1.21,3.12-2.7,4.86-4.45,5.22-2.01-.17-2.39-1.71-2.86-2.8,1.19-.92,1.9-2.03,2.1-3.31-1.09-.86-1.36-1.76-.82-2.7-.19-.46-.37-.88-.53-1.27,1.58-1.93,3.75-1.93,5.25-1.9Z" style="fill: #fab688; fillRule: evenodd;"/>
    <path d="m161.1,9.52c-9.59,7.21-11.19,17.4.43,24.03v-6.79c-2.79-2.11-3.89-6.42-2.54-10.39.55-1.6,1.44-3,2.54-4.1-.03-.95-.18-1.88-.43-2.76Z" style="fill: #373694; fillRule: evenodd;"/>
    <path d="m77.01,74.12c-3.2,1.21-7.01,1.18-11.42-.1v3.17c5.83,1.41,10.51,1.23,14.06-.56,4.39-4.61-.3-13.03-14.06-25.26v1.22c11.87,11.37,15.68,18.55,11.42,21.54Z" style="fill: #9588c0; fillRule: evenodd;"/>
  </g>
</svg>