<svg width="24" height="24" viewBox="0 0 24 24" fill="none" xmlns="http://www.w3.org/2000/svg">
<mask id="mask0_1055_270" style="mask-type:luminance" maskUnits="userSpaceOnUse" x="5" y="2" width="15" height="20">
<path d="M13.8789 2H6.33183C5.59932 2 5 2.61364 5 3.36364V20.6364C5 21.3864 5.59932 22 6.33183 22H17.8744C18.6069 22 19.2062 21.3864 19.2062 20.6364V7.45455L13.8789 2Z" fill="white"/>
</mask>
<g mask="url(#mask0_1055_270)">
<path d="M13.8789 2H6.33183C5.59932 2 5 2.61364 5 3.36364V20.6364C5 21.3864 5.59932 22 6.33183 22H17.8744C18.6069 22 19.2062 21.3864 19.2062 20.6364V7.45455L16.0986 5.18182L13.8789 2Z" fill="#0F9D58"/>
</g>
<mask id="mask1_1055_270" style="mask-type:luminance" maskUnits="userSpaceOnUse" x="5" y="2" width="15" height="20">
<path d="M13.8789 2H6.33183C5.59932 2 5 2.61364 5 3.36364V20.6364C5 21.3864 5.59932 22 6.33183 22H17.8744C18.6069 22 19.2062 21.3864 19.2062 20.6364V7.45455L13.8789 2Z" fill="white"/>
</mask>
<g mask="url(#mask1_1055_270)">
<path d="M8.55151 11.7727V18.3636H15.6546V11.7727H8.55151ZM11.6591 17.4545H9.4394V16.3182H11.6591V17.4545ZM11.6591 15.6363H9.4394V14.5H11.6591V15.6363ZM11.6591 13.8182H9.4394V12.6818H11.6591V13.8182ZM14.7667 17.4545H12.547V16.3182H14.7667V17.4545ZM14.7667 15.6363H12.547V14.5H14.7667V15.6363ZM14.7667 13.8182H12.547V12.6818H14.7667V13.8182Z" fill="#F1F1F1"/>
</g>
<mask id="mask2_1055_270" style="mask-type:luminance" maskUnits="userSpaceOnUse" x="5" y="2" width="15" height="20">
<path d="M13.8789 2H6.33183C5.59932 2 5 2.61364 5 3.36364V20.6364C5 21.3864 5.59932 22 6.33183 22H17.8744C18.6069 22 19.2062 21.3864 19.2062 20.6364V7.45455L13.8789 2Z" fill="white"/>
</mask>
<g mask="url(#mask2_1055_270)">
<path d="M14.2684 7.05566L19.2062 12.1102V7.45453L14.2684 7.05566Z" fill="url(#paint0_linear_1055_270)"/>
</g>
<mask id="mask3_1055_270" style="mask-type:luminance" maskUnits="userSpaceOnUse" x="5" y="2" width="15" height="20">
<path d="M13.8789 2H6.33183C5.59932 2 5 2.61364 5 3.36364V20.6364C5 21.3864 5.59932 22 6.33183 22H17.8744C18.6069 22 19.2062 21.3864 19.2062 20.6364V7.45455L13.8789 2Z" fill="white"/>
</mask>
<g mask="url(#mask3_1055_270)">
<path d="M13.8789 2V6.09091C13.8789 6.84432 14.4749 7.45455 15.2107 7.45455H19.2062L13.8789 2Z" fill="#87CEAC"/>
</g>
<mask id="mask4_1055_270" style="mask-type:luminance" maskUnits="userSpaceOnUse" x="5" y="2" width="15" height="20">
<path d="M13.8789 2H6.33183C5.59932 2 5 2.61364 5 3.36364V20.6364C5 21.3864 5.59932 22 6.33183 22H17.8744C18.6069 22 19.2062 21.3864 19.2062 20.6364V7.45455L13.8789 2Z" fill="white"/>
</mask>
<g mask="url(#mask4_1055_270)">
<path d="M6.33183 2C5.59932 2 5 2.61364 5 3.36364V3.47727C5 2.72727 5.59932 2.11364 6.33183 2.11364H13.8789V2H6.33183Z" fill="white" fill-opacity="0.2"/>
</g>
<mask id="mask5_1055_270" style="mask-type:luminance" maskUnits="userSpaceOnUse" x="5" y="2" width="15" height="20">
<path d="M13.8789 2H6.33183C5.59932 2 5 2.61364 5 3.36364V20.6364C5 21.3864 5.59932 22 6.33183 22H17.8744C18.6069 22 19.2062 21.3864 19.2062 20.6364V7.45455L13.8789 2Z" fill="white"/>
</mask>
<g mask="url(#mask5_1055_270)">
<path d="M17.8744 21.8863H6.33183C5.59932 21.8863 5 21.2727 5 20.5227V20.6363C5 21.3863 5.59932 22 6.33183 22H17.8744C18.6069 22 19.2062 21.3863 19.2062 20.6363V20.5227C19.2062 21.2727 18.6069 21.8863 17.8744 21.8863Z" fill="#263238" fill-opacity="0.2"/>
</g>
<mask id="mask6_1055_270" style="mask-type:luminance" maskUnits="userSpaceOnUse" x="5" y="2" width="15" height="20">
<path d="M13.8789 2H6.33183C5.59932 2 5 2.61364 5 3.36364V20.6364C5 21.3864 5.59932 22 6.33183 22H17.8744C18.6069 22 19.2062 21.3864 19.2062 20.6364V7.45455L13.8789 2Z" fill="white"/>
</mask>
<g mask="url(#mask6_1055_270)">
<path d="M15.2107 7.45446C14.4749 7.45446 13.8789 6.84423 13.8789 6.09082V6.20446C13.8789 6.95787 14.4749 7.56809 15.2107 7.56809H19.2062V7.45446H15.2107Z" fill="#263238" fill-opacity="0.1"/>
</g>
<path d="M13.8789 2H6.33183C5.59932 2 5 2.61364 5 3.36364V20.6364C5 21.3864 5.59932 22 6.33183 22H17.8744C18.6069 22 19.2062 21.3864 19.2062 20.6364V7.45455L13.8789 2Z" fill="url(#paint1_radial_1055_270)"/>
<defs>
<linearGradient id="paint0_linear_1055_270" x1="261.183" y1="50.4545" x2="261.183" y2="512.581" gradientUnits="userSpaceOnUse">
<stop stop-color="#263238" stop-opacity="0.2"/>
<stop offset="1" stop-color="#263238" stop-opacity="0.02"/>
</linearGradient>
<radialGradient id="paint1_radial_1055_270" cx="0" cy="0" r="1" gradientUnits="userSpaceOnUse" gradientTransform="translate(50.006 41.5288) scale(2290.73 2345.43)">
<stop stop-color="white" stop-opacity="0.1"/>
<stop offset="1" stop-color="white" stop-opacity="0"/>
</radialGradient>
</defs>
</svg>
