<?xml version="1.0" encoding="utf-8"?>
<!-- Generator: Adobe Illustrator 27.3.1, SVG Export Plug-In . SVG Version: 6.00 Build 0)  -->
<svg version="1.1" id="Layer_1" xmlns="http://www.w3.org/2000/svg" xmlns:xlink="http://www.w3.org/1999/xlink" x="0px" y="0px"
	 viewBox="0 0 264.8 214" style="enable-background:new 0 0 264.8 214;" xml:space="preserve">
<style type="text/css">
	.st0{opacity:0.65;}
	.st1{fill:#86B7F2;}
	.st2{fill:#FFC7EC;}
	.st3{fill:#FFCB80;}
	.st4{fill:#FFFFFF;}
	.st5{fill:#9598B8;}
	.st6{fill:#525675;}
	.st7{fill:#BDE1FF;}
	.st8{fill:#F7BD5A;}
	.st9{fill:#30334D;}
	.st10{fill:#D6DFE8;}
	.st11{fill:#326AB3;}
	.st12{fill:#2A5FA3;}
	.st13{fill:#6692CC;}
	.st14{fill:#E6E8F0;}
	.st15{fill:#FFBC47;}
	.st16{fill:#FFB32E;}
	.st17{fill:#FFB129;}
	.st18{fill:#FFCD75;}
	.st19{fill:#C24E4E;}
	.st20{fill:#FF9C61;}
	.st21{fill:#FFD8D9;}
	.st22{fill:#222438;}
	.st23{fill:#D94559;}
	.st24{fill:#C4626E;}
	.st25{fill:#D7E0FA;}
	.st26{fill:#B53344;}
	.st27{fill:#023D38;}
	.st28{fill:#035924;}
	.st29{fill:#0F7335;}
	.st30{fill:#98BC67;}
	.st31{fill:#7CA346;}
	.st32{fill:#689E06;}
	.st33{fill:#4B7500;}
	.st34{fill:#FF9129;}
	.st35{fill:#F08117;}
</style>
<g class="st0">
	<g>
		<path class="st1" d="M60.7,74.3c-0.7-0.1-4.2-0.9-5-1c-0.5-2.6-1.6-5-3-7.2c3.9-5.9,3.8-4.3-1-9.1c-0.3-0.3-0.8-0.4-1.2-0.1
			c-0.1,0.1-4.1,2.7-4.3,2.8c-2.2-1.4-4.6-2.4-7.2-3c-0.1-0.5-1-4.4-1.1-5c-0.1-0.4-0.5-0.7-0.9-0.7c-6.9,0-5.8-1.2-7.2,5.7
			c-2.6,0.6-5.1,1.6-7.2,3c-0.9-0.3-4.5-3.8-5.4-2.7c-4.8,4.9-4.9,3.3-1,9.1c-1.4,2.2-2.4,4.6-3,7.2c-7,1.4-5.7,0.2-5.7,7.2
			c-0.1,1.4,4.7,1.5,5.7,1.9c0.6,2.6,1.6,5.1,3,7.2c-2.8,5.1-4.7,3.8,0.1,8.2c0.5,0.4,1.3,1.7,2.1,1.1c0.1-0.1,4.1-2.7,4.3-2.8
			c0.1,0,0.1,0.1,0.2,0.1c2.1,1.4,4.5,2.3,7,2.9c0.4,0.9,0.6,5.9,2,5.7c6.9,0,5.8,1.2,7.2-5.7c2.6-0.6,5.1-1.6,7.2-3
			c0.9,0.3,4.5,3.8,5.4,2.7c4.8-4.9,4.9-3.3,1-9.1c1.4-2.2,2.4-4.6,3-7.2c0.8-0.4,5.8-0.5,5.7-2C61.2,79.6,62.1,74.3,60.7,74.3
			L60.7,74.3z M30.8,94.6c-2.7-0.6-5.3-1.9-7.4-3.7l0,0C7.2,76.8,25.8,52,43.9,63.4c12.1,7.6,12.1,7.6,0,0
			C59.6,73.8,49.2,98.6,30.8,94.6z"/>
		<circle class="st1" cx="34.5" cy="77.8" r="9.1"/>
	</g>
	<g>
		<path class="st2" d="M88.1,38.3c-0.4-0.2-2.6-1.2-3.1-1.4c0-1.8-0.3-3.5-0.9-5.1c3.4-3.3,3.1-2.2,0.6-6.1
			c-0.1-0.2-0.5-0.3-0.7-0.2c-0.1,0-3.1,1.2-3.2,1.2c-1.2-1.2-2.7-2.2-4.3-3c0-0.4,0-3,0-3.4c0-0.3-0.2-0.5-0.5-0.6
			c-4.5-0.9-3.6-1.6-5.5,2.7c-1.8,0-3.5,0.3-5.1,0.9c-0.5-0.3-2.4-3.1-3.2-2.5c-3.8,2.5-3.7,1.4-1.9,5.8c-1.2,1.2-2.2,2.7-3,4.3
			c-4.7,0-3.7-0.6-4.7,3.9c-0.3,0.9,2.9,1.7,3.5,2.1c0,1.8,0.3,3.5,0.9,5.1c-2.5,2.9-3.6,1.8-1.1,5.4c0.3,0.4,0.6,1.3,1.2,1
			c0.1-0.1,3.1-1.2,3.2-1.2c0,0,0.1,0.1,0.1,0.1c1.2,1.2,2.6,2.2,4.2,2.9c0.1,0.6-0.4,3.9,0.5,4c4.5,0.9,3.6,1.6,5.5-2.7
			c1.8,0,3.5-0.3,5.1-0.9c0.5,0.3,2.4,3.1,3.2,2.5c3.8-2.5,3.7-1.5,1.9-5.8c1.2-1.2,2.2-2.7,3-4.3c0.6-0.2,3.9,0.5,4-0.5
			C87.6,41.8,89,38.5,88.1,38.3L88.1,38.3z M65.7,47.4c-1.7-0.8-3.2-2-4.3-3.4l0,0c-8.5-11.5,7.1-25.1,17.3-15.1
			c6.8,6.7,6.8,6.7,0,0C87.4,37.8,77.1,52.6,65.7,47.4z"/>
		<circle class="st2" cx="70.4" cy="36.9" r="6.1"/>
	</g>
	<g>
		<path class="st3" d="M46.2,29.6c-0.3-0.1-2-0.4-2.4-0.5c-0.3-1.2-0.7-2.4-1.4-3.4c1.8-2.8,1.8-2-0.5-4.3c-0.1-0.1-0.4-0.2-0.5-0.1
			c-0.1,0-2,1.3-2,1.3c-1-0.7-2.2-1.2-3.4-1.4c0-0.3-0.5-2.1-0.5-2.4c0-0.2-0.2-0.3-0.4-0.3c-3.3,0-2.8-0.6-3.4,2.7
			c-1.2,0.3-2.4,0.8-3.4,1.4c-0.4-0.1-2.1-1.8-2.6-1.3c-2.3,2.3-2.3,1.6-0.5,4.3c-0.7,1-1.2,2.2-1.4,3.4c-3.3,0.7-2.7,0.1-2.7,3.4
			c-0.1,0.7,2.3,0.7,2.7,0.9c0.3,1.2,0.8,2.4,1.4,3.4c-1.3,2.4-2.2,1.8,0,3.9c0.2,0.2,0.6,0.8,1,0.5c0.1-0.1,2-1.3,2-1.3
			c0,0,0.1,0,0.1,0.1c1,0.6,2.2,1.1,3.3,1.4c0.2,0.4,0.3,2.8,0.9,2.7c3.3,0,2.8,0.6,3.4-2.7c1.2-0.3,2.4-0.8,3.4-1.4
			c0.4,0.1,2.1,1.8,2.6,1.3c2.3-2.3,2.3-1.6,0.5-4.3c0.7-1,1.2-2.2,1.4-3.4c0.4-0.2,2.8-0.3,2.7-0.9C46.4,32.2,46.8,29.7,46.2,29.6
			L46.2,29.6z M31.9,39.3c-1.3-0.3-2.5-0.9-3.5-1.7l0,0c-7.7-6.7,1.2-18.5,9.8-13.1c5.7,3.6,5.7,3.6,0,0
			C45.6,29.4,40.7,41.2,31.9,39.3z"/>
		<circle class="st3" cx="33.7" cy="31.3" r="4.3"/>
	</g>
	<path class="st4" d="M240.7,45.8v149.5c0,2.3-1.8,4.1-4,4.1h-193c-2.2,0-4-1.8-4-4.1V45.8c0-2.3,1.8-4.1,4-4.1h193
		C238.9,41.7,240.7,43.6,240.7,45.8L240.7,45.8z"/>
	<path class="st5" d="M249.9,213.6H31.8c-1.7,0-3.1-2.7-3.1-6l0,0c0-3.3,1.4-6,3.1-6h218.1c1.7,0,3.1,2.7,3.1,6l0,0
		C253.1,210.9,251.6,213.6,249.9,213.6z"/>
	<path class="st6" d="M238.5,36.8H41.9c-2,0-3.7,1.7-3.7,3.7v157.3c0,2,1.6,3.7,3.7,3.7h196.5c2,0,3.7-1.6,3.7-3.7V40.5
		C242.1,38.5,240.5,36.8,238.5,36.8L238.5,36.8z M239.7,194.3c0,2.2-1.8,4-4,4H45.4c-2.2,0-4-1.8-4-4V48.8c0-2.2,1.8-4,4-4h190.3
		c2.2,0,4,1.8,4,4L239.7,194.3L239.7,194.3z"/>
	<g>
		<path class="st2" d="M202.5,113.6v5.7c-5.2-0.2-10.3-2-14.3-5.3l3.3-4.7C194.6,112,198.4,113.5,202.5,113.6z"/>
		<path class="st2" d="M202.5,113.6v5.7c-5.2-0.2-10.3-2-14.3-5.3l3.3-4.7C194.6,112,198.4,113.5,202.5,113.6z"/>
		<path class="st7" d="M190.4,108.3l-3.3,4.8c-4.9-4.5-7.7-10.8-7.7-17.5c0-0.2,0-0.4,0-0.6h5.8c0,0.2,0,0.4,0,0.6
			C185.2,100.4,187.1,105,190.4,108.3L190.4,108.3z"/>
		<path class="st7" d="M190.4,108.3l-3.3,4.8c-4.9-4.5-7.7-10.8-7.7-17.5c0-0.2,0-0.4,0-0.6h5.8c0,0.2,0,0.4,0,0.6
			C185.2,100.4,187.1,105,190.4,108.3L190.4,108.3z"/>
		<path class="st2" d="M197.4,78.6c-6.6,2.2-11.4,8.2-12.1,15h-5.8c0.4-4.7,2.1-9,5-12.7c2.9-3.6,6.7-6.3,11.1-7.8L197.4,78.6
			L197.4,78.6z"/>
		<path class="st2" d="M197.4,78.6c-6.6,2.2-11.4,8.2-12.1,15h-5.8c0.4-4.7,2.1-9,5-12.7c2.9-3.6,6.7-6.3,11.1-7.8L197.4,78.6
			L197.4,78.6z"/>
		<path class="st2" d="M227.1,95.7c0,2.3-0.3,4.6-1,6.8l-5.3-2.3c0.4-1.4,0.6-2.9,0.6-4.5c0-5.5-2.6-10.8-6.9-14.2L218,77
			c2.7,2.1,4.9,4.8,6.5,7.8C226.2,88.2,227.1,91.8,227.1,95.7L227.1,95.7z"/>
		<path class="st2" d="M227.1,95.7c0,2.3-0.3,4.6-1,6.8l-5.3-2.3c0.4-1.4,0.6-2.9,0.6-4.5c0-5.5-2.6-10.8-6.9-14.2L218,77
			c2.7,2.1,4.9,4.8,6.5,7.8C226.2,88.2,227.1,91.8,227.1,95.7L227.1,95.7z"/>
		<path class="st7" d="M225.6,103.8c-1.6,4.4-4.5,8.2-8.3,11c-3.9,2.9-8.5,4.4-13.4,4.6v-5.7c7.4-0.3,14-5.2,16.4-12.2L225.6,103.8
			L225.6,103.8z"/>
		<path class="st7" d="M225.6,103.8c-1.6,4.4-4.5,8.2-8.3,11c-3.9,2.9-8.5,4.4-13.4,4.6v-5.7c7.4-0.3,14-5.2,16.4-12.2L225.6,103.8
			L225.6,103.8z"/>
		<path class="st7" d="M216.8,76.2l-3.6,4.5c-3-2-6.4-3-10-3c-0.4,0-0.8,0-1.2,0c-1.1,0.1-2.2,0.2-3.3,0.5l-1.8-5.5
			c1.9-0.5,3.9-0.8,5.9-0.8c0.1,0,0.2,0,0.4,0C208.2,71.9,212.8,73.4,216.8,76.2L216.8,76.2z"/>
		<path class="st7" d="M216.8,76.2l-3.6,4.5c-3-2-6.4-3-10-3c-0.4,0-0.8,0-1.2,0c-1.1,0.1-2.2,0.2-3.3,0.5l-1.8-5.5
			c1.9-0.5,3.9-0.8,5.9-0.8c0.1,0,0.2,0,0.4,0C208.2,71.9,212.8,73.4,216.8,76.2L216.8,76.2z"/>
	</g>
	<path class="st7" d="M61.5,61.9h22.9c2,0,3.7,1.7,3.7,3.7v11.8c0,2-1.7,3.7-3.7,3.7H61.5c-2,0-3.7-1.7-3.7-3.7V65.6
		C57.7,63.6,59.4,61.9,61.5,61.9z"/>
	<path class="st7" d="M113.8,61.9h22.9c2,0,3.7,1.7,3.7,3.7v11.8c0,2-1.7,3.7-3.7,3.7h-22.9c-2,0-3.7-1.7-3.7-3.7V65.6
		C110.1,63.6,111.7,61.9,113.8,61.9z"/>
	<path class="st7" d="M61.5,93.7h22.9c2,0,3.7,1.7,3.7,3.7v11.8c0,2-1.7,3.7-3.7,3.7H61.5c-2,0-3.7-1.7-3.7-3.7V97.4
		C57.7,95.3,59.4,93.7,61.5,93.7z"/>
	<path class="st7" d="M113.8,93.7h22.9c2,0,3.7,1.7,3.7,3.7v11.8c0,2-1.7,3.7-3.7,3.7h-22.9c-2,0-3.7-1.7-3.7-3.7V97.4
		C110.1,95.3,111.7,93.7,113.8,93.7z"/>
	<path class="st7" d="M61.5,125.4h22.9c2,0,3.7,1.7,3.7,3.7v11.8c0,2-1.7,3.7-3.7,3.7H61.5c-2,0-3.7-1.7-3.7-3.7v-11.8
		C57.7,127.1,59.4,125.4,61.5,125.4z"/>
	<path class="st7" d="M117.4,128.8h22.9c2,0,3.7,1.7,3.7,3.7v11.8c0,2-1.7,3.7-3.7,3.7h-22.9c-2,0-3.7-1.7-3.7-3.7v-11.8
		C113.7,130.5,115.3,128.8,117.4,128.8z"/>
	<path class="st7" d="M61.5,157.2h22.9c2,0,3.7,1.7,3.7,3.7v11.8c0,2-1.7,3.7-3.7,3.7H61.5c-2,0-3.7-1.7-3.7-3.7v-11.8
		C57.7,158.9,59.4,157.2,61.5,157.2z"/>
	<path class="st7" d="M117.4,160.6h22.9c2,0,3.7,1.7,3.7,3.7v11.8c0,2-1.7,3.7-3.7,3.7h-22.9c-2,0-3.7-1.7-3.7-3.7v-11.8
		C113.7,162.2,115.3,160.6,117.4,160.6z"/>
	<path class="st7" d="M172.7,167.4h36.6c0.4,0,0.8,0.3,0.8,0.8v0.5c0,0.4-0.3,0.8-0.8,0.8h-36.6c-0.4,0-0.8-0.3-0.8-0.8v-0.5
		C171.9,167.7,172.2,167.4,172.7,167.4z"/>
	<path class="st7" d="M180.7,176.6h20.6c0.4,0,0.8,0.3,0.8,0.8v0.5c0,0.4-0.3,0.8-0.8,0.8h-20.6c-0.4,0-0.8-0.3-0.8-0.8v-0.5
		C179.9,176.9,180.2,176.6,180.7,176.6z"/>
	<g>
		<path class="st8" d="M207,26.4c1.2-10.8-7-18-7.6-18.5c-3.4-2.9-7.1-4.1-9.7-4.6l0,0c-0.1,0-0.2,0-0.2,0s-0.2,0-0.2,0l0,0
			c-2.6-0.4-6.5-0.6-10.7,0.8c-0.7,0.2-11,4-13.8,14.5c-1.6,6.2-0.3,13.2,2.8,17.1c0.5,0.6,1.1,1.3,1.8,2.6c1.8,3.5,1.2,7.2,0.7,9.8
			l10.5,1.9l0.5,0.1l10.2,1.9c0.4-2.7,1.5-6.2,4.4-8.9c1.1-1,2-1.4,2.6-1.8C202.5,38.9,206.3,32.8,207,26.4L207,26.4z"/>
		<path class="st9" d="M170.3,46.4l-1.6,8.5c-0.9,4.7,3.2,9.4,9.1,10.5c5.9,1.1,11.4-1.8,12.3-6.5l1.6-8.5
			C191.7,50.4,170.3,46.4,170.3,46.4z"/>
		<path class="st9" d="M191.2,55.3l-22.3-4.2c-0.7-0.1-1.2-0.8-1.1-1.6l0,0c0.1-0.7,0.9-1.2,1.6-1.1l22.3,4.2
			c0.7,0.1,1.2,0.8,1.1,1.6l0,0C192.7,55,192,55.5,191.2,55.3z"/>
		<path class="st9" d="M190.5,59.4l-22.3-4.2c-0.7-0.1-1.2-0.8-1.1-1.6l0,0c0.1-0.7,0.9-1.2,1.6-1.1l22.3,4.2
			c0.7,0.1,1.2,0.8,1.1,1.6l0,0C191.9,59,191.2,59.5,190.5,59.4z"/>
		<path class="st9" d="M182.3,65c-0.3,1.6-2.4,2.6-4.8,2.1s-4-2.1-3.7-3.7c0.3-1.6,2.4-2.5,4.8-2.1C180.9,61.7,182.6,63.4,182.3,65
			L182.3,65z"/>
		<path class="st9" d="M176.2,49.5l-0.5-0.4c1.6-4.1,5.4-14.3,7.2-22.5c-2.8-0.8-6.1-2.5-6.2-6.3c0-2.1,0.9-4.6,2.2-5.8
			c1.8-1.8,4,0,4.7,1.1c1.2,1.8,1,5.7,0.1,10.3c0.9,0.2,1.7,0.4,2.3,0.5c0.4,0.1,0.8,0.2,1.2,0.2c0.6-5.4,1.6-8.6,3-9.8
			c1.5-1.2,4.4-0.9,5.2,2.1c0.5,1.7,0.2,4.1-0.6,5.9c-1.5,3.1-4.5,3.3-7.2,2.9c-0.5,5.1-0.6,12.5-0.2,23.4l-0.6,0.2
			c-0.4-10.2-0.3-18,0.2-23.7c-0.5-0.1-0.9-0.2-1.3-0.2c-0.6-0.1-1.4-0.3-2.3-0.5C181.7,34.7,178.2,44.3,176.2,49.5L176.2,49.5z
			 M192.5,17.2c-0.8-0.2-1.6,0-2.2,0.5c-1,0.8-2,3.2-2.6,9c2.5,0.3,5.4,0.3,6.6-2.4c0.7-1.4,0.9-3.5,0.5-4.8
			C194.5,18,193.5,17.3,192.5,17.2L192.5,17.2z M180.9,14.7c-0.6-0.1-1.2,0-1.8,0.5c-1,1-1.9,3.2-1.8,4.8c0,3.3,3.1,4.8,5.8,5.6
			c0.9-4.2,1.1-7.8,0-9.4C182.7,15.7,181.8,14.9,180.9,14.7L180.9,14.7z"/>
	</g>
	<g>
		<path class="st1" d="M167,148h83.2c1.1,0,2,0.9,2,2v12.4c0,1.1-0.9,2-2,2H167c-1.1,0-2-0.9-2-2V150C165,148.9,165.9,148,167,148z"
			/>
		<g>
			<path class="st10" d="M250.2,148h-1v4.1c0,5.4-4.4,9.8-9.8,9.8H165v0.5c0,1.1,0.9,2,2,2h83.2c1.1,0,2-0.9,2-2V150
				C252.2,148.9,251.3,148,250.2,148L250.2,148z"/>
		</g>
		<rect x="177.1" y="148" class="st4" width="5.4" height="16.4"/>
		<rect x="185.5" y="148" class="st4" width="5.4" height="16.4"/>
		<g>
			<path class="st4" d="M253.2,200.9v10.6h-30.8c-2.9,0-5.3-2.4-5.3-5.3s2.4-5.3,5.3-5.3H253.2z"/>
			<path class="st11" d="M222.4,200.9c-4.6,0-7.9,5.9-2.5,10.6h33.3v2.1h-87c-1.2,0-2.2-1-2.2-2.2V201c0-1.2,1-2.2,2.2-2.2h87v2.1
				L222.4,200.9L222.4,200.9z"/>
			<g>
				<path class="st12" d="M222.1,200.9c0.1,0,0.2,0,0.4,0h30.8v-2.1h-28.8C223.5,199.2,222.6,200,222.1,200.9L222.1,200.9z"/>
				<path class="st12" d="M219.4,211h-42c-5.1,0-9.2-4.1-9.2-9.2v-3h-1.9c-1.2,0-2.2,1-2.2,2.2v10.3c0,1.2,1,2.2,2.2,2.2h87v-2.1
					h-33.3C219.7,211.3,219.6,211.1,219.4,211L219.4,211z"/>
			</g>
			<path class="st13" d="M217.1,206.2c0,2.9,2.4,5.3,5.3,5.3h30.8v2.1h-30.8c-4.1,0-7.4-3.3-7.4-7.4s3.3-7.4,7.4-7.4h30.8v2.1h-30.8
				C219.5,200.9,217.1,203.3,217.1,206.2L217.1,206.2z"/>
			<rect x="195.1" y="198.8" class="st4" width="2" height="14.8"/>
			<rect x="190.2" y="198.8" class="st4" width="2" height="14.8"/>
			<path class="st4" d="M201.4,207c0-2.4,1.9-4.3,4.3-4.3s4.3,1.9,4.3,4.3s-1.9,4.3-4.3,4.3S201.4,209.3,201.4,207z"/>
			<g>
				<path class="st14" d="M238.4,203h-16.2c-0.2,0-0.4-0.2-0.4-0.4l0,0c0-0.2,0.2-0.4,0.4-0.4h16.2c0.2,0,0.4,0.2,0.4,0.4l0,0
					C238.8,202.8,238.6,203,238.4,203z"/>
				<path class="st14" d="M250,210.6h-18.4c-0.2,0-0.4-0.2-0.4-0.4l0,0c0-0.2,0.2-0.4,0.4-0.4H250c0.2,0,0.4,0.2,0.4,0.4l0,0
					C250.4,210.4,250.2,210.6,250,210.6z"/>
				<path class="st14" d="M238.4,206.9h-10.1c-0.2,0-0.4-0.2-0.4-0.4l0,0c0-0.2,0.2-0.4,0.4-0.4h10.1c0.2,0,0.4,0.2,0.4,0.4l0,0
					C238.8,206.7,238.6,206.9,238.4,206.9z"/>
				<path class="st14" d="M226.3,206.9H222c-0.2,0-0.4-0.2-0.4-0.4l0,0c0-0.2,0.2-0.4,0.4-0.4h4.3c0.2,0,0.4,0.2,0.4,0.4l0,0
					C226.7,206.7,226.6,206.9,226.3,206.9z"/>
				<path class="st14" d="M248.3,206.9H244c-0.2,0-0.4-0.2-0.4-0.4l0,0c0-0.2,0.2-0.4,0.4-0.4h4.3c0.2,0,0.4,0.2,0.4,0.4l0,0
					C248.7,206.7,248.5,206.9,248.3,206.9z"/>
				<path class="st14" d="M245.3,203.4H244c-0.2,0-0.4-0.2-0.4-0.4l0,0c0-0.2,0.2-0.4,0.4-0.4h1.4c0.2,0,0.4,0.2,0.4,0.4l0,0
					C245.7,203.2,245.5,203.4,245.3,203.4z"/>
				<path class="st14" d="M229.6,210.6h-1.4c-0.2,0-0.4-0.2-0.4-0.4l0,0c0-0.2,0.2-0.4,0.4-0.4h1.4c0.2,0,0.4,0.2,0.4,0.4l0,0
					C230,210.4,229.8,210.6,229.6,210.6z"/>
				<path class="st14" d="M252.2,206.9h-1.4c-0.2,0-0.4-0.2-0.4-0.4l0,0c0-0.2,0.2-0.4,0.4-0.4h1.4c0.2,0,0.4,0.2,0.4,0.4l0,0
					C252.6,206.7,252.4,206.9,252.2,206.9z"/>
			</g>
			<polygon class="st11" points="239.6,204.7 239.6,209.3 241.9,207.6 244.2,209.3 244.2,204.7 			"/>
		</g>
		<g>
			<path class="st4" d="M172.4,186.1v10.6h30.8c2.9,0,5.3-2.4,5.3-5.3s-2.4-5.3-5.3-5.3L172.4,186.1L172.4,186.1z"/>
			<path class="st15" d="M203.2,186.1c4.6,0,7.9,5.9,2.5,10.6h-33.3v2.1H260c0.9,0,1.6-0.7,1.6-1.6v-11.5c0-0.9-0.7-1.6-1.6-1.6
				h-87.6v2.1L203.2,186.1L203.2,186.1z"/>
			<g>
				<path class="st16" d="M204.6,186.3c-1-1.1-2.4-1.9-4-1.9h-28.1v1.7h30.8C203.7,186.1,204.1,186.2,204.6,186.3L204.6,186.3z"/>
				<path class="st17" d="M260,184h-1v5.6c0,4.1-3.4,7.5-7.5,7.5h-79.1v1.7H260c0.9,0,1.6-0.7,1.6-1.6v-11.5
					C261.6,184.8,260.9,184,260,184L260,184z"/>
			</g>
			<path class="st18" d="M208.4,191.4c0,2.9-2.4,5.3-5.3,5.3h-30.8v2.1h30.8c4.1,0,7.4-3.3,7.4-7.4s-3.3-7.4-7.4-7.4h-30.8v2.1h30.8
				C206.1,186.1,208.4,188.5,208.4,191.4L208.4,191.4z"/>
			<rect x="228.5" y="184" class="st4" width="2" height="14.8"/>
			<rect x="233.4" y="184" class="st4" width="2" height="14.8"/>
			<path class="st4" d="M215.6,191.4c0-2.2,1.8-4.1,4-4.1s4,1.8,4,4.1s-1.8,4.1-4,4.1S215.6,193.7,215.6,191.4z"/>
			<g>
				<path class="st14" d="M191.9,188.1h-18.1c-0.2,0-0.4-0.2-0.4-0.4l0,0c0-0.2,0.2-0.4,0.4-0.4h18.1c0.2,0,0.4,0.2,0.4,0.4l0,0
					C192.3,188,192.1,188.1,191.9,188.1z"/>
				<path class="st14" d="M204.9,195.7h-20.5c-0.2,0-0.4-0.2-0.4-0.4l0,0c0-0.2,0.2-0.4,0.4-0.4h20.5c0.2,0,0.4,0.2,0.4,0.4l0,0
					C205.3,195.5,205.1,195.7,204.9,195.7z"/>
				<path class="st14" d="M191.9,192h-11.3c-0.2,0-0.4-0.2-0.4-0.4l0,0c0-0.2,0.2-0.4,0.4-0.4h11.3c0.2,0,0.4,0.2,0.4,0.4l0,0
					C192.3,191.8,192.1,192,191.9,192z"/>
				<path class="st14" d="M178.5,192h-4.9c-0.2,0-0.4-0.2-0.4-0.4l0,0c0-0.2,0.2-0.4,0.4-0.4h4.9c0.2,0,0.4,0.2,0.4,0.4l0,0
					C178.9,191.8,178.7,192,178.5,192z"/>
				<path class="st14" d="M202.9,192H198c-0.2,0-0.4-0.2-0.4-0.4l0,0c0-0.2,0.2-0.4,0.4-0.4h4.9c0.2,0,0.4,0.2,0.4,0.4l0,0
					C203.3,191.8,203.1,192,202.9,192z"/>
				<path class="st14" d="M200.1,188.1h-1.6c-0.2,0-0.4-0.2-0.4-0.4l0,0c0-0.2,0.2-0.4,0.4-0.4h1.6c0.2,0,0.4,0.2,0.4,0.4l0,0
					C200.5,188,200.3,188.1,200.1,188.1z"/>
				<path class="st14" d="M182.1,195.7h-1.6c-0.2,0-0.4-0.2-0.4-0.4l0,0c0-0.2,0.2-0.4,0.4-0.4h1.6c0.2,0,0.4,0.2,0.4,0.4l0,0
					C182.5,195.5,182.3,195.7,182.1,195.7z"/>
				<path class="st14" d="M207.3,192h-1.6c-0.2,0-0.4-0.2-0.4-0.4l0,0c0-0.2,0.2-0.4,0.4-0.4h1.6c0.2,0,0.4,0.2,0.4,0.4l0,0
					C207.7,191.8,207.5,192,207.3,192z"/>
			</g>
			<polygon class="st19" points="197.2,189.1 197.2,193.7 195.1,192.1 193.1,193.7 193.1,189.1 			"/>
		</g>
		<path class="st4" d="M196.9,156.2c0-2.4,1.9-4.2,4.2-4.2s4.2,1.9,4.2,4.2s-1.9,4.2-4.2,4.2S196.9,158.5,196.9,156.2z"/>
		<g>
			<path class="st4" d="M253.8,183.6c-0.5-0.2-76.4,0.3-76.7-0.2c-1.8-0.9-3.4-2.3-4.4-4.1h0v-9.7l0,0c1.1-1.9,2.8-3.4,4.8-4.2h76.2
				C251.9,171.3,252.6,177.6,253.8,183.6L253.8,183.6z"/>
			<path class="st20" d="M255,181.6c0.3,0.3,0.4,0.6,0.4,1c0,0.8-0.7,1.5-1.5,1.5h-74c-1.4,0-2.6-0.3-3.8-0.8
				c-0.1-0.1-0.2-0.1-0.4-0.2c-0.1-0.1-0.2-0.1-0.4-0.2c-0.1-0.1-0.2-0.1-0.3-0.2c-0.1-0.1-0.2-0.1-0.3-0.2
				c-0.1-0.1-0.2-0.1-0.2-0.2c-0.1-0.1-0.2-0.1-0.3-0.2c-0.1-0.1-0.1-0.1-0.2-0.2c-0.1-0.1-0.1-0.1-0.2-0.2
				c-0.1-0.1-0.1-0.1-0.2-0.2c-0.1-0.1-0.1-0.1-0.2-0.2c-0.1-0.1-0.1-0.1-0.2-0.2c-0.1-0.1-0.1-0.1-0.2-0.2c0,0,0-0.1-0.1-0.1
				s0-0.1-0.1-0.1c-0.1-0.1-0.1-0.1-0.2-0.2c0-0.1-0.1-0.1-0.1-0.2c0-0.1-0.1-0.1-0.1-0.2c0-0.1-0.1-0.1-0.1-0.2
				c0-0.1-0.1-0.1-0.1-0.2c0-0.1-0.1-0.1-0.1-0.2c0-0.1-0.1-0.1-0.1-0.2c0-0.1-0.1-0.1-0.1-0.2c0-0.1-0.1-0.1-0.1-0.2
				c0-0.1-0.1-0.1-0.1-0.2c0-0.1-0.1-0.1-0.1-0.2c0-0.1-0.1-0.1-0.1-0.2c0,0,0,0,0,0c-0.8-1.4-1.3-3.1-1.3-4.8s0.5-3.4,1.3-4.8
				c0,0,0,0,0,0c0-0.1,0.1-0.1,0.1-0.2c0-0.1,0.1-0.1,0.1-0.2c0-0.1,0.1-0.1,0.1-0.2c0-0.1,0.1-0.1,0.1-0.2c0-0.1,0.1-0.1,0.1-0.2
				c0-0.1,0.1-0.1,0.1-0.2c0-0.1,0.1-0.1,0.1-0.2c0-0.1,0.1-0.1,0.1-0.2c0-0.1,0.1-0.1,0.1-0.2c0-0.1,0.1-0.1,0.2-0.2
				c0-0.1,0.1-0.1,0.1-0.2c0-0.1,0.1-0.1,0.2-0.2c0-0.1,0.1-0.1,0.2-0.2c0.1-0.1,0.1-0.1,0.2-0.2c0.1-0.1,0.1-0.1,0.2-0.2
				c0.1-0.1,0.1-0.1,0.2-0.2c0.1-0.1,0.1-0.1,0.2-0.2c0.1-0.1,0.1-0.1,0.2-0.2c0.1-0.1,0.1-0.1,0.2-0.2c0.1-0.1,0.2-0.1,0.3-0.2
				c0.1-0.1,0.2-0.1,0.2-0.2c0.1-0.1,0.2-0.1,0.3-0.2c0.1-0.1,0.2-0.1,0.3-0.2c0.1-0.1,0.2-0.1,0.4-0.2s0.2-0.1,0.4-0.2
				c1.2-0.5,2.5-0.8,3.8-0.8h74c0.4,0,0.8,0.2,1,0.4c0.3,0.3,0.4,0.6,0.4,1c0,0.8-0.7,1.5-1.5,1.5h-73.7c-0.2,0-0.5,0-0.7,0
				c-0.4,0-0.7,0.1-1,0.2c-0.2,0.1-0.4,0.1-0.5,0.2c-0.2,0.1-0.3,0.1-0.5,0.2c-0.1,0.1-0.2,0.1-0.4,0.2c-0.1,0.1-0.2,0.1-0.4,0.2
				c-0.1,0.1-0.2,0.1-0.3,0.2c-0.1,0.1-0.2,0.1-0.3,0.2c-0.1,0.1-0.2,0.1-0.2,0.2c-0.1,0.1-0.2,0.1-0.2,0.2
				c-0.1,0.1-0.1,0.1-0.2,0.2c-0.1,0.1-0.1,0.1-0.2,0.2c-0.1,0.1-0.1,0.1-0.2,0.2c-0.1,0.1-0.1,0.1-0.2,0.2c0,0.1-0.1,0.1-0.1,0.2
				c0,0.1-0.1,0.1-0.1,0.2c0,0.1-0.1,0.1-0.1,0.2c0,0.1-0.1,0.1-0.1,0.2c0,0.1-0.1,0.1-0.1,0.2c0,0.1-0.1,0.1-0.1,0.2
				c0,0.1-0.1,0.1-0.1,0.2c0,0.1-0.1,0.1-0.1,0.2c0,0.1-0.1,0.1-0.1,0.2c0,0.1-0.1,0.1-0.1,0.2c0,0.1,0,0.1-0.1,0.2
				c0,0.1-0.1,0.1-0.1,0.2c0,0.1,0,0.1-0.1,0.2c0,0.1,0,0.1-0.1,0.2c0,0.1,0,0.1-0.1,0.2c0,0.1,0,0.1-0.1,0.2c0,0.1,0,0.1,0,0.2
				c0,0.1,0,0.1,0,0.2c0,0.1,0,0.1,0,0.2c0,0.1,0,0.1,0,0.2c0,0.1,0,0.1,0,0.2c0,0.1,0,0.1,0,0.2c0,0.1,0,0.1,0,0.2
				c0,0.1,0,0.1,0,0.2c0,0.1,0,0.1,0,0.2c0,0.1,0,0.1,0,0.2c0,0.1,0,0.1,0,0.2c0,0,0,0.1,0,0.1s0,0.1,0,0.1c0,0.1,0,0.1,0,0.2
				c0,0.1,0,0.1,0,0.2c0,0.1,0,0.1,0,0.2c0,0.1,0,0.1,0,0.2c0,0.1,0,0.1,0,0.2c0,0.1,0,0.1,0,0.2c0,0.1,0,0.1,0,0.2
				c0,0.1,0,0.1,0,0.2c0,0.1,0,0.1,0,0.2c0,0.1,0,0.1,0,0.2c0,0.1,0,0.1,0,0.2c0,0.1,0,0.1,0.1,0.2c0,0.1,0,0.1,0,0.2
				c0,0.1,0,0.1,0.1,0.2c0,0.1,0,0.1,0.1,0.2c0,0.1,0,0.1,0.1,0.2c0,0.1,0,0.1,0.1,0.2c0,0.1,0.1,0.1,0.1,0.2c0,0.1,0.1,0.1,0.1,0.2
				c0,0.1,0.1,0.1,0.1,0.2c0,0.1,0.1,0.1,0.1,0.2c0,0.1,0.1,0.1,0.1,0.2c0,0.1,0.1,0.1,0.1,0.2c0,0.1,0.1,0.1,0.1,0.2
				c0,0.1,0.1,0.1,0.1,0.2c0,0.1,0.1,0.1,0.2,0.2c0,0.1,0.1,0.1,0.1,0.2c0.1,0.1,0.1,0.1,0.2,0.2c0.1,0.1,0.1,0.1,0.2,0.2
				c0.1,0.1,0.1,0.1,0.2,0.2c0.1,0.1,0.1,0.1,0.2,0.2c0.1,0.1,0.2,0.1,0.2,0.2s0.1,0.1,0.2,0.2c0.1,0.1,0.2,0.1,0.3,0.2
				s0.2,0.1,0.3,0.2c0.1,0.1,0.2,0.1,0.4,0.2c0.1,0.1,0.2,0.1,0.4,0.2c0.2,0.1,0.3,0.1,0.5,0.2c0.2,0.1,0.4,0.1,0.6,0.2
				c0.4,0.1,0.8,0.1,1.1,0.2c0.2,0,0.4,0,0.6,0H254C254.4,181.2,254.7,181.3,255,181.6L255,181.6z"/>
			<path class="st14" d="M217.3,171h-38c-0.2,0-0.4-0.2-0.4-0.4l0,0c0-0.2,0.2-0.4,0.4-0.4h38c0.2,0,0.4,0.2,0.4,0.4l0,0
				C217.7,170.9,217.5,171,217.3,171z"/>
			<path class="st14" d="M243.8,178.6h-43c-0.2,0-0.4-0.2-0.4-0.4l0,0c0-0.2,0.2-0.4,0.4-0.4h43c0.2,0,0.4,0.2,0.4,0.4l0,0
				C244.2,178.4,244.1,178.6,243.8,178.6z"/>
			<path class="st14" d="M217.3,174.9h-24c-0.2,0-0.4-0.2-0.4-0.4l0,0c0-0.2,0.2-0.4,0.4-0.4h24c0.2,0,0.4,0.2,0.4,0.4l0,0
				C217.7,174.7,217.5,174.9,217.3,174.9z"/>
			<path class="st14" d="M189.7,174.9h-10.9c-0.2,0-0.4-0.2-0.4-0.4l0,0c0-0.2,0.2-0.4,0.4-0.4h10.9c0.2,0,0.4,0.2,0.4,0.4l0,0
				C190.1,174.7,189.9,174.9,189.7,174.9z"/>
			<path class="st14" d="M239.8,174.9H229c-0.2,0-0.4-0.2-0.4-0.4l0,0c0-0.2,0.2-0.4,0.4-0.4h10.9c0.2,0,0.4,0.2,0.4,0.4l0,0
				C240.2,174.7,240.1,174.9,239.8,174.9z"/>
			<path class="st14" d="M233.1,171.4H229c-0.2,0-0.4-0.2-0.4-0.4l0,0c0-0.2,0.2-0.4,0.4-0.4h4.1c0.2,0,0.4,0.2,0.4,0.4l0,0
				C233.5,171.3,233.3,171.4,233.1,171.4z"/>
			<path class="st14" d="M197.1,178.6H193c-0.2,0-0.4-0.2-0.4-0.4l0,0c0-0.2,0.2-0.4,0.4-0.4h4.1c0.2,0,0.4,0.2,0.4,0.4l0,0
				C197.5,178.4,197.3,178.6,197.1,178.6z"/>
			<path class="st14" d="M248.8,174.9h-4.1c-0.2,0-0.4-0.2-0.4-0.4l0,0c0-0.2,0.2-0.4,0.4-0.4h4.1c0.2,0,0.4,0.2,0.4,0.4l0,0
				C249.2,174.7,249,174.9,248.8,174.9z"/>
			<polygon class="st19" points="224.8,176.3 222.3,174.8 219.9,176.3 219.9,170.2 224.8,170.2 			"/>
		</g>
	</g>
	<path class="st15" d="M120.8,25.4l2-2c0.5-0.5,0.5-1.2,0-1.7c-0.5-0.5-1.2-0.5-1.7,0l-2,2l-2-2c-0.5-0.5-1.2-0.5-1.7,0
		c-0.5,0.5-0.5,1.2,0,1.7l2,2l-2,2c-0.5,0.5-0.5,1.2,0,1.7c0.2,0.2,0.5,0.3,0.8,0.3s0.6-0.1,0.8-0.3l2-2l2,2
		c0.2,0.2,0.5,0.3,0.8,0.3s0.6-0.1,0.8-0.3c0.5-0.5,0.5-1.2,0-1.7L120.8,25.4z"/>
	<g>
		<path class="st9" d="M123.2,176.8c0,0-24.3,3.6-23.9,3.4c0.4-0.2,44.6,22.4,44.6,22.4l43.5-19.5l-21.6-6.3L123.2,176.8
			L123.2,176.8z"/>
		<g>
			<path class="st21" d="M132.5,210c-0.1,0-0.2,0-0.4,0c-0.1,0-0.2,0-0.2,0c-6.2,0.1-10.2-0.1-10.2-0.1s-0.3,0.1-0.8,0.2
				c-5.3,1.1-33.9,6.5-31.4-4.2c2.1-9.5,19.3-8.3,26.1-7.4c0,0,0.1,0,0.1,0c1.7,0.2,2.8,0.4,2.8,0.4s3.4-1.5,8.8-3.6
				c0.2-0.1,0.4-0.2,0.7-0.3c17.7-6.9,55-19.9,64.6-12.1l0,0c0.1,0.1,0.2,0.2,0.3,0.3c0,0,0,0,0,0c0.1,0.1,0.2,0.2,0.3,0.3
				c0.1,0.1,0.2,0.2,0.2,0.3c0,0,0.1,0.1,0.1,0.1c0.1,0.1,0.2,0.3,0.3,0.4l0,0c0.1,0.2,0.2,0.3,0.3,0.5c0.1,0.2,0.2,0.3,0.2,0.5
				c0.2,0.4,0.3,0.7,0.4,1.1c0.1,0.4,0.2,0.8,0.2,1.2c0.1,0.7,0.1,1.4,0.1,2C194.2,207.1,152.7,209.7,132.5,210L132.5,210z"/>
			<path class="st22" d="M132.9,212.1l-0.7-2l-0.3-0.9l0,0l-4.7-13.8l-0.7-2c17.7-6.9,56.2-18.6,66-10.4l0,0
				c0.1,0.1,0.2,0.2,0.3,0.3c0,0,0,0,0,0c0.1,0.1,0.2,0.2,0.3,0.3c0.1,0.1,0.2,0.2,0.2,0.3c0,0,0.1,0.1,0.1,0.1
				c0.1,0.1,0.2,0.3,0.3,0.4l0,0c0.1,0.2,0.2,0.3,0.3,0.5c0.1,0.2,0.2,0.3,0.2,0.5c0.2,0.4,0.3,0.7,0.4,1.1c0.1,0.4,0.2,0.8,0.2,1.2
				c0.1,0.7,0.1,1.4,0.1,2C194.2,207.3,153,211.8,132.9,212.1L132.9,212.1z"/>
			<path class="st22" d="M118.4,199c0,0-32.3-6.3-33.7,7.3c-1.5,14.7,37,3.7,37,3.7s-14.9,3.2-14.2-5.1
				C108.2,196.9,118.4,199,118.4,199L118.4,199z"/>
		</g>
		<path class="st21" d="M166.4,143.5c-6.3,8.9-0.7,33.3-0.7,33.3h-42.6c1.2-1.7,4.5-22.7-3-34.3c-12-18.7,0.9-33.2,0.9-33.2
			l17.7-3.2l1.1-5.6l0.8-3.9l0.2-0.9h8l0.3,1.7l0.6,3.7l0.9,5.4l16.3,3.5C167,110.1,180.9,123.1,166.4,143.5L166.4,143.5z"/>
		<path class="st23" d="M166.4,143.5c-6.3,8.9-0.7,33.3-0.7,33.3h-42.6c1-1.4,3.5-16.9-0.3-28.6c-0.7-2-1.6-4-2.7-5.7
			c-12-18.7,0.9-33.2,0.9-33.2l17.7-3.2c0.7,4,10.3,3.7,11.9,0.4l16.3,3.5C167,110.1,180.9,123.1,166.4,143.5L166.4,143.5z"/>
		<path class="st24" d="M123.2,176.8c1-1.4,3.5-16.9-0.3-28.6c8.4-2.4,7,20.9,21,28.6H123.2L123.2,176.8z"/>
		<path class="st21" d="M189.6,162.1c-0.4,2.8-2.4,5.8-5.3,8.7c-7.4,7.6-22.3,7.2-32.6,10l-1.1-5.5c0,0,18.3-5.2,22.3-11.6
			c0.4-0.7,0.7-1.3,0.8-1.9c1.3-6.4-6.1-14.4-6.1-14.4l-0.8-37.2C166.8,110.1,191.8,148,189.6,162.1L189.6,162.1z"/>
		<path class="st23" d="M189.8,162.1c-0.5,2.6-2,5.9-4.6,8.7c-0.3,0.3-0.7,0.3-1.1,0.1l-3.1-2l-8.3-5.4c0.4-0.7,0.6-1.4,0.7-2
			c1.3-6.4-10.6-16.3-10.6-16.3l2.9-35.3c3.8-0.2,10.1,8.6,15.3,19.3c0,0,0,0,0,0C186.8,140.8,191.1,154.7,189.8,162.1L189.8,162.1z
			"/>
		<path class="st21" d="M138.1,175.4l0.2,3.6c0.3-0.1,0.3-0.6,0-0.7c-9.2-1.9-24.2,0.7-31.5-5.5c-4.5-3.8-7-8.6-7.6-12.2
			c-2.2-14,22.1-51.2,22.1-51.2l-0.9,37.2c0,0-7.4,8-6.1,14.4c0.2,1.1,1.1,2.5,2.5,4.1C122.2,171.5,138.1,175.4,138.1,175.4
			L138.1,175.4z"/>
		<path class="st23" d="M114.3,161c0.2,1.1,1.8,2.1,3.1,3.7l-7.7,6.4l-3.1,2.6c-4.5-3.8-7.2-8.8-8.2-12.3
			c-1.5-5.5,0.7-14.8,4.3-24.1c0-0.1,0-0.1,0-0.1c5.6-14,14.5-27.8,19.2-27.9l2.7,37.7C124.7,146.9,112.9,154.6,114.3,161L114.3,161
			z"/>
		<g>
			<path class="st21" d="M198.4,204.7c2.6,10.9-26.6,5.6-32,4.6c-0.6-0.1-0.9-0.2-0.9-0.2s-4.2,0.2-10.7,0.2c-0.1,0-0.3,0-0.4,0
				c-9.3-0.1-23.2-0.6-35.6-2.8c-15.2-2.7-28.2-8-28.2-18c0,0,0,0,0-0.1c0-0.4,0-0.8,0.1-1.2c0,0,0,0,0,0c0.1-0.4,0.1-0.9,0.2-1.3
				c0.1-0.4,0.2-0.8,0.4-1.2c0.1-0.2,0.1-0.3,0.2-0.5c0.1-0.2,0.2-0.3,0.3-0.5l0,0c0.1-0.1,0.2-0.3,0.3-0.4c0,0,0.1-0.1,0.1-0.1
				c0.1-0.1,0.2-0.2,0.2-0.3c0.1-0.1,0.2-0.2,0.3-0.3c0,0,0,0,0,0c1.2-1.1,2.8-1.8,4.8-2.3c13.9-3.1,45.4,7.7,61.4,13.8
				c0.2,0.1,0.5,0.2,0.7,0.3c5.5,2.1,9,3.5,9,3.5s1.1-0.2,2.8-0.4c0,0,0,0,0.1,0C178.6,196.5,196.1,195.1,198.4,204.7L198.4,204.7z"
				/>
			<path class="st9" d="M160.5,192.3l-0.7,2l-4.9,15l-0.7,2.1c-8.5,0-20.6-0.8-32-2.9l0,0c-16.6-3.1-31.6-9-31.5-20c0,0,0,0,0-0.1
				c0-0.4,0-0.8,0.1-1.2c0,0,0,0,0,0c0.1-0.4,0.1-0.9,0.2-1.3c0.1-0.4,0.2-0.8,0.4-1.2c0.1-0.2,0.1-0.3,0.2-0.5
				c0.1-0.2,0.2-0.3,0.3-0.5l0,0c0.1-0.1,0.2-0.3,0.3-0.4c0,0,0.1-0.1,0.1-0.1c0.1-0.1,0.2-0.2,0.2-0.3c0.1-0.1,0.2-0.2,0.3-0.3
				c0,0,0,0,0,0c1.2-1.2,3-2,5.1-2.5C112.2,176.6,144.5,186.3,160.5,192.3L160.5,192.3z"/>
			<path class="st9" d="M168.8,197.9c0,0,32.9-6.7,34.4,7.2c1.7,14.9-37.7,4.1-37.7,4.1s14.4,2.7,13.6-5.8
				C178.4,195.2,168.8,197.9,168.8,197.9L168.8,197.9z"/>
		</g>
		<path class="st4" d="M117.3,140.6h53.5c1.9,0,3.4,1.5,3.4,3.4v34.9c0,1.9-1.5,3.4-3.4,3.4h-53.5c-1.9,0-3.4-1.5-3.4-3.4V144
			C113.9,142.1,115.4,140.6,117.3,140.6z"/>
		<path class="st25" d="M138.7,161.4c0-2.9,2.4-5.3,5.3-5.3s5.3,2.4,5.3,5.3s-2.4,5.3-5.3,5.3S138.7,164.4,138.7,161.4z"/>
		<path class="st25" d="M174.2,144v34.9c0,1.9-1.5,3.4-3.4,3.4h-53.5c-1.9,0-3.4-1.5-3.4-3.4c54.1,2.5,60.3-5.5,56.9-38.3
			C172.7,140.5,174.2,142.1,174.2,144L174.2,144z"/>
		<path class="st26" d="M189.8,162.1c-0.5,2.6-2,5.9-4.6,8.7c-0.3,0.3-0.7,0.3-1.1,0.1l-3.1-2c1.7-2.9,4.1-5.1,5.3-9.6
			c3.1-11.9-4.7-29-5.1-30.1C186.8,140.8,191.2,154.7,189.8,162.1L189.8,162.1z"/>
		<path class="st22" d="M133.9,86c0,0-6.4-6.8-1.2-15.9c0,0,1.6,2.8,3.4,2.1c0,0,0.1-6.6,13.6-8c0,0-1,2.6-0.5,3.3
			c4.4-2,8.8,2.9,13.1,1.1c0,0,1.2,7.7-3.8,12.2c0,0,0.8,2.7-1,5.3C155.8,88.7,133.9,86.1,133.9,86L133.9,86z"/>
		<path class="st21" d="M136,84c0,0-2.9-2.9-3.2-0.1c-0.3,3.3,3.6,5.7,3.6,5.7s1,10.1,9.5,10.1s9.9-10.1,9.9-10.1s4.4-1.2,3.5-5.1
			c-0.4-1.8-2.8,0-2.8,0v-4.8c0,0-2.4,1.2-6.9-0.8c-3.3-1.4-4.5-3.4-7.3-3.3C138.9,75.8,135.8,79.4,136,84L136,84z"/>
	</g>
	<g>
		<path class="st27" d="M47.9,149.8c-2,3.8-3.6,7.7-4.6,11.9c-0.8,3.3-1.1,6.6-1,10c0,3,0.3,5.9,0.6,8.8c0.3,2.7,0.5,5.5,0.4,8.2
			c-0.1,2.8-0.6,5.5-1.7,8.1c-0.1,0.3-0.3,0.7-0.5,1c-0.1,0.2-0.4,0.3-0.6,0.2c-0.2-0.1-0.3-0.4-0.2-0.6c0.5-1.3,1.1-2.6,1.4-4
			c0.3-1.3,0.5-2.6,0.6-4c0.2-2.7,0-5.4-0.3-8.1c-0.3-2.9-0.6-5.8-0.6-8.8c-0.1-3.3,0.2-6.7,1-9.9c0.9-4,2.4-7.8,4.4-11.4
			c0.3-0.5,0.6-1,0.9-1.5C47.8,149.5,48,149.6,47.9,149.8L47.9,149.8L47.9,149.8z"/>
		<path class="st27" d="M48.4,154.5c-1.8,3.3-3.4,6.8-4.6,10.3c-1.2,3.6-2.2,7.2-2.9,10.9c-0.7,3.7-1.2,7.4-1.4,11.2
			c-0.2,3.8-0.2,7.6,0.2,11.4c0.3,3.8,0.9,7.5,1.8,11.2c0.1,0.4,0.2,0.9,0.3,1.4c0.1,0.3,0.4,0.4,0.6,0.3c0.3-0.1,0.3-0.4,0.3-0.6
			c-0.9-3.6-1.6-7.3-1.9-11c-0.4-3.7-0.5-7.5-0.4-11.2c0.1-3.7,0.5-7.4,1.2-11.1c0.6-3.7,1.5-7.3,2.7-10.9c1.1-3.6,2.5-7,4.1-10.4
			c0.2-0.4,0.4-0.8,0.6-1.3C48.9,154.4,48.5,154.2,48.4,154.5L48.4,154.5L48.4,154.5z"/>
		<path class="st27" d="M39.6,140.7c0.8,4.1,1.1,8.3,1.2,12.5c0.2,4.8,0.2,9.6,0.1,14.4c-0.1,5-0.3,9.9-0.4,14.9
			c-0.2,4.7-0.3,9.3-0.2,14c0,3.9,0.2,7.9,0.7,11.8c0.1,0.4,0.1,0.8,0.2,1.2c0.1,0.5,0.9,0.3,0.9-0.2c-0.6-3.7-0.8-7.6-0.9-11.4
			c-0.1-4.6,0-9.3,0.2-13.9c0.1-5,0.3-9.9,0.4-14.9c0.1-4.8,0.2-9.7,0-14.5c-0.2-4.3-0.6-8.5-1.4-12.7c-0.1-0.5-0.2-0.9-0.3-1.4
			C40,140.4,39.6,140.5,39.6,140.7L39.6,140.7L39.6,140.7z"/>
		<path class="st27" d="M32.2,148.1c2.7,3.4,4.6,7.3,5.7,11.5c1.1,4,1.4,8.2,1.4,12.4c0,4.3-0.4,8.6-0.8,12.9c-0.4,4.3-0.9,8.7-1,13
			c-0.1,4.2,0,8.5,0.9,12.6c0.1,0.5,0.2,1,0.4,1.5c0.2,0.5,0.9,0.3,0.8-0.2c-0.2-1-0.4-2.1-0.6-3.1c-0.2-1-0.3-2.1-0.4-3.1
			c-0.2-2.1-0.2-4.2-0.2-6.3c0.1-4.4,0.5-8.7,0.9-13.1s0.8-8.7,0.9-13.1c0.1-4.2-0.2-8.4-1.2-12.5c-1-4.1-2.8-8.1-5.4-11.5
			c-0.3-0.4-0.7-0.9-1.1-1.3C32.3,147.6,32,147.9,32.2,148.1L32.2,148.1L32.2,148.1z"/>
		<path class="st27" d="M32.6,156.8c2.1,3.7,3.8,7.7,4.9,11.8c0.8,3.3,1.2,6.6,1.3,10c0,3-0.2,5.9-0.4,8.9c-0.2,2.7-0.4,5.5-0.2,8.2
			c0.2,2.8,0.8,5.5,1.9,8.1c0.1,0.3,0.3,0.7,0.5,1c0.1,0.2,0.4,0.3,0.6,0.2c0.2-0.1,0.3-0.4,0.2-0.6c-0.6-1.3-1.1-2.6-1.5-4
			c-0.3-1.3-0.6-2.6-0.7-3.9c-0.2-2.7-0.1-5.4,0.1-8.1c0.2-2.9,0.5-5.8,0.4-8.8c0-3.3-0.4-6.7-1.2-9.9c-1-4-2.6-7.8-4.7-11.3
			c-0.3-0.5-0.6-1-0.9-1.5C32.8,156.5,32.6,156.6,32.6,156.8L32.6,156.8L32.6,156.8z"/>
		<path class="st27" d="M51.2,162.2c-3.4,4.7-5.9,10-7.3,15.6c-1.4,5.3-1.8,10.8-1.7,16.3c0,1.5,0.1,3.1,0.2,4.7
			c0.1,0.8,0.1,1.6,0.2,2.4c0.1,0.8,0.1,1.7,0.4,2.5c0.1,0.2,0.2,0.3,0.4,0.3c0.2,0,0.4-0.1,0.4-0.3c0-0.2,0.1-0.4,0.1-0.5
			c0-0.2,0-0.4-0.1-0.5c0-0.4-0.1-0.7-0.1-1.1c-0.1-0.7-0.1-1.4-0.2-2.1c-0.1-1.4-0.2-2.8-0.3-4.2c-0.1-2.7-0.1-5.4,0.1-8.1
			c0.4-5.4,1.6-10.8,3.7-15.8c1.3-3,2.9-6,4.7-8.7C51.9,162.2,51.4,161.9,51.2,162.2L51.2,162.2L51.2,162.2z"/>
		<g>
			<path class="st28" d="M36.8,157c-0.1,0-0.3-0.1-0.4-0.2c0,0.1-0.1,0.3-0.2,0.4c-0.6,1.3-1.9,2.2-3.2,2.6
				c-1.5,0.4-3.1,0.2-4.6-0.2c-2.3-0.7-4.3-2.2-5.8-4c-1.7-2.1-2.6-4.7-3.3-7.3c-0.8-2.6-1.3-5.2-2.5-7.7s-2.9-4.7-5.3-5.8
				c4.2-0.6,8.4-1,12.6-0.6c4.2,0.4,8.4,1.8,11.7,4.3c3.4,2.5,5.2,6.5,6.3,10.6C44.1,156.9,38.8,157.6,36.8,157L36.8,157z"/>
			<path class="st29" d="M36.8,157c-0.1,0-0.3-0.1-0.4-0.2c0,0.1-0.1,0.3-0.2,0.4c-0.2-0.6-0.4-1.1-0.7-1.7c0,0-0.1,0-0.1,0
				c-2.7-1.8-6.1-1.7-9.2-1.6c-0.1,0-0.1-0.1,0-0.1c1.6-0.2,3.3-0.3,4.9-0.2c1.4,0.1,2.8,0.5,4,1.2c-0.4-0.9-0.9-1.8-1.4-2.7h0
				c-3.3-2-7.2-2.7-11-2.1c-0.1,0-0.1-0.1,0-0.2c3.5-0.9,7.4-0.2,10.6,1.5c-1-1.7-2.2-3.4-3.5-4.9c-2.5-1.5-5.6-2.2-8.5-1.7
				c-0.1,0-0.1-0.1,0-0.1c1.6-0.3,3.2-0.3,4.8,0c1,0.2,2,0.5,3,1c-1.1-1.2-2.2-2.3-3.5-3.4c-0.2-0.2-0.4-0.3-0.6-0.5
				c-0.1-0.1-0.2-0.2-0.4-0.2c-0.3-0.2-0.6-0.3-0.9-0.5c-0.5-0.3-1.1-0.5-1.7-0.6c-0.6-0.2-1.3-0.3-1.9-0.3c-0.6,0-1.2,0.1-1.8,0.1
				c0,0,0-0.1,0-0.1c0.6-0.2,1.3-0.2,1.9-0.2c0.6,0,1.3,0.1,1.9,0.2c0.4,0.1,0.8,0.2,1.2,0.3c-2.6-1.8-5.4-3.4-8.3-4.5
				c-0.1,0,0-0.2,0-0.1c2.1,0.7,4.2,1.6,6.1,2.7c-0.1-0.5-0.2-1-0.5-1.4c-0.2-0.5-0.6-1-1-1.4c-0.1-0.1,0-0.2,0.1-0.1
				c0.9,0.8,1.6,1.8,1.8,3c0,0.1,0,0.1,0,0.2c2.6,1.5,5,3.4,7.1,5.6c-0.2-1.4-0.4-2.8-0.9-4.1c-0.4-1.4-1.1-2.8-2.1-3.9
				c-0.1-0.1,0-0.2,0.1-0.1c2.2,2.3,2.9,5.6,3.4,8.7l0,0c0.4,0.4,0.8,0.9,1.2,1.4c0,0,0,0,0,0c0,0,0.1,0.1,0.1,0.1
				c0.1,0.1,0.2,0.2,0.3,0.4c0.5,0.7,1.1,1.4,1.6,2.1c0.4-1.7,0.9-3.5,1-5.3c0.1-1.6-0.1-3.4-0.8-4.8c0-0.1,0.1-0.1,0.1,0
				c0.8,1.5,1.2,3.1,1.1,4.8c-0.1,1.9-0.5,3.9-1,5.7c0,0,0,0.1-0.1,0.1c0.9,1.2,1.6,2.5,2.3,3.9c1-1.5,1.8-3.1,2.3-5
				s0.4-3.7,0.1-5.5c0-0.1,0.1-0.1,0.1,0c0.4,1.8,0.5,3.7,0.1,5.6c-0.4,1.9-1.1,3.7-2.2,5.2c-0.1,0.1-0.1,0.1-0.2,0.1
				C35.9,154.7,36.4,155.8,36.8,157L36.8,157z"/>
		</g>
		<g>
			<path class="st30" d="M47.3,158.8c1-0.1,1.4-0.6,2-0.8c0.2-0.1,0.3-0.1,0.5-0.1l0,0c0.2,0,0.3,0,0.6,0.1c0.1,0,0.3,0.1,0.4,0.1
				c2.7,1.2,5.7-1,7.4-2.6c8.8-8.6,2.4-19.9,12-24.9c-15.5-4-29.8,8.9-28.3,21.8C42.1,155.1,43.6,159,47.3,158.8L47.3,158.8z"/>
			<path class="st31" d="M49.8,157.9c0.2,0,0.3,0,0.6,0.1c0,0,0-0.1,0-0.1c0.2-0.2,0.3-0.5,0.5-0.7c0.2-0.3,0.5-0.6,0.8-0.9
				c0.5-0.5,1-1,1.6-1.4c1.2-0.9,2.5-1.7,3.9-2.1c0.1,0,0-0.1,0-0.1c-1.5,0.4-2.8,1-4.1,1.9c-0.6,0.4-1.2,0.9-1.7,1.4
				c-0.3,0.3-0.5,0.6-0.8,0.9c-0.1,0.1-0.1,0.2-0.2,0.2c0-0.9,0-1.8,0.1-2.7c0.1-0.9,0.2-1.8,0.3-2.7c1.2-1.7,2.9-2.9,4.7-3.8
				c0.9-0.4,1.8-0.8,2.8-1.1c1-0.3,1.9-0.5,2.9-0.7c0.1,0,0-0.1,0-0.1c-1.1,0.1-2.1,0.3-3.1,0.6c-1,0.3-1.9,0.6-2.8,1.1
				c-1.6,0.8-3.1,1.9-4.3,3.2c0.4-2,0.9-4,1.7-5.9c0.2-0.3,0.4-0.7,0.6-1c0.2-0.3,0.5-0.7,0.8-1c0.6-0.6,1.2-1.1,1.9-1.6
				c1.4-0.9,3.2-1.4,4.9-1.3c0.1,0,0.1-0.1,0-0.2c-1.8-0.1-3.5,0.3-5.1,1.1c-0.8,0.4-1.5,1-2.1,1.6c0,0-0.1,0.1-0.1,0.2
				c0.4-0.8,0.8-1.5,1.3-2.3c0.3-0.5,0.7-1,1.1-1.5c0,0,0,0,0,0c0.7-0.9,1.5-1.8,2.4-2.5c0,0,0.1,0,0.1,0c0.2-0.1,0.4-0.3,0.6-0.4
				c0.2-0.1,0.4-0.2,0.6-0.3c0.4-0.2,0.9-0.3,1.3-0.5c0.9-0.3,1.9-0.3,2.8-0.2c0.1,0,0.1-0.1,0-0.1c-1-0.1-2-0.1-2.9,0.1
				c-0.4,0.1-0.9,0.2-1.3,0.4c2-1.5,4.3-2.7,6.8-3.3c0.1,0,0.1-0.2,0-0.1c-2.8,0.5-5.3,1.8-7.5,3.5c-1.1,0.9-2.1,1.8-3,2.9
				c0-2,0.7-3.9,2-5.4c0.1-0.1,0-0.2-0.1-0.1c-1.6,1.6-2.5,3.8-2.4,6.1c0,0,0,0,0,0c-2,2.5-3.5,5.5-4.4,8.7
				c-0.4-0.7-0.8-1.4-1.1-2.2c-0.3-0.8-0.4-1.6-0.5-2.5c-0.1-1.7,0.2-3.4,1-4.9c0-0.1-0.1-0.2-0.1-0.1c-0.9,1.6-1.3,3.2-1.3,5
				c0.1,1.8,0.7,3.7,1.8,5.1c0,0,0.1,0.1,0.1,0.1c-0.6,2.2-1,4.5-1.1,6.7c0,0,0,0,0,0c-0.2-0.1-0.4-0.3-0.5-0.5
				c-0.3-0.3-0.7-0.7-1-1c-0.6-0.7-1.2-1.4-1.8-2.2c-1.1-1.3-2-3.1-1.7-4.8c0,0,0-0.1-0.1,0c-0.2,0.8-0.2,1.6,0,2.4
				c0.3,0.9,0.8,1.7,1.3,2.5c0.6,0.8,1.2,1.7,1.9,2.5c0.3,0.4,0.7,0.8,1.1,1.1c0.2,0.2,0.6,0.6,0.9,0.7
				C49.8,156.4,49.8,157.1,49.8,157.9L49.8,157.9z"/>
		</g>
		<g>
			<path class="st32" d="M45.1,154.3c-2.2,1.1-5.1,0.7-6.7-1.1c-0.1-0.1-0.2-0.2-0.2-0.3c-0.1,0-0.1,0.1-0.2,0.1
				c-1.8,1-4.1,0.3-5.6-1.1c-1.5-1.5-2.1-3.7-2.2-5.8c-0.4-4.9,0-9.2,2.5-13.5c5.1-8.8,13.7-11.2,13.7-11.2
				c-0.9,3.9,3.1,12.5,4.7,17.9C53.6,148,47.4,153.2,45.1,154.3z"/>
			<path class="st33" d="M48.9,145.8c-0.9,0.3-1.8,0.7-2.7,1.1c-1.5,0.7-3,1.4-4.3,2.5c-0.6,0.5-1.2,1-1.8,1.6
				c-0.3,0.3-0.5,0.6-0.8,1c-0.2,0.3-0.4,0.7-0.7,1c0,0-0.1,0.1-0.1,0.1c0,0.1-0.1,0.2-0.1,0.3c-0.1-0.1-0.2-0.2-0.2-0.3
				c-0.1,0-0.1,0.1-0.2,0.1c0.1-0.2,0.2-0.5,0.3-0.7c0.3-0.8,0.5-1.6,0.7-2.4c-0.2-0.1-0.5-0.3-0.7-0.4c-0.3-0.2-0.6-0.4-0.9-0.6
				c-0.6-0.4-1.2-1-1.7-1.5c-0.5-0.6-1-1.2-1.5-1.8c-0.4-0.6-0.8-1.3-1.1-2c0-0.1,0.1-0.1,0.1-0.1c0.7,1.3,1.7,2.5,2.7,3.6
				c0.5,0.5,1.1,1,1.7,1.4c0.3,0.2,0.6,0.4,0.9,0.6c0.1,0.1,0.3,0.2,0.4,0.3c0,0,0.1,0,0.1,0.1c0.3-1.3,0.4-2.5,0.5-3.8
				c-0.1,0-0.2,0.1-0.2,0c-0.7-0.4-1.3-0.9-1.9-1.4c-1-0.9-1.9-2-2.6-3.1c-0.7-1.2-1.2-2.4-1.5-3.8c0-0.1,0.1-0.1,0.1,0
				c1,3.3,3.2,6.2,6.1,8l0,0c0.1-1.5,0.1-3,0.1-4.4c0,0-0.1,0-0.1,0c-0.6-0.5-1.2-1.1-1.7-1.7c-1.8-2.2-2.8-4.9-2.9-7.7
				c0-0.1,0.1-0.1,0.1,0c0.1,0.8,0.2,1.5,0.4,2.2c0.7,2.5,2.2,4.9,4.1,6.6c0-0.6,0-1.3,0.1-2c0.1-1.3,0.2-2.6,0.5-3.9
				c-0.2-0.2-0.4-0.6-0.6-0.9c-0.2-0.3-0.3-0.7-0.5-1c-0.3-0.7-0.4-1.4-0.5-2.1c-0.1-0.8,0-1.5,0.1-2.3c0.1-0.8,0.4-1.5,0.9-2.2
				c0,0,0.1,0,0,0c-0.6,1.4-0.8,3-0.6,4.5c0.1,0.7,0.3,1.3,0.5,1.9c0.1,0.3,0.3,0.6,0.4,0.9c0.1,0.2,0.2,0.3,0.3,0.5
				c0.2-0.9,0.4-1.7,0.7-2.6c0.1-0.2,0.2-0.4,0.2-0.7c0,0,0-0.1,0-0.1c0,0,0,0,0,0c0.2-0.6,0.4-1.1,0.7-1.7c0,0,0,0,0-0.1
				c-0.1-0.4-0.1-0.9-0.1-1.3c0-0.4,0-0.8,0.1-1.2c0.1-0.8,0.4-1.5,0.8-2.3c0,0,0.1,0,0.1,0c-0.3,0.7-0.5,1.5-0.6,2.3
				c0,0.4,0,0.8,0,1.1c0,0.2,0,0.5,0.1,0.7c0.1-0.1,0.1-0.2,0.2-0.4c0.5-1.1,1.1-2.2,1.6-3.3c0-0.1,0.2,0,0.2,0.1
				c-0.6,1.3-1.1,2.6-1.7,3.9c-0.1,0.2-0.2,0.5-0.3,0.7c0.8-0.9,1.8-1.6,2.9-2.1c0.1,0,0.2,0.1,0.1,0.1c-1.4,0.7-2.6,1.7-3.4,3
				c-0.2,0.7-0.5,1.3-0.6,2c-0.3,1.2-0.6,2.5-0.7,3.7c0.5-1.1,1.2-2,2-2.9c1-1.1,2.2-1.9,3.6-2.4c0.1,0,0.1,0.1,0.1,0.1
				c-1.3,0.5-2.5,1.5-3.4,2.5c-1,1.2-1.7,2.6-2.4,4c-0.1,0.8-0.1,1.5-0.1,2.3c0,0.5,0,1,0,1.6c0.2-0.4,0.5-0.9,0.8-1.2
				c0.9-1.2,1.9-2.2,3-3c1.2-0.8,2.5-1.4,3.8-1.8c0.1,0,0.1,0.1,0,0.2c-0.8,0.2-1.5,0.6-2.2,1c-1.2,0.7-2.3,1.5-3.3,2.5
				c-0.9,1-1.6,2.1-2.2,3.4c0,1.5,0,3.1-0.1,4.6c0-0.1,0.1-0.1,0.1-0.2c0.2-0.4,0.5-0.8,0.8-1.2c1-1.5,2.2-2.7,3.7-3.8
				c1.4-1,2.9-1.9,4.6-2.4c0.1,0,0.1,0.1,0,0.1c-0.9,0.4-1.8,0.8-2.6,1.3c-1.5,0.9-2.8,2-3.9,3.3c-0.6,0.6-1.1,1.3-1.6,2
				c-0.2,0.4-0.5,0.7-0.7,1.1c-0.2,0.3-0.3,0.7-0.5,1.1c-0.1,1.1-0.4,2.2-0.7,3.3c0.3-0.4,0.6-0.7,0.9-1
				C42.4,148.1,45.6,146.6,48.9,145.8C49,145.7,49,145.8,48.9,145.8L48.9,145.8z"/>
		</g>
		<g>
			<path class="st28" d="M78.3,159.6c-5.1-0.9-7.8-0.6-12.7,1c-4,1.3-8.1,5-13.1,1.8c-2.1-1.4-2-3.7-1.8-4.7c0-0.3,0.1-0.4,0.1-0.4
				c-0.1-0.1-0.1-0.1-0.2-0.2c-7.1-6.2,1.5-14.1,9.5-13.3C69.2,144.7,75.1,151.1,78.3,159.6L78.3,159.6z"/>
			<path class="st29" d="M73.8,158c-0.2-0.5-0.4-1.1-0.8-1.5c-0.2-0.2-0.3-0.5-0.5-0.7c-0.1-0.1-0.2-0.2-0.3-0.3
				c-0.1-0.1-0.2-0.2-0.3-0.3c0,0,0,0,0-0.1c-0.9-0.4-1.8-0.8-2.8-1c-0.3-0.1-0.6-0.2-0.9-0.2c0.2,0.2,0.3,0.3,0.4,0.5
				c0.3,0.4,0.7,0.8,1,1.2c0.6,0.8,1.1,1.6,1.5,2.6c0,0.1-0.1,0.1-0.1,0.1c-0.5-0.9-1-1.7-1.6-2.5c-0.3-0.4-0.6-0.8-1-1.1
				c-0.3-0.3-0.6-0.6-1-0.9c-1.2-0.3-2.5-0.5-3.7-0.6c2.1,1.3,3.7,3.2,4.6,5.5c0,0.1-0.1,0.2-0.1,0.1c-1.1-2.4-3-4.5-5.3-5.7
				c-1.5,0-3,0.1-4.5,0.5c-0.1,0-0.1,0-0.2,0c2.9,0.8,5.1,3.1,6.9,5.4c0.1,0.1-0.1,0.2-0.1,0.1c-1.1-1.3-2.3-2.5-3.7-3.5
				c-1.2-0.8-2.5-1.4-3.9-1.7c-1.4,0.5-2.8,1.2-4.1,2c3.2,0.3,6.3,2,8,4.7c0.1,0.1-0.1,0.2-0.2,0.1c-1-1.4-2.3-2.6-3.9-3.4
				c-1.4-0.7-3-1.1-4.5-1.1c-0.7,0.4-1.3,0.9-2,1.4c0-0.3,0.1-0.4,0.1-0.4c-0.1-0.1-0.1-0.1-0.2-0.2c0.1-0.1,0.2-0.2,0.3-0.2
				c0.2-0.2,0.5-0.3,0.7-0.5c0,0,0,0,0-0.1c0-0.9,0.1-1.7,0.2-2.6c0.3-1.5,0.9-2.9,1.7-4.2c0.4-0.6,0.9-1.2,1.4-1.7
				c0.5-0.5,1.1-1.1,1.7-1.4c0.1,0,0.1,0.1,0.1,0.1c-0.7,0.7-1.4,1.3-2,2.1c-0.6,0.7-1.1,1.5-1.4,2.4c-0.8,1.6-1.2,3.4-1.2,5.2
				c0.5-0.4,1.1-0.7,1.7-1c0.7-0.4,1.3-0.7,2.1-1c0,0,0,0,0,0c0.5-1.8,1.5-3.4,2.7-4.8c0.6-0.7,1.3-1.3,2.1-1.9
				c0.8-0.5,1.6-1,2.4-1.4c0.1,0,0.2,0.1,0.1,0.1c-3.1,1.5-5.6,4.4-6.7,7.8c0.8-0.3,1.7-0.6,2.5-0.8c0.5-0.1,1.1-0.2,1.6-0.3
				c0,0,0,0,0-0.1c0.2-0.3,0.5-0.6,0.8-1c0.3-0.3,0.5-0.6,0.8-0.9c0.6-0.6,1.2-1.1,1.8-1.6c1.1-0.8,2.4-1.4,3.8-1.4c0,0,0,0,0,0
				c-1.4,0.3-2.6,0.9-3.7,1.7c-0.6,0.5-1.1,1-1.7,1.6c-0.3,0.3-0.5,0.6-0.8,0.9c-0.2,0.2-0.3,0.4-0.5,0.6c1.1-0.1,2.2,0,3.3,0.1
				c0.3,0,0.6,0.1,0.9,0.1c0.2-0.2,0.4-0.3,0.6-0.5c0.2-0.2,0.5-0.3,0.8-0.4c0.5-0.3,1-0.5,1.6-0.6c0.6-0.2,1.2-0.3,1.8-0.4
				c0.6-0.1,1.1-0.1,1.7-0.1c0,0,0,0.1,0,0.1c-0.6,0-1.1,0.2-1.7,0.3c-0.6,0.1-1.1,0.3-1.6,0.5c-0.5,0.2-1.1,0.4-1.5,0.7
				c-0.2,0.1-0.5,0.3-0.7,0.4c-0.1,0.1-0.2,0.1-0.3,0.2c0.5,0.1,1,0.2,1.5,0.3c0,0,0.1,0,0.2,0c0,0,0,0,0,0c0.8,0.2,1.5,0.4,2.3,0.7
				c0.4,0.1,0.8,0.3,1.2,0.4c0,0,0-0.1,0.1-0.1c0.3-0.1,0.6-0.2,0.9-0.2c0.3-0.1,0.5-0.1,0.8-0.1c0.1,0,0.3,0,0.4,0
				c0.1,0,0.3,0,0.4,0c0.3,0,0.6,0.1,0.9,0.1c0,0,0,0.1,0,0.1c-0.3,0-0.6,0-0.9,0c-0.1,0-0.3,0-0.4,0c-0.1,0-0.3,0.1-0.4,0.1
				c-0.3,0-0.5,0.1-0.8,0.2c-0.2,0.1-0.3,0.1-0.5,0.2c1.2,0.5,2.3,1.1,3.2,1.9c0.1,0.1,0,0.2-0.1,0.1c-0.7-0.4-1.4-0.9-2.1-1.2
				c0,0,0.1,0.1,0.1,0.1c0.2,0.2,0.3,0.5,0.5,0.7c0.3,0.5,0.5,1.1,0.6,1.7C73.8,157.9,73.8,157.9,73.8,158L73.8,158z"/>
		</g>
		<g>
			<path class="st30" d="M34.6,159c-0.1,0.1-0.3,0.1-0.4,0.2c0.1,0.1,0.1,0.2,0.2,0.4c0.5,1.3,0.3,2.9-0.4,4.1
				c-0.8,1.4-2,2.4-3.4,3.2c-2.1,1.1-4.6,1.6-6.9,1.4c-2.7-0.3-5.2-1.4-7.6-2.6c-2.4-1.3-4.7-2.7-7.3-3.5c-2.5-0.9-5.4-1.2-7.9-0.2
				c2.5-3.4,5.1-6.8,8.3-9.5c3.2-2.7,7.1-4.8,11.3-5.5c4.2-0.7,8.3,0.8,12,2.8C39.7,153.7,36.4,158,34.6,159L34.6,159z"/>
			<path class="st31" d="M34.6,159c-0.1,0.1-0.3,0.1-0.4,0.2c0.1,0.1,0.1,0.2,0.2,0.4c-0.6-0.2-1.1-0.5-1.7-0.7c0,0-0.1,0-0.1,0.1
				c-3.2,0.6-5.5,3.2-7.5,5.5c-0.1,0.1-0.2,0-0.1-0.1c1-1.3,2-2.6,3.3-3.7c1.1-0.9,2.3-1.7,3.7-2.1c-0.9-0.3-1.9-0.6-2.9-0.9h0
				c-3.8,1-6.9,3.4-9.1,6.5c-0.1,0.1-0.2,0-0.1-0.1c1.8-3.1,5-5.5,8.4-6.6c-2-0.5-4-0.7-6-0.9c-2.8,0.8-5.5,2.5-7.1,4.9
				c0,0.1-0.1,0-0.1-0.1c0.9-1.3,2-2.5,3.3-3.4c0.9-0.6,1.8-1.1,2.7-1.5c-1.6,0-3.2,0-4.8,0.2c-0.2,0-0.5,0.1-0.7,0.1
				c-0.1,0-0.3,0.1-0.4,0.1c-0.3,0.1-0.6,0.2-0.9,0.3c-0.6,0.2-1.1,0.5-1.6,0.8c-0.5,0.3-1.1,0.7-1.5,1.2c-0.4,0.4-0.8,0.9-1.2,1.4
				c0,0-0.1,0-0.1,0c0.3-0.6,0.7-1.1,1.1-1.5c0.4-0.5,0.9-0.9,1.4-1.2c0.3-0.2,0.7-0.4,1.1-0.6c-3.1,0.6-6.2,1.5-9,2.9
				c-0.1,0-0.1-0.1-0.1-0.1c2-1,4.1-1.9,6.2-2.5c-0.4-0.3-0.9-0.5-1.4-0.7c-0.5-0.2-1.1-0.3-1.7-0.3c-0.1,0-0.1-0.1,0-0.1
				c1.2-0.1,2.4,0.1,3.4,0.8c0.1,0,0.1,0.1,0.1,0.1c2.9-0.8,6-1.2,9-1.3c-1.2-0.8-2.3-1.6-3.5-2.2c-1.3-0.6-2.8-1.2-4.3-1.2
				c-0.1,0-0.1-0.2,0-0.2c3.2,0,6.1,1.8,8.6,3.6l0,0c0.6,0,1.2,0,1.9,0.1h0c0.1,0,0.1,0,0.1,0c0.2,0,0.3,0,0.5,0
				c0.9,0.1,1.7,0.2,2.6,0.3c-0.9-1.5-1.8-3.1-3.1-4.4c-1.1-1.2-2.5-2.3-4-2.8c-0.1,0,0-0.1,0-0.1c1.6,0.4,3,1.3,4.2,2.5
				c1.4,1.4,2.4,3,3.5,4.7c0,0,0,0.1,0,0.1c1.5,0.2,2.9,0.6,4.4,1c-0.4-1.8-1-3.5-2-5.1c-1-1.5-2.4-2.9-3.9-3.9
				c-0.1,0,0-0.2,0.1-0.1c1.6,1,3,2.2,4.1,3.8c1.1,1.6,1.9,3.3,2.3,5.2c0,0.1,0,0.2-0.1,0.2C32.4,158.2,33.6,158.6,34.6,159
				L34.6,159z"/>
		</g>
		<g>
			<path class="st28" d="M40.5,160c0,1.1-0.5,1.5-0.6,2.2c0,0.2,0,0.4,0,0.6l0,0c0,0.2,0.1,0.4,0.2,0.6c0.1,0.1,0.1,0.3,0.2,0.4
				c1.6,2.8-0.4,6.2-2,8.2c-8.2,10.5-21.1,4.8-25.5,15.8c-6.1-16.3,6.2-33.1,20.3-33C35.9,154.9,40.4,156,40.5,160L40.5,160z"/>
			<path class="st29" d="M39.9,162.8c0,0.2,0.1,0.4,0.2,0.6c0,0-0.1,0-0.1,0c-0.2,0.2-0.5,0.4-0.7,0.6c-0.3,0.3-0.6,0.6-0.9,0.9
				c-0.5,0.6-1,1.2-1.4,1.9c-0.8,1.4-1.5,2.9-1.8,4.5c0,0.1-0.1,0.1-0.1,0c0.3-1.6,0.8-3.2,1.6-4.6c0.4-0.7,0.8-1.4,1.4-2
				c0.3-0.3,0.5-0.6,0.9-0.9c0.1-0.1,0.2-0.2,0.2-0.3c-1,0.1-1.9,0.2-2.9,0.4c-1,0.2-1.9,0.4-2.8,0.6c-1.6,1.5-2.8,3.5-3.6,5.5
				c-0.4,1-0.6,2.1-0.8,3.1c-0.2,1.1-0.4,2.2-0.5,3.2c0,0.1-0.1,0.1-0.1,0c0-1.2,0.1-2.3,0.3-3.4c0.2-1.1,0.5-2.2,0.8-3.2
				c0.6-1.8,1.6-3.6,3-5c-2.1,0.6-4.2,1.4-6.1,2.5c-0.3,0.3-0.7,0.5-1,0.8c-0.3,0.3-0.6,0.6-1,1c-0.6,0.7-1.1,1.5-1.5,2.3
				c-0.8,1.6-1.1,3.6-0.8,5.4c0,0.1-0.1,0.1-0.2,0c-0.3-1.9-0.1-3.8,0.6-5.6c0.4-0.9,0.9-1.7,1.5-2.4c0-0.1,0.1-0.1,0.1-0.2
				c-0.8,0.5-1.6,1.1-2.3,1.7c-0.5,0.4-1,0.9-1.5,1.3c0,0,0,0,0,0c-0.9,0.9-1.7,1.9-2.5,2.9c0,0,0,0.1,0,0.1
				c-0.1,0.2-0.2,0.5-0.3,0.7c-0.1,0.2-0.2,0.5-0.3,0.7c-0.2,0.5-0.3,1-0.4,1.5c-0.2,1-0.1,2.1,0.1,3.1c0,0.1-0.1,0.1-0.1,0
				c-0.3-1-0.3-2.1-0.2-3.2c0-0.5,0.1-0.9,0.3-1.4c-1.4,2.4-2.4,5-2.7,7.7c0,0.1-0.2,0.1-0.2,0c0.3-3,1.3-5.9,2.9-8.5
				c0.8-1.3,1.7-2.5,2.7-3.5c-2.1,0.2-4.1,1.2-5.6,2.8c-0.1,0.1-0.2,0-0.1-0.1c1.5-1.9,3.8-3.1,6.3-3.2h0c2.5-2.5,5.6-4.4,8.9-5.7
				c-0.8-0.4-1.6-0.7-2.5-0.9c-0.9-0.2-1.8-0.3-2.7-0.3c-1.8,0.1-3.7,0.6-5.2,1.6c-0.1,0.1-0.2-0.1-0.1-0.1c1.6-1.1,3.3-1.8,5.3-1.9
				c1.9-0.1,4.1,0.3,5.7,1.3c0.1,0,0.1,0.1,0.1,0.1c2.3-0.9,4.7-1.5,7.1-2c0,0,0,0,0,0c-0.2-0.2-0.4-0.4-0.5-0.5
				c-0.4-0.3-0.8-0.7-1.2-1c-0.8-0.6-1.7-1.2-2.6-1.7c-1.6-1-3.5-1.8-5.4-1.3c0,0-0.1,0,0-0.1c0.9-0.3,1.7-0.4,2.6-0.3
				c1,0.2,1.9,0.6,2.8,1.1c1,0.5,1.9,1.1,2.9,1.7c0.5,0.3,0.9,0.6,1.3,1c0.2,0.2,0.7,0.5,0.9,0.9C38.2,163,39.1,162.9,39.9,162.8
				L39.9,162.8z"/>
		</g>
		<g>
			<path class="st32" d="M45,159.3c0.1,1,0.6,1.4,0.8,2c0,0.2,0.1,0.3,0.1,0.6l0,0c0,0.2,0,0.3-0.1,0.6c0,0.1-0.1,0.3-0.2,0.4
				c-1.2,2.7,0.9,5.8,2.5,7.5c8.5,9.1,20.1,2.7,25,12.5c4.3-15.6-8.5-30.3-21.6-28.9C48.8,154.1,44.8,155.6,45,159.3L45,159.3z"/>
			<path class="st33" d="M45.8,161.8c0,0.2,0,0.3-0.1,0.6c0,0,0.1,0,0.1,0c0.2,0.2,0.5,0.4,0.7,0.5c0.3,0.2,0.6,0.5,0.9,0.8
				c0.5,0.5,1,1,1.4,1.6c0.9,1.2,1.6,2.6,2.1,4c0,0.1,0.1,0,0.1,0c-0.4-1.5-1-2.9-1.9-4.2c-0.4-0.6-0.9-1.2-1.4-1.7
				c-0.3-0.3-0.6-0.5-0.9-0.8c-0.1-0.1-0.2-0.1-0.2-0.2c0.9,0,1.8,0.1,2.7,0.1c0.9,0.1,1.8,0.2,2.7,0.4c1.7,1.3,2.9,3,3.8,4.9
				c0.4,0.9,0.8,1.9,1,2.9c0.3,1,0.5,2,0.7,3c0,0.1,0.1,0,0.1,0c-0.1-1.1-0.3-2.1-0.5-3.2c-0.3-1-0.6-2-1-2.9
				c-0.8-1.7-1.8-3.2-3.2-4.4c2,0.4,4,1,5.9,1.8c0.3,0.2,0.7,0.4,1,0.6c0.3,0.2,0.7,0.5,1,0.8c0.6,0.6,1.1,1.3,1.5,2
				c0.8,1.5,1.3,3.2,1.2,4.9c0,0.1,0.1,0.1,0.2,0c0.1-1.8-0.2-3.6-1.1-5.1c-0.4-0.8-0.9-1.5-1.6-2.1c0,0-0.1-0.1-0.2-0.1
				c0.8,0.4,1.5,0.9,2.3,1.4c0.5,0.3,1,0.7,1.5,1.1c0,0,0,0,0,0c0.9,0.8,1.8,1.6,2.5,2.5c0,0,0,0.1,0,0.1c0.1,0.2,0.3,0.4,0.4,0.6
				c0.1,0.2,0.2,0.4,0.3,0.6c0.2,0.4,0.3,0.9,0.5,1.4c0.3,0.9,0.3,1.9,0.2,2.9c0,0.1,0.1,0.1,0.1,0c0.1-1,0.1-2,0-3
				c-0.1-0.4-0.2-0.9-0.4-1.3c1.5,2.1,2.7,4.4,3.2,7c0,0.1,0.2,0.1,0.1,0c-0.5-2.8-1.7-5.4-3.4-7.7c-0.9-1.1-1.8-2.1-2.8-3.1
				c2,0,4,0.8,5.4,2.1c0.1,0.1,0.2,0,0.1-0.1c-1.6-1.6-3.8-2.6-6.1-2.5c0,0,0,0,0,0c-2.5-2.1-5.5-3.6-8.7-4.6
				c0.7-0.4,1.4-0.8,2.2-1.1c0.8-0.3,1.7-0.4,2.5-0.5c1.7-0.1,3.5,0.3,5,1.1c0.1,0.1,0.2-0.1,0.1-0.1c-1.6-0.9-3.2-1.4-5.1-1.4
				c-1.8,0-3.7,0.6-5.2,1.7c0,0-0.1,0.1-0.1,0.1c-2.2-0.6-4.5-1-6.8-1.2c0,0,0,0,0,0c0.2-0.2,0.3-0.4,0.5-0.5c0.3-0.3,0.7-0.7,1.1-1
				c0.7-0.6,1.5-1.2,2.3-1.8c1.4-1,3.1-2,4.9-1.6c0,0,0.1,0,0-0.1c-0.8-0.2-1.6-0.3-2.4,0c-0.9,0.3-1.7,0.7-2.5,1.3
				c-0.9,0.6-1.7,1.2-2.5,1.8c-0.4,0.3-0.8,0.7-1.2,1.1c-0.2,0.2-0.6,0.6-0.7,0.9C47.4,161.8,46.6,161.8,45.8,161.8L45.8,161.8z"/>
		</g>
		<g>
			<path class="st34" d="M52.4,213.6H30.9c-2.4,0-4.2-3.8-3.5-7.7l3.2-19.9h22.2l3.2,19.9C56.6,209.8,54.9,213.6,52.4,213.6z"/>
			<path class="st35" d="M56,205.9l-3.2-19.9H30.6l-0.9,5.4H33c9.4,0,17.3,6.8,18.8,16l0.6,3.9c0.1,0.8,0.1,1.5,0.1,2.2
				C54.9,213.5,56.6,209.7,56,205.9L56,205.9z"/>
			<path class="st34" d="M52,187.2H31.3c-1.3,0-2.3-1-2.3-2.3l0,0c0-1.3,1-2.3,2.3-2.3H52c1.3,0,2.3,1,2.3,2.3l0,0
				C54.3,186.2,53.3,187.2,52,187.2z"/>
		</g>
		<g>
			<path class="st30" d="M57.7,190.4c-3.2-6.6-13.7-11.4-17.7-14.6c-4.9-3.8-1.9-12.2,1-12.8c0.2,0,0.3,0,0.5,0c0-0.1,0-0.2,0-0.4
				c0.3-4.3,6.3-8.2,12.7-2.4C62.6,167.9,60.7,187.4,57.7,190.4L57.7,190.4z"/>
			<path class="st31" d="M56.2,182.7c-0.1-0.3-0.3-0.7-0.5-1c0.1,0.4,0.1,0.8,0.2,1.2c0.1,1.1,0,2.2-0.1,3.2c0,0.1-0.2,0.1-0.2,0
				c0.1-1.1,0.1-2.1,0-3.1c-0.1-0.5-0.2-1-0.3-1.5c-0.1-0.5-0.4-1-0.4-1.4c0,0,0,0,0-0.1c-0.1-0.2-0.3-0.5-0.4-0.7
				c-0.3-0.6-0.7-1.1-1-1.7c0,0.1,0,0.3,0,0.4c0,0.5,0.1,1,0,1.6c0,1.1-0.3,2.1-0.6,3.1c0,0.1-0.2,0-0.1-0.1c0.3-1,0.4-2.1,0.4-3.1
				c0-0.5,0-1-0.1-1.5c0-0.3-0.1-0.5-0.1-0.8c-0.1-0.2-0.1-0.5-0.2-0.8c0,0,0,0,0,0c-0.6-1-1.3-2-2-2.9c0.1,1,0,2,0,3
				c-0.1,1.3-0.3,2.7-0.7,4c0,0.1-0.2,0.1-0.2,0c0.3-1.3,0.5-2.6,0.6-3.9c0-1.3-0.1-2.6-0.3-4c-1.1-1.5-2.2-2.9-3.4-4.2
				c0.5,3,0.5,6.1-0.5,9c0,0.1-0.2,0.1-0.2-0.1c0.7-3.2,0.9-6.5,0.1-9.6c-0.1-0.1-0.1-0.2-0.2-0.2c-0.9-0.9-1.8-1.8-2.8-2.6
				c0,0.1,0,0.3,0.1,0.4c0.1,0.5,0.2,0.9,0.2,1.4c0.1,1,0.1,1.9,0.1,2.9c-0.1,1.9-0.5,3.8-1.2,5.6c-0.1,0.2-0.3,0.1-0.3-0.1
				c0.6-1.8,0.9-3.6,1-5.5c0-0.9,0-1.9-0.1-2.8c-0.1-0.5-0.1-0.9-0.2-1.4c-0.1-0.3-0.2-0.7-0.2-1.1c-0.4-0.3-0.9-0.6-1.3-1
				c0.2,0,0.3,0,0.5,0c0-0.1,0-0.2,0-0.4c0.4,0.3,0.9,0.6,1.3,0.9c0-0.1,0.1-0.1,0.2-0.1c4.1-0.9,8.8-0.3,12.5,1.8
				c0.1,0.1,0,0.2-0.1,0.2c-1.9-0.9-3.9-1.5-6-1.7c-2-0.2-4.1-0.1-6.1,0.3c1.1,0.9,2.1,1.9,3.1,2.9c0.1,0,0.1,0.1,0.2,0.2l0,0
				c0,0,0.1,0,0.1,0c3.9-0.1,7.8,1,10.8,3.4c0,0,0,0.1-0.1,0.1c-3.1-2-6.8-3.1-10.4-2.9c1.3,1.4,2.4,2.9,3.5,4.5
				c2.9-0.1,5.9,0.9,8.3,2.6c0.1,0.1,0,0.2-0.1,0.2c-1.2-0.8-2.5-1.4-3.9-1.8c-1.3-0.4-2.6-0.5-3.9-0.5c0.2,0.3,0.4,0.6,0.7,1
				c0.7,1,1.3,2,2,3c0,0,0.1,0,0.1,0c1.2,0.1,2.3,0.6,3.3,1.2c1,0.5,1.9,1.2,2.7,2c0,0,0,0.1-0.1,0.1c-0.8-0.8-1.8-1.4-2.8-1.9
				c-0.9-0.4-1.9-0.6-2.9-0.8c0.5,0.9,1.1,1.8,1.5,2.7c0.1,0.2,0.2,0.4,0.3,0.5c0,0,0,0,0.1,0c1.3,0.8,2.5,1.9,3.4,3.2
				c0,0,0,0.1-0.1,0c-0.9-1-1.9-2-3.1-2.6c0.3,0.7,0.6,1.4,0.9,2.2c0.4,1.1,0.6,2.3,0.9,3.5c0,0,0,0,0,0
				C57.2,185.3,56.7,184,56.2,182.7L56.2,182.7z"/>
		</g>
	</g>
</g>
</svg>
