<svg xmlns="http://www.w3.org/2000/svg" id="Layer_1" data-name="Layer 1" viewBox="0 0 600 109.96">
  <g>
    <path d="m153.8,70.48h21.96v10.19h-36.08v-9.46l21.83-31.43h-21.83v-10.19h36.08v9.46l-21.96,31.43Z" style="fill: #1b1e1d;"/>
    <path d="m253.54,71.06h16.3v9.6h-28.74V29.59h12.44v41.47Z" style="fill: #1b1e1d;"/>
    <path d="m207.6,28.72c-14.48,0-26.21,11.74-26.21,26.21s11.74,26.21,26.21,26.21,26.21-11.74,26.21-26.21-11.74-26.21-26.21-26.21Zm0,39.99c-7.61,0-13.77-6.17-13.77-13.77s6.17-13.77,13.77-13.77,13.77,6.17,13.77,13.77-6.17,13.77-13.77,13.77Z" style="fill: #1b1e1d;"/>
    <path d="m299.75,28.72c-14.48,0-26.21,11.74-26.21,26.21s11.74,26.21,26.21,26.21,26.21-11.74,26.21-26.21-11.74-26.21-26.21-26.21h0Zm0,39.99c-7.61,0-13.77-6.17-13.77-13.77s6.17-13.77,13.77-13.77,13.77,6.17,13.77,13.77-6.17,13.77-13.77,13.77Z" style="fill: #1b1e1d;"/>
  </g>
  <g>
    <path d="m364.53,56.8c1.53,1.21,2.73,2.72,3.64,4.51.9,1.8,1.35,3.71,1.35,5.74,0,2.57-.65,4.89-1.96,6.95-1.32,2.06-3.21,3.69-5.71,4.87-2.5,1.19-5.44,1.78-8.84,1.78h-18.92V29.96h18.19c3.44,0,6.38.57,8.8,1.71s4.24,2.68,5.46,4.62c1.21,1.94,1.81,4.12,1.81,6.54,0,3.01-.81,5.49-2.44,7.46-1.62,1.96-3.77,3.38-6.44,4.25,1.84.29,3.53,1.05,5.05,2.25h0Zm-23.83-4.95h11.13c3.11,0,5.5-.73,7.2-2.18s2.55-3.47,2.55-6.04-.85-4.58-2.55-6.04-4.15-2.18-7.35-2.18h-10.99v16.44h0Zm19.43,21.03c1.84-1.55,2.76-3.71,2.76-6.47s-.97-5.03-2.91-6.66c-1.94-1.62-4.54-2.43-7.79-2.43h-11.5v17.9h11.72c3.3,0,5.86-.78,7.71-2.33h0Z" style="fill: #1b1e1d;"/>
    <path d="m385.3,75.28h17.76v5.38h-24.37V29.96h6.62v45.32h0Z" style="fill: #1b1e1d;"/>
    <path d="m468.17,41.92c2.22-3.95,5.28-7.04,9.13-9.27s8.14-3.35,12.84-3.35c5.52,0,10.35,1.33,14.48,4,4.12,2.67,7.13,6.45,9.03,11.35h-7.93c-1.41-3.05-3.43-5.41-6.08-7.05-2.64-1.65-5.81-2.48-9.49-2.48s-6.72.82-9.53,2.48c-2.81,1.65-5.02,3.99-6.62,7.02-1.6,3.03-2.4,6.59-2.4,10.66s.8,7.55,2.4,10.59c1.6,3.03,3.81,5.37,6.62,7.02,2.81,1.65,5.99,2.48,9.53,2.48s6.85-.81,9.49-2.43c2.64-1.62,4.67-3.97,6.08-7.02h7.93c-1.89,4.85-4.9,8.6-9.03,11.24-4.12,2.64-8.95,3.97-14.48,3.97-4.71,0-8.99-1.1-12.84-3.31-3.85-2.21-6.9-5.28-9.13-9.21-2.23-3.93-3.35-8.36-3.35-13.31s1.12-9.4,3.35-13.35v-.02Z" style="fill: #1b1e1d;"/>
    <path d="m574.14,79.39c-2.64-1.19-4.72-2.84-6.22-4.95-1.5-2.11-2.28-4.55-2.33-7.31h7.05c.24,2.38,1.23,4.38,2.95,6,1.72,1.63,4.23,2.44,7.53,2.44s5.64-.79,7.45-2.37c1.82-1.57,2.73-3.61,2.73-6.08,0-1.94-.53-3.52-1.6-4.73-1.06-1.21-2.4-2.13-4-2.76-1.6-.63-3.76-1.31-6.48-2.04-3.35-.87-6.03-1.74-8.03-2.61-2.02-.87-3.74-2.24-5.17-4.11-1.43-1.86-2.15-4.37-2.15-7.53,0-2.76.7-5.22,2.11-7.35,1.41-2.13,3.38-3.79,5.92-4.95,2.55-1.17,5.47-1.75,8.77-1.75,4.75,0,8.65,1.19,11.68,3.57s4.74,5.53,5.13,9.46h-7.28c-.24-1.94-1.26-3.65-3.05-5.13-1.8-1.48-4.18-2.22-7.13-2.22-2.76,0-5.02.72-6.77,2.15-1.75,1.43-2.62,3.43-2.62,6,0,1.84.52,3.35,1.57,4.51,1.04,1.17,2.33,2.05,3.85,2.66s3.67,1.3,6.44,2.07c3.35.92,6.04,1.83,8.08,2.73s3.79,2.28,5.24,4.15,2.19,4.4,2.19,7.61c0,2.47-.66,4.8-1.96,6.98s-3.25,3.95-5.82,5.31c-2.57,1.36-5.6,2.04-9.09,2.04s-6.34-.59-8.99-1.78h0Z" style="fill: #1b1e1d;"/>
    <g>
      <polygon points="530.1 29.93 523.43 29.93 523.43 51.94 530.1 44.54 530.1 29.93" style="fill: #1b1e1d;"/>
      <polygon points="550.95 80.68 559.62 80.68 536.41 55.33 559.38 29.93 551.02 29.93 530.1 53.46 523.43 60.61 523.43 80.68 530.1 80.68 530.1 62.01 532.1 59.74 550.95 80.68" style="fill: #1b1e1d;"/>
    </g>
    <path d="m433.18,29.35c-14.28,0-25.86,11.57-25.86,25.86s11.57,25.86,25.86,25.86,25.86-11.57,25.86-25.86-11.57-25.86-25.86-25.86Zm0,46.36c-11.33,0-20.51-9.18-20.51-20.51s9.18-20.51,20.51-20.51,20.51,9.18,20.51,20.51-9.18,20.51-20.51,20.51Z" style="fill: #1b1e1d;"/>
  </g>
  <g>
    <path d="m104.85,109.96H5.11c-2.8,0-5.11-2.27-5.11-5.11V5.11C0,2.36,2.27,0,5.11,0h99.69c2.8,0,5.11,2.27,5.11,5.11v99.69c0,2.89-2.27,5.16-5.07,5.16h0Z" style="fill: #2667ff;"/>
    <polygon points="22.65 49.75 50.92 21.17 22.52 21.17 22.65 49.75" style="fill: #add7f6;"/>
    <path d="m80.13,40.11l-11.18,11.18c1.65,1.85,3.61,4.82,3.61,7.48,0,3.19-1.27,5.85-3.32,7.97-1.98,2.06-4.57,3.06-7.63,3.06h-24.28l49.42-48.61h-22.82L22.63,62.29v26.55l15.75-.11h23.2c8.17,0,14.95-2.52,20.59-7.57,5.51-5.04,8.3-13.27,8.3-21.1,0-8.27-4.17-15.24-10.35-19.94h0Z" style="fill: #fff;"/>
  </g>
</svg>