<svg width="41" height="41" viewBox="0 0 41 41" fill="none" xmlns="http://www.w3.org/2000/svg">
<path d="M28.625 16.125C30.6961 16.125 32.375 14.4461 32.375 12.375C32.375 10.3039 30.6961 8.625 28.625 8.625C26.5539 8.625 24.875 10.3039 24.875 12.375C24.875 14.4461 26.5539 16.125 28.625 16.125Z" fill="#A83229"/>
<path d="M26.125 39.875H4.875L15.5 29.25L26.125 39.875Z" fill="#4A9BF6"/>
<path d="M39.875 4.875V36.125C39.875 37.1196 39.4799 38.0734 38.7767 38.7767C38.0734 39.4799 37.1196 39.875 36.125 39.875H33.625L19.25 25.5L24.0063 20.7437C25.4457 22.6211 26.9876 24.4176 28.625 26.125C28.625 26.125 37.375 17.2063 37.375 12.375C37.3758 10.976 37.0392 9.59746 36.3938 8.35625L39.875 4.875Z" fill="#D3D9F2"/>
<path d="M39.8748 4.875L36.3936 8.35625C35.5647 6.74614 34.2537 5.43511 32.6436 4.60625L36.1248 1.125C37.1194 1.125 38.0732 1.52009 38.7765 2.22335C39.4797 2.92661 39.8748 3.88044 39.8748 4.875Z" fill="#FFDF64"/>
<path d="M33.625 39.875H26.125L15.5 29.25L19.25 25.5L33.625 39.875Z" fill="#F7F7FF"/>
<path d="M24.0063 20.7434L19.25 25.4996L15.5 29.2496L4.875 39.8746C3.88044 39.8746 2.92661 39.4795 2.22335 38.7763C1.52009 38.073 1.125 37.1192 1.125 36.1246L21.0562 16.1934C21.9076 17.7916 22.8946 19.3139 24.0063 20.7434Z" fill="#FFDF64"/>
<path d="M36.125 1.125L32.6438 4.60625C31.3104 3.91508 29.8216 3.57895 28.3206 3.63026C26.8197 3.68156 25.3573 4.11857 24.0743 4.89918C22.7913 5.67978 21.7309 6.77767 20.9954 8.08706C20.2599 9.39644 19.8741 10.8732 19.875 12.375C19.9721 13.7214 20.3762 15.0277 21.0562 16.1938L1.125 36.125V4.875C1.125 3.88044 1.52009 2.92661 2.22335 2.22335C2.92661 1.52009 3.88044 1.125 4.875 1.125H36.125Z" fill="#28BE77"/>
<path d="M36.3938 8.3558C37.0392 9.59702 37.3758 10.9756 37.375 12.3746C37.375 17.2058 28.625 26.1246 28.625 26.1246C26.9876 24.4171 25.4457 22.6207 24.0063 20.7433C22.8946 19.3138 21.9076 17.7916 21.0562 16.1933C20.3762 15.0272 19.9721 13.7209 19.875 12.3746C19.8766 10.4149 20.536 8.51257 21.7475 6.97232C22.959 5.43206 24.6525 4.34306 26.5566 3.87983C28.4607 3.4166 30.4652 3.60594 32.2488 4.41752C34.0325 5.2291 35.4921 6.61594 36.3938 8.3558ZM32.375 12.3746C32.375 11.6329 32.1551 10.9079 31.743 10.2912C31.331 9.67448 30.7453 9.19384 30.0601 8.91001C29.3748 8.62618 28.6208 8.55192 27.8934 8.69661C27.166 8.84131 26.4978 9.19846 25.9733 9.7229C25.4489 10.2474 25.0917 10.9155 24.9471 11.643C24.8024 12.3704 24.8766 13.1244 25.1605 13.8096C25.4443 14.4948 25.9249 15.0805 26.5416 15.4926C27.1583 15.9046 27.8833 16.1246 28.625 16.1246C29.6196 16.1246 30.5734 15.7295 31.2767 15.0262C31.9799 14.3229 32.375 13.3691 32.375 12.3746Z" fill="#D73D3F"/>
<path d="M7.375 37.375L4.875 39.875H26.125L23.625 37.375H7.375Z" fill="#3B7CC4"/>
<path d="M36.125 37.375H31.125L33.625 39.875H36.125C37.1196 39.875 38.0734 39.4799 38.7767 38.7767C39.4799 38.0734 39.875 37.1196 39.875 36.125V33.625C39.875 34.6196 39.4799 35.5734 38.7767 36.2767C38.0734 36.9799 37.1196 37.375 36.125 37.375Z" fill="#AEB2D4"/>
<path d="M39.3232 5.42687C39.684 6.01264 39.8751 6.68706 39.8751 7.375V4.875L39.3232 5.42687Z" fill="#B8BCE0"/>
<path d="M36.125 3.625C36.7679 3.62557 37.3998 3.79164 37.96 4.10723C38.5201 4.42281 38.9895 4.87728 39.3231 5.42687L39.875 4.875C39.875 3.88044 39.4799 2.92661 38.7767 2.22335C38.0734 1.52009 37.1196 1.125 36.125 1.125L33.625 3.625H36.125Z" fill="#FFB844"/>
<path d="M23.625 37.375L26.125 39.875H33.625L31.125 37.375H23.625Z" fill="#CACFE8"/>
<path d="M4.875 37.3751C4.23209 37.3745 3.60015 37.2085 3.04003 36.8929C2.4799 36.5773 2.01045 36.1228 1.67688 35.5732L1.125 36.1251C1.125 37.1197 1.52009 38.0735 2.22335 38.7768C2.92661 39.48 3.88044 39.8751 4.875 39.8751L7.375 37.3751H4.875Z" fill="#FFB844"/>
<path d="M1.125 33.625V36.125L1.67688 35.5731C1.31612 34.9874 1.12506 34.3129 1.125 33.625Z" fill="#1FA463"/>
<path d="M4.875 3.625H33.625L36.125 1.125H4.875C3.88044 1.125 2.92661 1.52009 2.22335 2.22335C1.52009 2.92661 1.125 3.88044 1.125 4.875V7.375C1.125 6.38044 1.52009 5.42661 2.22335 4.72335C2.92661 4.02009 3.88044 3.625 4.875 3.625Z" fill="#1FA463"/>
<path d="M8.62539 14.25C7.67409 14.2501 6.73831 14.0089 5.90557 13.549C5.07283 13.089 4.37033 12.4254 3.86378 11.6202C3.35723 10.815 3.06316 9.89448 3.00909 8.94471C2.95502 7.99495 3.14271 7.04699 3.55461 6.18948C3.96651 5.33197 4.58915 4.59294 5.36432 4.04149C6.13948 3.49004 7.04184 3.1442 7.987 3.0363C8.93216 2.9284 9.88925 3.06197 10.7688 3.42453C11.6483 3.78708 12.4215 4.36677 13.016 5.10938L11.0629 6.67188C10.6359 6.13931 10.0462 5.76123 9.384 5.5954C8.72182 5.42957 8.02356 5.48513 7.39593 5.75359C6.7683 6.02204 6.24584 6.48862 5.90839 7.08201C5.57095 7.6754 5.43709 8.36296 5.52726 9.03961C5.61744 9.71625 5.92669 10.3448 6.40776 10.8291C6.88883 11.3134 7.51525 11.6268 8.19127 11.7216C8.8673 11.8163 9.55574 11.687 10.1514 11.3536C10.747 11.0201 11.2171 10.5008 11.4898 9.875H8.62539V7.375H13.0004C13.3319 7.375 13.6499 7.5067 13.8843 7.74112C14.1187 7.97554 14.2504 8.29348 14.2504 8.625C14.2486 10.1163 13.6554 11.546 12.6009 12.6005C11.5464 13.655 10.1167 14.2482 8.62539 14.25Z" fill="#F7F7FF"/>
<path d="M28.625 11.1253C29.3997 11.1262 30.1552 11.367 30.7875 11.8147C31.4199 12.2624 31.898 12.8949 32.1563 13.6253C32.3585 13.0594 32.4218 12.4531 32.3407 11.8576C32.2597 11.2621 32.0367 10.6948 31.6906 10.2034C31.3444 9.71213 30.8852 9.31121 30.3517 9.03448C29.8182 8.75774 29.226 8.61328 28.625 8.61328C28.024 8.61328 27.4318 8.75774 26.8983 9.03448C26.3648 9.31121 25.9056 9.71213 25.5595 10.2034C25.2133 10.6948 24.9903 11.2621 24.9093 11.8576C24.8282 12.4531 24.8915 13.0594 25.0937 13.6253C25.352 12.8949 25.8301 12.2624 26.4625 11.8147C27.0948 11.367 27.8503 11.1262 28.625 11.1253Z" fill="#91323C"/>
<path d="M20 13.4434C19.9193 13.9162 19.8775 14.3949 19.875 14.8746C19.8973 15.5872 20.0384 16.291 20.2925 16.9571L21.0562 16.1934C20.5849 15.3271 20.2297 14.4025 20 13.4434Z" fill="#1FA463"/>
<path d="M37.2454 13.459C36.1761 18.4252 28.6248 26.1246 28.6248 26.1246C26.9874 24.4172 25.4455 22.6207 24.0061 20.7434L22.9561 21.7934C23.2992 22.2852 23.6486 22.7721 24.0061 23.2434C25.4455 25.1207 26.9874 26.9172 28.6248 28.6246C28.6248 28.6246 37.3748 19.7059 37.3748 14.8746C37.3706 14.4 37.3273 13.9265 37.2454 13.459Z" fill="#AEB2D4"/>
<path d="M21.0567 16.1934L20.293 16.9571C20.5066 17.553 20.7618 18.1332 21.0567 18.6934C21.6202 19.7679 22.2549 20.8036 22.9567 21.7934L24.0067 20.7434C22.8951 19.3139 21.9081 17.7916 21.0567 16.1934Z" fill="#FFB844"/>
</svg>
