<svg xmlns="http://www.w3.org/2000/svg" viewBox="0 0 400 250">
  <defs>
    <style>
      .cls-1, .cls-2, .cls-3, .cls-4, .cls-5, .cls-6 {
        fill: none;
      }

      .cls-1, .cls-7, .cls-8, .cls-9, .cls-10, .cls-11 {
        stroke-miterlimit: 10;
      }

      .cls-1, .cls-7, .cls-8, .cls-9, .cls-10, .cls-11, .cls-3, .cls-4, .cls-6 {
        stroke: #2b2b2b;
      }

      .cls-1, .cls-7, .cls-9, .cls-6 {
        strokeWidth: 2px;
      }

      .cls-12 {
        fill: #1b1e1d;
      }

      .cls-12, .cls-13, .cls-14, .cls-15, .cls-16, .cls-17, .cls-18, .cls-19 {
        strokeWidth: 0px;
      }

      .cls-2, .cls-3, .cls-4, .cls-5, .cls-6 {
        strokeLinecap: round;
        strokeLinejoin: round;
      }

      .cls-2, .cls-5 {
        stroke: #1b1e1d;
      }

      .cls-7 {
        fill: #fff;
      }

      .cls-13, .cls-11 {
        fill: #add7f6;
      }

      .cls-14 {
        fill: #1b5de0;
      }

      .cls-20 {
        isolation: isolate;
      }

      .cls-15, .cls-18 {
        fill: #80b0ce;
      }

      .cls-8, .cls-16 {
        fill: #b6e3ff;
      }

      .cls-9, .cls-17 {
        fill: #2667ff;
      }

      .cls-10 {
        fill: #007dfe;
      }

      .cls-3 {
        strokeWidth: .75px;
      }

      .cls-5 {
        strokeWidth: .5px;
      }

      .cls-18 {
        opacity: .47;
      }

      .cls-19 {
        fill: #d0ad89;
        mix-blend-mode: screen;
      }
    </style>
  </defs>
  <g class="cls-20">
    <g id="Layer_1" data-name="Layer 1">
      <path class="cls-8" d="m291.99,218.11s-17.55,16.15-133.39,14.76c-110.3-1.32-130.36-4.91-139.82-14.76,0,0,7.83-17.31,35.53-29.41,0,0,14.7-7.14,45.95-11.78,2.4-.36,4.89-.71,7.49-1.03,45.42-5.65,111.26-7.16,149.6,9.78,9.4,4.14,17.13,9.4,22.52,15.96,4.03,4.93,8.5,10.05,12.12,16.48Z"/>
      <path class="cls-18" d="m231.55,194.77c-.52.93-.49,2.08-.38,3.23.45-1.65.98-3.28,1.83-4.67-.6.37-1.11.84-1.45,1.44Z"/>
      <path class="cls-18" d="m100.19,203.83c8.78.62,17.77,1.22,26.37,3.23,1.67.39,3.33.88,4.79,1.82,1.5.97,2.33,2.92,3.8,3.78,2.16,1.27,5.99.37,8.26-.12,6.84-1.47,12.9-4.7,20.07-4.54,7,.16,13.67,1.93,20.01,4.83,2.63,1.2,5.05,2.93,8.07,2.34,2.25-.44,4.25-1.88,6.07-3.19,4.15-2.99,8.02-6.65,13.1-7.99,3.85-1.01,9.19.41,12.68-1.59,2.4-1.37.9-4.9,1.18-7.25.34-2.83,1.83-5.23,4.16-6.86,2.11-1.48,4.62-2.23,7.07-2.89.51-.14,1.23-.5,1.75-.52-.51-.72-.78-1.48-1.6-2.13-2.61-2.07-6.1-3.48-9.04-5.03-.2-.1-.39-.2-.59-.3-37.19-8.14-83.86-5.91-118.6-.83-2.59.38-5.09.78-7.49,1.21,4.43,3.15,8.7,7.6,2.3,10.04-10.67,4.1-26.97,12.16-15.41,14.93,2.73.65,6.7,1.1,11.18,1.49.49-.31,1.1-.47,1.86-.42Z"/>
      <line class="cls-1" x1="192.07" y1="188.3" x2="253.97" y2="192.1"/>
      <path class="cls-9" d="m186.63,70.56c-9.78-23.24-22.77-36.78-43.91-31.7-34.92,8.38-52.91,58.14-40.19,111.14,12.72,53,36,52.4,70.91,44.01,24.28-5.83,35.25-10.87,35.41-31.22.04-5.78-.82-11.53-2.37-17.1-4.86-17.39-19.44-69.81-19.85-75.14"/>
      <path class="cls-14" d="m173.17,183.9c-16.04-.68-25.61.87-38.9-9.4-11.01-8.5-15.77-20.95-19.78-33.87-5.15-16.6-2.34-39.47-.08-56.27,1.52-11.31,3.67-22.94,8.05-33.59-20.16,19.43-28.51,58.02-18.79,98.52,12.63,52.62,35.74,52.02,70.41,43.7,13.18-3.16,22.41-6.09,28.1-11.4-7.1,1.01-21.91,2.6-29.01,2.3Z"/>
      <path class="cls-6" d="m189.78,134.45s-14.71-17.74-30.59,3.54"/>
      <path class="cls-14" d="m271.84,188.83c-4.89,4.57-10.49,8.63-17.25,8.23,1.13,2.06,3.31,3.46,5.81,3.46h15.19v-15.85c-1.12,1.46-2.36,2.86-3.76,4.16Z"/>
      <line class="cls-1" x1="148.97" y1="198.15" x2="213.61" y2="201.95"/>
      <line class="cls-4" x1="105.49" y1="160.78" x2="86.35" y2="188.3"/>
      <path class="cls-4" d="m86.25,188.3c0-1.57-5.09-2.83-11.37-2.83s-11.37,1.27-11.37,2.83h22.74Z"/>
      <path class="cls-4" d="m123.38,139.74s11.19,75.87,127.07-23.41"/>
      <line class="cls-4" x1="265.02" y1="108.1" x2="350.07" y2="24.12"/>
      <line class="cls-4" x1="230.39" y1="139.74" x2="254.27" y2="118.23"/>
      <path class="cls-4" d="m252.9,107.64s28.17-.82,23.83,7.25-25.07,4.55-26.58.74-.6-16.97,12.41-14.23c13,2.74-9.66,6.24-9.66,6.24Z"/>
      <line class="cls-3" x1="350.07" y1="24.12" x2="350.32" y2="112.69"/>
      <g>
        <path class="cls-12" d="m365.84,125.75c-.13-.12-.27-.16-.44-.12-.02-.21-.06-.42-.12-.63-.15-.51-.38-.98-.6-1.46-.36-.78-.68-1.58-1.04-2.37-.39-.85-.8-1.7-1.29-2.48-.25-.39-.51-.76-.79-1.13-.28-.37-.61-.76-.77-1.22-.25-.74-.08-1.61-.61-2.23-.22-.27-.51-.46-.78-.66-.3-.22-.54-.47-.72-.82-.24-.45-.42-.94-.62-1.41-.21-.51-.41-1.03-.61-1.55-.33-.86-.66-1.73-1.02-2.58-.01-.52-.09-1.1-.58-1.33-.46-.21-1.01-.15-1.48-.04-.47.11-.93.28-1.39.45-.4.14-.81.25-1.21.36-.89.26-1.84.53-2.61,1.11-.27.2-.52.46-.68.77-.24-.01-.54.11-.74.19-.33.13-.65.31-.96.5-.31.2-.61.42-.89.65-.22.18-.47.37-.65.61-.06.08-.11.16-.15.25-.05-.08-.11-.15-.16-.21-.05-.05-.11-.05-.17,0-.34.27-.74.59-.88,1.04-.17.58.29,1.05.59,1.47.32.45.66.89.96,1.37.1.16.2.32.28.49.37.97.72,1.95,1,2.96.16.58.3,1.17.42,1.77.1.52.18,1.05.16,1.58-.02.6-.22,1.14-.48,1.67-.26.54-.57,1.04-.91,1.52-.69.99-1.46,1.93-2.24,2.83-.85.98-1.74,1.92-2.67,2.81-.9.86-1.97,1.47-2.95,2.2-1.73,1.28-3.18,3-3.89,5.18-.34,1.05-.49,2.12-.48,3.24,0,.52.03,1.05.12,1.56.03.15.06.31.1.47-.34.16-.45.54-.38.96.05.25.14.49.23.73.1.27.2.54.33.8.23.46.54.79,1.01.95.67.23,1.44.22,2.13.15.78-.07,1.55-.26,2.3-.48.84-.24,1.68-.51,2.5-.82,1.68-.62,3.33-1.36,4.95-2.14,1.56-.74,3.08-1.57,4.54-2.52.73-.48,1.45-.99,2.14-1.54.63-.5,1.29-1.01,1.82-1.65.9-1.09,1.44-2.52,2.54-3.41.69-.55,1.48-.96,2.26-1.34.78-.38,1.58-.71,2.37-1.07.79-.36,1.56-.74,2.31-1.2.55-.34,1.14-.74,1.44-1.38.23-.5.18-1.01.05-1.53-.11-.45-.27-1-.6-1.32Z"/>
        <path class="cls-16" d="m366.02,126.88c.14.41.29.91.19,1.35-.14.64-.73,1.03-1.22,1.34-.7.45-1.44.82-2.18,1.16-1.47.68-2.99,1.26-4.36,2.16-.58.38-1.09.83-1.51,1.4-.39.53-.72,1.1-1.07,1.65-.39.61-.84,1.13-1.37,1.59-.62.54-1.26,1.05-1.92,1.52-1.34.97-2.75,1.81-4.19,2.56-1.47.77-2.97,1.45-4.49,2.09-1.53.66-3.09,1.23-4.69,1.66-.72.2-1.46.36-2.2.41-.63.04-1.34.04-1.94-.21-.44-.19-.68-.6-.87-1.05-.18-.42-.45-.92-.46-1.38,0-.19.08-.31.21-.38.07.18.15.36.27.5.46.52,1.3.48,1.9.44.74-.05,1.49-.19,2.22-.34,2.36-.5,4.58-1.59,6.77-2.64,2.26-1.08,4.46-2.36,6.55-3.79.53-.36,1.05-.74,1.57-1.12.48-.36.96-.72,1.4-1.14.38-.37.73-.79,1.05-1.23.35-.49.67-.99,1.08-1.42,1.58-1.69,3.76-2.39,5.65-3.53.47-.28.92-.6,1.34-.95.12-.1.09-.38-.08-.26-1.77,1.36-3.9,2.01-5.72,3.28-.46.32-.89.68-1.28,1.08-.4.41-.72.87-1.04,1.34-.33.47-.68.92-1.08,1.32-.42.42-.88.77-1.35,1.12-2.04,1.53-4.18,2.9-6.4,4.08-1.09.58-2.19,1.1-3.3,1.62-1.09.51-2.2,1-3.33,1.38-.94.32-1.9.53-2.87.69-.72.12-1.49.25-2.21.09-.31-.07-.59-.2-.76-.51-.22-.41-.29-.93-.33-1.4-.1-1.07-.06-2.16.17-3.2.52-2.29,1.87-4.14,3.6-5.51.94-.75,1.98-1.34,2.91-2.12.94-.79,1.8-1.73,2.63-2.66.8-.89,1.55-1.82,2.28-2.77.69-.9,1.33-1.86,1.74-2.95.38-.99.24-2.05.01-3.06-.28-1.25-.65-2.45-1.14-3.62-.02-.05-.04-.1-.06-.14,0-.08-.02-.17-.04-.26-.06-.23-.16-.45-.27-.66-.23-.48-.53-.92-.83-1.35-.13-.19-.26-.37-.39-.56-.15-.22-.36-.44-.45-.71-.15-.46.28-.8.6-1.04.06.08.12.16.17.25.01.03.03.06.04.08-.06.7.33,1.46.67,2.02.29.45.61.92.96,1.32.06.07.16-.05.13-.13-.15-.4-.41-.75-.61-1.12-.24-.42-.5-.84-.67-1.31-.13-.36-.25-.81-.07-1.17.11-.21.31-.36.48-.5.24-.21.5-.41.76-.59.32-.23.66-.43,1.01-.61.16-.08.32-.15.49-.22.08-.03.17-.06.25-.08-.15.49-.02,1,.18,1.45.29.66.61,1.3.88,1.97.06.16.14.31.2.47.04.1.05.2.12.29.06.07.1.1.14,0,0,0,0-.01,0,0-.06.09-.08-.18-.08-.21-.01-.09-.04-.18-.06-.27-.09-.32-.21-.64-.32-.96-.17-.5-.39-.97-.58-1.46-.17-.42-.32-.9-.11-1.34.15-.33.44-.57.73-.75.7-.46,1.51-.69,2.29-.92.36-.1.72-.2,1.08-.31.36-.12.71-.26,1.08-.37.47-.15.99-.27,1.48-.19.26.04.48.14.62.39.14.24.19.57.26.84.01.06.05.07.09.05.51,1.6,1.09,3.18,1.75,4.71.14.34.28.69.48,1,.18.3.43.52.7.72.27.2.56.4.76.68.23.32.29.7.34,1.1.05.38.13.75.31,1.08.21.39.49.74.75,1.09.53.73.98,1.52,1.38,2.34.7,1.39,1.29,2.86,1.91,4.29.21.48.43,1.01.44,1.56,0,.63-.42.99-.89,1.25-.12.06-.17.36.02.29.48-.19.92-.54,1.09-1.09.04-.13.06-.27.07-.4,0,0,0,0,.01,0,.14-.04.27.16.33.26.12.19.21.41.28.63Z"/>
        <path class="cls-19" d="m334.67,143.13c.08-.09.19-.16.35-.2-.48-1.16-.59-2.45-.38-3.7.43-2.53,1.88-4.75,3.52-6.52.4-.43.81-.83,1.23-1.23-.55.38-1.11.75-1.63,1.17-1.72,1.37-3.07,3.22-3.6,5.51-.24,1.04-.27,2.14-.17,3.2.04.47.11.99.33,1.4.09.17.21.28.35.36Z"/>
        <path class="cls-19" d="m334.54,143.5c-.12-.06-.23-.14-.32-.25-.12-.14-.21-.31-.27-.5-.13.08-.21.19-.21.38.01.47.28.97.46,1.38.19.45.43.86.87,1.05.1.04.2.07.31.1-.3-.49-.88-1.52-.83-2.17Z"/>
        <path class="cls-18" d="m365.75,126.24c-.06-.1-.19-.3-.33-.26,0,0,0,0-.01,0,0,.14-.03.27-.07.4-.17.54-.61.9-1.09,1.09-.18.07-.14-.22-.02-.29.48-.26.9-.62.89-1.25,0-.55-.23-1.08-.44-1.56-.63-1.43-1.22-2.89-1.91-4.29-.41-.82-.85-1.61-1.38-2.34-.26-.35-.53-.7-.75-1.09-.18-.33-.26-.7-.31-1.08-.05-.39-.1-.78-.34-1.1-.21-.28-.49-.48-.76-.68-.27-.2-.51-.42-.7-.72-.19-.31-.33-.66-.48-1-.65-1.53-1.23-3.11-1.75-4.71-.04.02-.07,0-.09-.05-.07-.27-.12-.6-.26-.84-.14-.25-.37-.35-.62-.39-.39-.07-.79,0-1.17.1-.58.48-1.17.97-1.7,1.53-.94.98-1.95,1.88-2.92,2.83-.07.07-.16.03-.22-.03-.36-.4-.55-.98-.66-1.53-.01-.06-.02-.13-.04-.19-.11.39.02.81.17,1.18.2.49.41.96.58,1.46.11.32.22.64.32.96.02.09.05.18.06.27,0,.03.02.3.08.21,0,0,.01,0,0,0-.04.1-.08.07-.14,0-.07-.08-.09-.18-.12-.29-.06-.16-.13-.32-.2-.47-.27-.67-.59-1.31-.88-1.97-.2-.45-.33-.96-.18-1.45-.08.03-.17.05-.25.08-.16.06-.31.13-.47.21.15.55.26,1.11.15,1.7-.13.68-.47,1.44-.94,1.9-.32.31-.68.31-.99.11.09.16.18.31.27.47.21.37.47.72.61,1.12.03.08-.07.2-.13.13-.35-.4-.68-.87-.96-1.32-.35-.56-.74-1.32-.67-2.02-.01-.03-.03-.06-.04-.08-.05-.09-.11-.18-.17-.25-.32.25-.74.59-.6,1.04.09.27.29.48.45.71.13.19.26.37.39.56.3.43.59.87.83,1.35.1.21.2.43.27.66.03.09.04.18.04.26.02.05.04.09.06.14.49,1.17.87,2.37,1.14,3.62.22,1.01.36,2.07-.01,3.06-.41,1.09-1.06,2.05-1.74,2.95-.73.95-1.48,1.88-2.28,2.77-.07.08-.14.15-.21.23.62-.03,1.24.02,1.84.16,1.23.28,2.46.88,3.44,1.76.79.72,1.46,1.68,1.83,2.73.18.5.29,1.05.24,1.59-.06.57-.32,1.07-.68,1.47-.47.52-1.07.87-1.66,1.19-.7.38-1.41.73-2.12,1.09-1.57.79-3.16,1.55-4.79,2.18-1.04.4-2.09.8-3.15,1.11-.95.28-2.03.53-3.01.25-.48-.14-.82-.41-1.04-.76,0,.16.01.31.03.47.04.47.11.99.33,1.4.17.31.45.45.76.51.72.16,1.49.03,2.21-.09.97-.17,1.93-.37,2.87-.69,1.13-.39,2.24-.87,3.33-1.38,1.11-.52,2.22-1.05,3.3-1.62,2.22-1.18,4.36-2.55,6.4-4.08.47-.35.93-.7,1.35-1.12.4-.4.75-.85,1.08-1.32.33-.47.65-.93,1.04-1.34.39-.41.83-.76,1.28-1.08,1.82-1.27,3.94-1.92,5.72-3.28.17-.13.2.16.08.26-.43.35-.88.66-1.34.95-1.89,1.14-4.07,1.84-5.65,3.53-.41.44-.73.94-1.08,1.42-.32.44-.66.86-1.05,1.23-.43.42-.91.78-1.4,1.14-.52.39-1.04.76-1.57,1.12-2.09,1.44-4.29,2.71-6.55,3.79-2.19,1.05-4.41,2.14-6.77,2.64-.73.16-1.48.29-2.22.34-.31.02-.68.04-1.03-.02.53.29,1.13.41,1.72.45,1.28.07,2.57-.22,3.8-.57.56-.16,1.12-.33,1.68-.51.81-.26,1.62-.5,2.42-.8,1.07-.41,2.13-.88,3.15-1.42.52-.27,1.03-.55,1.53-.85.38-.23.77-.44,1.12-.73.28-.24.55-.48.85-.68.25-.16.5-.26.77-.09.22.14.38.33.51.55.64-.47,1.27-.96,1.87-1.49.53-.47.98-.98,1.37-1.59.36-.55.68-1.13,1.07-1.65.43-.58.93-1.02,1.51-1.4,1.38-.9,2.89-1.48,4.36-2.16.75-.34,1.48-.71,2.18-1.16.48-.31,1.07-.7,1.22-1.34.1-.44-.06-.94-.19-1.35-.07-.22-.16-.44-.28-.63Zm-2.97-1.35c-.34.4-.94.56-1.39.75-.67.27-1.3.68-1.91,1.07-.75.48-1.49,1-2.18,1.58-.31.26-.62.53-.91.81-.14.13-.29.29-.48.25-.22-.04-.44-.28-.6-.43-.3-.27-.58-.54-.88-.81-.59-.54-1.21-1.01-1.92-1.33-.08-.04-.12-.14-.09-.22.25-.66.63-1.25.92-1.89.29-.64.54-1.3.8-1.95.19-.47.38-.91.62-1.35.11-.2.22-.4.29-.61.08-.25-.02-.42-.16-.62-.25-.33-.51-.6-.53-1.07,0-.32.11-.61.28-.86.38-.55.95-.89,1.33-1.43.2-.29.23-.61.18-.94-.18-.42-.35-.84-.51-1.27-.14-.37-.3-.72-.44-1.09-.13-.32-.23-.65-.22-1,0-.09.1-.17.18-.15.68.16,1.28.67,1.78,1.18.49.5.94,1.06,1.33,1.66.16.25.32.5.4.79.08.29.09.6.06.91-.07.69-.33,1.34-.57,1.96-.16.4-.33.82-.44,1.24.17-.24.33-.5.48-.75.21-.34.43-.68.64-1.02.2-.32.38-.64.6-.94.18-.25.39-.51.66-.63.08-.03.17,0,.21.09.13.37.07.73-.02,1.1-.1.42-.18.81-.05,1.24.13.43.34.83.56,1.21.24.41.46.84.68,1.26.35.67.7,1.34,1.08,1.98.21.35.56.87.23,1.26Z"/>
      </g>
      <g>
        <path class="cls-5" d="m364.66,93.63c.51.3,1.05.67,1.61,1.12"/>
        <path class="cls-5" d="m355.32,102.29s.68-11.01,6.93-9.66"/>
      </g>
      <g>
        <path class="cls-5" d="m331.22,101.94c-.39.47-.79,1.01-1.19,1.63"/>
        <path class="cls-5" d="m342.62,106.77s-3.93-10.16-9.44-6.64"/>
      </g>
      <g>
        <path class="cls-5" d="m330.8,118c0,.51.01,1.06.07,1.66"/>
        <path class="cls-5" d="m339.95,114.32s-7.22-3.82-8.84,1.46"/>
      </g>
      <g>
        <path class="cls-5" d="m369.64,103.44c.38.28.78.62,1.2,1.01"/>
        <path class="cls-5" d="m361.65,109.57s1.27-8.68,6.14-7.11"/>
      </g>
      <circle class="cls-7" cx="192.99" cy="88.21" r="18.76"/>
      <circle class="cls-7" cx="139.57" cy="101.03" r="22.99"/>
      <circle class="cls-13" cx="192.64" cy="86.75" r="9.54"/>
      <circle class="cls-12" cx="192.64" cy="86.75" r="6.45"/>
      <circle class="cls-13" cx="139.57" cy="101.03" r="11.69"/>
      <circle class="cls-12" cx="139.57" cy="101.03" r="7.45"/>
      <path class="cls-17" d="m175.34,92.09c-2.33-9.7,3.65-19.46,13.35-21.79s19.46,3.65,21.79,13.35l-35.14,8.43Z"/>
      <path class="cls-17" d="m117.75,105.95c-2.88-12.01,4.52-24.09,16.53-26.97s24.09,4.52,26.97,16.53l-43.5,10.44Z"/>
      <g>
        <path class="cls-2" d="m331.41,222.88c-8.6-1.64-14.26-4.43-14.26-7.6"/>
        <path class="cls-2" d="m342.36,224.2c-1.27-.08-2.52-.18-3.73-.3"/>
        <path class="cls-2" d="m376.41,220.09c-5.65,2.59-15.73,4.32-27.22,4.32-.84,0-1.68,0-2.5-.03"/>
        <path class="cls-2" d="m375.75,210.18c3.45,1.46,5.47,3.21,5.47,5.1,0,1.13-.72,2.21-2.03,3.2"/>
        <path class="cls-2" d="m366.16,207.54c1.25.22,2.45.47,3.58.74"/>
        <path class="cls-2" d="m320.16,211.41c5.11-3.11,16.18-5.26,29.03-5.26,5.1,0,9.91.34,14.19.94"/>
        <path class="cls-2" d="m352.23,221.68c-1,.04-2.01.06-3.05.06-12.52,0-22.67-2.89-22.67-6.46,0-1.61,2.06-3.07,5.46-4.2"/>
        <path class="cls-2" d="m355.09,221.52c-.93.07-1.88.13-2.86.16"/>
        <path class="cls-2" d="m366.96,219.29c-1.95.7-4.39,1.28-7.19,1.7"/>
        <path class="cls-2" d="m347.7,208.83c.49,0,.99-.01,1.49-.01,12.52,0,22.67,2.89,22.67,6.46,0,1.51-1.83,2.91-4.89,4.01"/>
        <path class="cls-2" d="m342.36,209.12c1.7-.15,3.49-.25,5.34-.28"/>
        <path class="cls-2" d="m336.75,209.88c.61-.11,1.23-.22,1.88-.32"/>
        <path class="cls-2" d="m351.28,217.77c-.67.05-1.37.07-2.09.07-4.97,0-8.99-1.15-8.99-2.56,0-.34.23-.66.64-.95"/>
        <path class="cls-2" d="m342.36,213.61c1.65-.55,4.09-.89,6.82-.89,4.97,0,8.99,1.15,8.99,2.56,0,.69-.95,1.31-2.49,1.77"/>
      </g>
      <path class="cls-18" d="m245.29,221.71c-1.35,2.15-7.34-2.2-14.3-6.57-6.96-4.38-15.19-7.52-13.83-9.68s11.77-2.49,18.73,1.88c6.96,4.38,10.76,12.21,9.4,14.36Z"/>
      <path class="cls-18" d="m277.26,210.48c-1.03,1.64-5.59-1.67-10.9-5.01s-11.57-5.73-10.54-7.37,8.96-1.9,14.27,1.44,8.19,9.3,7.16,10.94Z"/>
      <g>
        <path class="cls-10" d="m235.41,172.19s-10.33-1.39-14.75,13.86c-.56,1.94-1.72,3.65-3.28,4.94l-1.62,1.35c-1.62,1.34-2.51,3.38-2.39,5.48l.23,4.13c.2,3.51,3.1,6.25,6.62,6.25h15.19v-36.01Z"/>
        <path class="cls-14" d="m232.47,198.35c-2.61,2.13-5.69,4.08-8.84,5.29-2.85,1.1-5.77,1.27-8.74,1.27,1.19,1.79,3.22,2.97,5.52,2.97h15.19v-12.74c-.93,1.16-1.95,2.25-3.12,3.21Z"/>
        <ellipse class="cls-11" cx="235.41" cy="190.18" rx="10.33" ry="18"/>
      </g>
      <g>
        <path class="cls-10" d="m275.42,164.78s-10.33-1.39-14.75,13.86c-.56,1.94-1.72,3.65-3.28,4.94l-1.62,1.35c-1.62,1.34-2.51,3.38-2.39,5.48l.23,4.13c.2,3.51,3.1,6.25,6.62,6.25h15.19v-36.01Z"/>
        <ellipse class="cls-11" cx="275.42" cy="182.79" rx="10.33" ry="18"/>
      </g>
      <line class="cls-5" x1="347.15" y1="135.93" x2="347.07" y2="156.16"/>
      <line class="cls-5" x1="347.15" y1="163.61" x2="347.07" y2="168.61"/>
      <line class="cls-5" x1="365.49" y1="131.03" x2="365.44" y2="144.43"/>
      <line class="cls-5" x1="365.49" y1="149.36" x2="365.44" y2="152.68"/>
      <line class="cls-5" x1="336.35" y1="146.96" x2="336.31" y2="157.98"/>
      <line class="cls-5" x1="336.35" y1="162.03" x2="336.31" y2="164.75"/>
      <path class="cls-15" d="m94.16,67.93s-15.83,8.23-14.82,16.72c1.02,8.49,10.65-15.02,14.82-16.72Z"/>
      <path class="cls-15" d="m186.19,40.77s17.49,3.53,18.86,11.97-14.39-11.49-18.86-11.97Z"/>
      <path class="cls-2" d="m346.7,120.63s2.22-1.53,4.96,0"/>
      <path class="cls-2" d="m345.79,123.86s2.22-1.53,4.96,0"/>
      <path class="cls-2" d="m343.3,127.08s2.22-1.53,4.96,0"/>
      <path class="cls-2" d="m341.01,129.8s2.84-1.96,6.35,0"/>
    </g>
  </g>
</svg>