<svg xmlns="http://www.w3.org/2000/svg" width="145" height="118" viewBox="0 0 145 118" fill="none">
<path d="M120.966 118H10.8362C8.5105 118 6.62109 116.127 6.62109 113.812V112.857H125.181V113.812C125.181 116.123 123.296 118 120.966 118Z" fill="url(#paint0_linear_2469_463)"/>
<path d="M70.7492 64.7401L59.8691 95.7972L25.6836 104.091L30.0789 112.388L70.7492 103.482L82.8422 67.0113L70.7492 64.7401Z" fill="url(#paint1_linear_2469_463)"/>
<path opacity="0.26" d="M66.6016 111.791C66.6176 111.334 72.9703 72.8425 72.9703 72.8425L75.1159 107.802L66.6016 111.791Z" fill="#2667FF"/>
<path d="M84.0598 59.533L70.7539 64.7437L73.8322 110.872H103.618L111.196 63.9521L96.8293 59.5688L84.0598 59.533Z" fill="url(#paint2_linear_2469_463)"/>
<path d="M78.1775 44.5775H77.7732C76.4402 44.5775 75.3594 43.5035 75.3594 42.179V41.7772C75.3594 40.4527 76.4402 39.3787 77.7732 39.3787H78.1775C79.5105 39.3787 80.5913 40.4527 80.5913 41.7772V42.179C80.5913 43.5035 79.5105 44.5775 78.1775 44.5775Z" fill="#4B63C5"/>
<path d="M80.591 39.5457V45.4206C78.9578 45.4206 77.6328 44.1041 77.6328 42.4812C77.6328 40.8583 78.9578 39.5457 80.591 39.5457Z" fill="#EFCBBF"/>
<mask id="mask0_2469_463" style="mask-type:luminance" maskUnits="userSpaceOnUse" x="77" y="39" width="4" height="7">
<path d="M80.591 39.5457V45.4206C78.9578 45.4206 77.6328 44.1041 77.6328 42.4812C77.6328 40.8583 78.9578 39.5457 80.591 39.5457Z" fill="white"/>
</mask>
<g mask="url(#mask0_2469_463)">
<path opacity="0.58" d="M80.0274 38.3206H76.793V47.4413H80.0274V38.3206Z" fill="#EFCBBF"/>
</g>
<path d="M95.4654 47.887V63.7497L93.1237 64.8674C90.0094 66.3511 86.3146 65.9175 83.6406 63.7497V48.1137L95.4654 47.887Z" fill="#F5CAAA"/>
<mask id="mask1_2469_463" style="mask-type:luminance" maskUnits="userSpaceOnUse" x="83" y="51" width="13" height="8">
<path d="M95.4694 51.3592V58.7337H83.6406V51.5461L95.4694 51.3592Z" fill="white"/>
</mask>
<g mask="url(#mask1_2469_463)">
<g opacity="0.64">
<path d="M89.2075 57.7511C94.1432 57.7511 98.3223 54.5292 99.7314 50.0862H78.6797C80.0927 54.5292 84.2679 57.7511 89.2075 57.7511Z" fill="#EFCBBF"/>
</g>
</g>
<path d="M81.052 22.0565C78.4421 24.3674 76.7969 27.7325 76.7969 31.4715V33.4324V39.8085H78.4301V34.566V31.4715C78.4301 27.7763 80.2795 24.5067 83.1016 22.5139C82.4371 22.3508 81.7406 22.1917 81.052 22.0565Z" fill="#4B63C5"/>
<path d="M89.2087 56.105C83.6366 56.105 79.1172 51.6143 79.1172 46.0775V27.7049H99.3002V46.0735C99.3002 51.6143 94.7809 56.105 89.2087 56.105Z" fill="#F5CAAA"/>
<path d="M94.4629 32.1995C94.4629 32.1995 88.0301 37.7085 80.7006 35.5049C73.3712 33.3013 74.0477 26.8774 74.0477 26.8774L76.0171 27.7048C76.0171 27.7048 75.3406 23.8783 75.769 22.2873C76.2013 20.6962 83.0064 22.8402 85.7164 23.6954C88.4264 24.5505 84.9478 21.9611 84.7597 21.635C84.5755 21.3088 88.8747 19.9604 94.0226 22.0407C99.1704 24.121 104.162 29.5703 102.253 34.4627C100.343 39.3552 101.204 41.0735 101.204 41.0735L99.2945 41.9009H97.8774L98.0095 31.8375L97.265 31.9131L94.4629 32.1995Z" fill="#2C344F"/>
<mask id="mask2_2469_463" style="mask-type:luminance" maskUnits="userSpaceOnUse" x="74" y="20" width="29" height="22">
<path d="M94.4629 32.1995C94.4629 32.1995 88.0301 37.7085 80.7006 35.5049C73.3712 33.3013 74.0477 26.8774 74.0477 26.8774L76.0171 27.7048C76.0171 27.7048 75.3406 23.8783 75.769 22.2873C76.2013 20.6962 83.0984 22.4106 85.8084 23.2658C88.5185 24.121 84.9478 21.9611 84.7597 21.635C84.5755 21.3088 88.8747 19.9604 94.0226 22.0407C99.1704 24.121 104.162 29.5703 102.253 34.4627C100.343 39.3552 101.204 41.0735 101.204 41.0735L99.2945 41.9009H97.8774L98.0095 31.8375L97.265 31.9131L94.4629 32.1995Z" fill="white"/>
</mask>
<g mask="url(#mask2_2469_463)">
<path opacity="0.35" d="M99.2062 31.4711V40.5282C99.2582 40.4725 99.3142 40.4247 99.3823 40.385C99.8546 40.1145 100.339 39.9116 100.835 39.7485V31.4711C100.835 30.7035 100.763 29.9557 100.631 29.2238C99.9387 25.4013 97.5009 22.1795 94.1744 20.3856C93.606 20.7157 93.0336 21.0458 92.4531 21.3561C93.9582 21.9965 95.2952 22.9551 96.372 24.1484C98.1294 26.0974 99.2062 28.659 99.2062 31.4711Z" fill="#2C344F"/>
</g>
<path d="M85.1714 21.3484C85.0353 21.4005 84.9352 21.4485 84.8672 21.4966C84.9673 21.4485 85.0673 21.3925 85.1714 21.3484Z" fill="#13A9D8"/>
<path d="M101.982 29.2239C100.914 23.3371 95.7218 18.8543 89.4892 18.8543C86.2508 18.8543 83.2925 20.0675 81.0469 22.0563C81.7394 22.1915 82.4359 22.3506 83.0964 22.5137C83.6488 22.1239 84.2413 21.7818 84.8617 21.4994C84.9298 21.4517 85.0338 21.404 85.1659 21.3522C86.4949 20.7914 87.952 20.4772 89.4852 20.4772C92.7556 20.4772 95.6898 21.9012 97.7153 24.1485C99.4726 26.0936 100.549 28.6551 100.549 31.4713V41.3596V42.4853H102.183V34.6494V31.4713C102.187 30.7036 102.115 29.9558 101.982 29.2239Z" fill="url(#paint3_linear_2469_463)"/>
<path d="M84.4932 39.7965C84.3931 39.8243 84.289 39.8243 84.1809 39.7885C82.4997 39.2515 81.579 40.4607 81.567 40.4727C81.3909 40.7113 81.0466 40.763 80.8064 40.588C80.5662 40.409 80.5142 40.0709 80.6903 39.8323C81.1667 39.1919 82.5757 38.1418 84.5132 38.7623C84.7974 38.8538 84.9575 39.1601 84.8654 39.4425C84.8094 39.6215 84.6653 39.7487 84.4932 39.7965Z" fill="#2C344F"/>
<path d="M94.6639 40.632C94.5639 40.6081 94.4678 40.5604 94.3917 40.4809C93.1628 39.2239 91.7778 39.8604 91.7618 39.8683C91.4896 39.9996 91.1653 39.8842 91.0372 39.6137C90.9091 39.3433 91.0212 39.0211 91.2934 38.8938C92.018 38.5477 93.7553 38.2812 95.1723 39.7291C95.3805 39.9439 95.3765 40.286 95.1603 40.4928C95.0282 40.6241 94.8401 40.6678 94.6639 40.632Z" fill="#2C344F"/>
<path d="M88.0809 52.103C90.2986 52.103 92.208 50.9256 93.0606 49.2312C93.505 48.3441 92.9566 47.2503 92.0439 47.2503H84.114C83.2453 47.2503 82.6489 48.2805 83.0572 49.1357C83.8818 50.8779 85.8232 52.103 88.0809 52.103Z" fill="white"/>
<path d="M98.8438 39.5457V46.3236C100.729 46.3236 102.254 44.8041 102.254 42.9346C102.254 41.0652 100.729 39.5457 98.8438 39.5457Z" fill="#EFCBBF"/>
<path d="M91.75 51.4508V50.3689C95.2446 50.3689 97.7865 49.5017 99.3076 47.7954C101.125 45.7548 100.829 43.1972 100.829 43.1734L101.91 43.0421C101.926 43.1654 102.262 46.1128 100.124 48.5153C98.3909 50.4643 95.5728 51.4508 91.75 51.4508Z" fill="url(#paint4_linear_2469_463)"/>
<path d="M92.9494 50.8185C92.9494 51.6299 92.1528 52.2862 91.168 52.2862C90.1833 52.2862 89.3867 51.6299 89.3867 50.8185C89.3867 50.0071 90.1833 49.3508 91.168 49.3508C92.1528 49.3508 92.9494 50.0071 92.9494 50.8185Z" fill="url(#paint5_linear_2469_463)"/>
<path d="M83.5025 44.3944C84.2741 44.3944 84.8995 43.7728 84.8995 43.0062C84.8995 42.2395 84.2741 41.618 83.5025 41.618C82.7309 41.618 82.1055 42.2395 82.1055 43.0062C82.1055 43.7728 82.7309 44.3944 83.5025 44.3944Z" fill="#192035"/>
<path d="M92.565 44.3945C93.3366 44.3945 93.962 43.773 93.962 43.0063C93.962 42.2396 93.3366 41.6181 92.565 41.6181C91.7934 41.6181 91.168 42.2396 91.168 43.0063C91.168 43.773 91.7934 44.3945 92.565 44.3945Z" fill="#192035"/>
<path opacity="0.26" d="M108.98 69.0994L102.395 96.2148L83.2891 104.265V115.558L113.187 111.282L108.98 69.0994Z" fill="#2667FF"/>
<path d="M94.9631 101.971C94.6709 102.086 87.8498 103.693 83.8428 104.636C82.1575 105.029 80.9727 106.525 80.9727 108.243V109.914L98.0414 109.5L94.9631 101.971Z" fill="#F5CAAA"/>
<mask id="mask3_2469_463" style="mask-type:luminance" maskUnits="userSpaceOnUse" x="88" y="101" width="11" height="9">
<path d="M89.3688 108.104C89.5209 108.629 89.649 109.162 89.7771 109.699L98.0472 109.5L94.9649 101.971C94.7648 102.05 91.4984 102.83 88.1719 103.617C88.5121 105.121 88.9445 106.612 89.3688 108.104Z" fill="white"/>
</mask>
<g mask="url(#mask3_2469_463)">
<path opacity="0.64" d="M91.7539 99.2974L96.2092 112.857L100.949 109.699L95.4687 97.7581L91.7539 99.2974Z" fill="#F1C8AA"/>
</g>
<path d="M111.195 63.952L131.11 100.641L99.3386 111.285L93.5703 101.397L113.685 94.1539L110.451 88.2353C106.98 81.883 106.632 74.4688 109.498 67.8659L111.195 63.952Z" fill="url(#paint6_linear_2469_463)"/>
<path d="M101.581 44.3946H101.165C99.8001 44.3946 98.6953 43.2968 98.6953 41.9404V41.5268C98.6953 40.1704 99.8001 39.0726 101.165 39.0726H101.581C102.946 39.0726 104.051 40.1704 104.051 41.5268V41.9404C104.051 43.2928 102.946 44.3946 101.581 44.3946Z" fill="#13A9D8"/>
<path d="M101.623 44.9351H101.123C99.4814 44.9351 98.1484 43.6105 98.1484 41.9797V41.4825C98.1484 39.8517 99.4814 38.5272 101.123 38.5272H101.623C103.264 38.5272 104.597 39.8517 104.597 41.4825V41.9797C104.597 43.6105 103.264 44.9351 101.623 44.9351Z" fill="url(#paint7_linear_2469_463)"/>
<path d="M101.122 43.6345C100.206 43.6345 99.457 42.8907 99.457 41.9798V41.4826C99.457 40.5718 100.206 39.8279 101.122 39.8279H101.623C102.539 39.8279 103.288 40.5718 103.288 41.4826V41.9798C103.288 42.8907 102.539 43.6345 101.623 43.6345H101.122Z" fill="url(#paint8_linear_2469_463)"/>
<path d="M129.997 113.235H1.80535C0.808603 113.235 0 112.431 0 111.441V110.626C0 109.635 0.808603 108.832 1.80535 108.832H129.997C130.994 108.832 131.802 109.635 131.802 110.626V111.441C131.802 112.431 130.994 113.235 129.997 113.235Z" fill="url(#paint9_linear_2469_463)"/>
<path d="M52.5971 108.832H9.44898L4.60938 74.1946H47.7535L52.5971 108.832Z" fill="#7A8DD9"/>
<path d="M54.5636 105.773L49.9882 74.1946H46.9219L51.7615 108.832H53.863H55.8245H76.7241V105.773H54.5636Z" fill="#4B63C5"/>
<path d="M25.8394 99.0148C20.6676 95.6379 20.8837 91.7517 23.882 87.1695C24.2502 86.6087 25.9995 86.5968 26.5239 87.1457C30.647 91.4415 33.341 94.4764 28.2332 98.9631C27.7649 99.3808 26.4439 99.4126 25.8394 99.0148Z" fill="url(#paint10_linear_2469_463)"/>
<path d="M26.0488 96.2826C23.2307 94.4449 23.3508 92.3249 24.984 89.8349C25.1841 89.5286 26.1368 89.5246 26.4251 89.823C28.6707 92.1618 30.1358 93.8165 27.3578 96.2587C27.1016 96.4815 26.381 96.5014 26.0488 96.2826Z" fill="url(#paint11_linear_2469_463)"/>
<path d="M43.663 35.7827H9.03722C7.20386 35.7827 5.71875 37.2584 5.71875 39.0802V58.3715C5.71875 60.1933 7.20386 61.669 9.03722 61.669H11.1508L18.3281 70.5191L17.7757 61.669H43.667C45.5004 61.669 46.9855 60.1933 46.9855 58.3715V39.0802C46.9855 37.2624 45.4964 35.7827 43.663 35.7827Z" fill="url(#paint12_linear_2469_463)"/>
<path d="M12.2212 42.1782C12.9021 42.1782 13.4541 41.6297 13.4541 40.9531C13.4541 40.2765 12.9021 39.728 12.2212 39.728C11.5403 39.728 10.9883 40.2765 10.9883 40.9531C10.9883 41.6297 11.5403 42.1782 12.2212 42.1782Z" fill="url(#paint13_linear_2469_463)"/>
<path d="M18.8018 40.9532C18.8018 41.6294 18.2494 42.1783 17.5689 42.1783C16.8883 42.1783 16.3359 41.6294 16.3359 40.9532C16.3359 40.277 16.8883 39.7281 17.5689 39.7281C18.2494 39.7281 18.8018 40.277 18.8018 40.9532Z" fill="url(#paint14_linear_2469_463)"/>
<path d="M24.1494 40.9531C24.1494 41.6293 23.597 42.1782 22.9165 42.1782C22.236 42.1782 21.6836 41.6293 21.6836 40.9531C21.6836 40.2769 22.236 39.728 22.9165 39.728C23.601 39.728 24.1494 40.2769 24.1494 40.9531Z" fill="url(#paint15_linear_2469_463)"/>
<path d="M41.7397 46.6928H10.9568C10.6045 46.6928 10.3203 46.4104 10.3203 46.0604C10.3203 45.7103 10.6045 45.4279 10.9568 45.4279H41.7437C42.096 45.4279 42.3802 45.7103 42.3802 46.0604C42.3802 46.4104 42.092 46.6928 41.7397 46.6928Z" fill="url(#paint16_linear_2469_463)"/>
<path d="M41.7397 50.8933H10.9568C10.6045 50.8933 10.3203 50.6109 10.3203 50.2609C10.3203 49.9108 10.6045 49.6284 10.9568 49.6284H41.7437C42.096 49.6284 42.3802 49.9108 42.3802 50.2609C42.3802 50.6109 42.092 50.8933 41.7397 50.8933Z" fill="url(#paint17_linear_2469_463)"/>
<path d="M41.7397 55.4912H10.9568C10.6045 55.4912 10.3203 55.2088 10.3203 54.8588C10.3203 54.5087 10.6045 54.2263 10.9568 54.2263H41.7437C42.096 54.2263 42.3802 54.5087 42.3802 54.8588C42.3802 55.2048 42.092 55.4912 41.7397 55.4912Z" fill="url(#paint18_linear_2469_463)"/>
<path d="M129.961 64.294C138.267 64.294 145 57.6034 145 49.3501C145 41.0968 138.267 34.4062 129.961 34.4062C121.655 34.4062 114.922 41.0968 114.922 49.3501C114.922 57.6034 121.655 64.294 129.961 64.294Z" fill="url(#paint19_linear_2469_463)"/>
<path d="M129.775 39.6484C129.951 39.6683 130.123 39.6842 130.299 39.7081C132.881 40.0263 135.131 41.0446 136.996 42.8584C138.785 44.5926 139.85 46.7127 140.279 49.1509C140.299 49.2544 140.319 49.3578 140.339 49.4652C140.339 49.5527 140.339 49.6442 140.339 49.7317C140.331 49.7476 140.319 49.7675 140.311 49.7834C140.206 50.0618 139.954 50.2169 139.67 50.1811C139.402 50.1493 139.206 49.9345 139.154 49.6521C139.078 49.2345 139.014 48.8089 138.901 48.4031C138.097 45.5075 136.384 43.3198 133.686 41.9316C132.421 41.2832 131.068 40.9252 129.647 40.8258C129.326 40.8019 129.094 40.5991 129.066 40.3008C129.034 39.9945 129.214 39.7479 129.53 39.6643C129.543 39.6604 129.555 39.6524 129.567 39.6484C129.639 39.6484 129.707 39.6484 129.775 39.6484Z" fill="white"/>
<path d="M129.648 42.5283C130.173 42.5761 130.673 42.6715 131.165 42.8147C134.216 43.6977 136.421 46.0724 137.07 49.1709C137.102 49.3181 137.13 49.4692 137.122 49.6164C137.102 49.9108 136.854 50.1295 136.561 50.1375C136.265 50.1454 136.009 49.9426 135.957 49.6522C135.809 48.7811 135.521 47.9578 135.064 47.198C133.923 45.3047 132.246 44.1751 130.069 43.7693C129.904 43.7375 129.74 43.7256 129.576 43.7017C129.276 43.658 129.064 43.4352 129.048 43.1528C129.032 42.8704 129.216 42.6198 129.492 42.5482C129.548 42.5363 129.604 42.5323 129.648 42.5283Z" fill="white"/>
<path d="M129.613 45.4995C129.997 45.5393 130.369 45.6268 130.73 45.762C132.495 46.4223 133.596 47.6753 134.06 49.4851C134.144 49.8073 133.996 50.0976 133.704 50.209C133.432 50.3124 133.119 50.205 132.979 49.9505C132.943 49.8868 132.923 49.8192 132.907 49.7476C132.539 48.1367 131.206 46.9116 129.565 46.6769C129.24 46.6292 129.028 46.4104 129.012 46.1081C129 45.8297 129.196 45.5791 129.477 45.5154C129.521 45.5075 129.565 45.5035 129.613 45.4995Z" fill="white"/>
<path d="M133.832 59.6914C133.8 59.6914 133.772 59.6875 133.728 59.6835C133.929 59.6477 134.121 59.6278 134.309 59.584C135.782 59.242 136.823 58.3908 137.419 57.0026C137.559 56.6724 137.591 56.3383 137.535 55.9843C137.419 55.2127 136.991 54.6995 136.23 54.5285C135.153 54.2898 134.065 54.083 132.98 53.8762C132.523 53.7926 132.063 53.7489 131.595 53.7847C131.291 53.8086 131.03 53.908 130.87 54.1904C130.734 54.4251 130.594 54.6598 130.458 54.8905C130.354 55.0615 130.25 55.2365 130.146 55.4115C127.532 54.2222 125.566 52.3726 124.181 49.8866C124.297 49.815 124.405 49.7474 124.518 49.6878C124.85 49.5127 125.166 49.3218 125.462 49.0911C125.618 48.9678 125.706 48.8127 125.734 48.6218C125.794 48.2558 125.762 47.8939 125.702 47.5359C125.494 46.2471 125.154 44.9862 124.814 43.7253C124.754 43.5066 124.67 43.2918 124.518 43.1207C123.949 42.4803 122.968 42.3928 122.42 42.5838C121.928 42.7548 121.491 43.0253 121.103 43.3713C120.29 44.0992 119.854 45.026 119.674 46.084C119.638 46.2949 119.618 46.5057 119.59 46.7165C119.59 46.9631 119.59 47.2097 119.59 47.4603C119.61 47.6234 119.626 47.7865 119.646 47.9495C119.778 49.0155 120.118 50.0139 120.595 50.9725C121.455 52.6908 122.66 54.1387 124.109 55.3877C125.666 56.7321 127.364 57.8737 129.241 58.7289C130.154 59.1425 131.094 59.4607 132.091 59.6159C132.247 59.6397 132.403 59.6556 132.564 59.6875" fill="white"/>
<path d="M70.8348 11.6187C70.8348 5.60055 65.9231 0.720032 59.8666 0.720032C53.8101 0.720032 48.8984 5.60055 48.8984 11.6187C48.8984 16.1333 51.6605 20.0035 55.5954 21.6581L52.309 25.775L62.5686 22.1792C67.3202 20.9859 70.8348 16.714 70.8348 11.6187Z" fill="url(#paint20_linear_2469_463)"/>
<path d="M54.8828 8.81854C54.9228 5.31825 56.7202 4.44318 59.7544 4.44318C62.7086 4.44318 64.7061 5.27847 64.7061 8.5242C64.7061 10.7994 63.7294 11.3642 62.2403 12.1995C61.1835 12.8041 61.0274 13.1342 61.0274 14.6497H58.5055C58.5055 11.9091 58.9739 11.5591 60.483 10.6045C61.3837 10.0397 61.912 9.70953 61.912 8.44863C61.912 7.10817 61.3236 6.6587 59.8385 6.6587C58.1172 6.6587 57.785 7.2633 57.6088 8.81854H54.8828ZM59.8345 15.7595C61.1074 15.7595 61.3997 16.205 61.3997 17.2192C61.3997 18.2296 61.1074 18.6591 59.8345 18.6591C58.5616 18.6591 58.2893 18.2296 58.2893 17.2192C58.2893 16.205 58.5616 15.7595 59.8345 15.7595Z" fill="white"/>
<path d="M31.5273 23.0184C31.5273 18.8459 34.9299 15.461 39.133 15.461C43.3321 15.461 46.7387 18.842 46.7387 23.0184C46.7387 26.1488 44.8253 28.8337 42.0952 29.9793L44.3729 32.8352L37.2596 30.3412C33.9652 29.5139 31.5273 26.5506 31.5273 23.0184Z" fill="url(#paint21_linear_2469_463)"/>
<path d="M39.1167 25.5837C40.0334 25.5837 40.2456 25.9059 40.2456 26.6338C40.2456 27.3617 40.0334 27.672 39.1167 27.672C38.2001 27.672 38.0039 27.3657 38.0039 26.6338C38.0039 25.9059 38.2001 25.5837 39.1167 25.5837ZM40.1895 20.206L39.6531 24.8678H38.5963L38.0439 20.206V17.545H40.1855V20.206H40.1895Z" fill="white"/>
<path d="M102.406 0H125.519C126.856 0 127.937 1.07395 127.937 2.40247V17.6526C127.937 18.9811 126.856 20.0551 125.519 20.0551H123.982L118.754 26.4988L119.158 20.0551H102.41C101.073 20.0551 99.9922 18.9811 99.9922 17.6526V2.40247C99.9882 1.07395 101.073 0 102.406 0Z" fill="url(#paint22_linear_2469_463)"/>
<path d="M108.949 7.33069C109.169 7.3466 109.381 7.39035 109.581 7.46593C110.45 7.78016 111.034 8.36884 111.335 9.23596C111.355 9.29563 111.347 9.34336 111.311 9.39507C110.522 10.5764 109.429 11.3003 108.024 11.543C106.179 11.8612 104.253 11.0179 103.221 9.44677C103.157 9.34733 103.149 9.27176 103.189 9.16436C103.601 8.11825 104.365 7.5057 105.482 7.33467C105.506 7.33069 105.53 7.33069 105.554 7.33069C105.602 7.69265 105.851 7.88358 106.147 8.01484C106.879 8.32907 107.616 8.32111 108.352 8.01484C108.416 7.98699 108.476 7.95119 108.533 7.9154C108.785 7.75629 108.885 7.6131 108.949 7.33069Z" fill="white"/>
<path d="M107.252 2.25098C108.101 2.26291 108.881 2.79591 109.21 3.60336C109.37 3.99715 109.41 4.40286 109.362 4.82051C109.322 5.20236 109.258 5.57626 109.122 5.93424C108.941 6.41155 108.689 6.84113 108.285 7.17128C107.961 7.43778 107.592 7.58097 107.164 7.5571C106.768 7.53324 106.432 7.36618 106.139 7.10366C105.843 6.83716 105.627 6.51099 105.467 6.15301C105.215 5.58421 105.107 4.98359 105.123 4.36706C105.147 3.37664 105.863 2.51748 106.82 2.30666C106.964 2.27882 107.112 2.27086 107.252 2.25098Z" fill="white"/>
<path d="M125.16 14.4071H103.824C103.64 14.4071 103.492 14.2599 103.492 14.0769V13.9298C103.492 13.7468 103.64 13.5996 103.824 13.5996H125.16C125.344 13.5996 125.493 13.7468 125.493 13.9298V14.0769C125.489 14.2599 125.34 14.4071 125.16 14.4071Z" fill="white"/>
<path d="M125.16 16.8016H103.824C103.64 16.8016 103.492 16.6544 103.492 16.4715V16.3243C103.492 16.1413 103.64 15.9941 103.824 15.9941H125.16C125.344 15.9941 125.493 16.1413 125.493 16.3243V16.4715C125.489 16.6544 125.34 16.8016 125.16 16.8016Z" fill="white"/>
<path d="M125.162 9.21596H113.442C113.257 9.21596 113.109 9.06879 113.109 8.88582V8.73865C113.109 8.55568 113.257 8.40851 113.442 8.40851H125.162C125.347 8.40851 125.495 8.55568 125.495 8.73865V8.88582C125.491 9.06879 125.342 9.21596 125.162 9.21596Z" fill="white"/>
<path d="M125.162 6.70199H113.442C113.257 6.70199 113.109 6.55481 113.109 6.37184V6.22467C113.109 6.0417 113.257 5.89453 113.442 5.89453H125.162C125.347 5.89453 125.495 6.0417 125.495 6.22467V6.37184C125.491 6.55481 125.342 6.70199 125.162 6.70199Z" fill="white"/>
<path d="M125.162 4.02516H113.442C113.257 4.02516 113.109 3.87798 113.109 3.69501V3.55182C113.109 3.36885 113.257 3.22168 113.442 3.22168H125.162C125.347 3.22168 125.495 3.36885 125.495 3.55182V3.69899C125.491 3.87798 125.342 4.02516 125.162 4.02516Z" fill="white"/>
<path d="M125.162 11.6104H113.442C113.257 11.6104 113.109 11.4632 113.109 11.2802V11.1331C113.109 10.9501 113.257 10.8029 113.442 10.8029H125.162C125.347 10.8029 125.495 10.9501 125.495 11.1331V11.2802C125.491 11.4632 125.342 11.6104 125.162 11.6104Z" fill="white"/>
<defs>
<linearGradient id="paint0_linear_2469_463" x1="65.9018" y1="112.961" x2="65.9018" y2="115.135" gradientUnits="userSpaceOnUse">
<stop stop-color="#D1D3D4"/>
<stop offset="1" stop-color="#F1F2F2"/>
</linearGradient>
<linearGradient id="paint1_linear_2469_463" x1="54.618" y1="106.046" x2="53.2678" y2="70.7888" gradientUnits="userSpaceOnUse">
<stop stop-color="#7A9DFF"/>
<stop offset="1" stop-color="#2667FF"/>
</linearGradient>
<linearGradient id="paint2_linear_2469_463" x1="90.9749" y1="96.5127" x2="90.9749" y2="59.8856" gradientUnits="userSpaceOnUse">
<stop stop-color="#A7C1FF"/>
<stop offset="1" stop-color="#2667FF"/>
</linearGradient>
<linearGradient id="paint3_linear_2469_463" x1="81.049" y1="30.6682" x2="102.187" y2="30.6682" gradientUnits="userSpaceOnUse">
<stop stop-color="#7C90D9"/>
<stop offset="1" stop-color="#5D72CD"/>
</linearGradient>
<linearGradient id="paint4_linear_2469_463" x1="91.7518" y1="47.2477" x2="101.938" y2="47.2477" gradientUnits="userSpaceOnUse">
<stop stop-color="#7C90D9"/>
<stop offset="1" stop-color="#5D72CD"/>
</linearGradient>
<linearGradient id="paint5_linear_2469_463" x1="89.3867" y1="50.8191" x2="92.9502" y2="50.8191" gradientUnits="userSpaceOnUse">
<stop stop-color="#7C90D9"/>
<stop offset="1" stop-color="#5D72CD"/>
</linearGradient>
<linearGradient id="paint6_linear_2469_463" x1="112.574" y1="104.985" x2="110.549" y2="70.0267" gradientUnits="userSpaceOnUse">
<stop stop-color="#7A9DFF"/>
<stop offset="1" stop-color="#2667FF"/>
</linearGradient>
<linearGradient id="paint7_linear_2469_463" x1="98.1467" y1="41.7314" x2="104.596" y2="41.7314" gradientUnits="userSpaceOnUse">
<stop stop-color="#7C90D9"/>
<stop offset="1" stop-color="#5D72CD"/>
</linearGradient>
<linearGradient id="paint8_linear_2469_463" x1="101.615" y1="44.4007" x2="101.17" y2="39.4757" gradientUnits="userSpaceOnUse">
<stop stop-color="#7C90D9"/>
<stop offset="1" stop-color="#5D72CD"/>
</linearGradient>
<linearGradient id="paint9_linear_2469_463" x1="65.9016" y1="107.808" x2="65.9016" y2="110.606" gradientUnits="userSpaceOnUse">
<stop stop-color="#D1D3D4"/>
<stop offset="1" stop-color="#F1F2F2"/>
</linearGradient>
<linearGradient id="paint10_linear_2469_463" x1="19.6365" y1="94.974" x2="25.2815" y2="86.3132" gradientUnits="userSpaceOnUse">
<stop stop-color="#7C90D9"/>
<stop offset="1" stop-color="#5D72CD"/>
</linearGradient>
<linearGradient id="paint11_linear_2469_463" x1="22.6728" y1="94.0833" x2="25.7468" y2="89.367" gradientUnits="userSpaceOnUse">
<stop stop-color="#FBF0F4"/>
<stop offset="1" stop-color="#DCE3F6"/>
</linearGradient>
<linearGradient id="paint12_linear_2469_463" x1="26.3521" y1="60.8035" x2="26.3521" y2="36.0213" gradientUnits="userSpaceOnUse">
<stop stop-color="#A7C1FF"/>
<stop offset="1" stop-color="#2667FF"/>
</linearGradient>
<linearGradient id="paint13_linear_2469_463" x1="10.9906" y1="40.9526" x2="13.4531" y2="40.9526" gradientUnits="userSpaceOnUse">
<stop stop-color="#FBF0F4"/>
<stop offset="1" stop-color="#DCE3F6"/>
</linearGradient>
<linearGradient id="paint14_linear_2469_463" x1="16.3397" y1="40.9527" x2="18.8022" y2="40.9527" gradientUnits="userSpaceOnUse">
<stop stop-color="#FBF0F4"/>
<stop offset="1" stop-color="#DCE3F6"/>
</linearGradient>
<linearGradient id="paint15_linear_2469_463" x1="21.6888" y1="40.9526" x2="24.1513" y2="40.9526" gradientUnits="userSpaceOnUse">
<stop stop-color="#FBF0F4"/>
<stop offset="1" stop-color="#DCE3F6"/>
</linearGradient>
<linearGradient id="paint16_linear_2469_463" x1="10.3174" y1="46.0608" x2="42.379" y2="46.0608" gradientUnits="userSpaceOnUse">
<stop stop-color="#FBF0F4"/>
<stop offset="1" stop-color="#DCE3F6"/>
</linearGradient>
<linearGradient id="paint17_linear_2469_463" x1="10.3174" y1="50.2593" x2="42.379" y2="50.2593" gradientUnits="userSpaceOnUse">
<stop stop-color="#FBF0F4"/>
<stop offset="1" stop-color="#DCE3F6"/>
</linearGradient>
<linearGradient id="paint18_linear_2469_463" x1="10.3174" y1="54.856" x2="42.379" y2="54.856" gradientUnits="userSpaceOnUse">
<stop stop-color="#FBF0F4"/>
<stop offset="1" stop-color="#DCE3F6"/>
</linearGradient>
<linearGradient id="paint19_linear_2469_463" x1="129.961" y1="55.9345" x2="129.961" y2="34.6115" gradientUnits="userSpaceOnUse">
<stop stop-color="#A7C1FF"/>
<stop offset="1" stop-color="#2667FF"/>
</linearGradient>
<linearGradient id="paint20_linear_2469_463" x1="55.3703" y1="22.7111" x2="71.1594" y2="-7.96076" gradientUnits="userSpaceOnUse">
<stop stop-color="#FF9CA5"/>
<stop offset="1" stop-color="#FF5061"/>
</linearGradient>
<linearGradient id="paint21_linear_2469_463" x1="39.133" y1="27.9757" x2="39.133" y2="15.5803" gradientUnits="userSpaceOnUse">
<stop stop-color="#A7C1FF"/>
<stop offset="1" stop-color="#2667FF"/>
</linearGradient>
<linearGradient id="paint22_linear_2469_463" x1="108.237" y1="23.2584" x2="123.066" y2="-11.4396" gradientUnits="userSpaceOnUse">
<stop stop-color="#FF9CA5"/>
<stop offset="1" stop-color="#FF5061"/>
</linearGradient>
</defs>
</svg>