<svg xmlns="http://www.w3.org/2000/svg" viewBox="0 0 14.4 10.3" style="enable-background:new 0 0 14.4 10.3" xml:space="preserve"><path d="M14.3 7.1h-.2c-.1 0-.1.1-.2.1-.2 0-.4-.1-.6-.1 0-.1.1-.3.1-.3s.1 0 .1-.1c0 0 0-.2.1-.2v-.3c0-.1.1-.1.1-.1s.1 0 .1-.1 0-.2.1-.3c0-.1 0-.1-.1-.1 0-.2.3-.1.3-.3 0-.1-.7-.1-.7-.1 0-.1.1-.1.1-.1s.2 0 .1-.1c-.1-.2-.2.1-.3-.1v-.1c0-.1 0-.1-.1-.1.1-.2.2-.3.3-.4.1 0 .2 0 .3-.2-.1-.2-.3.1-.4.1h-.3c-.1 0-.2 0-.3-.1 0-.1.3-.1.3-.2 0-.3-.4.1-.4-.2v-.2s-.2 0-.1-.1l.1-.1c0-.1-.2-.2-.2-.2 0-.2.2-.3.3-.3.1-.1.2-.1.3-.2.1-.1.3-.1.4-.1.1 0 .4.1.4-.1v-.1c0-.2.1-.1.1-.1V2c.1-.1.2.1.3-.1-.1-.2-.3 0-.4 0-.1 0-.3-.1-.4-.1-.2-.1-.5-.1-.7-.2l-.6-.3c-.2-.1-.5-.2-.7-.3-.5-.2-1-.1-1.5-.3-.2-.2-.4-.2-.6-.3-.3-.1-.6-.1-.9-.1C7.9.3 7.3.2 6.7.2c-.3 0-.6.1-.9 0-.2 0-.3.1-.4.1-.2 0-.3.1-.5.1-.4 0-.9.1-1.3.3-.1.1-.3 0-.4 0-.2.1-.3.1-.5.1S2.2 1 2 1c-.2.1-.5.1-.7.3-.1 0-.2.2-.3.3-.1 0-.3.1-.4.4-.1.4 0 .5.1.5l.1.1s.1.1 0 .1v.2c0 .2.1.3 0 .5 0 .1-.1 0-.1 0 0 .1.3.1.3.1 0 .3-.2.1-.2.2 0-.1.4 0 .4.2 0 .3-.2 0-.3.2 0 .1.1.1.1.1s.1.1.1 0c0 .1-.4.1-.4.1 0 .1.1.1.1.3 0 .1-.2-.1-.2.2l.1.2c.1.1.2 0 .2.2 0 .1-.1.1-.1.1v.3s.1 0 .1.1c0 .3-.2.3-.3.3H.4s0-.1-.1-.1V6c-.1 0-.1 0-.2.1 0 0-.1.1-.1.2v.4s.1 0 .1.1c.1.1.1 0 .1.3-.1.2 0 .3.1.5 0 .1 0 .2.1.2 0 0 0 .1.1.1 0 .2 0 .4.1.5.1.1.2.2.2.3l.1.2s0 .1.1.2l.1.1v.1c.1.1.1.1.2.1h.4s.1 0 .2.1c-.1.2.1 0 .1 0h.2s0 .1.1.1h.1c0-.1.1 0 .1 0h.2c.1 0 .2.1.3.1h.1s0 .2.1.2c0 0 0-.1.1-.1 0 0 .1-.1.2-.1H3.8s0-.2.1 0c0-.1.1 0 .1 0l.1-.1h.2s0-.1.1-.1.2.1.2.1c.1-.1.1-.2.1-.1l.1.1.1-.1c.1 0 .1 0 .2.1H5.4l.1-.1v-.2.1h.1c.1.1.1 0 .2 0h.5c.1 0 .2 0 .3-.1.6 0 1.2.1 1.7.1h.4s.1 0 .1-.1l.1.1c.1 0 .2 0 .2-.1.1-.1.3 0 .4 0 .2-.1.4 0 .6 0 .3 0 .6-.1.9-.1.3 0 .5.1.8.1.1 0 1.3.1 1.3 0s-.5 0-.5-.1c-.1-.1-.2 0-.3 0 0 0-.1 0-.1-.1h-.1v.1-.1c0-.2.4-.1.4-.1h.5v-.1.1l.1-.1s.1.1.2.1h.4c.2 0 .4-.1.6-.3l.2-.2v-.4c-.1 0-.1.2-.1-.2 0-.2.1-.3.1-.5v-.5c-.1.3-.1.2-.2.2z"/></svg>