<svg xmlns="http://www.w3.org/2000/svg" viewBox="0 0 491.6 498.7" style="enable-background:new 0 0 491.6 498.7" xml:space="preserve"><path d="M483.4 240.1c-2.2-3.4-5.2-6.5-7.8-9.6-2.5-3.1-4.9-6.4-7.7-9.3-4.4-4.7-10.4-7-16.8-5-4.9 1.5-9.1 6.4-14.1 7.2-3.6.6-6.4-2.3-8.6-5.4 5.1-3.8 10.2-7.7 15.1-11.8 5.4-4.5 8.1-10.7 5.4-17.6-2.8-7.2-9.5-13.4-14.3-19.3-2.5-3.1-5-6.1-7.5-9.2-2.3-2.8-4.4-5.8-7.6-7.6-7.5-4.2-14.8.6-21.2 4.6-6 3.7-12 7.6-18 11.5-12.3 8.1-24.4 16.5-36.3 25.2l-6.9 5.1c16.9-16.6 33.9-33.2 50.8-49.8 7.5-7.3 16.8-14.6 21.4-24.3 4.4-9.3 3-19.7.7-29.4-2.2-9.5-6.2-20.2-18-18.7-5.7.7-10.9 3.9-15.8 6.5-5.8 3.1-11.6 6.3-17.2 9.6-10.7 6.4-20.9 13.4-31.1 20.5-5 3.5-11.5 7.8-17.9 8.9-3.6.6-6.3-3.4-4.4-6.6 11.9-19.7 30.9-34.1 47.7-49.6 4.5-4.1 9.9-8.7 10.2-15.3.2-5.3-3-9.6-7.2-12.4-4.7-3-10-3.7-15.3-4.9-2.6-.6-5.6-1.2-7.8-2.8-2.9-2-2.5-4.3-2.4-7.5.3-29-57.3 3.9-67.7 10-26.1 15.5-49.9 35-73.2 54.3-6 5-19.5 14.8-25.4 19.9-41.5 28.3-73.4 54.8-107.6 91.6-10 10.8-19.5 22.1-28.5 33.8-4.4 5.8-8.7 11.7-12.9 17.8-3.9 5.8-8.6 11.9-9.1 19.1-.5 7.5 4.2 13.8 8.1 19.8 3.9 6 7.6 12.1 11.9 17.7 7.2 9.3 17.1 17 29.5 15.6 11.5-1.2 20.7-9 29.3-15.9 4.5-3.6 9.2-7.5 14.4-10.1 1.8-.9 3.7 1.1 2.7 2.8-7.5 13.4-12.8 28.3-7.9 43.6 1.2 3.9 3.1 7.5 5.6 10.8 3 3.9 7.2 6.6 10.1 10.6 2.7 3.8 3.7 8.3 7.6 11.1 3.3 2.4 7.3 3.1 11.4 2.5 9.6-1.4 17-8.6 23.9-14.8 8.4-7.5 16.6-15.1 25.1-22.4 16.1-13.8 33.1-30.1 49.3-44.2-4.6 4.9-9.2 9.9-13.7 14.9-22.1 24.7-42.7 50.8-61.8 77.9-1.3 1.8-1.4 3.6-.8 5.1-.2 1.4.1 2.9.8 4.3 4.7 9.4 15.9 18.9 26.9 18.8 2.8 0 5.4-.7 8-1.7 2.8-1.1 5.4-3.2 8.3-3.8 3.8-.8 9.1 1.7 12.7 4.5-.6 1.6-1.3 3.1-1.6 4.8-.5 3-.7 6-.4 9.1.7 6.4 2.9 12.7 6.5 18 7.4 10.7 18.9 17.5 30.3 23.2 2.8 1.4 6.8 1.4 9.1-1.2 14.5-16.6 30.3-32.4 46.1-47.8-1.2 6.2-.1 12.3 1.6 18 7.7 26.9 26.6 34.3 36.3 36.3 3.3.7 6.6-.5 8.8-3.1l52.3-61.8c9.4-11.1 19.5-21.5 30.4-31.1 17.8-15.9 44-40.2 43.3-46.7-.9-9.1-6.8-19.6-9.8-28.2-2.2-6.3-4-16.8-10.3-17.9-3.2-.5-6.9 1.3-10.4 3.6 8.8-7.6 17.5-15.2 26.3-22.9 8-6.8 24.8-16.6 17.1-28.9z"/></svg>