<svg xmlns="http://www.w3.org/2000/svg" viewBox="0 0 263.6 200" style="enable-background:new 0 0 263.6 200" xml:space="preserve"><path style="fill:none" d="M-14.9 0h300v200h-300z"/><path d="M261.2 72c-2.8-5.8-9.7-8.4-15.4-5.7l-10.3 5c2.2-3.3 2.7-7.7.8-11.7-2.8-5.8-9.7-8.4-15.4-5.7l-12.2 5.9-7.8 3.8c2.2-3.3 2.7-7.7.8-11.7-1.4-2.8-3.7-4.9-6.4-5.9l11.8-5.6c5.7-2.8 8-9.8 5.2-15.6-2.8-5.8-9.7-8.4-15.4-5.7L184.4 25l-7.5 3.6c4.4-3.3 6-9.3 3.5-14.5-2.8-5.8-9.7-8.4-15.4-5.7l-12.2 5.9-4.1 2c1.6-2.3 1.8-5.9.2-9.2-2.1-4.4-6.6-6.7-10.1-5.1l-7.4 3.5-80.1 38.4-7.4 3.5c-3.4 1.7-4.5 6.6-2.3 11.1 1.6 3.3 4.5 5.4 7.4 5.6L20 78 7.8 83.9c-5.7 2.8-8 9.8-5.2 15.6 2.8 5.8 9.7 8.4 15.4 5.7l12.2-5.9 7.5-3.6c-4.4 3.3-6 9.3-3.5 14.5 1.4 2.8 3.7 4.9 6.4 5.9l-11.8 5.6c-5.7 2.8-8 9.8-5.2 15.6 2.8 5.8 9.7 8.4 15.4 5.7l12.2-5.9 7.8-3.8c-2.2 3.3-2.7 7.7-.8 11.7 2.8 5.8 9.7 8.4 15.4 5.7l10.3-5c-2.2 3.3-2.7 7.7-.8 11.7 1.9 4 5.7 6.4 9.8 6.7l-7 3.2-11.9 5.9c-5.7 2.8-8 9.8-5.2 15.6 2.8 5.8 9.7 8.4 15.4 5.7l14-6.5 24.8-12c-2.3 2-2.8 6-1 9.6 2 4.2 6.3 6.3 9.5 4.8l7-3.3 9.1-4.4 66.2-31.8 7-3.3c3.2-1.6 4.2-6.2 2.2-10.4-1.7-3.6-5.2-5.7-8.2-5.2l8.2-3.9c5.7-2.8 8-9.8 5.2-15.6-1.9-4-5.7-6.4-9.8-6.7l25.4-12.2 12.2-5.9c5.7-2.9 8-9.8 5.2-15.7z"/></svg>