<svg xmlns="http://www.w3.org/2000/svg" viewBox="0 0 231.5 228.2" xml:space="preserve"><path fill="#FFF" stroke="#231F20" stroke-miterlimit="10" d="M153.3 13.4H73C36.7 13.4 7.3 44.6 7.3 83v33.7c0 47.3 36.1 85.6 80.7 85.6h91.3c-2.4 9.1-7.1 15.6-11.1 19.7-2 2.1-.7 5.7 2.1 5.7h18.8c29.5 0 29.8-31 29.8-31V83c.1-38.4-29.4-69.6-65.6-69.6z"/><path fill="none" stroke="#231F20" stroke-miterlimit="10" d="M73.6 6.9h51.7M225.2 108.7v81.9c0 6.1-.7 12.2-2.4 18-1.7 6-4.5 12.4-9.1 15.2M231 148.7v-19.2M.8 98.6s-3 47.6 10.3 60.3M121.2.5h18"/><path d="M149.1 25.2H77.6C45.2 25.2 19 52.6 19 86.3v29.6c0 41.4 32.2 75 71.9 75h81.4c28.6-.4 35.3-2.1 35.3-2.1V86.3c0-33.7-26.2-61.1-58.5-61.1z"/></svg>