<svg xmlns="http://www.w3.org/2000/svg" viewBox="0 0 190.8 196.2" style="enable-background:new 0 0 190.8 196.2" xml:space="preserve"><path d="m167 105.1-3.8-33.4c-2.1-18.6-14-34.6-31.2-42.1L100.6 16c-17-7.4-36.7-5.1-51.7 5.9L21.3 42.2a52.282 52.282 0 0 0-21 48l3.8 33.4c2.1 18.6 14 34.6 31.2 42.1l31.5 13.6c17 7.4 36.7 5.1 51.7-5.9l27.6-20.3c15-11.1 23-29.4 20.9-48z" style="opacity:.4;fill:#231f20;enable-background:new"/><path d="m171.1 96.6-3.8-33.4c-2.1-18.6-14-34.6-31.2-42.1L104.7 7.5C87.7.1 68 2.4 53 13.4L25.4 33.7a52.282 52.282 0 0 0-21 48L8.2 115c2.1 18.6 14 34.6 31.2 42.1l31.5 13.6c17 7.4 36.7 5.1 51.7-5.9l27.6-20.3c15-11 23-29.3 20.9-47.9z"/><path d="M106.1 177c-6.1 0-12.2-1.2-18-3.7l-40-17.4c-14.7-6.4-25-20.3-26.8-36.3l-4.9-43.4c-1.7-16.1 5.2-31.9 18.2-41.3l35.1-26C82.6-.7 99.8-2.6 114.6 3.8l40 17.4c14.7 6.4 25 20.3 26.8 36.3l4.9 43.4c1.8 16-5.1 31.8-18.2 41.3l-35.1 26c-7.9 5.8-17.4 8.8-26.9 8.8zM96.6 2.1c-9.1 0-18.2 2.9-25.7 8.5l-35.1 26c-12.4 9-19.1 24.1-17.4 39.5l4.9 43.4c1.7 15.3 11.6 28.6 25.6 34.7l40 17.4c14.1 6.1 30.6 4.3 42.9-4.9l35.1-26c12.5-9.1 19.2-24.2 17.4-39.5l-4.9-43.4c-1.7-15.3-11.6-28.6-25.6-34.7l-40-17.4c-5.5-2.5-11.4-3.6-17.2-3.6z"/><circle cx="56.9" cy="163.4" style="opacity:.21;fill:#231f20;enable-background:new" r="32.8"/><circle cx="61.7" cy="156.6" style="fill:#231f20" r="32.8"/><path d="m19.2 31.6.1-6.3c.1-4.1-4.4-6.8-8-4.8l-5.5 3.1c-3.6 2-3.7 7.2-.1 9.3l5.4 3.3c3.6 2 8.1-.5 8.1-4.6zM166.2 165.1l.1-6.3c.1-4.1-4.4-6.8-8-4.8l-5.5 3.1c-3.6 2-3.7 7.2-.1 9.3l5.4 3.3c3.5 2.1 8-.4 8.1-4.6zM29.1 9.2l.1-3.9c0-2.5-2.7-4.2-4.9-2.9l-3.4 1.9c-2.2 1.2-2.3 4.4-.1 5.7l3.3 2c2.2 1.3 5-.3 5-2.8z"/><path d="m187.2 104.9 3.1-8.6c2-5.6-2.8-11.3-8.6-10.2l-9 1.6c-5.9 1-8.4 8-4.6 12.6l5.9 7c3.8 4.5 11.1 3.2 13.2-2.4z" style="opacity:.76;fill:#231f20;enable-background:new"/></svg>