<svg xmlns="http://www.w3.org/2000/svg" viewBox="0 0 187.7 197.9" xml:space="preserve"><path opacity=".5" fill="#231F20" d="M8.7 96.9c-5.7 20-5.4 41.2 9.8 55.1 25 22.9 69 26.6 99.1 24 12.9-1.1 25.9-3.8 37.5-10.8 11.5-7 21.5-18.6 25.5-33.2 6.4-23.8-4-49.4-16.5-69.5-10.4-16.7-22.6-32.1-37.4-42.9C96.3-2.8 64.1.7 41 33.7 30.7 48.5 15.6 72.8 8.7 96.9z"/><path d="M13.9 91.7c-5.7 20-5.4 41.2 9.8 55.1 25 22.9 69 26.6 99.1 24 12.9-1.1 25.9-3.8 37.5-10.8 11.5-7 21.5-18.6 25.5-33.2 6.4-23.8-4-49.4-16.5-69.5-10.4-16.7-22.6-32.1-37.4-42.9C101.5-8 69.3-4.5 46.2 28.5 35.9 43.3 20.8 67.6 13.9 91.7z"/><path fill="none" stroke="#231F20" strokeWidth="2" stroke-miterlimit="10" d="M17.3 57.4C4.2 73.4-4 93.1 4.4 111.8c13.8 30.9 52.8 51.8 81.5 61.4 12.3 4.1 25.3 6.8 38.7 5 13.4-1.8 27.1-8.5 36.6-20.4 15.3-19.3 15.9-46.9 12.5-70.3-2.9-19.4-8-38.4-17.3-54.3C137.2.7 106.3-8.9 72 12.3 56.7 21.7 33.2 38 17.3 57.4z"/><circle transform="rotate(-50.253 48.903 165.085)" opacity=".21" cx="48.9" cy="165.1" r="32.8"/><circle transform="rotate(-87.843 53.616 158.226) scale(1.00001)" cx="53.6" cy="158.2" r="32.8"/><path d="m26.7 49.4.1-6.3c.1-4.1-4.4-6.8-8-4.8l-5.5 3.1c-3.6 2-3.7 7.2-.1 9.3l5.4 3.3c3.5 2.1 8-.4 8.1-4.6zM179.9 65.7l-8-.9c-5.2-.6-9.1 4.7-7 9.5l3.2 7.4c2.1 4.8 8.6 5.6 11.8 1.3l4.8-6.5c3-4.2.4-10.2-4.8-10.8zM169.6 48.6l7.5-5.2c4.9-3.4 4.3-10.8-1-13.3l-8.3-3.9c-5.4-2.6-11.5 1.6-11 7.6l.7 9.1c.5 5.8 7.2 9 12.1 5.7z"/></svg>