<svg xmlns="http://www.w3.org/2000/svg" viewBox="0 0 78.7 73.3" style="enable-background:new 0 0 78.7 73.3" xml:space="preserve"><path d="M5.3 41.4c1.8 0 3.3-1.5 3.3-3.3s-1.5-3.3-3.3-3.3S2 36.3 2 38.1s1.5 3.3 3.3 3.3zm0-6.1c1.6 0 2.8 1.2 2.8 2.8s-1.3 2.8-2.8 2.8c-1.6 0-2.8-1.3-2.8-2.8 0-1.6 1.3-2.8 2.8-2.8zM56.7 4.8h1.9v1.9c0 .2.2.3.3.3.1 0 .2-.1.3-.2v-2h1.9c.1 0 .3-.1.3-.3 0-.2-.2-.3-.3-.3h-1.9V2.4c0-.2-.2-.3-.3-.3-.2 0-.3.2-.3.3v1.8h-1.9c-.2 0-.3.2-.3.3 0 .2.2.3.3.3zM8.3 8.5c.7 0 1.3-.6 1.3-1.3s-.5-1.3-1.2-1.3-1.3.6-1.3 1.3.5 1.3 1.2 1.3zM67 16.2c-5.6-3.6-12.5-4.1-19-5.4-6.1-1.2-12-3.1-18-3.1-6.1 0-12.6 2.3-15.6 7.6-2.4 4.2-2 9.5-1.3 14.3.7 4.8 1.5 9.9-.2 14.5-1.1 3.1-3.3 5.7-5.1 8.4-1.8 2.8-3.3 6-2.6 9.3.5 2.7 2.4 4.9 4.8 6.2 2.3 1.2 5.1 1.6 7.8 1.3 4.2-.4 8.2-2.1 12-3.9 9.7-4.4 19.3-8.7 29-13.1 3.8-1.7 7.7-3.5 10.7-6.3 4.2-3.9 6.5-9.8 6-15.5S71.8 19.4 67 16.2zm-8.6 44.9c-2.5 0-4.6 2.1-4.6 4.6s2.1 4.6 4.6 4.6 4.6-2 4.6-4.6c0-2.5-2.1-4.6-4.6-4.6zm0 8.7c-2.3 0-4.1-1.8-4.1-4.1s1.8-4.1 4.1-4.1c2.2 0 4.1 1.9 4.1 4.1 0 2.3-1.8 4.1-4.1 4.1zm20.2-39.6c-.6-6.7-4.3-12.9-9.9-16.7-5-3.2-10.6-4.2-16.1-5.1h-.1c-1.3-.2-2.6-.5-3.9-.7-1.7-.3-3.4-.7-5-1.1-4.4-1-9-2.1-13.6-2.1-8.2 0-15.1 3.4-18.3 9.2-2.8 5-2.5 10.8-1.7 16.3v.3c.6 4.4 1.3 8.9-.1 12.7-.7 1.9-2 3.7-3.3 5.7l-1.5 2.1c-1.8 2.8-4 7-3 11.6.6 3.5 3 6.5 6.4 8.4 2.2 1.1 4.8 1.8 7.5 1.8.7 0 1.4 0 2-.1 4.9-.5 9.3-2.4 13-4.2 4.8-2.2 9.4-4.3 14-6.3l.4-.2c4.9-2.2 9.7-4.4 14.6-6.6 3.6-1.6 8.1-3.6 11.6-6.9 4.9-4.5 7.6-11.5 7-18.1zm-7.3 17.7c-3.4 3.2-7.9 5.2-11.4 6.8-4.9 2.2-9.8 4.4-14.6 6.6l-.4.2c-4.6 2.1-9.3 4.2-13.9 6.3-3.7 1.8-8.1 3.7-12.8 4.1-.6.1-1.3.1-2 .1-2.7 0-5.2-.6-7.3-1.7-3.3-1.8-5.6-4.7-6.2-8.1-.9-4.4 1.2-8.5 3-11.2.5-.7 1-1.4 1.4-2.1 1.4-1.9 2.7-3.8 3.4-5.8 1.4-3.9.8-8.5.1-12.9v-.3c-.8-5.4-1.1-11.1 1.6-16C15.3 8.4 22 5.1 30 5.1c4.6 0 9.1 1 13.5 2.1 1.5.4 3.3.8 5 1.1 1.3.3 2.6.5 3.9.7h.1c5.4.9 11 1.9 15.9 5 5.5 3.7 9.1 9.8 9.7 16.3.6 6.4-2 13.2-6.8 17.6zm-1 10.6c-.8 0-1.5.7-1.5 1.5s.7 1.5 1.5 1.5 1.5-.7 1.5-1.5-.7-1.5-1.5-1.5z"/></svg>