<svg xmlns="http://www.w3.org/2000/svg" viewBox="0 0 449.2 470.3" style="enable-background:new 0 0 449.2 470.3" xml:space="preserve"><path d="M438.8 329.6c-6.6-3.1-14.4-.3-17.5 6.3-28.2 59.6-86.4 100.4-151.9 106.3-7.2.7-12.6 7.1-11.9 14.3.6 6.8 6.4 12 13.1 12 .4 0 .8 0 1.2-.1 74.8-6.8 141.2-53.3 173.3-121.3 3-6.5.2-14.4-6.3-17.5z"/><path d="M429.7 232.8c0-91.7-63.3-168.6-148.6-189.4l23.8-23.8c4.5-4.5 4.5-11.8 0-16.3s-11.8-4.5-16.3 0l-35.4 35.4c-6.1-.6-12.3-.9-18.5-.9-99.4 0-181.4 74.3-193.4 170.4-.6.2-1.2.3-1.8.5L6.9 241.3c-.3 1-.5 1.9-.7 2.9l35-35c-.3 2.3-.5 4.6-.7 6.9L5.1 251.4c0 .7-.1 1.5-.1 2.2l35.3-35.3c-.2 2.2-.3 4.4-.4 6.6L5.2 259.6c.1.6.1 1.3.2 1.9l34.3-34.3c-.1 1.9-.1 3.8-.1 5.6v.6L6.5 266.7c.1.6.3 1.1.5 1.7l32.8-32.8c0 2 .1 4 .2 6L8.6 272.9l.6 1.5L40 243.6c.1 1.9.2 3.9.4 5.8l-29.1 29.1c.3.4.5.9.8 1.3l28.5-28.5c.2 1.9.4 3.7.6 5.6l-26.6 26.6.9 1.2 25.9-25.9c.2 1.8.5 3.6.8 5.4L18.5 288l.5.5.5.5 23-23c.3 1.8.6 3.5 1 5.2L22.8 292l1.2.9L43.9 273c.4 1.7.7 3.4 1.1 5.1l-17.3 17.3c.4.3.9.5 1.3.8l16.4-16.4c.4 1.6.8 3.3 1.3 4.9l-13.6 13.6 1.5.6 12.6-12.6c.5 1.6.9 3.2 1.4 4.8l-9.4 9.4c.6.2 1.1.3 1.7.5l8.3-8.3c.5 1.6 1 3.1 1.6 4.6l-4.6 4.6c.6.1 1.3.2 1.9.2l3.3-3.3c11 30.4 29.2 57.2 52.7 78.4l-33.4 33.4c-4.9 4.9-4.9 12.9 0 17.9 2.5 2.5 5.7 3.7 8.9 3.7s6.5-1.2 8.9-3.7L124 393c31.5 21.8 69.6 34.5 110.8 34.5 107.6.3 194.9-87 194.9-194.7z"/><path d="m338.6 42.3-5.4 5.4c-1.3 1.3-1.3 3.5 0 4.8 1.3 1.3 3.5 1.3 4.8 0l5.4-5.4 5.4 5.4c1.3 1.3 3.5 1.3 4.8 0 1.3-1.3 1.3-3.5 0-4.8l-5.4-5.4 5.4-5.4c1.3-1.3 1.3-3.5 0-4.8-1.3-1.3-3.5-1.3-4.8 0l-5.4 5.4-5.4-5.4c-1.3-1.3-3.5-1.3-4.8 0-1.3 1.3-1.3 3.5 0 4.8l5.4 5.4zM172.3 425.2c-1.3-1.3-3.5-1.3-4.8 0l-5.4 5.4-5.4-5.4c-1.3-1.3-3.5-1.3-4.8 0-1.3 1.3-1.3 3.5 0 4.8l5.4 5.4-5.4 5.4c-1.3 1.3-1.3 3.5 0 4.8 1.3 1.3 3.5 1.3 4.8 0l5.4-5.4 5.4 5.4c1.3 1.3 3.5 1.3 4.8 0 1.3-1.3 1.3-3.5 0-4.8l-5.4-5.4 5.4-5.4c1.3-1.3 1.3-3.4 0-4.8zM19 220.8c-2.9 2.9-5.4 6.1-7.4 9.5l16.9-16.9c-3.4 2-6.6 4.5-9.5 7.4zM79.5 432.4z"/></svg>