<svg xmlns="http://www.w3.org/2000/svg" viewBox="0 0 235.3 229" xml:space="preserve"><path fill="#FFF" stroke="#231F20" stroke-miterlimit="10" d="m219.2 115.9-40.9-75.2c-4.2-7.7-12-12.5-20.4-12.5H86.8L82.3 3.9c-.7-3.8-5.6-4.6-7.4-1.2L49.3 51.9c-.2.4-.3.8-.4 1.2l-34.2 62.8c-4.2 7.7-4.2 17.2 0 24.9L55.6 216c4.2 7.7 12 12.5 20.4 12.5h81.9c8.4 0 16.2-4.8 20.4-12.5l40.9-75.2c4.2-7.7 4.2-17.2 0-24.9z"/><path fill="none" stroke="#231F20" stroke-miterlimit="10" d="m222.7 150.4-29.9 54.9M234.9 145.3l-21.8 41.4M65.8 4.4l-52.1 98.5M23.4 69.9l-23 41.5M195.9 58.9l8.4 14.8"/><path d="M81.1 216.5c-6.6 0-14.5-4.8-17.7-10.6l-36.5-68.4c-3.1-5.8-3.1-15.3 0-21.2L63.4 48c3.1-5.8 11.1-10.6 17.7-10.6h71.7c6.6 0 14.5 4.8 17.7 10.6l36.5 68.4c3.1 5.8 3.1 15.3 0 21.2L170.5 206c-3.1 5.8-11.1 10.6-17.7 10.6H81.1z"/></svg>