<svg xmlns="http://www.w3.org/2000/svg" viewBox="0 0 381.5 368.9" style="enable-background:new 0 0 381.5 368.9" xml:space="preserve"><path d="M307.3 295.1c-8-1.1-16.1-.1-24.1.9-17.5 2.3-33.7 4.7-50.8 8.9-7.1 1.7-15.5 4.8-22.3 7.3-2.2.8-4.4 1.7-6.1 3.3-1.7 1.6-2.8 4-2.3 6.3.6 2.5 3.2 4.2 5.8 4.6 2.6.4 5.2-.2 7.7-.8 21.4-4.7 44.2-6.3 64.7 1.2 5.7 2.1 11.2 4.9 16.9 7 5.7 2.1 11.8 3.7 17.9 3.1 6.1-.5 12.2-3.4 15.5-8.5 4.4-6.8 3-16.2-2-22.5-4.9-6.3-12.9-9.7-20.9-10.8zm-103-249.2c10 9.5 19.3 18.1 30.3 26.4 4.5 3.4 10.5 7 15.4 9.9 1.6.9 3.2 1.8 5 2.1 1.8.3 3.8-.2 4.9-1.7 1.2-1.6 1-4 0-5.7-1-1.8-2.7-3-4.3-4.3-13.3-10.7-25.4-23.7-30.9-39.8-1.5-4.5-2.5-9.2-4-13.7s-3.6-9-6.9-12.4c-3.3-3.4-8-5.7-12.8-5.2-6.2.6-11.3 6.1-12.7 12.3-1.4 6.1.5 12.6 3.7 18 3.1 5.3 7.7 9.8 12.3 14.1zm-181 191.9c10.6-11.3 25.1-37.1 18.4-37.2-2 0-10.6 4.6-26.6 19.6-16 14.9-2.4 28.9 8.2 17.6zm326.3-103.7C330.3 115 304 104.7 277.8 98c-4.8-1.2-9.7-2.4-14.5-3.5-17-3.8-32.8-12-45.5-24-.1-.1-.2-.1-.2-.2-13.7-13-25.5-28.3-41.2-38.6C154 17 124.2 14 99.6 24.7c-24.5 10.7-42.7 35-45.3 61.7-3.1 31.9 14.7 63.7 8.5 95.2-7.6 38.8-51.8 73.9-52.2 113.5-.2 19.5 12.7 47.8 28.7 58.9 16 11.1 36.5 14.9 55.9 12.4 29.5-3.8 55.3-38.1 82-51 28.8-13.9 59.8-23.3 91.4-27.7 21.5-3 43.8-3.9 63.3-13.3 24.8-12 42-37.8 44.9-65.2 3.2-27.5-7.7-55.7-27.2-75.1z"/></svg>