<svg xmlns="http://www.w3.org/2000/svg" viewBox="0 0 234.8 224.5" xml:space="preserve"><path fill="#FFF" stroke="#231F20" stroke-miterlimit="10" d="M205.4 199.6v-63.8l25.9-23.6c3.9-3.5 3.9-9.3 0-12.9l-25.9-23.6V11.8c0-6.3-5.6-11.3-12.4-11.3H56.2c-12.1 0-22.7 7.4-25.8 18l-24 80.9c-1.2 4.2-1.2 8.6 0 12.7l24 80.9c3.2 10.6 13.7 18 25.8 18H193c6.9 0 12.4-5.1 12.4-11.4z"/><path fill="none" stroke="#231F20" stroke-miterlimit="10" d="M181.1 217.3h-76.6M170.3 224h-27.5M22 20 .5 93"/><path d="M191.4 191.2V134l22.1-21.2c3.3-3.2 3.3-8.3 0-11.5L191.4 80V22.8c0-5.6-4.7-10.2-10.6-10.2H64.3c-10.3 0-19.3 6.6-22 16.1L22 101.3c-1.1 3.7-1.1 7.7 0 11.4l20.4 72.5c2.7 9.5 11.7 16.1 22 16.1h116.5c5.8 0 10.5-4.5 10.5-10.1z"/></svg>