<svg xmlns="http://www.w3.org/2000/svg" viewBox="0 0 199.4 236.3" xml:space="preserve"><path fill="#FFF" d="M198.8 145.2c-.1-18.8-.1-39-.1-55.5V62.9c0-29.5-31.5-48.6-50.8-48.6-19.3 0-132.9-.1-132.9-.1-3.9 0-7 3.1-7 7 0 0 .1 99.7.1 130.7 0 31.1 32.2 51.8 49.8 51.8 8.2 0 63.3.1 63.3.1 3.9 0 8.5 2.8 10.3 6.2l12.7 23.3c1.8 3.4 4.9 3.4 6.7 0l12.6-23.2c1.8-3.4 6.5-6.1 10.3-6.1h18.4c3.7 0 6.7-3.1 6.7-7 0 0-.1-20.5-.1-51.8z"/><path fill="none" stroke="#231F20" stroke-miterlimit="10" d="M198.8 145.2c-.1-18.8-.1-39-.1-55.5V62.9c0-29.5-31.5-48.6-50.8-48.6-19.3 0-132.9-.1-132.9-.1-3.9 0-7 3.1-7 7 0 0 .1 99.7.1 130.7 0 31.1 32.2 51.8 49.8 51.8 8.2 0 63.3.1 63.3.1 3.9 0 8.5 2.8 10.3 6.2l12.7 23.3c1.8 3.4 4.9 3.4 6.7 0l12.6-23.2c1.8-3.4 6.5-6.1 10.3-6.1h18.4c3.7 0 6.7-3.1 6.7-7 0 0-.1-20.5-.1-51.8z"/><path d="M20 28.2V148c0 27 27.7 45 42.9 45s121.5.2 121.5.2-.3-97-.3-122.6c0-25.6-27.1-42.3-43.7-42.3-16.6.1-120.4-.1-120.4-.1z"/><path fill="none" stroke="#231F20" stroke-miterlimit="10" d="M25.2 6.4h112.7M87.2.5h50.1M.5 154.7c0 25.9 19.4 57.2 51 57.2"/></svg>