<svg xmlns="http://www.w3.org/2000/svg" viewBox="0 0 226.9 229.4" xml:space="preserve"><path fill="#FFF" stroke="#231F20" stroke-miterlimit="10" d="M25.1 200.7h64.5l23.9 25.3c3.6 3.8 9.4 3.8 13 0l23.9-25.3h64.5c6.3 0 11.5-5.4 11.5-12.1V54.9c0-11.8-7.5-22.1-18.2-25.2L126.5 6.3c-4.2-1.2-8.6-1.2-12.9 0L31.9 29.7c-10.7 3.1-18.2 13.4-18.2 25.2v133.7c0 6.7 5.1 12.1 11.4 12.1zM7.3 177v-74.8M.5 166.4v-26.8M206.7 21.5 132.9.5"/><path fill="#FFF" stroke="#231F20" stroke-miterlimit="10" d="M164.3 207.6h-11.8l-11.9 12.3"/><path d="M35.7 191.5H93l21.2 22.5c3.2 3.4 8.4 3.4 11.5 0l21.2-22.5h57.3c5.6 0 10.2-4.8 10.2-10.8V61.8c0-10.5-6.6-19.7-16.2-22.4l-72.6-20.8c-3.7-1.1-7.7-1.1-11.4 0L41.7 39.4c-9.5 2.7-16.2 11.9-16.2 22.4v118.8c0 6 4.5 10.9 10.2 10.9z"/></svg>