<svg xmlns="http://www.w3.org/2000/svg" viewBox="0 0 232 196.1" xml:space="preserve"><ellipse transform="rotate(-18.88 116.019 108.274)" opacity=".16" cx="116" cy="108.3" rx="119.5" ry="80"/><path d="M116.3 23.3c-11.8 0-23 2.4-33.3 6.7-5.6-2.3-11.7-3.5-18.1-3.5-26.6 0-48.2 21.6-48.2 48.2 0 12.9 5.1 24.5 13.3 33.2v1.8c0 47.7 38.7 86.4 86.4 86.4s86.4-38.7 86.4-86.4c-.1-47.7-38.8-86.4-86.5-86.4z"/><circle cx="195.9" cy="178.2" r="14.6"/><path d="M40 8c0 4.4-3.6 8-8 8s-8-3.6-8-8 3.6-8 8-8 8 3.6 8 8z"/></svg>