<svg xmlns="http://www.w3.org/2000/svg" viewBox="0 0 186.5 192.5" style="enable-background:new 0 0 186.5 192.5" xml:space="preserve"><path d="M181.3 124c-.4 1-.7 2.1-1.3 3.4-.3.6-.5 1.3-.8 2-.1.3-.3.7-.4 1-.2.3-.3.7-.5 1-.7 1.4-1.3 2.9-2.1 4.3-.4.7-.8 1.4-1.1 2.1-.4.7-.8 1.4-1.2 2-.4.7-.8 1.3-1.2 1.9l-1.2 1.8c-.4.6-.7 1.1-1.1 1.6-.3.5-.7.9-1 1.3-1.3 1.6-2.1 2.6-2.2 2.5 0 0 .1-.2.4-.6.2-.4.6-.9 1-1.5s1-1.4 1.5-2.2c.5-.8 1.1-1.7 1.6-2.5-.1-.1.2-.8.6-2 .2-.6.5-1.2.8-2 .2-.4.3-.7.5-1.1.2-.4.3-.8.5-1.2.3-.8.7-1.7 1-2.5.3-.9.6-1.7.9-2.5.6-1.6 1.1-3 1.5-4 .1-.2.2-.6.3-.9.1-.2.1-.4.2-.6.1-.2.1-.5.2-.7.3-1 .7-2.2 1-3.6.2-.7.3-1.4.5-2.2.2-.8.4-1.6.5-2.4.2-.8.3-1.7.5-2.5.1-.4.2-.9.2-1.3.1-.4.1-.9.2-1.3.1-.9.2-1.7.4-2.6.1-.9.2-1.7.2-2.5.1-.8.2-1.6.2-2.4 0-.8.1-1.5.1-2.3 0-.7.1-1.4 0-2v-1.7c0-1 0-1.8-.1-2.3-.1-3-.3-3-.6-1.1-.1 1-.3 2.4-.5 4.2-.1.4-.1.9-.2 1.4-.1.5-.1 1-.2 1.5s-.2 1-.2 1.6c-.1.5-.2 1.1-.3 1.7-.8 4.6-2.1 9.9-3.9 14.8-1.7 5-3.9 9.5-5.7 12.9-.8 1.5-1.3 2.3-1.6 2.7 6.4-11.8 10.1-25.3 10.1-39.6 0-15.1-4.1-29.3-11.2-41.5 0 0 0-.1-.1-.1-.3-.5-.6-1.1-1.1-1.9-3-4.9-6.7-9.6-10.8-13.9-4.1-4.3-8.6-8-13.2-11.1-4.5-3.1-9.1-5.5-13.2-7.4-1-.5-2-.9-3-1.3-.5-.2-.9-.4-1.4-.6-.5-.2-.9-.3-1.4-.5-.9-.3-1.7-.6-2.5-.9-.8-.3-1.5-.5-2.2-.7-1.8-.6-3.7-1.2-6.5-1.9-.7-.2-1.5-.3-2.3-.5-.4-.1-.9-.2-1.3-.3-.5-.1-.9-.1-1.5-.2-.5-.1-1-.2-1.6-.2-.6-.1-1.1-.2-1.7-.2-1.2-.1-2.5-.2-4-.3 1 0 1.9.1 2.9.2s1.9.1 2.9.3l2.9.4c1 .1 1.9.3 2.9.5 0-.1.1-.4.1-.4-7.6-1.5-16.5-2-25.2-1.1-1.1.1-2.2.3-3.3.4-1.1.2-2.2.4-3.2.6l-.8.1-.6-.1c-.5.1-1.1.2-1.6.4-.5.1-1.1.2-1.6.4-.5.1-1 .3-1.5.4-.5.1-1 .3-1.5.4-.5.1-1 .3-1.5.4-1 .3-2 .7-3 1-.5.2-1 .3-1.4.5-.5.2-.9.4-1.4.5-.5.2-.9.4-1.4.5-.5.2-.9.4-1.4.6 0 0-.1-.3-.2-.4-1.2.6-2.4 1-3.6 1.7l-1.7.9-.9.4-.9.5c-.9.4-1.1.4-.8.1.4-.3 1.3-1 2.7-1.7 2.8-1.7 7.6-4 13.5-5.9 5.9-2 12.9-3.3 19.6-3.8 6.7-.5 13.2-.2 18.1.5 0-.1.1-.4.1-.5l-2-.3-1-.1c-.3 0-.7-.1-1-.1-1.3-.1-2.7-.2-4-.3v-.3c6 .3 11.7 1.1 17.2 2.5s10.7 3.3 15.7 5.6 9.8 5.2 14.3 8.5c.5.4 1 .8 1.6 1.2-.2-.1-.3-.2-.5-.4 0-.1.1-.1-.3-.5l-2.8-2.1c.8.6 1.7 1.2 2.5 1.8.8.6 1.6 1.3 2.5 1.9.4.3.8.7 1.3 1 .4.4.8.7 1.2 1.1.4.4.8.7 1.2 1.1l.6.5.6.6c.8.8 1.6 1.5 2.4 2.3.8.8 1.5 1.6 2.3 2.4l.6.6.6.6 1.1 1.3 1.1 1.3 1 1.3 1 1.3.5.7.5.7c.7.9 1.3 1.8 2 2.8.6.9 1.2 1.9 1.8 2.8.1.2.3.5.4.7l.4.7c.3.5.6 1 .8 1.4 2.2 3.8 4.1 7.7 5.6 11.4.8 1.8.9 1.8.3-.1-.3-1-.8-2.4-1.6-4.3s-1.8-4.2-3.3-6.9c-3-5.3-5.9-9.5-9.2-13.4-.8-1-1.7-1.9-2.5-2.9-.9-.9-1.8-1.9-2.7-2.8-.9-.9-1.9-1.9-3-2.8-1-1-2.2-1.9-3.3-2.9l.2-.2c3.1 2.6 6.8 6.1 10.1 10 3.3 3.8 6.3 8 8.5 11.4 1.2 1.7.1-.1-.9-1.9-.3-.4-.5-.9-.7-1.3-.2-.4-.4-.7-.6-.9-.3-.4-.2-.5.4.3.3.4.6.8.9 1.3l.8 1.3.8 1.3c.3.4.5.9.8 1.3l1.6 2.6 1.5 2.7c-2.7-5.5-6.6-11.6-11.2-17.1-4.6-5.5-9.9-10.4-14.8-14.2-.8-.7-1.6-1.3-2.4-1.9-.8-.6-1.5-1.2-2.1-1.6-1.3-.9-2.1-1.5-2-1.7-4.4-2.7-8.8-4.9-13.1-6.7-1.1-.4-2.1-.9-3.2-1.3s-2.1-.7-3.2-1.1c-1-.4-2.1-.7-3.1-1l-3-.9c-8-2.1-15.3-3.1-21.5-3.4h-2.3c-1 0-2.2 0-3.6.1-2.7.2-6.1.5-9.7 1.1-.9.2-1.8.3-2.7.5-.9.2-1.8.4-2.8.6-.5.1-.9.2-1.4.3-.5.1-.9.3-1.4.4-.9.3-1.8.5-2.8.8-.1 0-.3.1-.4.1-1.4.4-2.7.9-4.1 1.3-1.5 1.3-3.6 2-5.6 3-1 .5-2.1.9-3 1.4l-3 1.5-2.9 1.7-.8.4-.7.4-1.5.9c-3.8 2.4-7.4 5.1-10.8 8.1-.9.7-1.7 1.5-2.5 2.3-.8.8-1.7 1.5-2.4 2.4-.8.8-1.6 1.6-2.4 2.5l-2.2 2.6c-2.9 3.5-5.6 7.2-8 11-2.4 3.9-4.5 7.9-6.3 12.1-1.8 4.2-3.2 8.5-4.4 12.9-1.1 4.4-1.9 8.9-2.4 13.4-.4 4.5-.5 9-.4 13.6.3 4.5.8 9 1.6 13.4.9 4.4 2.1 8.8 3.6 13 1.5 4.2 3.3 8.3 5.4 12.2 2.1 3.9 4.4 7.7 7 11.2 2.6 3.5 5.4 6.9 8.5 10l2.3 2.3c.4.4.8.8 1.2 1.1l1.2 1.1 1.2 1.1c.4.4.8.7 1.2 1.1.8.7 1.7 1.4 2.5 2 .4.3.9.7 1.3 1l1.3.9 1.3.9c.4.3.9.6 1.3.9l2.7 1.8c.9.5 1.8 1.1 2.7 1.6.9.6 2.1 1.2 3.3 1.9 1.3.7 2.7 1.4 4.1 2.1 1.4.7 2.9 1.3 4.3 1.9 1.3.6 2.6 1 3.6 1.4 2 .8 4.1 1.3 6.2 1.9 1.1.3 2.1.5 3.2.8.5.1 1.1.3 1.6.4.6.1 1.1.2 1.7.3.6.1 1.1.2 1.7.3l.8.2.8.1c1.1.2 2.3.3 3.4.5 1.1.1 2.3.2 3.5.3.6 0 1.2.1 1.7.1.6 0 1.2 0 1.7.1 4.7.2 9.4 0 14.2-.6l1.8-.2c.6-.1 1.2-.1 1.8-.3 1.2-.2 2.4-.4 3.5-.6 1.2-.2 2.3-.5 3.5-.8 1.2-.2 2.3-.6 3.5-.9 1.2-.3 2.3-.6 3.5-1.1 1.1-.4 2.3-.8 3.4-1.2 1.1-.4 2.2-.9 3.4-1.3 1.1-.4 2.2-1 3.3-1.5.5-.3 1.1-.5 1.6-.8l1.6-.8c1.1-.6 2.1-1.1 3.1-1.7 1-.6 2.1-1.2 3.1-1.8 1-.6 2-1.3 3-1.9 3.9-2.6 7.5-5.5 10.8-8.5 3.3-3.1 6.3-6.3 9-9.6 5.4-6.6 8.9-13.3 10.8-18.2.5-1.2.9-2.3 1.3-3.3.3-1 .7-1.8.8-2.5.4-1.4.6-2.2.6-2.2.2-.5.3-1 .5-1.5.1-.5.2-1 .3-1.4.2-.9.4-1.7.4-2.2.4-1.1.2-1.1-.6.8zM61.1 12.1l.6-.2c-.3.1-.6.2-.9.4.2-.1.2-.2.3-.2z"/></svg>