<svg xmlns="http://www.w3.org/2000/svg" viewBox="0 0 204.1 230.7" xml:space="preserve"><path fill="#FFF" stroke="#231F20" stroke-miterlimit="10" d="M182.4 12.3H21.8c-9.2 0-16.7 7.9-16.7 17.7v153.4c0 9.8 7.5 17.7 16.7 17.7h48.8l24.6 26.1c3.8 4 10 4 13.8 0l24.6-26.1h48.8c9.2 0 16.7-7.9 16.7-17.7V30c0-9.8-7.5-17.7-16.7-17.7z"/><path d="M173.2 23.9H31.1c-8.1 0-14.7 7-14.7 15.6v135.7c0 8.6 6.6 15.6 14.7 15.6h43.2L96 213.9c3.4 3.6 8.8 3.6 12.2 0l21.8-23.1h43.2c8.1 0 14.7-7 14.7-15.6V39.5c0-8.6-6.6-15.6-14.7-15.6z"/><path fill="none" stroke="#231F20" stroke-miterlimit="10" d="M67.7 6.6h112.7M152.1.5h14.4M56.1 205.3h12.3l7.8 8M61.5 210.1H41M203.6 38.9v67.8M.5 181.3v-30.8"/></svg>