<svg xmlns="http://www.w3.org/2000/svg" viewBox="0 0 382.7 359.1" style="enable-background:new 0 0 382.7 359.1" xml:space="preserve"><path d="M378.1 235.8c-6.9-17.3-21.5-29.2-33.8-42.4-29.6-31.5-29.8-74.9-39.9-114.5-9.2-36.3-30.7-71.9-70.7-78-20.1-3.1-40.9 1.7-59.9 8-20.5 6.7-38.7 17-57.9 26.8-18.8 9.6-43.8 18.7-62.5 28.5-13 6.8-26.1 20-28 21.9-25.8 25.5-30.7 65-20.3 98.7 11.6 37.6 38.4 69.8 66.2 96.8 56.9 55.1 136.8 91.4 216.9 72.5 35.8-8.5 72.8-28.7 88.1-63.8 7.4-17 8.7-37.1 1.8-54.5z"/><path d="M340.6 165.5c3.9 2.2 8.7 3 13.5 2.3 4.7-.7 9.6-3.1 12.8-7.3 1.6-2.1 2.8-4.6 3-7.3.2-2.7-.3-5.3-1.4-7.5-1.1-2.3-2.6-4.2-4.4-5.7-1.8-1.5-3.9-2.6-6-3.3-2.2-.7-4.4-.9-6.6-.6-2.2.3-4.2 1.1-5.9 2.4-1.6 1.2-2.9 2.8-3.7 4.6-.8 1.8-1 3.7-.7 5.5.6 3.5 2.9 6.2 5.5 7.2 1.3.5 2.7.5 3.8.3 1.2-.2 2.1-.6 2.9-1.1 1.6-1 2.4-2.4 2.7-3.3.3-.9.2-1.5.1-1.5s-.3.4-.8 1.2c-.5.7-1.3 1.7-2.7 2.4-1.4.7-3.5 1.1-5.3.2-1.9-.8-3.5-3-3.8-5.7-.1-1.3.1-2.7.7-4 .7-1.3 1.7-2.5 3-3.4 1.3-.9 2.8-1.5 4.5-1.7 1.7-.2 3.5 0 5.2.6 1.7.6 3.4 1.5 4.8 2.8 1.4 1.3 2.6 2.8 3.5 4.6.8 1.8 1.2 3.7 1 5.7-.2 1.9-1 3.8-2.3 5.4-2.6 3.3-6.6 5.4-10.6 6-4 .7-8.1 0-11.4-1.7-3.3-1.7-5.8-4.5-7.4-7.5-1.6-3-2.2-6.1-2.1-9 .1-1.4.3-2.8.7-4 .4-1.3.9-2.4 1.4-3.4 1.1-2.1 2.4-3.6 3.6-4.8 2.4-2.3 4.2-3.1 4.1-3.4-.1-.2-2.1.2-5 2.3-1.4 1.1-3 2.7-4.4 4.8-.7 1.1-1.3 2.3-1.8 3.7-.5 1.4-.9 2.9-1.1 4.6-.3 3.3.2 7 2 10.5 1.9 3.6 4.7 6.9 8.6 9.1zM53.1 274.8c-.4-.8-3.9 0-7.7 2.3-1.5-4.5-2.6-8-3.5-8-.5.1-.8 1.4-.7 3.5.1 1.7.4 4 1.2 6.5-3 2.4-4.8 4.7-4.2 5.3.5.6 2.6-.4 5.4-2.1.9 2.2 2.1 4.1 3.1 5.5 1.3 1.7 2.3 2.5 2.7 2.3.8-.5-.9-4.5-2.8-9.6 3.8-2.5 6.9-4.8 6.5-5.7zM87.2 35.4c2.3.8 4.8 1 7.2.6 2.4-.5 4.7-1.5 6.5-3.2 1.8-1.6 3-4 3.2-6.2.5-4.5-1.8-8.3-4.4-10.1-2.6-1.9-5.2-2.2-6.8-2.2-1.7 0-2.5.4-2.5.7 0 .3.9.5 2.3.9 1.4.5 3.4 1.2 5.1 2.9.8.8 1.6 1.9 2.1 3.1.5 1.3.6 2.7.4 4.1-.2 1.4-.9 2.7-2.1 3.7-1.2 1-2.8 1.8-4.5 2.1-1.7.3-3.5.2-5-.3-1.7-.5-2.9-1.4-3.7-2.6-.9-1.2-1.4-2.6-1.6-3.9-.2-1.3 0-2.6.4-3.7.8-2.2 2.4-3.7 3.5-4.5 1.2-.9 2-1.2 1.9-1.5 0-.2-1-.5-2.6.1-1.6.5-3.9 1.9-5.5 4.8-1.6 2.8-1.8 7.3.7 11 1.1 1.7 3.1 3.4 5.4 4.2zM362.9 338.9c0-5.4-.7-9.5-1.6-9.6-.9 0-1.7 4.1-1.9 9.5-5.3 0-9.4.8-9.4 1.7 0 .9 4 1.6 9.3 1.8.1 5.1.7 8.9 1.6 9 .9 0 1.7-3.8 1.9-8.9 5.5 0 9.8-.5 9.8-1.4.1-.9-4.1-1.8-9.7-2.1z"/></svg>