<svg width="400" height="250" fill="none" xmlns="http://www.w3.org/2000/svg"><path fill="#FAFDFF" d="M0 0h400v250H0z"/><path d="M259.8 98H132.24a3.24 3.24 0 0 0-3.24 3.24v40.89a3.24 3.24 0 0 0 3.24 3.24H259.8a3.24 3.24 0 0 0 3.24-3.24v-40.89A3.24 3.24 0 0 0 259.8 98z" fill="#3B28CC"/><path d="M265.87 152.1H138.31c-2.27 0-4.13-1.85-4.13-4.13v-40.9c0-2.27 1.85-4.13 4.13-4.13h127.56c2.27 0 4.13 1.85 4.13 4.13v40.9c0 2.27-1.85 4.13-4.13 4.13zm-127.56-47.37c-1.3 0-2.35 1.05-2.35 2.34v40.9c0 1.3 1.05 2.34 2.35 2.34h127.56c1.3 0 2.35-1.05 2.35-2.34v-40.9c0-1.3-1.05-2.34-2.35-2.34H138.31z" fill="#3B28CC"/><rect x="233" y="119" width="6" height="73" rx="3" transform="rotate(90 233 119)" fill="#fff"/></svg>