<svg width="400" height="250" viewBox="0 0 400 250" fill="none" xmlns="http://www.w3.org/2000/svg">
<g clip-path="url(#clip0_196_2)">
<rect width="400" height="250" fill="#FAFDFF"/>
<path fill-rule="evenodd" clip-rule="evenodd" d="M155.657 136.557C156.633 135.581 158.216 135.581 159.193 136.557L216.067 193.431C217.043 194.407 217.043 195.99 216.067 196.967C215.091 197.943 213.508 197.943 212.531 196.967L157.425 141.86L100.344 198.94C99.3674 199.917 97.7844 199.916 96.8081 198.94C95.8318 197.964 95.8319 196.381 96.8082 195.405L155.657 136.557Z" fill="#3F8EFC"/>
<path fill-rule="evenodd" clip-rule="evenodd" d="M243.102 117.558C244.085 116.62 245.636 116.638 246.596 117.599L306.258 177.261C307.235 178.237 307.235 179.82 306.258 180.797C305.282 181.773 303.699 181.773 302.723 180.797L244.788 122.861L193.977 171.358C192.979 172.312 191.396 172.275 190.443 171.276C189.489 170.277 189.526 168.695 190.525 167.741L243.102 117.558Z" fill="#3F8EFC"/>
<path fill-rule="evenodd" clip-rule="evenodd" d="M128.686 82.8351C123.292 82.8351 118.919 87.2079 118.919 92.6021C118.919 97.9963 123.292 102.369 128.686 102.369C134.08 102.369 138.453 97.9963 138.453 92.6021C138.453 87.2079 134.08 82.8351 128.686 82.8351ZM113.919 92.6021C113.919 84.4465 120.53 77.8351 128.686 77.8351C136.842 77.8351 143.453 84.4465 143.453 92.6021C143.453 100.758 136.842 107.369 128.686 107.369C120.53 107.369 113.919 100.758 113.919 92.6021Z" fill="#3F8EFC"/>
<path fill-rule="evenodd" clip-rule="evenodd" d="M165 84C165 82.3431 166.343 81 168 81H257.215C258.872 81 260.215 82.3431 260.215 84C260.215 85.6569 258.872 87 257.215 87H168C166.343 87 165 85.6569 165 84Z" fill="#3B28CC"/>
<path fill-rule="evenodd" clip-rule="evenodd" d="M181.728 98.4974C181.728 96.8406 183.071 95.4974 184.728 95.4974H240.487C242.144 95.4974 243.487 96.8406 243.487 98.4974C243.487 100.154 242.144 101.497 240.487 101.497H184.728C183.071 101.497 181.728 100.154 181.728 98.4974Z" fill="#3B28CC"/>
<path fill-rule="evenodd" clip-rule="evenodd" d="M90 62.5707C90 55.9433 95.3726 50.5707 102 50.5707H297C303.627 50.5707 309 55.9433 309 62.5707V188.429C309 195.057 303.627 200.429 297 200.429H102C95.3726 200.429 90 195.057 90 188.429V62.5707ZM102 56.5707C98.6863 56.5707 96 59.257 96 62.5707V188.429C96 191.743 98.6863 194.429 102 194.429H297C300.314 194.429 303 191.743 303 188.429V62.5707C303 59.257 300.314 56.5707 297 56.5707H102Z" fill="#3F8EFC"/>
</g>
<defs>
<clipPath id="clip0_196_2">
<rect width="400" height="250" fill="white"/>
</clipPath>
</defs>
</svg>
