<svg width="400" height="250" viewBox="0 0 400 250" fill="none" xmlns="http://www.w3.org/2000/svg">
<g clip-path="url(#clip0_255_2)">
<rect width="400" height="250" fill="#FAFDFF"/>
<path d="M325.95 35H272.02C269.833 35 268.06 36.773 268.06 38.96V65.43C268.06 67.617 269.833 69.39 272.02 69.39H325.95C328.137 69.39 329.91 67.617 329.91 65.43V38.96C329.91 36.773 328.137 35 325.95 35Z" fill="#2667FF"/>
<path fill-rule="evenodd" clip-rule="evenodd" d="M272.02 37.255C271.079 37.255 270.315 38.0184 270.315 38.96V65.43C270.315 66.3716 271.079 67.135 272.02 67.135H325.95C326.892 67.135 327.655 66.3716 327.655 65.43V38.96C327.655 38.0183 326.892 37.255 325.95 37.255H272.02ZM265.805 38.96C265.805 35.5275 268.588 32.745 272.02 32.745H325.95C329.383 32.745 332.165 35.5276 332.165 38.96V65.43C332.165 68.8624 329.383 71.645 325.95 71.645H272.02C268.588 71.645 265.805 68.8624 265.805 65.43V38.96Z" fill="#2667FF"/>
<path fill-rule="evenodd" clip-rule="evenodd" d="M73.9601 37.255C73.0185 37.255 72.2551 38.0183 72.2551 38.96V65.43C72.2551 66.3716 73.0185 67.135 73.9601 67.135H249.26C250.202 67.135 250.965 66.3716 250.965 65.43V38.96C250.965 38.0184 250.202 37.255 249.26 37.255H73.9601ZM67.7451 38.96C67.7451 35.5275 70.5277 32.745 73.9601 32.745H249.26C252.693 32.745 255.475 35.5275 255.475 38.96V65.43C255.475 68.8625 252.693 71.645 249.26 71.645H73.9601C70.5277 71.645 67.7451 68.8624 67.7451 65.43V38.96Z" fill="#2667FF"/>
<path fill-rule="evenodd" clip-rule="evenodd" d="M109.755 52.1999C109.755 50.9545 110.765 49.9449 112.01 49.9449H193.62C194.866 49.9449 195.875 50.9545 195.875 52.1999C195.875 53.4453 194.866 54.4549 193.62 54.4549H112.01C110.765 54.4549 109.755 53.4453 109.755 52.1999Z" fill="#DDF1FF"/>
<path fill-rule="evenodd" clip-rule="evenodd" d="M282.035 52.1999C282.035 50.9545 283.045 49.9449 284.29 49.9449H314.68C315.926 49.9449 316.935 50.9545 316.935 52.1999C316.935 53.4453 315.926 54.4549 314.68 54.4549H284.29C283.045 54.4549 282.035 53.4453 282.035 52.1999Z" fill="white"/>
<path fill-rule="evenodd" clip-rule="evenodd" d="M73.9601 86.105C73.0185 86.105 72.2551 86.8683 72.2551 87.81V114.28C72.2551 115.222 73.0185 115.985 73.9601 115.985H325.95C326.892 115.985 327.655 115.222 327.655 114.28V87.81C327.655 86.8683 326.892 86.105 325.95 86.105H73.9601ZM67.7451 87.81C67.7451 84.3775 70.5277 81.595 73.9601 81.595H325.95C329.383 81.595 332.165 84.3775 332.165 87.81V114.28C332.165 117.712 329.383 120.495 325.95 120.495H73.9601C70.5277 120.495 67.7451 117.712 67.7451 114.28V87.81Z" fill="#DDF1FF"/>
<path fill-rule="evenodd" clip-rule="evenodd" d="M83.4053 101.05C83.4053 99.8046 84.4149 98.795 85.6603 98.795H229.51C230.756 98.795 231.765 99.8046 231.765 101.05C231.765 102.295 230.756 103.305 229.51 103.305H85.6603C84.4149 103.305 83.4053 102.295 83.4053 101.05Z" fill="#DDF1FF"/>
<path fill-rule="evenodd" clip-rule="evenodd" d="M73.9601 134.955C73.0185 134.955 72.2551 135.718 72.2551 136.66V163.13C72.2551 164.072 73.0185 164.835 73.9601 164.835H325.95C326.892 164.835 327.655 164.072 327.655 163.13V136.66C327.655 135.718 326.892 134.955 325.95 134.955H73.9601ZM67.7451 136.66C67.7451 133.228 70.5277 130.445 73.9601 130.445H325.95C329.383 130.445 332.165 133.228 332.165 136.66V163.13C332.165 166.562 329.383 169.345 325.95 169.345H73.9601C70.5277 169.345 67.7451 166.562 67.7451 163.13V136.66Z" fill="#DDF1FF"/>
<path fill-rule="evenodd" clip-rule="evenodd" d="M83.4053 149.9C83.4053 148.654 84.4149 147.645 85.6603 147.645H184.14C185.386 147.645 186.395 148.654 186.395 149.9C186.395 151.145 185.386 152.155 184.14 152.155H85.6603C84.4149 152.155 83.4053 151.145 83.4053 149.9Z" fill="#DDF1FF"/>
<path fill-rule="evenodd" clip-rule="evenodd" d="M73.9601 183.805C73.0185 183.805 72.2551 184.568 72.2551 185.51V211.98C72.2551 212.922 73.0185 213.685 73.9601 213.685H325.95C326.892 213.685 327.655 212.922 327.655 211.98V185.51C327.655 184.568 326.892 183.805 325.95 183.805H73.9601ZM67.7451 185.51C67.7451 182.078 70.5277 179.295 73.9601 179.295H325.95C329.383 179.295 332.165 182.078 332.165 185.51V211.98C332.165 215.412 329.383 218.195 325.95 218.195H73.9601C70.5277 218.195 67.7451 215.412 67.7451 211.98V185.51Z" fill="#DDF1FF"/>
<path fill-rule="evenodd" clip-rule="evenodd" d="M83.4053 198.75C83.4053 197.505 84.4149 196.495 85.6603 196.495H153.08C154.326 196.495 155.335 197.505 155.335 198.75C155.335 199.995 154.326 201.005 153.08 201.005H85.6603C84.4149 201.005 83.4053 199.995 83.4053 198.75Z" fill="#DDF1FF"/>
<path fill-rule="evenodd" clip-rule="evenodd" d="M89.1077 45.3043C85.9047 45.3043 83.3043 47.9047 83.3043 51.1077C83.3043 54.3108 85.9047 56.9112 89.1077 56.9112C92.3108 56.9112 94.9029 54.3108 94.9029 51.1077C94.9029 47.9047 92.3025 45.3126 89.1077 45.3126V45.3043ZM82 51.1077C82 47.1865 85.1783 44 89.1077 44C93.029 44 96.2155 47.1783 96.2155 51.1077C96.2155 52.767 95.6376 54.3768 94.5727 55.6481L98.7911 59.8665C99.0553 60.1142 99.0718 60.5269 98.8241 60.7911C98.5765 61.0553 98.1637 61.0718 97.8995 60.8241C97.8913 60.8159 97.8748 60.7994 97.8665 60.7911L93.6481 56.5809C90.6267 59.0905 86.1524 58.6778 83.6428 55.6564C82.5861 54.3768 82 52.7753 82 51.116V51.1077ZM87.465 48.9861C87.7704 48.7963 87.8612 48.3918 87.6713 48.0863C87.4815 47.7809 87.077 47.6901 86.7715 47.88C85.6406 48.5899 84.782 50.34 85.1205 52.3708C85.1783 52.7258 85.5167 52.9652 85.8717 52.9074C86.2267 52.8496 86.4661 52.5111 86.4083 52.1562C86.1441 50.5629 86.8458 49.3741 87.465 48.9861Z" fill="#DDF1FF"/>
</g>
<defs>
<clipPath id="clip0_255_2">
<rect width="400" height="250" fill="white"/>
</clipPath>
</defs>
</svg>
