<svg width="400" height="250" fill="none" xmlns="http://www.w3.org/2000/svg"><path fill="#FAFDFF" d="M0 0h400v250H0z"/><g clipPath="url(#a)"><path d="M259.28 146.73H68.45a5.45 5.45 0 0 0-5.45 5.45v.01a5.45 5.45 0 0 0 5.45 5.45h190.83a5.45 5.45 0 0 0 5.45-5.45v-.01a5.45 5.45 0 0 0-5.45-5.45z" fill="#3F8EFC"/><path d="M326.96 110.47H72.05a9.05 9.05 0 0 0 0 18.1h254.91a9.05 9.05 0 0 0 0-18.1z" fill="#3B28CC"/><path d="m87.42 45.05 4.38 13.48c.2.63.79 1.05 1.45 1.05h14.18c1.47 0 2.09 1.88.89 2.75l-11.47 8.33c-.53.39-.76 1.07-.55 1.7l4.38 13.48c.46 1.4-1.15 2.57-2.34 1.7l-11.47-8.33c-.53-.39-1.25-.39-1.79 0l-11.47 8.33c-1.19.87-2.79-.3-2.34-1.7l4.38-13.48c.2-.63-.02-1.31-.55-1.7l-11.47-8.32c-1.19-.87-.58-2.75.89-2.75H78.7c.66 0 1.24-.42 1.45-1.05l4.38-13.49c.46-1.4 2.44-1.4 2.89 0z" fill="#3F8EFC"/><path d="M129.77 179.2H66.18a3.18 3.18 0 0 0-3.18 3.18v19.64a3.18 3.18 0 0 0 3.18 3.18h63.59a3.18 3.18 0 0 0 3.18-3.18v-19.64a3.18 3.18 0 0 0-3.18-3.18z" fill="#3B28CC"/></g><defs><clipPath id="a"><path fill="#fff" transform="translate(63 44)" d="M0 0h273.01v161.2H0z"/></clipPath></defs></svg>