<svg width="400" height="250" fill="none" xmlns="http://www.w3.org/2000/svg"><path fill="#FAFDFF" d="M0 0h400v250H0z"/><path d="M135.27 41H77.08A6.08 6.08 0 0 0 71 47.08v58.19a6.08 6.08 0 0 0 6.08 6.08h58.19a6.08 6.08 0 0 0 6.08-6.08V47.08a6.08 6.08 0 0 0-6.08-6.08z" fill="#3B28CC"/><path d="M228.74 41h-58.19a6.08 6.08 0 0 0-6.08 6.08v58.19a6.08 6.08 0 0 0 6.08 6.08h58.19a6.08 6.08 0 0 0 6.08-6.08V47.08a6.08 6.08 0 0 0-6.08-6.08z" fill="#3F8EFC"/><path d="M322.21 41h-58.19a6.08 6.08 0 0 0-6.08 6.08v58.19a6.08 6.08 0 0 0 6.08 6.08h58.19a6.08 6.08 0 0 0 6.08-6.08V47.08a6.08 6.08 0 0 0-6.08-6.08z" fill="#3B28CC"/><path d="M135.27 139.16H77.08a6.08 6.08 0 0 0-6.08 6.08v58.19a6.08 6.08 0 0 0 6.08 6.08h58.19a6.08 6.08 0 0 0 6.08-6.08v-58.19a6.08 6.08 0 0 0-6.08-6.08z" fill="#3F8EFC"/><path d="M228.74 139.16h-58.19a6.08 6.08 0 0 0-6.08 6.08v58.19a6.08 6.08 0 0 0 6.08 6.08h58.19a6.08 6.08 0 0 0 6.08-6.08v-58.19a6.08 6.08 0 0 0-6.08-6.08z" fill="#3B28CC"/><path d="M322.21 139.16h-58.19a6.08 6.08 0 0 0-6.08 6.08v58.19a6.08 6.08 0 0 0 6.08 6.08h58.19a6.08 6.08 0 0 0 6.08-6.08v-58.19a6.08 6.08 0 0 0-6.08-6.08z" fill="#3F8EFC"/><path d="M120.01 89.98H92.13c-.9 0-1.66-.68-1.75-1.58l-2.26-22.04c-.08-.75.33-1.46 1.01-1.77a1.74 1.74 0 0 1 2 .37l7.56 7.82 5.71-9.56c.31-.52.87-.84 1.48-.86.57-.01 1.18.29 1.51.8l6.38 9.83 7.42-8.1c.51-.56 1.33-.73 2.02-.41.69.31 1.1 1.04 1.02 1.8l-2.47 22.14c-.1.89-.85 1.56-1.75 1.56zm-26.29-3.52h24.72l1.7-15.22-5.31 5.8c-.37.4-.9.61-1.44.56-.54-.04-1.03-.34-1.33-.79l-6.08-9.37-5.44 9.1c-.28.47-.76.78-1.31.84-.55.06-1.08-.13-1.46-.52l-5.62-5.82 1.58 15.41-.01.01zM213.48 89.98H185.6c-.9 0-1.66-.68-1.75-1.58l-2.26-22.04c-.08-.75.33-1.46 1.01-1.77a1.74 1.74 0 0 1 2 .37l7.56 7.82 5.71-9.56c.31-.52.87-.84 1.48-.86.61-.01 1.18.29 1.51.8l6.38 9.83 7.42-8.1c.51-.56 1.33-.73 2.02-.41.69.31 1.1 1.04 1.02 1.8l-2.47 22.14c-.1.89-.85 1.56-1.75 1.56zm-26.29-3.52h24.72l1.7-15.22-5.31 5.8c-.37.4-.89.61-1.44.56-.54-.04-1.03-.34-1.33-.79l-6.08-9.37-5.44 9.1c-.28.47-.76.78-1.31.84-.55.06-1.08-.13-1.46-.52l-5.62-5.82 1.58 15.41-.01.01zM306.95 89.98h-27.88c-.9 0-1.66-.68-1.75-1.58l-2.26-22.04c-.08-.75.33-1.46 1.01-1.77a1.74 1.74 0 0 1 2 .37l7.56 7.82 5.71-9.56c.31-.52.87-.84 1.48-.86.6-.01 1.18.29 1.51.8l6.38 9.83 7.42-8.1c.51-.56 1.33-.73 2.02-.41s1.1 1.04 1.02 1.8l-2.47 22.14c-.1.89-.85 1.56-1.75 1.56zm-26.29-3.52h24.72l1.7-15.22-5.31 5.8c-.37.4-.89.61-1.44.56-.54-.04-1.03-.34-1.33-.79l-6.08-9.37-5.44 9.1c-.28.47-.76.78-1.31.84-.55.06-1.09-.13-1.46-.52l-5.62-5.82 1.58 15.41-.01.01zM120.01 188.14H92.13c-.9 0-1.66-.68-1.75-1.58l-2.26-22.04c-.08-.75.33-1.46 1.01-1.77a1.74 1.74 0 0 1 2 .37l7.56 7.82 5.71-9.56c.31-.52.87-.84 1.48-.86.57 0 1.18.29 1.51.8l6.38 9.83 7.42-8.1c.51-.56 1.33-.73 2.02-.41.69.31 1.1 1.04 1.02 1.8l-2.47 22.14c-.1.89-.85 1.56-1.75 1.56zm-26.29-3.52h24.72l1.7-15.22-5.31 5.8c-.37.4-.9.61-1.44.56-.54-.04-1.03-.34-1.33-.79l-6.08-9.36-5.44 9.1c-.28.47-.76.78-1.31.84-.55.06-1.08-.13-1.46-.52l-5.62-5.82 1.58 15.41h-.01zM213.48 188.14H185.6c-.9 0-1.66-.68-1.75-1.58l-2.26-22.04c-.08-.75.33-1.46 1.01-1.77a1.74 1.74 0 0 1 2 .37l7.56 7.82 5.71-9.56c.31-.52.87-.84 1.48-.86.61 0 1.18.29 1.51.8l6.38 9.83 7.42-8.1c.51-.56 1.33-.73 2.02-.41.69.31 1.1 1.04 1.02 1.8l-2.47 22.14c-.1.89-.85 1.56-1.75 1.56zm-26.29-3.52h24.72l1.7-15.22-5.31 5.8c-.37.4-.89.61-1.44.56-.54-.04-1.03-.34-1.33-.79l-6.08-9.36-5.44 9.1c-.28.47-.76.78-1.31.84-.55.06-1.08-.13-1.46-.52l-5.62-5.82 1.58 15.41h-.01zM306.95 188.14h-27.88c-.9 0-1.66-.68-1.75-1.58l-2.26-22.04c-.08-.75.33-1.46 1.01-1.77.68-.31 1.48-.17 2 .37l7.56 7.82 5.71-9.56c.31-.52.87-.84 1.48-.86.6 0 1.18.29 1.51.8l6.38 9.83 7.42-8.1c.51-.56 1.33-.73 2.02-.41.69.31 1.1 1.04 1.02 1.8l-2.47 22.14c-.1.89-.85 1.56-1.75 1.56zm-26.29-3.52h24.72l1.7-15.22-5.31 5.8c-.37.4-.89.61-1.44.56-.54-.04-1.03-.34-1.33-.79l-6.08-9.36-5.44 9.1c-.28.47-.76.78-1.31.84-.55.06-1.09-.13-1.46-.52l-5.62-5.82 1.58 15.41h-.01z" fill="#fff"/></svg>