<svg width="400" height="250" fill="none" xmlns="http://www.w3.org/2000/svg"><g clipPath="url(#a)"><path fill="#FAFDFF" d="M0 0h400v250H0z"/><path fillRule="evenodd" clipRule="evenodd" d="M74.215 36.51c-.942 0-1.705.763-1.705 1.705v26.47c0 .942.763 1.705 1.705 1.705h251.99c.942 0 1.705-.763 1.705-1.705v-26.47c0-.942-.763-1.705-1.705-1.705H74.215zM68 38.215A6.215 6.215 0 0 1 74.215 32h251.99a6.215 6.215 0 0 1 6.215 6.215v26.47a6.215 6.215 0 0 1-6.215 6.215H74.215A6.215 6.215 0 0 1 68 64.685v-26.47z" fill="#DDF1FF"/><path fillRule="evenodd" clipRule="evenodd" d="M83.66 51.455a2.255 2.255 0 0 1 2.255-2.255h41.39a2.255 2.255 0 0 1 0 4.51h-41.39a2.255 2.255 0 0 1-2.255-2.255zM299.195 51.455a1 1 0 0 1 1-1h13.05a1 1 0 0 1 0 2h-13.05a1 1 0 0 1-1-1zM268.315 51.455a1 1 0 0 1 1-1h13.05a1 1 0 0 1 0 2h-13.05a1 1 0 0 1-1-1zM247.295 45.005a7.08 7.08 0 1 0 0 14.16 7.08 7.08 0 0 0 0-14.16zm-8.88 7.08a8.88 8.88 0 1 1 17.76 0 8.88 8.88 0 0 1-17.76 0z" fill="#DDF1FF"/><path fillRule="evenodd" clipRule="evenodd" d="M247.295 44.105a.9.9 0 0 1 .9.9v.73a.9.9 0 0 1-1.8 0v-.73a.9.9 0 0 1 .9-.9zM239.405 52.455a.9.9 0 0 1 .9-.9h.73a.9.9 0 0 1 0 1.8h-.73a.9.9 0 0 1-.9-.9zM247.685 57.555a.9.9 0 0 1 .9.9v.73a.9.9 0 0 1-1.8 0v-.73a.9.9 0 0 1 .9-.9zM252.575 52.075a.9.9 0 0 1 .9-.9h.73a.9.9 0 0 1 0 1.8h-.73a.9.9 0 0 1-.9-.9zM244.315 52.455a.9.9 0 0 1 .9-.9h2.28a.9.9 0 0 1 0 1.8h-2.28a.9.9 0 0 1-.9-.9z" fill="#DDF1FF"/><path fillRule="evenodd" clipRule="evenodd" d="M247.495 48.265a.9.9 0 0 1 .9.9v3.29a.9.9 0 0 1-1.8 0v-3.29a.9.9 0 0 1 .9-.9z" fill="#DDF1FF"/><path fillRule="evenodd" clipRule="evenodd" d="M74.215 85.36c-.942 0-1.705.764-1.705 1.705v26.47c0 .942.763 1.705 1.705 1.705h251.99c.942 0 1.705-.763 1.705-1.705v-26.47c0-.942-.763-1.705-1.705-1.705H74.215zM68 87.065a6.215 6.215 0 0 1 6.215-6.215h251.99a6.215 6.215 0 0 1 6.215 6.215v26.47a6.215 6.215 0 0 1-6.215 6.215H74.215A6.215 6.215 0 0 1 68 113.535v-26.47z" fill="#3B28CC"/><path fillRule="evenodd" clipRule="evenodd" d="M83.66 100.305a2.255 2.255 0 0 1 2.255-2.255h41.39a2.255 2.255 0 0 1 0 4.51h-41.39a2.255 2.255 0 0 1-2.255-2.255zM299.195 100.305a1 1 0 0 1 1-1h13.05a1 1 0 0 1 0 2h-13.05a1 1 0 0 1-1-1zM268.315 100.305a1 1 0 0 1 1-1h13.05a1 1 0 0 1 0 2h-13.05a1 1 0 0 1-1-1zM247.295 93.845a7.08 7.08 0 1 0 0 14.16 7.08 7.08 0 0 0 0-14.16zm-8.88 7.08a8.88 8.88 0 1 1 17.76 0 8.88 8.88 0 0 1-17.76 0z" fill="#DDF1FF"/><path fillRule="evenodd" clipRule="evenodd" d="M247.295 92.955a.9.9 0 0 1 .9.9v.73a.9.9 0 0 1-1.8 0v-.73a.9.9 0 0 1 .9-.9zM239.405 101.305a.9.9 0 0 1 .9-.9h.73a.9.9 0 0 1 0 1.8h-.73a.9.9 0 0 1-.9-.9zM247.685 106.405a.9.9 0 0 1 .9.9v.73a.9.9 0 0 1-1.8 0v-.73a.9.9 0 0 1 .9-.9zM252.575 100.915a.9.9 0 0 1 .9-.9h.73a.9.9 0 0 1 0 1.8h-.73a.9.9 0 0 1-.9-.9zM244.315 101.305a.9.9 0 0 1 .9-.9h2.28a.9.9 0 0 1 0 1.8h-2.28a.9.9 0 0 1-.9-.9z" fill="#DDF1FF"/><path fillRule="evenodd" clipRule="evenodd" d="M247.495 97.115a.9.9 0 0 1 .9.9v3.29a.9.9 0 0 1-1.8 0v-3.29a.9.9 0 0 1 .9-.9zM74.215 134.21c-.942 0-1.705.763-1.705 1.705v26.47c0 .942.763 1.705 1.705 1.705h251.99c.942 0 1.705-.763 1.705-1.705v-26.47c0-.942-.763-1.705-1.705-1.705H74.215zM68 135.915a6.215 6.215 0 0 1 6.215-6.215h251.99a6.216 6.216 0 0 1 6.215 6.215v26.47a6.215 6.215 0 0 1-6.215 6.215H74.215A6.215 6.215 0 0 1 68 162.385v-26.47z" fill="#DDF1FF"/><path fillRule="evenodd" clipRule="evenodd" d="M83.66 149.155a2.255 2.255 0 0 1 2.255-2.255h41.39a2.256 2.256 0 0 1 0 4.51h-41.39a2.255 2.255 0 0 1-2.255-2.255zM299.195 149.155a1 1 0 0 1 1-1h13.05a1 1 0 0 1 0 2h-13.05a1 1 0 0 1-1-1zM268.315 149.155a1 1 0 0 1 1-1h13.05a1 1 0 0 1 0 2h-13.05a1 1 0 0 1-1-1zM247.295 142.695a7.08 7.08 0 1 0 0 14.16 7.08 7.08 0 0 0 0-14.16zm-8.88 7.08a8.88 8.88 0 1 1 17.76 0 8.88 8.88 0 0 1-17.76 0z" fill="#DDF1FF"/><path fillRule="evenodd" clipRule="evenodd" d="M247.295 141.795a.9.9 0 0 1 .9.9v.74a.9.9 0 0 1-1.8 0v-.74a.9.9 0 0 1 .9-.9zM239.405 150.155a.9.9 0 0 1 .9-.9h.73a.9.9 0 0 1 0 1.8h-.73a.9.9 0 0 1-.9-.9zM247.685 155.255a.9.9 0 0 1 .9.9v.73a.9.9 0 0 1-1.8 0v-.73a.9.9 0 0 1 .9-.9zM252.575 149.765a.9.9 0 0 1 .9-.9h.73a.9.9 0 0 1 0 1.8h-.73a.9.9 0 0 1-.9-.9zM244.315 150.155a.9.9 0 0 1 .9-.9h2.28a.9.9 0 0 1 0 1.8h-2.28a.9.9 0 0 1-.9-.9z" fill="#DDF1FF"/><path fillRule="evenodd" clipRule="evenodd" d="M247.495 145.965a.9.9 0 0 1 .9.9v3.29a.9.9 0 0 1-1.8 0v-3.29a.9.9 0 0 1 .9-.9zM74.215 183.06c-.942 0-1.705.764-1.705 1.705v26.47c0 .942.763 1.705 1.705 1.705h251.99c.942 0 1.705-.763 1.705-1.705v-26.47c0-.941-.763-1.705-1.705-1.705H74.215zM68 184.765a6.215 6.215 0 0 1 6.215-6.215h251.99a6.216 6.216 0 0 1 6.215 6.215v26.47a6.215 6.215 0 0 1-6.215 6.215H74.215A6.215 6.215 0 0 1 68 211.235v-26.47z" fill="#DDF1FF"/><path fillRule="evenodd" clipRule="evenodd" d="M83.66 198.005a2.255 2.255 0 0 1 2.255-2.255h41.39a2.256 2.256 0 0 1 0 4.51h-41.39a2.255 2.255 0 0 1-2.255-2.255zM299.195 198.005a1 1 0 0 1 1-1h13.05a1 1 0 0 1 0 2h-13.05a1 1 0 0 1-1-1zM268.315 198.005a1 1 0 0 1 1-1h13.05a1 1 0 0 1 0 2h-13.05a1 1 0 0 1-1-1zM247.295 191.545a7.08 7.08 0 1 0 0 14.16 7.08 7.08 0 0 0 0-14.16zm-8.88 7.08a8.88 8.88 0 1 1 17.76 0 8.88 8.88 0 0 1-17.76 0z" fill="#DDF1FF"/><path fillRule="evenodd" clipRule="evenodd" d="M247.295 190.645a.9.9 0 0 1 .9.9v.74a.9.9 0 0 1-1.8 0v-.74a.9.9 0 0 1 .9-.9zM239.405 199.005a.9.9 0 0 1 .9-.9h.73a.9.9 0 0 1 0 1.8h-.73a.9.9 0 0 1-.9-.9zM247.685 204.105a.9.9 0 0 1 .9.9v.73a.9.9 0 0 1-1.8 0v-.73a.9.9 0 0 1 .9-.9zM252.575 198.615a.9.9 0 0 1 .9-.9h.73a.9.9 0 0 1 0 1.8h-.73a.9.9 0 0 1-.9-.9zM244.315 199.005a.9.9 0 0 1 .9-.9h2.28a.9.9 0 0 1 0 1.8h-2.28a.9.9 0 0 1-.9-.9z" fill="#DDF1FF"/><path fillRule="evenodd" clipRule="evenodd" d="M247.495 194.815a.9.9 0 0 1 .9.9v3.29a.9.9 0 0 1-1.8 0v-3.29a.9.9 0 0 1 .9-.9z" fill="#DDF1FF"/></g><defs><clipPath id="a"><path fill="#fff" d="M0 0h400v250H0z"/></clipPath></defs></svg>