<svg width="400" height="250" fill="none" xmlns="http://www.w3.org/2000/svg"><path fill="#FAFDFF" d="M0 0h400v250H0z"/><path d="M217.82 65H95.01a8.01 8.01 0 0 0 0 16.02h122.81a8.01 8.01 0 1 0 0-16.02z" fill="#3B28CC"/><path d="M310.55 106.25H90.38a3.38 3.38 0 1 0 0 6.76h220.17a3.38 3.38 0 1 0 0-6.76zM179.7 155.48H92.68a5.68 5.68 0 0 0-5.68 5.68v17.56a5.68 5.68 0 0 0 5.68 5.68h87.02a5.68 5.68 0 0 0 5.68-5.68v-17.56a5.68 5.68 0 0 0-5.68-5.68z" fill="#3F8EFC"/><path d="M156.28 172.92H116.1c-1.14 0-2.07-.92-2.07-2.07s.92-2.07 2.07-2.07h40.18c1.14 0 2.07.92 2.07 2.07s-.92 2.07-2.07 2.07z" fill="#fff"/></svg>