<svg xmlns="http://www.w3.org/2000/svg" width="400" height="250" fill="none"><g clipPath="url(#a)"><path fill="#FAFDFF" d="M0 0h400v250H0z"/><path d="m85.29 205.69.99-.62c.16.3.32.46.7.46.5 0 .65-.31.65-.64v-3.66h1.14v3.66c0 1.19-.77 1.84-1.79 1.84-.79 0-1.36-.36-1.68-1.05l-.01.01zM93.15 202.78v3.85h-1.06v-.36c-.23.29-.58.47-1.06.47-.93 0-1.7-.89-1.7-2.03 0-1.14.77-2.03 1.7-2.03.48 0 .82.18 1.06.47v-.36h1.06v-.01zm-1.06 1.93c0-.58-.35-.94-.84-.94s-.84.36-.84.94.35.94.84.94.84-.36.84-.94zM97.33 204.26v2.37h-1.06v-2.2c0-.48-.28-.7-.62-.7-.39 0-.66.25-.66.79v2.1h-1.06v-3.85h1.06v.36c.19-.29.55-.47 1.01-.47.72 0 1.33.55 1.33 1.6zM101.42 202.78v3.85h-1.06v-.36c-.19.29-.55.47-1.01.47-.72 0-1.33-.55-1.33-1.59v-2.37h1.06v2.2c0 .48.28.7.62.7.39 0 .66-.25.66-.79v-2.1h1.06v-.01zM105.84 202.78v3.85h-1.06v-.36c-.23.29-.58.47-1.06.47-.93 0-1.7-.89-1.7-2.03 0-1.14.77-2.03 1.7-2.03.48 0 .82.18 1.06.47v-.36h1.06v-.01zm-1.06 1.93c0-.58-.35-.94-.84-.94s-.84.36-.84.94.35.94.84.94.84-.36.84-.94zM108.75 202.7v1.31c-.44-.08-1.06.12-1.06.88v1.74h-1.06v-3.85h1.06v.69c.14-.52.62-.76 1.06-.76v-.01zM112.68 202.78l-1.21 3.74c-.4 1.22-1.03 1.71-2.02 1.66v-1.08c.5 0 .73-.17.89-.64l-1.41-3.68h1.17l.79 2.36.67-2.36h1.14-.02zM52.85 45.81c0 1.19-.92 1.8-1.96 1.8-.82 0-1.56-.36-1.89-1.16l1.06-.62c.12.35.35.57.82.57.51 0 .73-.27.73-.6 0-.33-.22-.6-.73-.6h-.25l-.47-.7.98-1.24h-1.97v-1.15h3.47v1l-.93 1.19c.66.23 1.15.76 1.15 1.51h-.01zM53.31 44.8c0-1.66.8-2.8 2.2-2.8 1.4 0 2.2 1.14 2.2 2.8s-.8 2.8-2.2 2.8c-1.4 0-2.2-1.14-2.2-2.8zm3.16 0c0-1.04-.32-1.6-.96-1.6-.64 0-.96.56-.96 1.6s.32 1.6.96 1.6c.64 0 .96-.56.96-1.6zM58.17 44.8c0-1.66.8-2.8 2.2-2.8 1.4 0 2.2 1.14 2.2 2.8s-.8 2.8-2.2 2.8c-1.4 0-2.2-1.14-2.2-2.8zm3.16 0c0-1.04-.32-1.6-.96-1.6-.64 0-.96.56-.96 1.6s.32 1.6.96 1.6c.64 0 .96-.56.96-1.6zM49.92 71.26l1.81-1.88c.32-.32.55-.64.55-.96 0-.34-.22-.57-.58-.57s-.65.25-.79.59l-1.04-.61c.35-.8 1.07-1.18 1.82-1.18.96 0 1.83.63 1.83 1.72 0 .65-.35 1.2-.84 1.7l-.89.9h1.81v1.19h-3.68v-.9zM57.78 70.46c0 1.19-.92 1.8-1.97 1.8-.85 0-1.59-.36-1.93-1.16l1.06-.62c.12.35.35.57.86.57s.73-.27.73-.6c0-.33-.22-.6-.69-.6h-1.69l.22-3.1h3.12v1.16h-1.96l-.05.74h.44c1 0 1.85.62 1.85 1.8l.01.01zM58.17 69.45c0-1.66.8-2.8 2.2-2.8 1.4 0 2.2 1.14 2.2 2.8s-.8 2.8-2.2 2.8c-1.4 0-2.2-1.14-2.2-2.8zm3.16 0c0-1.04-.32-1.6-.96-1.6-.64 0-.96.56-.96 1.6s.32 1.6.96 1.6c.64 0 .96-.56.96-1.6zM49.22 95.91l1.81-1.88c.32-.32.55-.64.55-.96 0-.34-.22-.57-.58-.57s-.65.25-.79.59l-1.04-.61c.35-.8 1.07-1.18 1.82-1.18.96 0 1.83.63 1.83 1.72 0 .65-.35 1.2-.84 1.7l-.89.9h1.81v1.19h-3.68v-.9zM53.31 94.1c0-1.66.8-2.8 2.2-2.8 1.4 0 2.2 1.14 2.2 2.8s-.8 2.8-2.2 2.8c-1.4 0-2.2-1.14-2.2-2.8zm3.16 0c0-1.04-.32-1.6-.96-1.6-.64 0-.96.56-.96 1.6s.32 1.6.96 1.6c.64 0 .96-.56.96-1.6zM58.17 94.1c0-1.66.8-2.8 2.2-2.8 1.4 0 2.2 1.14 2.2 2.8s-.8 2.8-2.2 2.8c-1.4 0-2.2-1.14-2.2-2.8zm3.16 0c0-1.04-.32-1.6-.96-1.6-.64 0-.96.56-.96 1.6s.32 1.6.96 1.6c.64 0 .96-.56.96-1.6zM53.2 116.06v5.39h-1.23v-4.09l-.96.26-.3-1.06 1.41-.51h1.08v.01zM57.78 119.76c0 1.19-.92 1.8-1.97 1.8-.85 0-1.59-.36-1.93-1.16l1.06-.62c.12.35.35.57.86.57s.73-.27.73-.6c0-.33-.22-.6-.69-.6h-1.69l.22-3.1h3.12v1.16h-1.96l-.05.74h.44c1 0 1.85.62 1.85 1.8l.01.01zM58.17 118.75c0-1.66.8-2.8 2.2-2.8 1.4 0 2.2 1.14 2.2 2.8s-.8 2.8-2.2 2.8c-1.4 0-2.2-1.14-2.2-2.8zm3.16 0c0-1.04-.32-1.6-.96-1.6-.64 0-.96.56-.96 1.6s.32 1.6.96 1.6c.64 0 .96-.56.96-1.6zM52.54 140.71v5.39h-1.23v-4.09l-.96.26-.3-1.06 1.41-.51h1.08v.01zM53.31 143.4c0-1.66.8-2.8 2.2-2.8 1.4 0 2.2 1.14 2.2 2.8s-.8 2.8-2.2 2.8c-1.4 0-2.2-1.14-2.2-2.8zm3.16 0c0-1.04-.32-1.6-.96-1.6-.64 0-.96.56-.96 1.6s.32 1.6.96 1.6c.64 0 .96-.56.96-1.6zM58.17 143.4c0-1.66.8-2.8 2.2-2.8 1.4 0 2.2 1.14 2.2 2.8s-.8 2.8-2.2 2.8c-1.4 0-2.2-1.14-2.2-2.8zm3.16 0c0-1.04-.32-1.6-.96-1.6-.64 0-.96.56-.96 1.6s.32 1.6.96 1.6c.64 0 .96-.56.96-1.6zM57.78 169.05c0 1.19-.92 1.8-1.97 1.8-.85 0-1.59-.36-1.93-1.16l1.06-.62c.12.35.35.57.86.57s.73-.27.73-.6c0-.33-.22-.6-.69-.6h-1.69l.22-3.1h3.12v1.16h-1.96l-.05.74h.44c1 0 1.85.62 1.85 1.8l.01.01zM58.17 168.05c0-1.66.8-2.8 2.2-2.8 1.4 0 2.2 1.14 2.2 2.8s-.8 2.8-2.2 2.8c-1.4 0-2.2-1.14-2.2-2.8zm3.16 0c0-1.04-.32-1.6-.96-1.6-.64 0-.96.56-.96 1.6s.32 1.6.96 1.6c.64 0 .96-.56.96-1.6zM58.17 192.7c0-1.66.8-2.8 2.2-2.8 1.4 0 2.2 1.14 2.2 2.8s-.8 2.8-2.2 2.8c-1.4 0-2.2-1.14-2.2-2.8zm3.16 0c0-1.04-.32-1.6-.96-1.6-.64 0-.96.56-.96 1.6s.32 1.6.96 1.6c.64 0 .96-.56.96-1.6zM140.85 202.42v1.04h1.84v1.19h-1.84v1.98h-1.13v-5.39h3.02v1.19h-1.88l-.01-.01zM145.17 205.7c.29 0 .54-.12.68-.29l.85.53c-.35.52-.87.79-1.55.79-1.21 0-1.97-.89-1.97-2.03 0-1.14.77-2.03 1.89-2.03 1.04 0 1.8.87 1.8 2.03 0 .16-.01.32-.04.46h-2.52c.13.4.46.54.85.54h.01zm.65-1.4c-.11-.45-.43-.61-.75-.61-.4 0-.67.22-.77.61h1.53-.01zM151.3 204.7c0 1.15-.77 2.03-1.7 2.03-.48 0-.82-.18-1.06-.47v.36h-1.06v-5.39h1.06v1.9c.23-.29.58-.47 1.06-.47.93 0 1.7.89 1.7 2.03v.01zm-1.06 0c0-.58-.36-.94-.84-.94s-.84.36-.84.94.36.94.84.94.84-.36.84-.94zM154.03 202.7v1.31c-.44-.08-1.06.12-1.06.88v1.74h-1.06v-3.85h1.06v.69c.14-.52.62-.76 1.06-.76v-.01zM157.88 202.78v3.85h-1.06v-.36c-.19.29-.55.47-1.01.47-.72 0-1.33-.55-1.33-1.59v-2.37h1.06v2.2c0 .48.28.7.62.7.39 0 .66-.25.66-.79v-2.1h1.06v-.01zM162.3 202.78v3.85h-1.06v-.36c-.23.29-.58.47-1.06.47-.93 0-1.7-.89-1.7-2.03 0-1.14.77-2.03 1.7-2.03.48 0 .82.18 1.06.47v-.36h1.06v-.01zm-1.06 1.93c0-.58-.35-.94-.84-.94s-.84.36-.84.94.35.94.84.94.84-.36.84-.94zM165.21 202.7v1.31c-.44-.08-1.06.12-1.06.88v1.74h-1.06v-3.85h1.06v.69c.14-.52.62-.76 1.06-.76v-.01zM169.15 202.78l-1.21 3.74c-.4 1.22-1.03 1.71-2.02 1.66v-1.08c.5 0 .73-.17.89-.64l-1.41-3.68h1.17l.79 2.36.67-2.36h1.14-.02zM205.53 206.63h-1.14v-3.14l-1.28 2.29h-.13l-1.29-2.29v3.14h-1.13v-5.39h1.13l1.35 2.4 1.35-2.4h1.14v5.39zM209.99 202.78v3.85h-1.06v-.36c-.23.29-.58.47-1.06.47-.93 0-1.7-.89-1.7-2.03 0-1.14.77-2.03 1.7-2.03.48 0 .82.18 1.06.47v-.36h1.06v-.01zm-1.06 1.93c0-.58-.35-.94-.84-.94s-.84.36-.84.94.35.94.84.94.84-.36.84-.94zM212.89 202.7v1.31c-.44-.08-1.06.12-1.06.88v1.74h-1.06v-3.85h1.06v.69c.14-.52.62-.76 1.06-.76v-.01zM213.11 204.7c0-1.15.8-2.03 1.88-2.03.69 0 1.3.39 1.6.99l-.93.59a.73.73 0 0 0-.69-.43c-.46 0-.8.36-.8.89s.34.89.8.89c.31 0 .57-.16.69-.43l.93.58c-.3.6-.91.99-1.6.99-1.08 0-1.88-.89-1.88-2.03v-.01zM220.42 204.26v2.37h-1.06v-2.2c0-.48-.28-.7-.62-.7-.39 0-.66.25-.66.79v2.1h-1.06v-5.39h1.06v1.9c.19-.29.55-.47 1.01-.47.72 0 1.33.55 1.33 1.6zM263.21 205.78h-1.84l-.25.85h-1.24l1.69-5.39h1.45l1.69 5.39h-1.24l-.25-.85h-.01zm-.34-1.16-.58-1.98-.58 1.98h1.16zM268.91 204.7c0 1.15-.77 2.03-1.7 2.03-.48 0-.82-.18-1.06-.47v1.9h-1.06v-5.39h1.06v.36c.23-.29.58-.47 1.06-.47.93 0 1.7.89 1.7 2.03v.01zm-1.06 0c0-.58-.36-.94-.84-.94s-.84.36-.84.94.36.94.84.94.84-.36.84-.94zM271.64 202.7v1.31c-.44-.08-1.06.12-1.06.88v1.74h-1.06v-3.85h1.06v.69c.14-.52.62-.76 1.06-.76v-.01zM272.03 201.74c0-.38.29-.69.64-.69.35 0 .64.32.64.69 0 .37-.29.69-.64.69-.35 0-.64-.32-.64-.69zm.11 1.03h1.06v3.85h-1.06v-3.85zM273.98 201h1.06v5.62h-1.06V201zM322.17 206.63h-1.14v-3.14l-1.28 2.29h-.13l-1.29-2.29v3.14h-1.13v-5.39h1.13l1.35 2.4 1.35-2.4h1.14v5.39zM326.63 202.78v3.85h-1.06v-.36c-.23.29-.58.47-1.06.47-.93 0-1.7-.89-1.7-2.03 0-1.14.77-2.03 1.7-2.03.48 0 .82.18 1.06.47v-.36h1.06v-.01zm-1.06 1.93c0-.58-.35-.94-.84-.94s-.84.36-.84.94.35.94.84.94.84-.36.84-.94zM330.78 202.78l-1.21 3.74c-.4 1.22-1.03 1.71-2.02 1.66v-1.08c.5 0 .73-.17.89-.64l-1.41-3.68h1.17l.79 2.36.67-2.36h1.14-.02z" fill="#3B28CC"/><path d="M70.21 200.11v-5.64h281.74v5.64M70.21 169.87h281.74M70.21 145.26h281.74M70.21 120.66h281.74M70.21 96.05h281.74M70.21 71.45h281.74M70.21 46.84h281.74" stroke="#E4E4E4" strokeWidth="1.23" stroke-miterlimit="10"/><path d="M92 180.35H80.18v14.12H92v-14.12z" fill="#2667FF"/><path d="M103.82 175.09H92v19.38h11.82v-19.38z" fill="#3F8EFC"/><path d="M115.65 169.87h-11.82v24.6h11.82v-24.6z" fill="#3B28CC"/><path d="M148.33 175.6h-11.82v18.87h11.82V175.6z" fill="#2667FF"/><path d="M160.16 168.58h-11.82v25.89h11.82v-25.89z" fill="#3F8EFC"/><path d="M171.98 161.6h-11.82v32.87h11.82V161.6z" fill="#3B28CC"/><path d="M204.67 172.74h-11.82v21.73h11.82v-21.73z" fill="#2667FF"/><path d="M216.49 164.66h-11.82v29.81h11.82v-29.81z" fill="#3F8EFC"/><path d="M228.31 156.62h-11.82v37.86h11.82v-37.86z" fill="#3B28CC"/><path d="M261 160.4h-11.82v34.08H261V160.4z" fill="#2667FF"/><path d="M272.82 147.71H261v46.76h11.82v-46.76z" fill="#3F8EFC"/><path d="M284.65 135.1h-11.82v59.37h11.82V135.1z" fill="#3B28CC"/><path d="M317.33 126.32h-11.82v68.15h11.82v-68.15z" fill="#2667FF"/><path d="M329.16 100.96h-11.82v93.51h11.82v-93.51z" fill="#3F8EFC"/><path d="M340.98 75.73h-11.82v118.74h11.82V75.73z" fill="#3B28CC"/></g><defs><clipPath id="a"><path fill="#fff" d="M0 0h400v250H0z"/></clipPath></defs></svg>