<svg width="400" height="250" fill="none" xmlns="http://www.w3.org/2000/svg"><path fill="#FAFDFF" d="M0 0h400v250H0z"/><g clipPath="url(#a)"><path d="M130.09 64H63v46.11h67.09V64z" fill="#3B28CC"/><path d="M76.42 140.15H63v46.11h13.42v-46.11zM94.26 140.15H80.84v46.11h13.42v-46.11zM112.11 140.15H98.69v46.11h13.42v-46.11zM129.92 140.15H116.5v46.11h13.42v-46.11zM196.54 64h-30.19v46.11h30.19V64zM233.44 64h-30.19v46.11h30.19V64z" fill="#3F8EFC"/><path d="M233.44 140.15h-30.19v20.75h30.19v-20.75zM196.54 140.15h-30.19v20.75h30.19v-20.75zM233.44 165.51h-30.19v20.75h30.19v-20.75zM196.54 165.51h-30.19v20.75h30.19v-20.75zM288.33 64h-18.28v46.11h18.28V64zM312.71 64h-18.28v46.11h18.28V64zM337.1 64h-18.28v46.11h18.28V64z" fill="#3B28CC"/><path d="M290.17 140.15h-20.13v46.11h20.13v-46.11zM337.13 140.15h-40.25v46.11h40.25v-46.11z" fill="#3F8EFC"/></g><defs><clipPath id="a"><path fill="#fff" transform="translate(63 64)" d="M0 0h274.13v122.26H0z"/></clipPath></defs></svg>