<svg width="400" height="250" fill="none" xmlns="http://www.w3.org/2000/svg"><path fill="#FAFDFF" d="M0 0h400v250H0z"/><path d="M109.91 157.51H54.6a4.6 4.6 0 0 1-4.6-4.6V97.6a4.6 4.6 0 0 1 4.6-4.6h55.31a4.6 4.6 0 0 1 4.6 4.6v55.31a4.6 4.6 0 0 1-4.6 4.6zM54.6 95c-1.43 0-2.6 1.17-2.6 2.6v55.31c0 1.43 1.17 2.6 2.6 2.6h55.31c1.43 0 2.6-1.17 2.6-2.6V97.6c0-1.43-1.17-2.6-2.6-2.6H54.6z" fill="#3F8EFC"/><path d="m82.8 105.11 2.42 4.9c.09.18.26.3.45.33l5.41.79c.49.07.69.68.33 1.03l-3.92 3.82c-.14.14-.21.34-.17.53l.92 5.39c.08.49-.43.87-.87.64L82.53 120a.614.614 0 0 0-.56 0l-4.84 2.54a.6.6 0 0 1-.87-.64l.92-5.39c.03-.2-.03-.4-.17-.53l-3.92-3.82a.604.604 0 0 1 .33-1.03l5.41-.79c.2-.03.37-.15.45-.33l2.42-4.9a.6.6 0 0 1 1.08 0h.02z" fill="#3B28CC"/><path d="M102.7 131.227H61.8a2.708 2.708 0 0 0-2.71 2.705 2.708 2.708 0 0 0 2.71 2.705h40.9a2.707 2.707 0 0 0 2.71-2.705 2.708 2.708 0 0 0-2.71-2.705z" fill="#3F8EFC"/><path d="M96.12 143.77H68.39a.98.98 0 0 0-.98.98v.01c0 .541.438.98.98.98h27.73a.98.98 0 0 0 .98-.98v-.01a.98.98 0 0 0-.98-.98z" fill="#3B28CC"/><path d="M188.67 157.51h-55.31a4.6 4.6 0 0 1-4.6-4.6V97.6a4.6 4.6 0 0 1 4.6-4.6h55.31a4.6 4.6 0 0 1 4.6 4.6v55.31a4.6 4.6 0 0 1-4.6 4.6zM133.36 95c-1.43 0-2.6 1.17-2.6 2.6v55.31c0 1.43 1.17 2.6 2.6 2.6h55.31c1.43 0 2.6-1.17 2.6-2.6V97.6c0-1.43-1.17-2.6-2.6-2.6h-55.31z" fill="#3F8EFC"/><path d="m161.56 105.337 2.42 4.901c.09.18.26.3.45.33l5.41.789c.49.07.69.681.33 1.031l-3.92 3.819a.59.59 0 0 0-.17.531l.92 5.39c.08.49-.43.87-.87.64l-4.84-2.541a.614.614 0 0 0-.56 0l-4.84 2.541a.6.6 0 0 1-.87-.64l.92-5.39a.6.6 0 0 0-.17-.531l-3.92-3.819a.604.604 0 0 1 .33-1.031l5.41-.789c.2-.03.37-.15.45-.33l2.42-4.901a.6.6 0 0 1 1.08 0h.02z" fill="#3B28CC"/><path d="M181.46 131.455h-40.9a2.707 2.707 0 0 0-2.71 2.705 2.707 2.707 0 0 0 2.71 2.705h40.9a2.707 2.707 0 0 0 2.71-2.705 2.707 2.707 0 0 0-2.71-2.705z" fill="#3F8EFC"/><path d="M174.88 143.997h-27.73a.98.98 0 0 0-.98.98v.01c0 .542.439.98.98.98h27.73a.98.98 0 0 0 .98-.98v-.01a.98.98 0 0 0-.98-.98z" fill="#3B28CC"/><path d="M267.43 157.51h-55.31a4.6 4.6 0 0 1-4.6-4.6V97.6a4.6 4.6 0 0 1 4.6-4.6h55.31a4.6 4.6 0 0 1 4.6 4.6v55.31a4.6 4.6 0 0 1-4.6 4.6zM212.12 95c-1.43 0-2.6 1.17-2.6 2.6v55.31c0 1.43 1.17 2.6 2.6 2.6h55.31c1.43 0 2.6-1.17 2.6-2.6V97.6c0-1.43-1.17-2.6-2.6-2.6h-55.31z" fill="#3F8EFC"/><path d="m240.32 105.565 2.42 4.9c.09.18.26.3.45.33l5.41.79c.49.07.69.68.33 1.03l-3.92 3.82c-.14.14-.21.34-.17.53l.92 5.39c.08.49-.43.87-.87.64l-4.84-2.54a.614.614 0 0 0-.56 0l-4.84 2.54a.6.6 0 0 1-.87-.64l.92-5.39c.03-.2-.03-.4-.17-.53l-3.92-3.82a.604.604 0 0 1 .33-1.03l5.41-.79c.2-.03.37-.15.45-.33l2.42-4.9a.6.6 0 0 1 1.08 0h.02z" fill="#3B28CC"/><path d="M260.22 131.227h-40.9a2.708 2.708 0 0 0-2.71 2.705 2.707 2.707 0 0 0 2.71 2.705h40.9a2.707 2.707 0 0 0 2.71-2.705 2.708 2.708 0 0 0-2.71-2.705z" fill="#3F8EFC"/><path d="M253.64 144.225h-27.73a.98.98 0 0 0-.98.98v.01c0 .541.438.98.98.98h27.73a.98.98 0 0 0 .98-.98v-.01a.98.98 0 0 0-.98-.98z" fill="#3B28CC"/><path d="M346.19 157.51h-55.31a4.6 4.6 0 0 1-4.6-4.6V97.6a4.6 4.6 0 0 1 4.6-4.6h55.31a4.6 4.6 0 0 1 4.6 4.6v55.31a4.6 4.6 0 0 1-4.6 4.6zM290.88 95c-1.43 0-2.6 1.17-2.6 2.6v55.31c0 1.43 1.17 2.6 2.6 2.6h55.31c1.43 0 2.6-1.17 2.6-2.6V97.6c0-1.43-1.17-2.6-2.6-2.6h-55.31z" fill="#3F8EFC"/><path d="m319.08 105.337 2.42 4.901c.09.18.26.3.45.33l5.41.789c.49.07.69.681.33 1.031l-3.92 3.819a.59.59 0 0 0-.17.531l.92 5.39c.08.49-.43.87-.87.64l-4.84-2.541a.614.614 0 0 0-.56 0l-4.84 2.541a.6.6 0 0 1-.87-.64l.92-5.39a.6.6 0 0 0-.17-.531l-3.92-3.819a.604.604 0 0 1 .33-1.031l5.41-.789c.2-.03.37-.15.45-.33l2.42-4.901a.6.6 0 0 1 1.08 0h.02z" fill="#3B28CC"/><path d="M338.98 131h-40.9a2.707 2.707 0 0 0-2.71 2.705 2.707 2.707 0 0 0 2.71 2.705h40.9a2.707 2.707 0 0 0 2.71-2.705 2.707 2.707 0 0 0-2.71-2.705z" fill="#3F8EFC"/><path d="M332.4 143.997h-27.73a.98.98 0 0 0-.98.98v.01c0 .542.439.98.98.98h27.73a.98.98 0 0 0 .98-.98v-.01a.98.98 0 0 0-.98-.98z" fill="#3B28CC"/></svg>