<svg width="400" height="250" viewBox="0 0 400 250" fill="none" xmlns="http://www.w3.org/2000/svg">
<g clipPath="url(#clip0_192_2)">
<rect width="400" height="250" fill="#FAFDFF"/>
<g clipPath="url(#clip1_192_2)">
<path d="M93.16 94H68.95C66.2162 94 64 96.2162 64 98.95V123.16C64 125.894 66.2162 128.11 68.95 128.11H93.16C95.8938 128.11 98.11 125.894 98.11 123.16V98.95C98.11 96.2162 95.8938 94 93.16 94Z" fill="#3B28CC"/>
<path d="M95.2 139.8H66.91C65.3029 139.8 64 141.103 64 142.71V153.94C64 155.547 65.3029 156.85 66.91 156.85H95.2C96.8071 156.85 98.11 155.547 98.11 153.94V142.71C98.11 141.103 96.8071 139.8 95.2 139.8Z" fill="#3F8EFC"/>
<path d="M120.59 117.27C121.551 117.27 122.33 116.491 122.33 115.53C122.33 114.569 121.551 113.79 120.59 113.79C119.629 113.79 118.85 114.569 118.85 115.53C118.85 116.491 119.629 117.27 120.59 117.27Z" fill="#3F8EFC"/>
<path d="M120.59 137.06C121.551 137.06 122.33 136.281 122.33 135.32C122.33 134.359 121.551 133.58 120.59 133.58C119.629 133.58 118.85 134.359 118.85 135.32C118.85 136.281 119.629 137.06 120.59 137.06Z" fill="#3F8EFC"/>
<path d="M172.22 94H148.01C145.276 94 143.06 96.2162 143.06 98.95V123.16C143.06 125.894 145.276 128.11 148.01 128.11H172.22C174.954 128.11 177.17 125.894 177.17 123.16V98.95C177.17 96.2162 174.954 94 172.22 94Z" fill="#3B28CC"/>
<path d="M174.26 139.8H145.97C144.363 139.8 143.06 141.103 143.06 142.71V153.94C143.06 155.547 144.363 156.85 145.97 156.85H174.26C175.867 156.85 177.17 155.547 177.17 153.94V142.71C177.17 141.103 175.867 139.8 174.26 139.8Z" fill="#3F8EFC"/>
<path d="M199.65 117.27C200.611 117.27 201.39 116.491 201.39 115.53C201.39 114.569 200.611 113.79 199.65 113.79C198.689 113.79 197.91 114.569 197.91 115.53C197.91 116.491 198.689 117.27 199.65 117.27Z" fill="#3F8EFC"/>
<path d="M199.65 137.06C200.611 137.06 201.39 136.281 201.39 135.32C201.39 134.359 200.611 133.58 199.65 133.58C198.689 133.58 197.91 134.359 197.91 135.32C197.91 136.281 198.689 137.06 199.65 137.06Z" fill="#3F8EFC"/>
<path d="M251.28 94H227.07C224.336 94 222.12 96.2162 222.12 98.95V123.16C222.12 125.894 224.336 128.11 227.07 128.11H251.28C254.014 128.11 256.23 125.894 256.23 123.16V98.95C256.23 96.2162 254.014 94 251.28 94Z" fill="#3B28CC"/>
<path d="M253.32 139.8H225.03C223.423 139.8 222.12 141.103 222.12 142.71V153.94C222.12 155.547 223.423 156.85 225.03 156.85H253.32C254.927 156.85 256.23 155.547 256.23 153.94V142.71C256.23 141.103 254.927 139.8 253.32 139.8Z" fill="#3F8EFC"/>
<path d="M278.71 117.27C279.671 117.27 280.45 116.491 280.45 115.53C280.45 114.569 279.671 113.79 278.71 113.79C277.749 113.79 276.97 114.569 276.97 115.53C276.97 116.491 277.749 117.27 278.71 117.27Z" fill="#3F8EFC"/>
<path d="M278.71 137.06C279.671 137.06 280.45 136.281 280.45 135.32C280.45 134.359 279.671 133.58 278.71 133.58C277.749 133.58 276.97 134.359 276.97 135.32C276.97 136.281 277.749 137.06 278.71 137.06Z" fill="#3F8EFC"/>
<path d="M330.34 94H306.13C303.396 94 301.18 96.2162 301.18 98.95V123.16C301.18 125.894 303.396 128.11 306.13 128.11H330.34C333.074 128.11 335.29 125.894 335.29 123.16V98.95C335.29 96.2162 333.074 94 330.34 94Z" fill="#3B28CC"/>
<path d="M332.38 139.8H304.09C302.483 139.8 301.18 141.103 301.18 142.71V153.94C301.18 155.547 302.483 156.85 304.09 156.85H332.38C333.987 156.85 335.29 155.547 335.29 153.94V142.71C335.29 141.103 333.987 139.8 332.38 139.8Z" fill="#3F8EFC"/>
</g>
</g>
<defs>
<clipPath id="clip0_192_2">
<rect width="400" height="250" fill="white"/>
</clipPath>
<clipPath id="clip1_192_2">
<rect width="271.29" height="62.86" fill="white" transform="translate(64 94)"/>
</clipPath>
</defs>
</svg>
