<svg width="400" height="250" fill="none" xmlns="http://www.w3.org/2000/svg"><path fill="#FAFDFF" d="M0 0h400v250H0z"/><path d="M117.56 59.91c-1.59 0-2.89-1.29-2.89-2.89s1.29-2.89 2.89-2.89 2.89 1.29 2.89 2.89-1.29 2.89-2.89 2.89zm0-3.27a.39.39 0 0 0-.39.39c0 .22.17.39.39.39s.39-.17.39-.39-.17-.39-.39-.39zM127.6 76.28c-.37 0-.74-.17-.99-.49l-6.35-8.21c-.29-.36-.67-.58-1.03-.59-.46 0-.8.27-1.02.52l-4.27 5.25c-.85.95-1.91 1.42-3 1.39-1.12-.04-2.16-.6-2.94-1.58l-6.98-8.81c-.32-.41-.71-.63-1.09-.63-.38 0-.76.22-1.08.63l-9.39 11.78a1.253 1.253 0 0 1-1.96-1.56l9.39-11.79c.81-1.01 1.88-1.57 3.04-1.57 1.16 0 2.24.56 3.04 1.58l6.98 8.81c.31.4.69.62 1.06.63.42.01.8-.27 1.02-.52l4.27-5.25c.85-.94 1.9-1.41 2.98-1.39 1.11.03 2.14.58 2.92 1.54l6.37 8.23c.42.55.32 1.33-.22 1.75-.23.18-.5.26-.76.26l.01.02z" fill="#3F8EFC"/><path d="M124.05 87.08H92.03A5.04 5.04 0 0 1 87 82.05V50.03A5.04 5.04 0 0 1 92.03 45h32.02a5.04 5.04 0 0 1 5.03 5.03v32.02a5.04 5.04 0 0 1-5.03 5.03zM92.03 47.5c-1.4 0-2.53 1.14-2.53 2.53v32.02c0 1.4 1.13 2.53 2.53 2.53h32.02c1.4 0 2.53-1.14 2.53-2.53V50.03c0-1.4-1.13-2.53-2.53-2.53H92.03z" fill="#3F8EFC"/><path d="M257.43 52.34H147.34a3.59 3.59 0 0 0-3.59 3.59v.01a3.59 3.59 0 0 0 3.59 3.59h110.09a3.59 3.59 0 0 0 3.59-3.59v-.01a3.59 3.59 0 0 0-3.59-3.59z" fill="#3B28CC"/><path d="M221.39 69.06H145.3a1.55 1.55 0 0 0 0 3.1h76.09a1.55 1.55 0 0 0 0-3.1zM201.71 76.64H145.3a1.55 1.55 0 0 0 0 3.1h56.41a1.55 1.55 0 1 0 0-3.1z" fill="#3F8EFC"/><path d="M308.46 70.88c-.28 0-.56-.11-.78-.32-.43-.43-.42-1.12 0-1.55l2.86-2.84-2.3-3.24c-.35-.49-.24-1.18.26-1.53.49-.35 1.18-.24 1.53.26l2.84 4c.31.44.26 1.03-.12 1.41l-3.52 3.5c-.21.21-.49.32-.77.32v-.01z" fill="#3B28CC"/><path d="M311.37 67.51h-11.5c-.6 0-1.09-.49-1.09-1.09 0-.6.49-1.09 1.09-1.09h11.5c.6 0 1.09.49 1.09 1.09 0 .6-.49 1.09-1.09 1.09z" fill="#3B28CC"/><path d="M117.56 118.91c-1.59 0-2.89-1.29-2.89-2.89s1.29-2.89 2.89-2.89 2.89 1.29 2.89 2.89-1.29 2.89-2.89 2.89zm0-3.27a.39.39 0 0 0-.39.39c0 .22.17.39.39.39s.39-.17.39-.39-.17-.39-.39-.39zM127.6 135.28c-.37 0-.74-.17-.99-.49l-6.35-8.21c-.29-.36-.67-.58-1.03-.59-.46 0-.8.27-1.02.52l-4.27 5.25c-.85.95-1.91 1.42-3 1.39-1.12-.04-2.16-.6-2.94-1.58l-6.98-8.81c-.32-.41-.71-.63-1.09-.63-.38 0-.76.22-1.08.63l-9.39 11.78a1.253 1.253 0 0 1-1.96-1.56l9.39-11.79c.81-1.01 1.88-1.57 3.04-1.57 1.16 0 2.24.56 3.04 1.58l6.98 8.81c.31.4.69.62 1.06.63.42.01.8-.27 1.02-.52l4.27-5.25c.85-.94 1.9-1.41 2.98-1.39 1.11.03 2.14.58 2.92 1.54l6.37 8.23c.42.55.32 1.33-.22 1.75-.23.18-.5.26-.76.26l.01.02z" fill="#3F8EFC"/><path d="M124.05 146.08H92.03a5.04 5.04 0 0 1-5.03-5.03v-32.02a5.04 5.04 0 0 1 5.03-5.03h32.02a5.04 5.04 0 0 1 5.03 5.03v32.02a5.04 5.04 0 0 1-5.03 5.03zM92.03 106.5c-1.4 0-2.53 1.14-2.53 2.53v32.02c0 1.4 1.13 2.53 2.53 2.53h32.02c1.4 0 2.53-1.14 2.53-2.53v-32.02c0-1.4-1.13-2.53-2.53-2.53H92.03z" fill="#3F8EFC"/><path d="M257.43 111.34H147.34a3.59 3.59 0 0 0-3.59 3.59v.01a3.59 3.59 0 0 0 3.59 3.59h110.09a3.59 3.59 0 0 0 3.59-3.59v-.01a3.59 3.59 0 0 0-3.59-3.59z" fill="#3B28CC"/><path d="M221.39 128.06H145.3a1.55 1.55 0 0 0 0 3.1h76.09a1.55 1.55 0 0 0 0-3.1zM201.71 135.64H145.3a1.55 1.55 0 0 0 0 3.1h56.41a1.55 1.55 0 0 0 0-3.1z" fill="#3F8EFC"/><path d="M308.46 129.88c-.28 0-.56-.11-.78-.32-.43-.43-.42-1.12 0-1.55l2.86-2.84-2.3-3.24c-.35-.49-.24-1.18.26-1.53.49-.35 1.18-.24 1.53.26l2.84 4c.31.44.26 1.03-.12 1.41l-3.52 3.5c-.21.21-.49.32-.77.32v-.01z" fill="#3B28CC"/><path d="M311.37 126.51h-11.5c-.6 0-1.09-.49-1.09-1.09 0-.6.49-1.09 1.09-1.09h11.5c.6 0 1.09.49 1.09 1.09 0 .6-.49 1.09-1.09 1.09z" fill="#3B28CC"/><path d="M117.56 176.91c-1.59 0-2.89-1.29-2.89-2.89s1.29-2.89 2.89-2.89 2.89 1.29 2.89 2.89-1.29 2.89-2.89 2.89zm0-3.27a.39.39 0 0 0-.39.39c0 .22.17.39.39.39s.39-.17.39-.39-.17-.39-.39-.39zM127.6 193.28c-.37 0-.74-.17-.99-.49l-6.35-8.21c-.29-.36-.67-.58-1.03-.59-.46 0-.8.27-1.02.52l-4.27 5.25c-.85.95-1.91 1.42-3 1.39-1.12-.04-2.16-.6-2.94-1.58l-6.98-8.81c-.32-.41-.71-.63-1.09-.63-.38 0-.76.22-1.08.63l-9.39 11.78a1.253 1.253 0 0 1-1.96-1.56l9.39-11.79c.81-1.01 1.88-1.57 3.04-1.57 1.16 0 2.24.56 3.04 1.58l6.98 8.81c.31.4.69.62 1.06.63.42.01.8-.27 1.02-.52l4.27-5.25c.85-.94 1.9-1.41 2.98-1.39 1.11.03 2.14.58 2.92 1.54l6.37 8.23c.42.55.32 1.33-.22 1.75-.23.18-.5.26-.76.26l.01.02z" fill="#3F8EFC"/><path d="M124.05 204.08H92.03a5.04 5.04 0 0 1-5.03-5.03v-32.02a5.04 5.04 0 0 1 5.03-5.03h32.02a5.04 5.04 0 0 1 5.03 5.03v32.02a5.04 5.04 0 0 1-5.03 5.03zM92.03 164.5c-1.4 0-2.53 1.14-2.53 2.53v32.02c0 1.4 1.13 2.53 2.53 2.53h32.02c1.4 0 2.53-1.14 2.53-2.53v-32.02c0-1.4-1.13-2.53-2.53-2.53H92.03z" fill="#3F8EFC"/><path d="M257.43 169.34H147.34a3.59 3.59 0 0 0-3.59 3.59v.01a3.59 3.59 0 0 0 3.59 3.59h110.09a3.59 3.59 0 0 0 3.59-3.59v-.01a3.59 3.59 0 0 0-3.59-3.59z" fill="#3B28CC"/><path d="M221.39 186.06H145.3a1.55 1.55 0 0 0 0 3.1h76.09a1.55 1.55 0 0 0 0-3.1zM201.71 193.64H145.3a1.55 1.55 0 0 0 0 3.1h56.41a1.55 1.55 0 0 0 0-3.1z" fill="#3F8EFC"/><path d="M308.46 187.88c-.28 0-.56-.11-.78-.32-.43-.43-.42-1.12 0-1.55l2.86-2.84-2.3-3.24c-.35-.49-.24-1.18.26-1.53.49-.35 1.18-.24 1.53.26l2.84 4c.31.44.26 1.03-.12 1.41l-3.52 3.5c-.21.21-.49.32-.77.32v-.01z" fill="#3B28CC"/><path d="M311.37 184.51h-11.5c-.6 0-1.09-.49-1.09-1.09 0-.6.49-1.09 1.09-1.09h11.5c.6 0 1.09.49 1.09 1.09 0 .6-.49 1.09-1.09 1.09z" fill="#3B28CC"/></svg>