<svg width="400" height="250" fill="none" xmlns="http://www.w3.org/2000/svg"><g clipPath="url(#a)"><path fill="#FAFDFF" d="M0 0h400v250H0z"/><path d="M201.353 96.234c-.148.121-.197.288-.099.419.197.25.836.316 1.278.474.177.065.334.14.511.205.521.167 1.189.13 1.798.093.148 0 .295-.019.413-.056a.805.805 0 0 0 .334-.186c.256-.186.511-.4.413-.614-.04-.075-.118-.14-.197-.214a1.272 1.272 0 0 0-.639-.335c-1.1-.195-2.997-.502-3.822.205l.01.009zM261.426 102.578c.108-.139.098-.307-.059-.446-.305-.27-.973-.335-1.484-.493-.207-.065-.393-.149-.6-.214-.589-.168-1.258-.13-1.877-.084a1.815 1.815 0 0 0-.412.056.641.641 0 0 0-.285.195c-.197.196-.403.428-.227.651.059.084.168.149.276.224.216.139.452.297.776.353 1.209.205 3.302.521 3.901-.242h-.009z" fill="#DDF1FF"/><path d="M52 189.52v4.047c10.947-.13 26.592.14 41.244 2.065 10.289 1.349 18.858 3.359 25.462 5.991.334.13.649.27.973.4h11.134c-7.675-5.005-19.408-8.474-35.024-10.493-15.85-2.047-32.783-2.205-43.799-2.019l.01.009z" fill="#fff"/><path d="m290.193 72.676-177.98-30.588c-3.67-.63-7.027 2.2-7.027 5.928v153.966c0 3.736 3.366 6.567 7.04 5.928l177.98-30.96a6.014 6.014 0 0 0 4.98-5.928V78.608a6.014 6.014 0 0 0-4.993-5.928v-.004z" fill="#DDF1FF"/><path d="M244.644 101.948c-5.486 0-10.055-4.814-10.245-10.878-.101-3.146 1.026-6.17 3.087-8.302 1.833-1.892 4.244-2.935 6.791-2.935 5.451 0 10.05 4.873 10.253 10.857.105 3.082-.984 6.072-2.977 8.2-1.77 1.888-4.122 2.974-6.613 3.05-.098 0-.195.004-.292.004l-.004.004zm-.367-18.374c-1.525 0-2.982.638-4.101 1.795-1.364 1.406-2.103 3.442-2.035 5.578.131 4.114 3.133 7.36 6.685 7.255 1.494-.046 2.913-.71 3.999-1.866 1.321-1.41 2.039-3.42 1.968-5.52-.136-3.995-3.058-7.246-6.516-7.246v.004zM275.129 127.653l-.025-.042c-2.741-4.113-6.322-6.347-10.097-6.25-3.864.084-7.471 2.576-10.161 7.018l-17.829 32.741c-2.17 3.581-4.89 5.621-7.656 5.747-2.542.114-5.025-1.376-7.179-4.311l-37.516-51.123c-3.641-4.962-8.408-7.618-13.429-7.487-5.207.139-10.068 3.255-13.687 8.783L105 192.969v8.497l56.444-86.182c2.757-4.21 6.279-6.583 9.915-6.681 3.433-.105 6.841 1.892 9.552 5.587l37.517 51.123c3.074 4.189 7.031 6.398 11.144 6.208 4.384-.199 8.455-3.053 11.457-8.036l17.825-32.732c1.829-3.003 4.05-4.684 6.254-4.734 2.129-.042 4.282 1.431 6.107 4.155l23.568 36.976v-8.661l-19.654-30.836z" fill="#fff"/><path d="m240.227 142.298-75.257 6.698c-1.064.093-1.905.861-1.938 1.773l-.009.186c-.042 1.043.984 1.846 2.2 1.727l75.19-7.305c.865-.085 1.528-.828 1.482-1.673-.042-.853-.79-1.482-1.668-1.402v-.004z" fill="#3F8EFC"/><path d="m250.776 123.312-101.148 4.839c-1.921.093-3.446 1.402-3.492 3.011l-.009.325c-.055 1.799 1.748 3.227 3.894 3.096l101.016-6.145a2.59 2.59 0 0 0 2.433-2.723 2.562 2.562 0 0 0-2.69-2.403h-.004z" fill="#3B28CC"/><path d="m209.163 92.168-14.388-1.263c-1.457-.127-2.711.427-2.702 1.195l.27 19.236c.008.722 1.136 1.309 2.504 1.317l14.379.063c1.305.005 2.348-.557 2.34-1.254l-.254-17.951c-.008-.655-.941-1.233-2.158-1.34l.009-.003z" fill="#3F8EFC"/></g><defs><clipPath id="a"><path fill="#fff" d="M0 0h400v250H0z"/></clipPath></defs></svg>