<svg width="400" height="250" viewBox="0 0 400 250" fill="none" xmlns="http://www.w3.org/2000/svg">
<g clip-path="url(#clip0_226_2)">
<rect width="400" height="250" fill="#FAFDFF"/>
<path fill-rule="evenodd" clip-rule="evenodd" d="M103.31 124.4C100.93 124.4 99 126.33 99 128.71V169.42C99 171.8 100.93 173.73 103.31 173.73H297.63C300.01 173.73 301.94 171.8 301.94 169.42V128.71C301.94 126.33 300.01 124.4 297.63 124.4H103.31ZM92 128.71C92 122.464 97.0637 117.4 103.31 117.4H297.63C303.876 117.4 308.94 122.464 308.94 128.71V169.42C308.94 175.666 303.876 180.73 297.63 180.73H103.31C97.0637 180.73 92 175.666 92 169.42V128.71Z" fill="#3F8EFC"/>
<path fill-rule="evenodd" clip-rule="evenodd" d="M115.67 140.45C115.67 139.069 116.789 137.95 118.17 137.95H262.73C264.111 137.95 265.23 139.069 265.23 140.45C265.23 141.831 264.111 142.95 262.73 142.95H118.17C116.789 142.95 115.67 141.831 115.67 140.45Z" fill="#DDF1FF"/>
<path fill-rule="evenodd" clip-rule="evenodd" d="M115.67 157.9C115.67 156.519 116.789 155.4 118.17 155.4H223.26C224.641 155.4 225.76 156.519 225.76 157.9C225.76 159.281 224.641 160.4 223.26 160.4H118.17C116.789 160.4 115.67 159.281 115.67 157.9Z" fill="#DDF1FF"/>
<path fill-rule="evenodd" clip-rule="evenodd" d="M103.03 81.73C100.804 81.73 99 83.5343 99 85.76V99.09C99 101.316 100.804 103.12 103.03 103.12H297.91C300.136 103.12 301.94 101.316 301.94 99.09V85.76C301.94 83.5343 300.136 81.73 297.91 81.73H103.03ZM92 85.76C92 79.6683 96.9383 74.73 103.03 74.73H297.91C304.002 74.73 308.94 79.6683 308.94 85.76V99.09C308.94 105.182 304.002 110.12 297.91 110.12H103.03C96.9383 110.12 92 105.182 92 99.09V85.76Z" fill="#3F8EFC"/>
<path fill-rule="evenodd" clip-rule="evenodd" d="M103.03 37C100.804 37 99 38.8043 99 41.03V54.36C99 56.5857 100.804 58.39 103.03 58.39H297.91C300.136 58.39 301.94 56.5857 301.94 54.36V41.03C301.94 38.8043 300.136 37 297.91 37H103.03ZM92 41.03C92 34.9383 96.9383 30 103.03 30H297.91C304.002 30 308.94 34.9383 308.94 41.03V54.36C308.94 60.4517 304.002 65.39 297.91 65.39H103.03C96.9383 65.39 92 60.4517 92 54.36V41.03Z" fill="#3F8EFC"/>
<path fill-rule="evenodd" clip-rule="evenodd" d="M100.86 194.97C99.8328 194.97 99 195.803 99 196.83V210.17C99 211.197 99.8328 212.03 100.86 212.03H167.16C168.187 212.03 169.02 211.197 169.02 210.17V196.83C169.02 195.803 168.187 194.97 167.16 194.97H100.86ZM92 196.83C92 191.937 95.9668 187.97 100.86 187.97H167.16C172.053 187.97 176.02 191.937 176.02 196.83V210.17C176.02 215.063 172.053 219.03 167.16 219.03H100.86C95.9668 219.03 92 215.063 92 210.17V196.83Z" fill="#3F8EFC"/>
<path fill-rule="evenodd" clip-rule="evenodd" d="M115.67 92.4299C115.67 91.0492 116.789 89.9299 118.17 89.9299H234.58C235.961 89.9299 237.08 91.0492 237.08 92.4299C237.08 93.8106 235.961 94.9299 234.58 94.9299H118.17C116.789 94.9299 115.67 93.8106 115.67 92.4299Z" fill="#DDF1FF"/>
<path fill-rule="evenodd" clip-rule="evenodd" d="M115.67 47.7C115.67 46.3192 116.789 45.2 118.17 45.2H206.35C207.731 45.2 208.85 46.3192 208.85 47.7C208.85 49.0807 207.731 50.2 206.35 50.2H118.17C116.789 50.2 115.67 49.0807 115.67 47.7Z" fill="#DDF1FF"/>
</g>
<defs>
<clipPath id="clip0_226_2">
<rect width="400" height="250" fill="white"/>
</clipPath>
</defs>
</svg>
