<svg width="400" height="250" fill="none" xmlns="http://www.w3.org/2000/svg"><g clipPath="url(#a)"><path fill="#FAFDFF" d="M0 0h400v250H0z"/><path d="M232.61 72c-6.148 0-11.131 5.366-11.131 11.98 0 8.042 9.74 16.61 11.131 16.61 2.337 0 11.131-9.989 11.131-16.61 0-6.621-4.983-11.98-11.131-11.98zm0 17.046a6.614 6.614 0 1 1 0-13.228 6.614 6.614 0 0 1 0 13.228z" fill="#3B28CC"/><path d="M235.083 82.432a2.475 2.475 0 0 1-2.473 2.473 2.47 2.47 0 0 1-2.473-2.473 2.47 2.47 0 0 1 2.473-2.473 2.47 2.47 0 0 1 2.473 2.473zM122.173 77.449c-2.315 0-4.194 2.022-4.194 4.51 0 3.028 3.668 6.252 4.194 6.252.88 0 4.194-3.757 4.194-6.253 0-2.495-1.879-4.51-4.194-4.51zm0 6.418a2.486 2.486 0 0 1-2.487-2.487 2.486 2.486 0 0 1 2.487-2.488 2.486 2.486 0 0 1 2.488 2.488 2.486 2.486 0 0 1-2.488 2.487z" fill="#3B28CC"/><path d="M123.098 81.38a.932.932 0 1 1-1.864 0 .932.932 0 0 1 1.864 0zM291.015 129.112c-2.315 0-4.194 2.022-4.194 4.51 0 3.029 3.667 6.253 4.194 6.253.879 0 4.193-3.758 4.193-6.253 0-2.496-1.879-4.51-4.193-4.51zm0 6.419a2.486 2.486 0 0 1-2.488-2.488 2.486 2.486 0 0 1 2.488-2.488 2.486 2.486 0 0 1 2.487 2.488 2.486 2.486 0 0 1-2.487 2.488z" fill="#3B28CC"/><path d="M291.939 133.035a.932.932 0 1 1-1.864 0c0-.518.414-.932.932-.932.519 0 .932.414.932.932z" fill="#3B28CC"/><path d="M258.464 109.609c-2.683 0-4.855 2.337-4.855 5.231 0 3.51 4.254 7.245 4.855 7.245 1.022 0 4.855-4.359 4.855-7.245s-2.172-5.231-4.855-5.231zm0 7.44a2.887 2.887 0 1 1 .001-5.773 2.887 2.887 0 0 1-.001 5.773z" fill="#3F8EFC"/><path d="M258.464 115.231a1.076 1.076 0 1 0-.002-2.152 1.076 1.076 0 0 0 .002 2.152z" fill="#3FA9F5"/><path d="M108.855 110.278c-2.683 0-4.855 2.337-4.855 5.231 0 3.51 4.254 7.245 4.855 7.245 1.022 0 4.855-4.359 4.855-7.245s-2.172-5.231-4.855-5.231zm0 7.44a2.887 2.887 0 1 1 .001-5.773 2.887 2.887 0 0 1-.001 5.773z" fill="#3B28CC"/><path d="M109.938 114.825a1.075 1.075 0 1 1-2.15 0 1.075 1.075 0 0 1 2.15 0zM217.616 168.705c-2.007 0-3.638 1.751-3.638 3.909 0 2.623 3.179 5.418 3.638 5.418.766 0 3.637-3.261 3.637-5.418 0-2.158-1.631-3.909-3.637-3.909zm0 5.57a2.158 2.158 0 0 1 0-4.315c1.187 0 2.157.97 2.157 2.157 0 1.188-.97 2.158-2.157 2.158z" fill="#3B28CC"/><path d="M217.616 172.914a.804.804 0 1 0 0-1.608.804.804 0 0 0 0 1.608zM171.086 120.078c-2.15 0-3.894 1.879-3.894 4.194 0 2.811 3.413 5.81 3.894 5.81.819 0 3.893-3.495 3.893-5.81 0-2.315-1.744-4.194-3.893-4.194zm0 5.968a2.316 2.316 0 0 1 0-4.63 2.315 2.315 0 0 1 0 4.63z" fill="#3B28CC"/><path d="M171.95 123.731a.86.86 0 0 1-.865.864.86.86 0 0 1-.864-.864.86.86 0 0 1 .864-.864.86.86 0 0 1 .865.864z" fill="#3B28CC"/><path d="M166.441 159.13c-2.187 0-3.961 1.909-3.961 4.262 0 2.856 3.465 5.907 3.961 5.907.834 0 3.961-3.555 3.961-5.907 0-2.353-1.774-4.262-3.961-4.262zm0 6.058a2.352 2.352 0 1 1 0-4.705 2.35 2.35 0 0 1 2.352 2.352 2.35 2.35 0 0 1-2.352 2.353z" fill="#3F8EFC"/><path d="M167.32 162.843a.876.876 0 0 1-.879.879.875.875 0 0 1-.879-.879c0-.489.39-.879.879-.879.488 0 .879.39.879.879z" fill="#3F8EFC"/><path d="M346.528 49.005H52v153.018h294.528V49.005z" fill="#DDF1FF"/><path d="M107.602 102.243s.933-.362-.069-.279c-.993.084-3.381.233-3.381.233l-.825.158c-1.504.298-.678.102-2.634.521-1.955.419-1.68.223-3.105.595-1.435.373-3.607 1.61-3.607 1.61l-1.63.8s-1.131.484-1.613 1.032c-.49.549-.805 1.219-.805 1.219l-1.406 1.702 1.013.959s.795.502 2.977.297c2.182-.204 4.747-.493 4.747-.493l1.857-1.004s-.118-.252 2.467-1.582c2.545-1.321 2.437-.688 4.923-2.14 2.447-1.432 2.919-2.121 2.919-2.121s1.906-1.19-1.848-1.507h.02zM171.026 136.961c.216.325.658.558 1.091.781l4.619 2.438c.963.511 1.945 1.032 2.682 1.683.521.465.914.996 1.317 1.517 2.231 2.883 4.904 5.721 8.412 8.186 3.587 2.521 8.039 4.623 13.169 5.74 1.975.428 4.029.716 5.935 1.283.924.279 1.818.614 2.811.754 2.23.307 4.854-.419 6.662.549.335.176.61.4.944.567.766.372 1.838.4 2.614.075.776-.326 1.228-.986 1.101-1.61-.148-.688-.885-1.246-1.592-1.749-1.022-.725-2.035-1.46-3.037-2.176-2.368-1.703-4.747-3.396-7.616-4.596-1.739-.726-3.636-1.265-5.385-1.953-2.31-.903-4.334-2.066-6.319-3.201-2.015-1.153-4.019-2.297-5.965-3.451a231.823 231.823 0 0 1-10.486-6.54c-1.228-.818-2.456-1.646-3.97-2.241-1.474-.587-4.599-1.414-6.112-.187-1.013.828-1.455 3.294-.895 4.122l.02.009zM201.353 96.234c-.148.121-.197.288-.099.419.197.25.836.316 1.278.474.177.065.334.14.511.205.521.167 1.189.13 1.798.093.148 0 .295-.019.413-.056a.805.805 0 0 0 .334-.186c.256-.186.511-.4.413-.614-.04-.075-.118-.14-.197-.214a1.272 1.272 0 0 0-.639-.335c-1.1-.195-2.997-.502-3.822.205l.01.009zM261.426 102.578c.108-.139.098-.307-.059-.446-.305-.27-.973-.335-1.484-.493-.207-.065-.393-.149-.6-.214-.589-.168-1.258-.13-1.877-.084a1.815 1.815 0 0 0-.412.056.641.641 0 0 0-.285.195c-.197.196-.403.428-.227.651.059.084.168.149.276.224.216.139.452.297.776.353 1.209.205 3.302.521 3.901-.242h-.009zM214.157 92.104s24.696 1.758 24.725 1.749c.03-.01-1.395 1.748-1.395 1.748s-5.552.912-5.887 1.042c-.334.14-2.23.26-2.584.214-.354-.046-1.209-.279-1.936-.604-.727-.326-3.253-.884-3.253-.884s-2.506-.028-2.673.084a3.37 3.37 0 0 0-.363.297l-.167.772s.815-.13-.423.252c-1.238.381-3.233.66-3.41.707-.177.046-.835-.103-.835-.103s-4.59-.102-4.727-.084c-.128.02-1.405-1.023-1.405-1.023l-.315-1.302s-.904-.344-1.032-.41c-.127-.065-1.287-.939-1.287-.939s.049-.41.049-.493c0-.084-.039-.763-.039-.763l.511-.493 6.446.223v.01zM164.982 120.505c.02 1.758 1.239 3.441 3.037 5.107l-26.376 4.037 23.339-9.144z" fill="#DDF1FF"/><path d="M252.08 132.043c-.236-.028-.482-.056-.688-.037a.894.894 0 0 0-.531.242c-.668.586-1.159 1.237-1.199 2 0 .186.01.391-.127.549-.148.167-.452.279-.521.474-.089.242.255.568.737.819.196.102.442.223.442.325 0 .066-.088.112-.177.149-.393.177-.815.344-.953.614-.167.317.088.726.531 1.098.442.372 1.061.726 1.67 1.07.443.242.895.493 1.435.688.315.112.658.205.993.289 1.218.316 4.844.707 5.591.697.56 0 1.091-.065 1.69-.018.6.046 3.469.949 4.383.921.914-.028 1.386-1.321 1.327-1.684-.02-.13-.039-.261-.069-.391-.039-.251-.078-.502-.019-.725.186-.633 1.208-1.033 1.257-1.684.03-.391-.285-.837-.628-1.275a21.675 21.675 0 0 0-2.182-2.307c-.265-.242-.56-.502-1.032-.697-.54-.233-1.199-.335-1.818-.428-1.15-.168-1.808-.196-2.467.083-.461.196-.776.335-1.611.224-1.995-.261-4.049-.754-6.064-.996h.03z" fill="#3F8EFC"/><path d="M52 189.52v4.047c10.947-.13 26.592.14 41.244 2.065 10.289 1.349 18.859 3.359 25.462 5.991.335.13.649.27.973.4h11.134c-7.674-5.005-19.408-8.474-35.023-10.493-15.852-2.047-32.784-2.205-43.8-2.019l.01.009z" fill="#fff"/><path d="M309.195 182.004a82.826 82.826 0 0 0-4.049-6.223c-4.196-5.842-8.078-9.498-10.298-11.368 4.097-2.289 8.372-4.856 12.588-7.675 9.847-6.595 17.207-13.154 22.072-19.48.226-.297.442-.595.658-.893 2.712.735 8.491 2.345 16.362 4.782v-2.549a486.317 486.317 0 0 0-14.917-4.316c3.94-6.066 5.562-11.926 5.021-17.471.531 0 1.091-.065 1.592-.242 1.504-.52 2.025-1.804 1.583-3.869-.128-.624-.344-1.266-.541-1.889-1.071-3.33-1.897-5.879 6.702-5.74.177 0 .374 0 .56.01v-1.87c-.658-.019-1.267-.028-1.808-.037-5.13-.084-8.186.66-9.375 2.297-1.022 1.405-.481 3.201.059 4.968.187.614.364 1.209.472 1.768.324 1.711-.197 2.307-.501 2.437-2.929-2.428-13.955-11.526-25.974-20.596-5.965-4.503-11.271-8.326-15.988-11.517 3.557-.65 7.321-1.265 8.137-1.284.992 0 2.889-.186 5.454-.446 1.061-.102 2.358-.233 2.791-.26.609.027 1.061-.103 1.641-.27.933-.27 1.572-.4 1.906-.4.56.307 1.985 1.507 3.056 2.41 3.047 2.567 5.435 4.502 7.636 5.292 1.798.642 13.021 6.698 22.504 11.889v-2.149c-8.854-4.79-18.838-10.093-20.991-10.856-.275-.102-1.1-.465-2.791-1.702-1.189-.875-2.456-1.926-3.557-2.838-1.818-1.507-2.869-2.363-3.754-2.81-9.63-6.874-25.462-16.204-25.609-16.297-.374-.224-1.012-.354-1.582-.317-.079 0-8.334.447-15.861.847-2.821.149-5.464-.019-7.842-.502a18.422 18.422 0 0 1-2.398-.651 14.86 14.86 0 0 1-.148-.475c-.501-1.73-.707-3.982-.619-6.642.079-2.316.374-4.53.629-6.084h-2.545c-.275 1.554-.59 3.693-.717 5.926-.099 1.795-.05 3.414.127 4.819-4.412-.484-17.62-1.926-23.663-2.391-5.789-.447-15.419-1.889-18.456-2.363.669-1.805 1.504-3.433 2.998-4.335.796-.475 1.405-1.089 1.877-1.675h-2.624a6.129 6.129 0 0 1-1.386 1.154c-2.309 1.377-3.164 3.842-4.117 6.549-.246.688-.973 1.572-1.917 2.502-.462-.427-1.13-.846-2.024-1.274-1.946-.94-4.815-1.86-8.481-2.949-5.788-1.712-9.1-3.73-9.955-5.981h-2.525c.324 1.05 1.14 2.065 2.437 3.041 1.847 1.377 4.677 2.642 8.422 3.768 3.518 1.051 6.259 1.944 8.038 2.81 1.72.837 2.369 1.58 2.093 2.38a70.753 70.753 0 0 1-4.894 3.685c-6.77-.66-13.826-1.35-21.059-2.075a6685.052 6685.052 0 0 1-34.886-3.553l11.606-10.056h-2.575l-11.508 9.804a6236.043 6236.043 0 0 1-25-2.679c-.049-.186-.393-.316-.914-.335-.344 0-.698.038-1.002.121a3062.533 3062.533 0 0 1-31.358-3.6l7.733-3.312h-2.8l-7.174 3.042a2076.416 2076.416 0 0 1-18.524-2.316c.943-.279 1.769-.52 2.466-.725h-3.252c-.462.139-.944.278-1.465.427-1.08-.14-2.152-.288-3.203-.428h-8.206c2.762.391 5.69.791 8.766 1.21-3.056.902-6.653 1.972-10.348 3.098v1.004c4.53-1.395 9.031-2.744 12.608-3.805 5.965.791 12.49 1.62 19.576 2.484-.924.8-2.81 2.214-4.904 2.875a235.313 235.313 0 0 0-6.977 2.325c-.256.056-.796.168-1.317.27a412.7 412.7 0 0 0-11.085 2.4L52 57.88v1.842l4.884 1.87c-1.759.437-3.43.884-4.884 1.321v1.135c5.09-1.712 15.851-3.935 19.497-4.688.108-.02.197-.038.305-.066.039 0 .088.019.137.019.138.019 3.695.372 9.375.977.334.53 1.297 2.297 1.268 4.949-.03 2.93-1.327 7.693-7.43 13.47-9.02-.68-17.944-1.414-23.142-2.084v1.582c5.06.586 12.392 1.2 21.197 1.87l-10.358 5.962s-.098.056-.137.084a404.54 404.54 0 0 1-10.702 7.051v2.205c5.208-3.19 12.166-7.99 13.345-8.8l10.77-6.27 9.474.698c10.112.734 18.927 1.376 22.072 1.804.609.084 1.326.168 2.162.242-3.489 2.493-10.918 7.368-16.097 8.921-.403.121-.836.252-1.297.382-8.157 2.418-25.374 7.535-37.393 16.94a88.303 88.303 0 0 0-3.036-2.428v4.465c4.393 3.823 7.213 7.014 8.373 8.4l-8.373 3.424v2.242l11.006-4.549 34.808-.996 10.495 14.261A6264.23 6264.23 0 0 0 52 150.757v2.725a6438.975 6438.975 0 0 1 57.842-17.293l13.965 18.968c-8.157 4.251-42.178 21.786-56.575 25.87-2.398.679-4.648 1.256-6.82 1.824-2.83.725-5.542 1.432-8.412 2.307v3.59c2.771-.865 5.425-1.562 8.225-2.297 2.26-.596 4.59-1.2 7.135-1.926 15.91-4.568 51.71-23.377 59.218-27.368 4.589 1.516 21.433 6.865 44.369 11.768.236.046.462.093.698.148-4.334 8.624-10.033 20.885-9.915 32.932h5.483c-.56-11.377 4.796-23.471 8.913-32.001 14.633 2.958 28.931 5.144 42.424 6.456a312 312 0 0 0 10.132.818c-.6 2.503-1.622 7.721-1.671 14.057-.039 5.237-4.334 8.837-7.203 10.66h7.871c2.496-2.567 4.619-6.046 4.57-10.456-.079-6.512.983-11.889 1.464-13.982 4.855.233 9.552.335 14.072.307 7.695-.046 14.83-.483 21.345-1.293.226-.028.432-.083.629-.158.137-.056 9.768-3.786 21.757-10.196 1.966 1.703 5.552 5.173 9.395 10.745 3.587 5.191 8.088 13.256 11.861 25.033h5.484a121.017 121.017 0 0 0-2.791-7.423 107.39 107.39 0 0 0-4.108-8.745c6.427-1.144 25.354-4.604 35.191-7.46v-4.577c-6.938 2.707-29.776 6.856-37.333 8.186l-.02.028zm-2.624-87.342c11.144 8.549 21.423 17.117 25.01 20.14l-40.448 1.972-37.294-23.033 6.81-10.298 29.314-.865c4.875 3.311 10.398 7.33 16.608 12.093v-.01zM192.262 81.638c-1.277 1.442-.688 3.293 1.828 5.526 1.101.977 2.31 1.805 3.125 2.316a3.222 3.222 0 0 0-.314.14c-1.16.605-7.98 3.395-15.557 6.447-10.063-4.568-21.629-8.01-34.542-10.363 1.592-1.508 5.523-5.275 9.493-9.517.108-.112.206-.223.315-.344l39.151 3.07c-1.307.809-2.604 1.702-3.499 2.725zm6.84-2.465 58.176 4.14-6.544 9.59a1995.12 1995.12 0 0 0-24.824-2.27c-7.586-.632-13.708-1.078-18.229-1.31-3.135-.168-5.297-.224-6.84-.215-.059-.046-.118-.093-.196-.14-.02-.009-2.044-1.134-3.715-2.595-1.435-1.246-2.879-2.977-1.788-4.242.943-1.088 2.496-2.074 3.96-2.958zm-20.588 18.038c-5.65 2.27-11.399 4.558-15.291 6.102-9.748-2.335-26.248-3.097-33.304-3.32 7.027-5.117 12.117-9.368 15.399-12.792 10.731 1.99 22.347 5.08 33.196 10.01zm2.388 1.172c4.57 2.456 23.477 12.744 28.342 17.805.589.605 1.493 1.358 2.663 2.205-.56 4.512-.305 9.302.855 14.27.992 4.27 2.643 8.689 4.953 13.126a69.359 69.359 0 0 0 5.424 8.772c-6.378-2.353-16.775-6.623-27.192-12.809-14.023-8.326-29.609-21.108-30.896-36.96 2.447-.976 9.061-3.646 15.851-6.41zm31.643 16.772c-5.149-5.228-23.732-15.228-28.832-17.916 7.095-2.893 13.758-5.656 15.36-6.447.452-.065 2.348-.205 9.463.205 4.579.27 10.623.716 18.003 1.349 9.965.846 19.733 1.804 23.585 2.186.197.214.541.4 1.003.502.245.056.491.074.727.074h.049l36.606 22.941c-.609 1.497-2.85 6.177-9.11 12.121-3.773 3.581-9.542 8.112-18.023 12.81-4.225-2.149-43.2-22.085-48.84-27.806l.009-.019zM262.3 81.899l10.928-9.182c3.823 1.702 8.687 4.502 14.613 8.438l-25.541.744zm10.908-17.387c6.064-.335 12.589-.679 15.006-.81 2.771 1.666 14.77 8.94 23.143 14.857-.855.112-1.602.326-2.152.484-.108.028-.236.065-.334.093-.501.01-1.347.093-3.312.288-1.72.168-4.088.4-4.855.41-1.503 0-6.476.874-9.227 1.376-.049-.009-.089-.028-.138-.037-6.987-4.633-12.578-7.777-16.971-9.619v-.084c-.089-.195-2.172-4.558-9.876-6.288-.118-.028-.905-.251-1.661-1.47 2.26.54 5.768 1.06 10.377.81v-.01zm-57.095-7.647.265-.809c3.616.558 12.677 1.916 18.475 2.363 6.191.474 20.519 2.065 24.185 2.465.058.288.117.558.186.828.698 2.586 1.995 3.99 4.196 4.493 4.776 1.08 6.929 3.591 7.685 4.726-6.702-.605-31.781-2.875-63.591-5.954 2.3-1.637 7.813-5.749 8.589-8.112h.01zm-9.68 9.22c31.319 3.06 56.26 5.348 63.906 6.037l-11.891 9.805-57.243-4.028c1.454-.93 2.447-1.787 2.113-2.661-.374-.986 1.641-5.972 3.115-9.154zm-23.654-2.345c7.174.726 14.191 1.414 20.922 2.074a82.048 82.048 0 0 0-1.69 3.74c-1.828 4.326-1.818 5.47-1.651 5.945.187.511-1.032 1.293-2.486 2.158l-40.066-3.107c4.993-5.48 7.99-9.582 9.14-12.41 5.159.53 10.436 1.06 15.831 1.61v-.01zm-62.058-6.521c8.058.893 16.588 1.814 25.58 2.763 5.818.614 11.822 1.237 18.013 1.879-.757 1.888-2.427 4.307-4.511 6.884-9.758-1.647-24.312-3.526-37.893-5.154-.481-.865-2.083-4.084-1.199-6.372h.01zm-45.765 1.2c1.297-.447 3.39-1.163 5.631-1.88 1.67-.53 3.292-1.367 4.805-2.464.413-.298.757-.577 1.023-.81 7.615.921 15.841 1.88 24.695 2.884 2.319.26 4.688.53 7.095.79-1.091 2.038-.206 4.754.472 6.27-4.108-.483-8.078-.939-11.753-1.357a3259.54 3259.54 0 0 0-31.978-3.442l.01.009zm34.415 22.987c-3.273-.447-12.097-1.08-22.22-1.805-2.918-.214-6.023-.437-9.168-.66 2.78-2.661 4.805-5.303 6.043-7.87 1.042-2.15 1.543-4.252 1.514-6.252-.03-1.851-.501-3.247-.914-4.149 19.291 2.065 55.71 6.14 74.165 9.33-5.267 6.243-12.431 13.034-14.79 15.229-10.986-1.842-21.049-2.642-27.732-3.172-3.026-.242-5.414-.428-6.898-.633v-.018zm-44.753 37.247c-.884-1.06-3.518-4.056-7.763-7.795C67.959 101.35 85.393 96.122 93.5 93.694c.472-.14.914-.27 1.317-.4 6.839-2.065 15.34-8.056 17.964-9.981.668.055 1.375.111 2.122.167 6.86.549 16.667 1.33 27.575 3.2-3.351 3.451-8.815 7.907-16.303 13.238-.806.084-1.553.428-1.789.856a.479.479 0 0 0-.029.428 385.982 385.982 0 0 1-6.604 4.511 539.063 539.063 0 0 1-18.858 11.973l-34.277.967zm37.097.028a517.02 517.02 0 0 0 18.721-12.047 355.373 355.373 0 0 0 7.026-4.874c5.828.167 24.087.874 34.012 3.311.393 6.503 3.145 13.136 8.451 19.713l-16.205 2.363-41.018 5.972-10.967-14.429-.02-.009zm74.215 41.62c-.61 1.488-1.524 3.33-2.614 5.489-.158-.038-.315-.066-.472-.103-23.998-5.051-41.235-10.605-44.202-11.582l-14.279-18.791 38.296-5.637c8.648 9.237 22.701 24.81 23.978 27.722.04.093.197.679-.707 2.893v.009zm1.808 6.391c2.83-5.833 4.078-8.707 3.282-10.447-1.729-3.777-18.711-21.694-23.978-27.21l14.682-2.158c5.149 5.786 12.234 11.488 21.226 16.921 14.751 8.912 29.157 13.945 33.501 15.359l2.221 14.512c-18.279-1.2-36.331-4.075-50.924-6.977h-.01zm44.065-21.787c-3.253-6.028-6.614-14.651-6.25-24.038 12.313 7.973 36.93 20.82 42.659 23.778-7.557 3.916-17.03 7.879-28.793 11.47-1.583-1.861-4.698-5.805-7.616-11.219v.009zm45.371 28.169c-10.633 1.283-22.091 1.441-33.579.883l-2.555-14.837c11.576-3.554 21.856-7.731 30.621-12.382l26.091 16.847c-10.416 5.451-18.927 8.847-20.578 9.489zm23.969-11.294-26.357-16.735c7.41-4.205 13.581-8.726 18.367-13.405 6.349-6.205 8.579-11.024 9.208-12.698l40.282-1.982c.57 14.475-14.584 27.908-28.902 37.304-4.226 2.772-8.51 5.293-12.598 7.525v-.009z" fill="#fff"/><path d="M252.653 102c-5.877 0-10.653 4.856-10.653 10.847 0 7.284 9.316 15.033 10.653 15.033 2.24 0 10.652-9.042 10.652-15.033S258.539 102 252.653 102zm0 15.433c-3.499 0-6.329-2.679-6.329-5.991s2.83-5.991 6.329-5.991c3.498 0 6.328 2.679 6.328 5.991s-2.83 5.991-6.328 5.991z" fill="#3B28CC"/><path d="M255.011 111.451c0 1.238-1.061 2.233-2.359 2.233-1.297 0-2.358-1.005-2.358-2.233 0-1.228 1.061-2.232 2.358-2.232 1.298 0 2.359 1.004 2.359 2.232z" fill="#3B28CC"/><path d="M99.218 98c-2.88 0-5.218 2.381-5.218 5.321 0 3.572 4.57 7.368 5.218 7.368 1.101 0 5.218-4.438 5.218-7.368 0-2.93-2.338-5.321-5.218-5.321zm0 7.563c-1.71 0-3.105-1.312-3.105-2.94s1.386-2.94 3.105-2.94c1.72 0 3.106 1.312 3.106 2.94s-1.386 2.94-3.106 2.94z" fill="#3F8EFC"/><path d="M99.218 103.721c.64 0 1.16-.491 1.16-1.098 0-.606-.52-1.097-1.16-1.097-.64 0-1.16.491-1.16 1.097 0 .607.52 1.098 1.16 1.098z" fill="#3FA9F5"/><path d="M180.186 82c-2.309 0-4.186 1.907-4.186 4.26 0 2.866 3.666 5.908 4.186 5.908.875 0 4.187-3.554 4.187-5.907 0-2.354-1.877-4.261-4.187-4.261zm0 6.065c-1.375 0-2.486-1.05-2.486-2.353 0-1.303 1.111-2.354 2.486-2.354 1.376 0 2.487 1.051 2.487 2.354 0 1.302-1.111 2.353-2.487 2.353z" fill="#3B28CC"/><path d="M181.11 85.712c0 .483-.413.874-.924.874-.511 0-.923-.39-.923-.874s.412-.875.923-.875c.511 0 .924.391.924.875z" fill="#3B28CC"/><path d="M198.255 153c-2.349 0-4.255 1.944-4.255 4.335 0 2.912 3.724 6.009 4.255 6.009.894 0 4.255-3.609 4.255-6.009 0-2.4-1.906-4.335-4.255-4.335zm0 6.168c-1.395 0-2.525-1.07-2.525-2.391s1.13-2.391 2.525-2.391c1.396 0 2.526 1.07 2.526 2.391s-1.13 2.391-2.526 2.391z" fill="#3F8EFC"/><path d="M199.198 156.768c0 .493-.422.893-.943.893-.521 0-.943-.4-.943-.893s.422-.893.943-.893c.521 0 .943.4.943.893z" fill="#3F8EFC"/></g><defs><clipPath id="a"><path fill="#fff" d="M0 0h400v250H0z"/></clipPath></defs></svg>