<svg xmlns="http://www.w3.org/2000/svg" width="400" height="250" viewBox="0 0 400 250" fill="none">
<g clip-path="url(#clip0_406_2)">
<rect width="400" height="250" fill="#FAFDFF"/>
<path d="M323.891 35H75.38C69.6473 35 65 39.6473 65 45.38V203.964C65 209.697 69.6473 214.344 75.38 214.344H323.891C329.624 214.344 334.271 209.697 334.271 203.964V45.38C334.271 39.6473 329.624 35 323.891 35Z" fill="white"/>
<path fill-rule="evenodd" clip-rule="evenodd" d="M92.453 178.077C91.9225 178.077 91.4925 178.507 91.4925 179.037V194.556C91.4925 195.087 91.9225 195.517 92.453 195.517H165.826C166.356 195.517 166.787 195.087 166.787 194.556V179.037C166.787 178.507 166.356 178.077 165.826 178.077H92.453ZM88.3795 179.037C88.3795 176.787 90.2033 174.964 92.453 174.964H165.826C168.076 174.964 169.9 176.787 169.9 179.037V194.556C169.9 196.806 168.076 198.63 165.826 198.63H92.453C90.2033 198.63 88.3795 196.806 88.3795 194.556V179.037Z" fill="#2667FF"/>
<path fill-rule="evenodd" clip-rule="evenodd" d="M106.482 187.677C106.482 186.687 107.285 185.884 108.275 185.884H150.925C151.915 185.884 152.718 186.687 152.718 187.677C152.718 188.667 151.915 189.47 150.925 189.47H108.275C107.285 189.47 106.482 188.667 106.482 187.677Z" fill="#DDF1FF"/>
<path fill-rule="evenodd" clip-rule="evenodd" d="M87.6329 122.984C87.6329 121.087 89.1708 119.549 91.0679 119.549H217.403C219.3 119.549 220.838 121.087 220.838 122.984C220.838 124.881 219.3 126.419 217.403 126.419H91.0679C89.1708 126.419 87.6329 124.881 87.6329 122.984Z" fill="#2667FF"/>
<path fill-rule="evenodd" clip-rule="evenodd" d="M88.1021 139.774C88.1021 138.136 89.43 136.808 91.0681 136.808H302.408C304.046 136.808 305.374 138.136 305.374 139.774C305.374 141.412 304.046 142.74 302.408 142.74H91.0681C89.43 142.74 88.1021 141.412 88.1021 139.774Z" fill="#DDF1FF"/>
<path fill-rule="evenodd" clip-rule="evenodd" d="M88.1021 153.923C88.1021 152.285 89.43 150.957 91.0681 150.957H245.618C247.256 150.957 248.584 152.285 248.584 153.923C248.584 155.561 247.256 156.889 245.618 156.889H91.0681C89.43 156.889 88.1021 155.561 88.1021 153.923Z" fill="#DDF1FF"/>
<path fill-rule="evenodd" clip-rule="evenodd" d="M114.084 54.4734C102.154 54.4734 92.4835 64.1443 92.4835 76.0739C92.4835 88.0035 102.154 97.6744 114.084 97.6744C126.014 97.6744 135.685 88.0035 135.685 76.0739C135.685 64.1443 126.014 54.4734 114.084 54.4734ZM87.5765 76.0739C87.5765 61.4342 99.4443 49.5664 114.084 49.5664C128.724 49.5664 140.592 61.4342 140.592 76.0739C140.592 90.7136 128.724 102.581 114.084 102.581C99.4444 102.581 87.5765 90.7136 87.5765 76.0739Z" fill="#DDF1FF"/>
<path fill-rule="evenodd" clip-rule="evenodd" d="M114.084 62.6484C115.198 62.6485 116.215 63.2808 116.708 64.2794L119.079 69.0848L124.381 69.8548C125.484 70.0148 126.399 70.7867 126.743 71.8458C127.088 72.9049 126.801 74.0676 126.003 74.8449L122.166 78.5853L123.071 83.8674C123.26 84.965 122.809 86.0743 121.908 86.7288C121.007 87.3833 119.812 87.4696 118.826 86.9512L114.084 84.4572L109.341 86.9513C108.355 87.4696 107.161 87.3833 106.26 86.7288C105.359 86.0742 104.907 84.9649 105.096 83.8674L106.002 78.5853L102.164 74.8449C101.367 74.0676 101.08 72.9049 101.424 71.8458C101.768 70.7867 102.684 70.0148 103.786 69.8548L109.089 69.0848L111.461 64.279C111.954 63.2805 112.971 62.6484 114.084 62.6484ZM114.084 72.1842L113.654 73.0538C113.228 73.9173 112.404 74.5157 111.451 74.6541L110.494 74.7931L111.187 75.469C111.877 76.1411 112.191 77.1094 112.028 78.0585L111.865 79.0137L112.723 78.5626C113.575 78.1144 114.593 78.1144 115.446 78.5626L116.302 79.0132L116.139 78.0585C115.976 77.1094 116.291 76.1411 116.98 75.469L117.673 74.7931L116.716 74.6541C115.763 74.5157 114.939 73.9171 114.513 73.0535L114.084 72.1842Z" fill="#2667FF"/>
</g>
<defs>
<clipPath id="clip0_406_2">
<rect width="400" height="250" fill="white"/>
</clipPath>
</defs>
</svg>