<svg width="400" height="250" fill="none" xmlns="http://www.w3.org/2000/svg"><path fill="#FAFDFF" d="M0 0h400v250H0z"/><path fillRule="evenodd" clipRule="evenodd" d="M155.555 54.52a2.814 2.814 0 1 0 0 5.628 2.814 2.814 0 0 0 0-5.627zm-6.369 2.814a6.369 6.369 0 1 1 12.738 0 6.369 6.369 0 1 1-12.738 0zM96.056 67.95l-28.841 39.593a1.778 1.778 0 1 1-2.874-2.094l28.841-39.592c2.052-2.816 4.823-4.426 7.793-4.42 2.969.007 5.735 1.628 7.778 4.45l21.445 29.601c1.467 2.024 3.17 2.9 4.7 2.974 1.51.073 3.2-.616 4.716-2.434l13.217-17.776a2.07 2.07 0 0 1 .056-.072c2.074-2.509 4.764-3.872 7.593-3.757 2.819.114 5.427 1.682 7.384 4.325l.013.018.01.013 19.499 27.562a1.778 1.778 0 1 1-2.903 2.053l-19.487-27.545c-1.463-1.968-3.146-2.812-4.66-2.873-1.499-.06-3.175.632-4.681 2.436l-13.216 17.776a2.052 2.052 0 0 1-.056.071c-2.091 2.53-4.807 3.893-7.657 3.754-2.839-.138-5.456-1.747-7.407-4.438l-21.446-29.602c-1.535-2.12-3.32-2.977-4.906-2.98-1.585-.004-3.371.844-4.91 2.957z" fill="#3B28CC"/><path fillRule="evenodd" clipRule="evenodd" d="M72.076 42.556a4.502 4.502 0 0 0-4.502 4.502v59.789a4.503 4.503 0 0 0 4.502 4.503h107.587a4.502 4.502 0 0 0 4.502-4.503V47.058a4.502 4.502 0 0 0-4.502-4.502H72.076zm-8.058 4.502A8.058 8.058 0 0 1 72.076 39h107.587a8.058 8.058 0 0 1 8.058 8.058v59.789a8.058 8.058 0 0 1-8.058 8.058H72.076a8.058 8.058 0 0 1-8.058-8.058V47.058z" fill="#3F8EFC"/><path d="M133.127 64.143h-10.071c-.641 0-1.16.52-1.16 1.16v10.072c0 .64.519 1.16 1.16 1.16h10.071c.641 0 1.16-.52 1.16-1.16V65.303c0-.64-.519-1.16-1.16-1.16z" fill="#3F8EFC"/><path fillRule="evenodd" clipRule="evenodd" d="M128.092 66.57c.491 0 .889.398.889.89v5.756a.889.889 0 1 1-1.778 0v-5.757c0-.49.398-.889.889-.889z" fill="#fff"/><path fillRule="evenodd" clipRule="evenodd" d="M124.323 70.34c0-.492.398-.89.889-.89h5.756a.889.889 0 1 1 0 1.778h-5.756a.89.89 0 0 1-.889-.889z" fill="#fff"/><path fillRule="evenodd" clipRule="evenodd" d="M303.848 54.52a2.814 2.814 0 1 0 .001 5.628 2.814 2.814 0 0 0-.001-5.627zm-6.369 2.814a6.37 6.37 0 1 1 12.739 0 6.37 6.37 0 0 1-12.739 0zM244.35 67.95l-28.842 39.593a1.777 1.777 0 1 1-2.874-2.094l28.842-39.592c2.051-2.816 4.823-4.426 7.793-4.42 2.969.007 5.734 1.628 7.778 4.45l21.444 29.601h.001c1.467 2.024 3.169 2.9 4.7 2.974 1.509.073 3.199-.616 4.715-2.434l13.217-17.776.057-.072c2.074-2.509 4.764-3.872 7.592-3.757 2.82.114 5.428 1.682 7.385 4.325l.013.018.009.013 19.499 27.562a1.778 1.778 0 1 1-2.903 2.053l-19.487-27.545c-1.462-1.968-3.146-2.812-4.659-2.873-1.499-.06-3.176.632-4.681 2.436l-13.217 17.776a1.294 1.294 0 0 1-.056.071c-2.09 2.53-4.807 3.893-7.657 3.754-2.839-.138-5.456-1.747-7.407-4.438l-21.445-29.602h-.001c-1.534-2.12-3.32-2.977-4.905-2.98-1.585-.004-3.372.844-4.911 2.957z" fill="#3B28CC"/><path fillRule="evenodd" clipRule="evenodd" d="M220.37 42.556a4.503 4.503 0 0 0-4.503 4.502v59.789a4.503 4.503 0 0 0 4.503 4.503h107.586a4.503 4.503 0 0 0 4.503-4.503V47.058a4.503 4.503 0 0 0-4.503-4.502H220.37zm-8.058 4.502A8.058 8.058 0 0 1 220.37 39h107.586a8.058 8.058 0 0 1 8.059 8.058v59.789a8.058 8.058 0 0 1-8.059 8.058H220.37a8.057 8.057 0 0 1-8.058-8.058V47.058z" fill="#3F8EFC"/><path fillRule="evenodd" clipRule="evenodd" d="M155.555 150.904a2.813 2.813 0 1 0-.001 5.627 2.813 2.813 0 0 0 .001-5.627zm-6.369 2.813a6.369 6.369 0 1 1 12.738 0 6.369 6.369 0 0 1-12.738 0zM96.056 164.333l-28.841 39.593a1.778 1.778 0 1 1-2.874-2.094l28.841-39.592c2.052-2.816 4.823-4.426 7.793-4.42 2.969.007 5.735 1.628 7.778 4.451l21.445 29.6c1.467 2.024 3.17 2.9 4.7 2.974 1.51.073 3.2-.616 4.716-2.434l13.217-17.776.056-.072c2.074-2.509 4.764-3.871 7.593-3.757 2.819.114 5.427 1.682 7.384 4.325l.013.018.01.013 19.499 27.562a1.778 1.778 0 1 1-2.903 2.053l-19.487-27.545c-1.463-1.968-3.146-2.812-4.66-2.873-1.499-.061-3.175.632-4.681 2.436l-13.216 17.776a1.941 1.941 0 0 1-.056.071c-2.091 2.531-4.807 3.893-7.657 3.754-2.839-.137-5.456-1.747-7.407-4.438v-.001l-21.446-29.601c-1.535-2.12-3.32-2.977-4.906-2.98-1.585-.004-3.371.844-4.91 2.957z" fill="#3B28CC"/><path fillRule="evenodd" clipRule="evenodd" d="M72.076 138.939a4.502 4.502 0 0 0-4.502 4.502v59.789a4.503 4.503 0 0 0 4.502 4.503h107.587a4.502 4.502 0 0 0 4.502-4.503v-59.789a4.502 4.502 0 0 0-4.502-4.502H72.076zm-8.058 4.502a8.058 8.058 0 0 1 8.058-8.058h107.587a8.058 8.058 0 0 1 8.058 8.058v59.789a8.059 8.059 0 0 1-8.058 8.059H72.076a8.058 8.058 0 0 1-8.058-8.059v-59.789z" fill="#3F8EFC"/><path fillRule="evenodd" clipRule="evenodd" d="M303.848 150.904a2.813 2.813 0 1 0 0 5.626 2.813 2.813 0 0 0 0-5.626zm-6.369 2.813a6.37 6.37 0 1 1 12.74.001 6.37 6.37 0 0 1-12.74-.001zM244.35 164.333l-28.842 39.593a1.777 1.777 0 1 1-2.874-2.094l28.842-39.592c2.051-2.816 4.823-4.426 7.793-4.42 2.969.007 5.734 1.628 7.778 4.451l21.444 29.6h.001c1.467 2.024 3.169 2.9 4.7 2.974 1.509.073 3.199-.616 4.715-2.434l13.217-17.776.057-.072c2.074-2.509 4.764-3.871 7.592-3.757 2.82.114 5.428 1.682 7.385 4.325a.203.203 0 0 0 .013.018l.009.013 19.499 27.562a1.778 1.778 0 1 1-2.903 2.053l-19.487-27.545c-1.462-1.968-3.146-2.812-4.659-2.873-1.499-.061-3.176.632-4.681 2.436l-13.217 17.776c-.018.024-.036.048-.056.071-2.09 2.531-4.807 3.893-7.657 3.754-2.839-.137-5.456-1.747-7.407-4.438v-.001l-21.445-29.601h-.001c-1.534-2.12-3.32-2.977-4.905-2.98-1.585-.004-3.372.844-4.911 2.957z" fill="#3B28CC"/><path fillRule="evenodd" clipRule="evenodd" d="M220.37 138.939a4.503 4.503 0 0 0-4.503 4.502v59.789a4.503 4.503 0 0 0 4.503 4.503h107.586a4.503 4.503 0 0 0 4.503-4.503v-59.789a4.503 4.503 0 0 0-4.503-4.502H220.37zm-8.058 4.502a8.058 8.058 0 0 1 8.058-8.058h107.586a8.059 8.059 0 0 1 8.059 8.058v59.789a8.059 8.059 0 0 1-8.059 8.059H220.37a8.058 8.058 0 0 1-8.058-8.059v-59.789z" fill="#3F8EFC"/></svg>