<svg width="400" height="250" viewBox="0 0 400 250" fill="none" xmlns="http://www.w3.org/2000/svg">
<rect width="400" height="250" fill="#FAFDFF"/>
<path d="M294.58 47H106C97.7157 47 91 53.7157 91 62V188.64C91 196.924 97.7157 203.64 106 203.64H294.58C302.864 203.64 309.58 196.924 309.58 188.64V62C309.58 53.7157 302.864 47 294.58 47Z" fill="white"/>
<path fill-rule="evenodd" clip-rule="evenodd" d="M243.066 94.9394C241.355 92.8957 238.256 92.9314 236.589 95.0358C236.496 95.152 236.399 95.264 236.297 95.3715L219.627 112.941C217.727 114.945 214.562 115.028 212.559 113.127C210.555 111.227 210.472 108.062 212.373 106.059L228.905 88.6335C234.53 81.774 244.974 81.6677 250.715 88.4978L310.99 158.97C312.785 161.069 312.538 164.225 310.44 166.02C308.341 167.815 305.185 167.569 303.39 165.47L243.1 94.98L243.066 94.9394ZM148.366 133.373C146.761 131.479 143.952 131.376 142.219 133.132L96.8171 179.094C94.8765 181.058 91.7108 181.078 89.7462 179.137C87.7817 177.197 87.7623 174.031 89.7029 172.066L135.101 126.108C140.968 120.164 150.599 120.541 155.994 126.907C155.994 126.907 155.994 126.907 155.994 126.907L172.82 146.753C173.12 146.689 173.424 146.6 173.693 146.51L183.219 138.227C185.303 136.415 188.461 136.635 190.273 138.719C192.085 140.803 191.865 143.961 189.781 145.773L179.591 154.633C179.22 154.956 178.804 155.221 178.356 155.422L176.31 150.86C178.356 155.422 178.355 155.423 178.354 155.423L178.351 155.424L178.346 155.427L178.335 155.432L178.306 155.444C178.285 155.454 178.259 155.465 178.228 155.478C178.166 155.505 178.086 155.539 177.989 155.578C177.797 155.656 177.534 155.759 177.218 155.872C176.601 156.091 175.71 156.374 174.699 156.576C173.729 156.769 172.391 156.943 170.967 156.768C169.526 156.591 167.547 155.99 166.033 154.212L166.026 154.203L148.366 133.373Z" fill="#DDF1FF"/>
<path fill-rule="evenodd" clip-rule="evenodd" d="M138 83C135.239 83 133 85.2386 133 88C133 90.7614 135.239 93 138 93C140.761 93 143 90.7614 143 88C143 85.2386 140.761 83 138 83ZM123 88C123 79.7157 129.716 73 138 73C146.284 73 153 79.7157 153 88C153 96.2843 146.284 103 138 103C129.716 103 123 96.2843 123 88Z" fill="#DDF1FF"/>
<path fill-rule="evenodd" clip-rule="evenodd" d="M84 64C84 51.2975 94.2975 41 107 41H291C303.703 41 314 51.2975 314 64V187C314 199.703 303.703 210 291 210H107C94.2975 210 84 199.703 84 187V64ZM107 49C98.7157 49 92 55.7157 92 64V187C92 195.284 98.7157 202 107 202H291C299.284 202 306 195.284 306 187V64C306 55.7157 299.284 49 291 49H107Z" fill="#3F8EFC"/>
<path fill-rule="evenodd" clip-rule="evenodd" d="M204 151.5V205H196V151.5H204Z" fill="#3F8EFC"/>
<path fill-rule="evenodd" clip-rule="evenodd" d="M204 45V98.5H196V45H204Z" fill="#3F8EFC"/>
<path fill-rule="evenodd" clip-rule="evenodd" d="M192.447 96.1213C196.743 91.8255 203.707 91.8255 208.003 96.1213L229.329 117.447C233.624 121.743 233.624 128.707 229.329 133.003L208.003 154.329C203.707 158.624 196.743 158.624 192.447 154.329L171.121 133.003C166.826 128.707 166.826 121.743 171.121 117.447L192.447 96.1213ZM202.346 101.778C201.175 100.607 199.275 100.607 198.104 101.778L176.778 123.104C175.607 124.275 175.607 126.175 176.778 127.346L198.104 148.672C199.275 149.843 201.175 149.843 202.346 148.672L223.672 127.346C224.843 126.175 224.843 124.275 223.672 123.104L202.346 101.778Z" fill="#3F8EFC"/>
</svg>
