<svg width="400" height="250" viewBox="0 0 400 250" fill="none" xmlns="http://www.w3.org/2000/svg">
<g clip-path="url(#clip0_207_2)">
<rect width="400" height="250" fill="#FAFDFF"/>
<path fill-rule="evenodd" clip-rule="evenodd" d="M104 84.23C104 82.5731 105.343 81.23 107 81.23H231.91C233.567 81.23 234.91 82.5731 234.91 84.23C234.91 85.8868 233.567 87.23 231.91 87.23H107C105.343 87.23 104 85.8868 104 84.23Z" fill="#3F8EFC"/>
<path fill-rule="evenodd" clip-rule="evenodd" d="M104 100.53C104 98.8732 105.343 97.53 107 97.53H211.75C213.407 97.53 214.75 98.8732 214.75 100.53C214.75 102.187 213.407 103.53 211.75 103.53H107C105.343 103.53 104 102.187 104 100.53Z" fill="#3F8EFC"/>
<path fill-rule="evenodd" clip-rule="evenodd" d="M103 62C103 59.7909 104.791 58 107 58H292.38C294.589 58 296.38 59.7909 296.38 62C296.38 64.2091 294.589 66 292.38 66H107C104.791 66 103 64.2091 103 62Z" fill="#3B28CC"/>
<path fill-rule="evenodd" clip-rule="evenodd" d="M104 128.46C104 126.803 105.343 125.46 107 125.46H128.5C130.157 125.46 131.5 126.803 131.5 128.46V149.96C131.5 151.617 130.157 152.96 128.5 152.96H107C105.343 152.96 104 151.617 104 149.96V128.46ZM110 131.46V146.96H125.5V131.46H110Z" fill="#3F8EFC"/>
<path fill-rule="evenodd" clip-rule="evenodd" d="M104 166.09C104 164.433 105.343 163.09 107 163.09H128.5C130.157 163.09 131.5 164.433 131.5 166.09V187.59C131.5 189.247 130.157 190.59 128.5 190.59H107C105.343 190.59 104 189.247 104 187.59V166.09ZM110 169.09V184.59H125.5V169.09H110Z" fill="#3F8EFC"/>
<path fill-rule="evenodd" clip-rule="evenodd" d="M142.41 139.21C142.41 137.553 143.753 136.21 145.41 136.21H190.77C192.427 136.21 193.77 137.553 193.77 139.21C193.77 140.867 192.427 142.21 190.77 142.21H145.41C143.753 142.21 142.41 140.867 142.41 139.21Z" fill="#3B28CC"/>
<path fill-rule="evenodd" clip-rule="evenodd" d="M142.41 176.84C142.41 175.183 143.753 173.84 145.41 173.84H170.61C172.267 173.84 173.61 175.183 173.61 176.84C173.61 178.497 172.267 179.84 170.61 179.84H145.41C143.753 179.84 142.41 178.497 142.41 176.84Z" fill="#3B28CC"/>
<path fill-rule="evenodd" clip-rule="evenodd" d="M203.41 128.46C203.41 126.803 204.753 125.46 206.41 125.46H227.91C229.567 125.46 230.91 126.803 230.91 128.46V149.96C230.91 151.617 229.567 152.96 227.91 152.96H206.41C204.753 152.96 203.41 151.617 203.41 149.96V128.46ZM209.41 131.46V146.96H224.91V131.46H209.41Z" fill="#3F8EFC"/>
<path fill-rule="evenodd" clip-rule="evenodd" d="M203.41 166.09C203.41 164.433 204.753 163.09 206.41 163.09H227.91C229.567 163.09 230.91 164.433 230.91 166.09V187.59C230.91 189.247 229.567 190.59 227.91 190.59H206.41C204.753 190.59 203.41 189.247 203.41 187.59V166.09ZM209.41 169.09V184.59H224.91V169.09H209.41Z" fill="#3F8EFC"/>
<path fill-rule="evenodd" clip-rule="evenodd" d="M243.81 139.21C243.81 137.553 245.153 136.21 246.81 136.21H292.17C293.827 136.21 295.17 137.553 295.17 139.21C295.17 140.867 293.827 142.21 292.17 142.21H246.81C245.153 142.21 243.81 140.867 243.81 139.21Z" fill="#3B28CC"/>
<path fill-rule="evenodd" clip-rule="evenodd" d="M243.81 176.84C243.81 175.183 245.153 173.84 246.81 173.84H272.01C273.667 173.84 275.01 175.183 275.01 176.84C275.01 178.497 273.667 179.84 272.01 179.84H246.81C245.153 179.84 243.81 178.497 243.81 176.84Z" fill="#3B28CC"/>
</g>
<defs>
<clipPath id="clip0_207_2">
<rect width="400" height="250" fill="white"/>
</clipPath>
</defs>
</svg>
