<svg width="400" height="250" fill="none" xmlns="http://www.w3.org/2000/svg"><g clipPath="url(#a)"><path fill="#FAFDFF" d="M0 0h400v250H0z"/><path fillRule="evenodd" clipRule="evenodd" d="M121.18 115.93a5.18 5.18 0 0 0-5.18 5.18v45.11a5.18 5.18 0 0 0 5.18 5.18h158.21a5.18 5.18 0 0 0 5.18-5.18v-45.11a5.18 5.18 0 0 0-5.18-5.18H121.18zM108 121.11c0-7.279 5.901-13.18 13.18-13.18h158.21c7.279 0 13.18 5.901 13.18 13.18v45.11c0 7.279-5.901 13.18-13.18 13.18H121.18c-7.279 0-13.18-5.901-13.18-13.18v-45.11zM110.56 75a4 4 0 0 1 4-4h54.36a4 4 0 0 1 0 8h-54.36a4 4 0 0 1-4-4z" fill="#3B28CC"/><path fillRule="evenodd" clipRule="evenodd" d="M185.43 143.67c0-.895.725-1.62 1.62-1.62h76.59a1.62 1.62 0 0 1 0 3.24h-76.59a1.62 1.62 0 0 1-1.62-1.62zM135.75 133.35a1.38 1.38 0 0 0-1.38 1.38v17.87c0 .762.618 1.38 1.38 1.38h25.59a1.38 1.38 0 0 0 1.38-1.38v-17.87a1.38 1.38 0 0 0-1.38-1.38h-25.59zm-4.62 1.38a4.62 4.62 0 0 1 4.62-4.62h25.59a4.62 4.62 0 0 1 4.62 4.62v17.87a4.62 4.62 0 0 1-4.62 4.62h-25.59a4.62 4.62 0 0 1-4.62-4.62v-17.87z" fill="#DDF1FF"/><path fillRule="evenodd" clipRule="evenodd" d="M132.011 133.032a1.62 1.62 0 0 1 2.286-.15l12.03 10.54a3.378 3.378 0 0 0 4.422.035l12.101-10.291a1.62 1.62 0 1 1 2.099 2.468l-12.099 10.289a6.615 6.615 0 0 1-8.658-.065s.001.001 0 0l-12.03-10.54a1.62 1.62 0 0 1-.151-2.286z" fill="#DDF1FF"/></g><defs><clipPath id="a"><path fill="#fff" d="M0 0h400v250H0z"/></clipPath></defs></svg>