<svg xmlns="http://www.w3.org/2000/svg" width="400" height="250" viewBox="0 0 400 250" fill="none">
<g clip-path="url(#clip0_308_2)">
<rect width="400" height="250" fill="#FAFDFF"/>
<path d="M358.29 105H45.95C39.9025 105 35 109.902 35 115.95V154.73C35 160.778 39.9025 165.68 45.95 165.68H358.29C364.338 165.68 369.24 160.778 369.24 154.73V115.95C369.24 109.902 364.338 105 358.29 105Z" fill="white"/>
<path d="M358.29 104.97H45.95C39.9025 104.97 35 109.872 35 115.92V154.7C35 160.747 39.9025 165.65 45.95 165.65H358.29C364.338 165.65 369.24 160.747 369.24 154.7V115.92C369.24 109.872 364.338 104.97 358.29 104.97Z" stroke="#DDF1FF" stroke-width="4" stroke-linecap="round" stroke-linejoin="round"/>
<path d="M39.4702 84H131.59" stroke="#3B28CC" stroke-width="10.36" stroke-linecap="round" stroke-linejoin="round"/>
<path d="M350.6 118.94H262.9C260.553 118.94 258.65 120.843 258.65 123.19V147.42C258.65 149.767 260.553 151.67 262.9 151.67H350.6C352.947 151.67 354.85 149.767 354.85 147.42V123.19C354.85 120.843 352.947 118.94 350.6 118.94Z" stroke="#3B28CC" stroke-width="5" stroke-linecap="round" stroke-linejoin="round"/>
<path d="M273.98 135.65H306.75" stroke="#DDF1FF" stroke-width="2" stroke-linecap="round" stroke-linejoin="round"/>
<path d="M341.97 127.05H321.8C320.61 127.05 319.65 128.02 319.65 129.2V142.1C319.65 143.29 320.62 144.25 321.8 144.25H341.97C343.15 144.25 344.12 143.29 344.12 142.1V129.2C344.12 128.02 343.16 127.05 341.97 127.05ZM341.67 128.48C341.23 128.92 333.67 136.44 333.41 136.7C333 137.11 332.46 137.33 331.89 137.33C331.32 137.33 330.78 137.11 330.37 136.7C330.19 136.53 322.72 129.09 322.11 128.48H341.68H341.67ZM321.09 141.81V129.49L327.29 135.65L321.09 141.81ZM322.11 142.82L328.3 136.67L329.35 137.72C330.03 138.4 330.93 138.77 331.88 138.77C332.83 138.77 333.74 138.4 334.41 137.72L335.47 136.67L341.66 142.82H322.1H322.11ZM342.69 141.81L336.49 135.65L342.69 129.49V141.81Z" fill="#DDF1FF"/>
</g>
<defs>
<clipPath id="clip0_308_2">
<rect width="400" height="250" fill="white"/>
</clipPath>
</defs>
</svg>