<svg width="400" height="250" viewBox="0 0 400 250" fill="none" xmlns="http://www.w3.org/2000/svg">
<g clip-path="url(#clip0_425_2)">
<rect width="400" height="250" fill="#FAFDFF"/>
<path fill-rule="evenodd" clip-rule="evenodd" d="M42.644 76.5C40.9076 76.5 39.5 77.9076 39.5 79.644V112.088C39.5 113.824 40.9076 115.232 42.644 115.232H130.297C132.033 115.232 133.441 113.824 133.441 112.088V79.644C133.441 77.9076 132.033 76.5 130.297 76.5H42.644ZM36.5 79.644C36.5 76.2508 39.2508 73.5 42.644 73.5H130.297C133.69 73.5 136.441 76.2508 136.441 79.644V112.088C136.441 115.481 133.69 118.232 130.297 118.232H42.644C39.2508 118.232 36.5 115.481 36.5 112.088V79.644Z" fill="#2667FF"/>
<path fill-rule="evenodd" clip-rule="evenodd" d="M49.027 95.866C49.027 95.0375 49.6986 94.366 50.527 94.366H83.493C84.3214 94.366 84.993 95.0375 84.993 95.866C84.993 96.6944 84.3214 97.366 83.493 97.366H50.527C49.6986 97.366 49.027 96.6944 49.027 95.866Z" fill="#DDF1FF"/>
<path fill-rule="evenodd" clip-rule="evenodd" d="M103.754 88.306C103.754 87.4776 104.426 86.806 105.254 86.806H120.374C121.202 86.806 121.874 87.4776 121.874 88.306V103.426C121.874 104.254 121.202 104.926 120.374 104.926H105.254C104.426 104.926 103.754 104.254 103.754 103.426V88.306ZM106.754 89.806V101.926H118.874V89.806H106.754Z" fill="#DDF1FF"/>
<path fill-rule="evenodd" clip-rule="evenodd" d="M156.142 76.5C154.406 76.5 152.998 77.9076 152.998 79.644V112.088C152.998 113.824 154.406 115.232 156.142 115.232H243.795C245.531 115.232 246.939 113.824 246.939 112.088V79.644C246.939 77.9076 245.531 76.5 243.795 76.5H156.142ZM149.998 79.644C149.998 76.2508 152.749 73.5 156.142 73.5H243.795C247.188 73.5 249.939 76.2508 249.939 79.644V112.088C249.939 115.481 247.188 118.232 243.795 118.232H156.142C152.749 118.232 149.998 115.481 149.998 112.088V79.644Z" fill="#DDF1FF"/>
<path fill-rule="evenodd" clip-rule="evenodd" d="M162.525 95.866C162.525 95.0375 163.197 94.366 164.025 94.366H196.991C197.819 94.366 198.491 95.0375 198.491 95.866C198.491 96.6944 197.819 97.366 196.991 97.366H164.025C163.197 97.366 162.525 96.6944 162.525 95.866Z" fill="#2667FF"/>
<path fill-rule="evenodd" clip-rule="evenodd" d="M217.253 88.306C217.253 87.4776 217.925 86.806 218.753 86.806H233.873C234.701 86.806 235.373 87.4776 235.373 88.306V103.426C235.373 104.254 234.701 104.926 233.873 104.926H218.753C217.925 104.926 217.253 104.254 217.253 103.426V88.306ZM220.253 89.806V101.926H232.373V89.806H220.253Z" fill="#2667FF"/>
<path fill-rule="evenodd" clip-rule="evenodd" d="M269.641 76.5C267.905 76.5 266.497 77.9076 266.497 79.644V112.088C266.497 113.824 267.905 115.232 269.641 115.232H357.294C359.03 115.232 360.438 113.824 360.438 112.088V79.644C360.438 77.9076 359.03 76.5 357.294 76.5H269.641ZM263.497 79.644C263.497 76.2508 266.248 73.5 269.641 73.5H357.294C360.687 73.5 363.438 76.2508 363.438 79.644V112.088C363.438 115.481 360.687 118.232 357.294 118.232H269.641C266.248 118.232 263.497 115.481 263.497 112.088V79.644Z" fill="#2667FF"/>
<path fill-rule="evenodd" clip-rule="evenodd" d="M276.024 95.866C276.024 95.0375 276.695 94.366 277.524 94.366H310.49C311.318 94.366 311.99 95.0375 311.99 95.866C311.99 96.6944 311.318 97.366 310.49 97.366H277.524C276.695 97.366 276.024 96.6944 276.024 95.866Z" fill="#DDF1FF"/>
<path fill-rule="evenodd" clip-rule="evenodd" d="M330.751 88.306C330.751 87.4776 331.423 86.806 332.251 86.806H347.371C348.199 86.806 348.871 87.4776 348.871 88.306V103.426C348.871 104.254 348.199 104.926 347.371 104.926H332.251C331.423 104.926 330.751 104.254 330.751 103.426V88.306ZM333.751 89.806V101.926H345.871V89.806H333.751Z" fill="#DDF1FF"/>
<path fill-rule="evenodd" clip-rule="evenodd" d="M42.644 134.754C40.9076 134.754 39.5 136.162 39.5 137.898V170.342C39.5 172.078 40.9076 173.486 42.644 173.486H130.297C132.033 173.486 133.441 172.078 133.441 170.342V137.898C133.441 136.162 132.033 134.754 130.297 134.754H42.644ZM36.5 137.898C36.5 134.505 39.2508 131.754 42.644 131.754H130.297C133.69 131.754 136.441 134.505 136.441 137.898V170.342C136.441 173.735 133.69 176.486 130.297 176.486H42.644C39.2508 176.486 36.5 173.735 36.5 170.342V137.898Z" fill="#DDF1FF"/>
<path fill-rule="evenodd" clip-rule="evenodd" d="M49.027 154.12C49.027 153.292 49.6986 152.62 50.527 152.62H83.493C84.3214 152.62 84.993 153.292 84.993 154.12C84.993 154.949 84.3214 155.62 83.493 155.62H50.527C49.6986 155.62 49.027 154.949 49.027 154.12Z" fill="#2667FF"/>
<path fill-rule="evenodd" clip-rule="evenodd" d="M103.754 146.56C103.754 145.732 104.426 145.06 105.254 145.06H120.374C121.202 145.06 121.874 145.732 121.874 146.56V161.68C121.874 162.508 121.202 163.18 120.374 163.18H105.254C104.426 163.18 103.754 162.508 103.754 161.68V146.56ZM106.754 148.06V160.18H118.874V148.06H106.754Z" fill="#2667FF"/>
<path fill-rule="evenodd" clip-rule="evenodd" d="M156.142 134.754C154.406 134.754 152.998 136.162 152.998 137.898V170.342C152.998 172.078 154.406 173.486 156.142 173.486H243.795C245.531 173.486 246.939 172.078 246.939 170.342V137.898C246.939 136.162 245.531 134.754 243.795 134.754H156.142ZM149.998 137.898C149.998 134.505 152.749 131.754 156.142 131.754H243.795C247.188 131.754 249.939 134.505 249.939 137.898V170.342C249.939 173.735 247.188 176.486 243.795 176.486H156.142C152.749 176.486 149.998 173.735 149.998 170.342V137.898Z" fill="#2667FF"/>
<path fill-rule="evenodd" clip-rule="evenodd" d="M162.525 154.12C162.525 153.292 163.197 152.62 164.025 152.62H196.991C197.819 152.62 198.491 153.292 198.491 154.12C198.491 154.949 197.819 155.62 196.991 155.62H164.025C163.197 155.62 162.525 154.949 162.525 154.12Z" fill="#DDF1FF"/>
<path fill-rule="evenodd" clip-rule="evenodd" d="M217.253 146.56C217.253 145.732 217.925 145.06 218.753 145.06H233.873C234.701 145.06 235.373 145.732 235.373 146.56V161.68C235.373 162.508 234.701 163.18 233.873 163.18H218.753C217.925 163.18 217.253 162.508 217.253 161.68V146.56ZM220.253 148.06V160.18H232.373V148.06H220.253Z" fill="#DDF1FF"/>
<path fill-rule="evenodd" clip-rule="evenodd" d="M269.641 134.754C267.905 134.754 266.497 136.162 266.497 137.898V170.342C266.497 172.078 267.905 173.486 269.641 173.486H357.294C359.03 173.486 360.438 172.078 360.438 170.342V137.898C360.438 136.162 359.03 134.754 357.294 134.754H269.641ZM263.497 137.898C263.497 134.505 266.248 131.754 269.641 131.754H357.294C360.687 131.754 363.438 134.505 363.438 137.898V170.342C363.438 173.735 360.687 176.486 357.294 176.486H269.641C266.248 176.486 263.497 173.735 263.497 170.342V137.898Z" fill="#DDF1FF"/>
<path fill-rule="evenodd" clip-rule="evenodd" d="M276.024 154.12C276.024 153.292 276.695 152.62 277.524 152.62H310.49C311.318 152.62 311.99 153.292 311.99 154.12C311.99 154.949 311.318 155.62 310.49 155.62H277.524C276.695 155.62 276.024 154.949 276.024 154.12Z" fill="#2667FF"/>
<path fill-rule="evenodd" clip-rule="evenodd" d="M330.751 146.56C330.751 145.732 331.423 145.06 332.251 145.06H347.371C348.199 145.06 348.871 145.732 348.871 146.56V161.68C348.871 162.508 348.199 163.18 347.371 163.18H332.251C331.423 163.18 330.751 162.508 330.751 161.68V146.56ZM333.751 148.06V160.18H345.871V148.06H333.751Z" fill="#2667FF"/>
</g>
<defs>
<clipPath id="clip0_425_2">
<rect width="400" height="250" fill="white"/>
</clipPath>
</defs>
</svg>
