<svg width="400" height="250" fill="none" xmlns="http://www.w3.org/2000/svg"><g clipPath="url(#a)"><path fill="#FAFDFF" d="M0 0h400v250H0z"/><path d="M168.207 187.938c-3.412 0-6.191 2.779-6.191 6.201a6.194 6.194 0 0 0 6.191 6.191c3.412 0 6.201-2.779 6.201-6.191s-2.779-6.201-6.201-6.201zm0 9.037a2.842 2.842 0 0 1-2.837-2.836 2.851 2.851 0 0 1 2.837-2.847 2.854 2.854 0 0 1 2.847 2.847 2.839 2.839 0 0 1-2.847 2.836zM232.163 187.938a6.204 6.204 0 0 0-6.201 6.201c0 3.421 2.779 6.191 6.201 6.191a6.194 6.194 0 0 0 6.191-6.191c0-3.412-2.779-6.201-6.191-6.201zm0 9.037a2.844 2.844 0 0 1-2.847-2.836 2.853 2.853 0 0 1 2.847-2.847 2.839 2.839 0 0 1 2.837 2.847 2.837 2.837 0 0 1-2.837 2.836z" fill="#3F8EFC"/><path d="M200.18 187.938c-3.412 0-6.191 2.779-6.191 6.201a6.194 6.194 0 0 0 6.191 6.191c3.412 0 6.201-2.779 6.201-6.191s-2.779-6.201-6.201-6.201z" fill="#3B28CC"/><path d="M147.898 62H89.424a5.988 5.988 0 0 0-5.98 5.98v45.928a5.989 5.989 0 0 0 5.98 5.981h58.474a5.988 5.988 0 0 0 5.98-5.981V67.981a5.988 5.988 0 0 0-5.98-5.981zm-58.474 3.355h58.474a2.63 2.63 0 0 1 2.626 2.626v20.26l-22.38 15.403c-2.003 1.179-4.447.814-6.105-.911l-9.469-9.824c-3.086-3.2-7.821-3.517-11.271-.747L86.798 104.18v-36.2a2.63 2.63 0 0 1 2.626-2.626zm58.474 51.189H89.424a2.63 2.63 0 0 1-2.626-2.626v-5.425c.067-.038.144-.067.201-.115l16.418-13.61c2.051-1.648 4.888-1.447 6.738.48l9.469 9.824c2.779 2.885 6.92 3.46 10.294 1.437l.086-.057 20.52-14.118v21.603a2.63 2.63 0 0 1-2.626 2.626v-.019z" fill="#3F8EFC"/><path d="M129.199 87.945c3.719 0 6.747-3.029 6.747-6.748 0-3.718-3.028-6.747-6.747-6.747s-6.747 3.029-6.747 6.747c0 3.719 3.028 6.748 6.747 6.748zm0-10.14a3.4 3.4 0 0 1 3.393 3.392 3.4 3.4 0 0 1-3.393 3.393 3.4 3.4 0 0 1-3.393-3.393 3.4 3.4 0 0 1 3.393-3.392z" fill="#3F8EFC"/><path d="M152.201 135.157h-67.09c-.93 0-1.677.747-1.677 1.677s.748 1.677 1.677 1.677h67.09c.93 0 1.678-.747 1.678-1.677s-.748-1.677-1.678-1.677zM119.433 149.207H85.111c-.93 0-1.677.748-1.677 1.678 0 .929.748 1.677 1.677 1.677h34.322c.929 0 1.677-.748 1.677-1.677 0-.93-.748-1.678-1.677-1.678z" fill="#3B28CC"/><path d="M170.306 119.899h58.474a5.988 5.988 0 0 0 5.98-5.981V67.981A5.988 5.988 0 0 0 228.78 62h-58.474a5.989 5.989 0 0 0-5.981 5.98v45.928a5.989 5.989 0 0 0 5.981 5.981v.01zm58.474-3.355h-58.474a2.63 2.63 0 0 1-2.626-2.626v-5.549l16.619-13.6c2.051-1.649 4.888-1.448 6.738.479l9.469 9.824c2.78 2.885 6.92 3.46 10.361 1.39l20.539-13.783v21.249a2.63 2.63 0 0 1-2.626 2.626v-.01zm-58.474-51.19h58.474a2.63 2.63 0 0 1 2.626 2.627v20.635l-22.341 14.989c-2.003 1.208-4.476.853-6.153-.881l-9.47-9.824c-3.086-3.201-7.82-3.518-11.261-.757l-14.511 11.875V67.981a2.63 2.63 0 0 1 2.626-2.626h.01z" fill="#3F8EFC"/><path d="M210.09 87.945c3.719 0 6.748-3.029 6.748-6.748 0-3.718-3.029-6.747-6.748-6.747-3.718 0-6.747 3.029-6.747 6.747 0 3.719 3.029 6.748 6.747 6.748zm0-10.14a3.4 3.4 0 0 1 3.393 3.392 3.4 3.4 0 0 1-3.393 3.393 3.398 3.398 0 0 1-3.392-3.393 3.398 3.398 0 0 1 3.392-3.392z" fill="#3F8EFC"/><path d="M165.993 138.511h67.09c.93 0 1.677-.747 1.677-1.677s-.747-1.677-1.677-1.677h-67.09c-.93 0-1.677.747-1.677 1.677s.747 1.677 1.677 1.677zM165.993 152.562h34.321c.93 0 1.678-.748 1.678-1.677 0-.93-.748-1.678-1.678-1.678h-34.321c-.93 0-1.677.748-1.677 1.678 0 .929.747 1.677 1.677 1.677z" fill="#3B28CC"/><path d="M309.671 62h-58.474a5.988 5.988 0 0 0-5.98 5.98v45.928a5.988 5.988 0 0 0 5.98 5.981h58.474a5.988 5.988 0 0 0 5.98-5.981V67.981a5.988 5.988 0 0 0-5.98-5.981zm-58.474 3.355h58.474a2.63 2.63 0 0 1 2.626 2.626v20.26l-22.379 15.403c-2.003 1.179-4.447.814-6.115-.911l-9.469-9.824c-3.087-3.2-7.821-3.517-11.243-.776l-14.53 11.424V67.981a2.63 2.63 0 0 1 2.627-2.626h.009zm58.474 51.189h-58.474a2.63 2.63 0 0 1-2.626-2.626v-6.076l16.619-13.073c2.051-1.649 4.888-1.448 6.738.479l9.469 9.824c2.78 2.885 6.92 3.46 10.294 1.437l.086-.057 20.52-14.118v21.603a2.63 2.63 0 0 1-2.626 2.626v-.019z" fill="#3F8EFC"/><path d="M290.972 87.945c3.719 0 6.748-3.029 6.748-6.748 0-3.718-3.029-6.747-6.748-6.747-3.719 0-6.747 3.029-6.747 6.747 0 3.719 3.028 6.748 6.747 6.748zm0-10.14a3.4 3.4 0 0 1 3.393 3.392 3.4 3.4 0 0 1-3.393 3.393 3.4 3.4 0 0 1-3.393-3.393 3.4 3.4 0 0 1 3.393-3.392z" fill="#3F8EFC"/><path d="M313.974 135.157h-67.09c-.929 0-1.677.747-1.677 1.677s.748 1.677 1.677 1.677h67.09c.93 0 1.678-.747 1.678-1.677s-.748-1.677-1.678-1.677zM281.206 149.207h-34.322c-.929 0-1.677.748-1.677 1.678 0 .929.748 1.677 1.677 1.677h34.322c.929 0 1.677-.748 1.677-1.677 0-.93-.748-1.678-1.677-1.678zM48.844 117.263l17.444-16.705a1.67 1.67 0 0 0 .048-2.368 1.67 1.67 0 0 0-2.368-.048L45.26 116.055a1.702 1.702 0 0 0-.518 1.208c0 .45.182.891.518 1.208l18.708 17.98c.326.316.748.469 1.16.469.44 0 .882-.172 1.208-.517a1.67 1.67 0 0 0-.048-2.368l-17.444-16.772zM355.11 116.055l-18.709-17.913a1.669 1.669 0 0 0-2.367.048 1.679 1.679 0 0 0 .048 2.368l17.443 16.705-17.443 16.772a1.67 1.67 0 0 0-.048 2.368c.326.345.767.517 1.208.517.441 0 .834-.153 1.159-.469l18.709-17.98c.326-.317.518-.758.518-1.208 0-.45-.192-.891-.518-1.208z" fill="#3B28CC"/></g><defs><clipPath id="a"><path fill="#fff" d="M0 0h400v250H0z"/></clipPath></defs></svg>