<svg width="400" height="250" fill="none" xmlns="http://www.w3.org/2000/svg"><path fill="#FAFDFF" d="M0 0h400v250H0z"/><g clipPath="url(#a)"><path d="M137.36 130.9H43.04c-1.1 0-2-.9-2-2s.9-2 2-2h94.32c1.1 0 2 .9 2 2s-.9 2-2 2zM71.16 141.41H54.7a.82.82 0 0 0-.82.82v5.09c0 .453.367.82.82.82h16.46a.82.82 0 0 0 .82-.82v-5.09a.82.82 0 0 0-.82-.82z" fill="#3F8EFC"/><path d="M122.6 162.95H57.11a3.23 3.23 0 1 0 0 6.46h65.49a3.23 3.23 0 1 0 0-6.46z" fill="#3B28CC"/><path d="M96.1 175.8H55.61a1.73 1.73 0 0 0 0 3.46H96.1a1.73 1.73 0 0 0 0-3.46z" fill="#3F8EFC"/><path d="M81.18 192.14H55a1.12 1.12 0 1 0 0 2.24h26.18a1.12 1.12 0 1 0 0-2.24zM111.5 68.68c-3.28 0-5.95-2.67-5.95-5.95 0-3.28 2.67-5.95 5.95-5.95 3.28 0 5.95 2.67 5.95 5.95 0 3.28-2.67 5.95-5.95 5.95zm0-7.89c-1.07 0-1.95.87-1.95 1.95s.87 1.95 1.95 1.95 1.95-.87 1.95-1.95-.87-1.95-1.95-1.95zM137.36 104.2c-.6 0-1.19-.27-1.58-.78l-15.31-19.79c-.91-1.13-2.08-1.78-3.26-1.82-1.14-.03-2.25.5-3.21 1.54L103.63 96.1s-.04.05-.07.08c-1.76 1.94-4.02 2.96-6.35 2.9-2.39-.08-4.63-1.29-6.32-3.42L74.05 74.4c-.97-1.23-2.19-1.91-3.42-1.91s-2.44.67-3.41 1.89l-22.66 28.44c-.69.87-1.95 1.01-2.81.32a2.002 2.002 0 0 1-.32-2.81L64.08 71.9c1.75-2.19 4.07-3.4 6.54-3.4 2.48 0 4.8 1.22 6.55 3.43l16.84 21.26c.94 1.19 2.12 1.87 3.32 1.91 1.17.02 2.26-.5 3.22-1.54l10.37-12.75s.04-.05.07-.08c1.75-1.93 3.98-2.97 6.32-2.9 2.37.06 4.6 1.25 6.29 3.33l15.34 19.83c.68.87.52 2.13-.36 2.81-.36.28-.79.42-1.22.42v-.02z" fill="#3B28CC"/><path d="M131.73 208.78H48.67c-4.21 0-7.63-3.42-7.63-7.63V49.63c0-4.21 3.42-7.63 7.63-7.63h83.06c4.21 0 7.63 3.42 7.63 7.63v151.52c0 4.21-3.42 7.63-7.63 7.63zM48.67 46c-2 0-3.63 1.63-3.63 3.63v151.52c0 2 1.63 3.63 3.63 3.63h83.06c2 0 3.63-1.63 3.63-3.63V49.63c0-2-1.63-3.63-3.63-3.63H48.67z" fill="#3F8EFC"/><path d="M61.78 110.02h-6.27c-.9 0-1.63.73-1.63 1.63v6.27c0 .9.73 1.63 1.63 1.63h6.27c.9 0 1.63-.73 1.63-1.63v-6.27c0-.9-.73-1.63-1.63-1.63z" fill="#3F8EFC"/><path d="M77.92 111.92h-9.26a.75.75 0 0 0-.75.75v.01c0 .414.336.75.75.75h9.26a.75.75 0 0 0 .75-.75v-.01a.75.75 0 0 0-.75-.75zM92.58 116.14H68.66a.75.75 0 0 0-.75.75v.01c0 .414.336.75.75.75h23.92a.75.75 0 0 0 .75-.75v-.01a.75.75 0 0 0-.75-.75z" fill="#3B28CC"/><path d="M247.364 130.9h-94.32c-1.1 0-2-.9-2-2s.9-2 2-2h94.32c1.1 0 2 .9 2 2s-.9 2-2 2zM181.165 141.41h-16.46a.82.82 0 0 0-.82.82v5.09c0 .453.367.82.82.82h16.46a.82.82 0 0 0 .82-.82v-5.09a.82.82 0 0 0-.82-.82z" fill="#3F8EFC"/><path d="M232.605 162.95h-65.49a3.23 3.23 0 1 0 0 6.46h65.49a3.23 3.23 0 0 0 0-6.46z" fill="#3B28CC"/><path d="M206.105 175.8h-40.49a1.73 1.73 0 1 0 0 3.46h40.49a1.73 1.73 0 0 0 0-3.46z" fill="#3F8EFC"/><path d="M191.185 192.14h-26.18a1.12 1.12 0 1 0 0 2.24h26.18a1.12 1.12 0 0 0 0-2.24zM221.504 68.68c-3.28 0-5.95-2.67-5.95-5.95 0-3.28 2.67-5.95 5.95-5.95 3.28 0 5.95 2.67 5.95 5.95 0 3.28-2.67 5.95-5.95 5.95zm0-7.89c-1.07 0-1.95.87-1.95 1.95s.87 1.95 1.95 1.95 1.95-.87 1.95-1.95-.87-1.95-1.95-1.95zM247.365 104.2c-.6 0-1.19-.27-1.58-.78l-15.31-19.79c-.91-1.13-2.08-1.78-3.26-1.82-1.14-.03-2.25.5-3.21 1.54l-10.37 12.75s-.04.05-.07.08c-1.76 1.94-4.02 2.96-6.35 2.9-2.39-.08-4.63-1.29-6.32-3.42l-16.84-21.26c-.97-1.23-2.19-1.91-3.42-1.91s-2.44.67-3.41 1.89l-22.66 28.44c-.69.87-1.95 1.01-2.81.32a2.002 2.002 0 0 1-.32-2.81l22.65-28.43c1.75-2.19 4.07-3.4 6.54-3.4 2.48 0 4.8 1.22 6.55 3.43l16.84 21.26c.94 1.19 2.12 1.87 3.32 1.91 1.17.02 2.26-.5 3.22-1.54l10.37-12.75s.04-.05.07-.08c1.75-1.93 3.98-2.97 6.32-2.9 2.37.06 4.6 1.25 6.29 3.33l15.34 19.83c.68.87.52 2.13-.36 2.81-.36.28-.79.42-1.22.42v-.02z" fill="#3B28CC"/><path d="M241.734 208.78h-83.06c-4.21 0-7.63-3.42-7.63-7.63V49.63c0-4.21 3.42-7.63 7.63-7.63h83.06c4.21 0 7.63 3.42 7.63 7.63v151.52c0 4.21-3.42 7.63-7.63 7.63zM158.674 46c-2 0-3.63 1.63-3.63 3.63v151.52c0 2 1.63 3.63 3.63 3.63h83.06c2 0 3.63-1.63 3.63-3.63V49.63c0-2-1.63-3.63-3.63-3.63h-83.06z" fill="#3F8EFC"/><path d="M171.785 110.02h-6.27c-.901 0-1.63.73-1.63 1.63v6.27c0 .9.729 1.63 1.63 1.63h6.27c.9 0 1.63-.73 1.63-1.63v-6.27c0-.9-.73-1.63-1.63-1.63z" fill="#3F8EFC"/><path d="M187.925 111.92h-9.26a.75.75 0 0 0-.75.75v.01c0 .414.335.75.75.75h9.26a.75.75 0 0 0 .75-.75v-.01a.75.75 0 0 0-.75-.75zM202.585 116.14h-23.92a.75.75 0 0 0-.75.75v.01c0 .414.335.75.75.75h23.92a.75.75 0 0 0 .75-.75v-.01a.75.75 0 0 0-.75-.75z" fill="#3B28CC"/><path d="M357.364 130.9h-94.32c-1.1 0-2-.9-2-2s.9-2 2-2h94.32c1.1 0 2 .9 2 2s-.9 2-2 2zM291.165 141.41h-16.46a.82.82 0 0 0-.82.82v5.09c0 .453.367.82.82.82h16.46a.82.82 0 0 0 .82-.82v-5.09a.82.82 0 0 0-.82-.82z" fill="#3F8EFC"/><path d="M342.605 162.95h-65.49a3.23 3.23 0 1 0 0 6.46h65.49a3.23 3.23 0 0 0 0-6.46z" fill="#3B28CC"/><path d="M316.105 175.8h-40.49a1.73 1.73 0 1 0 0 3.46h40.49a1.73 1.73 0 0 0 0-3.46z" fill="#3F8EFC"/><path d="M301.185 192.14h-26.18a1.12 1.12 0 1 0 0 2.24h26.18a1.12 1.12 0 0 0 0-2.24zM331.504 68.68c-3.28 0-5.95-2.67-5.95-5.95 0-3.28 2.67-5.95 5.95-5.95 3.28 0 5.95 2.67 5.95 5.95 0 3.28-2.67 5.95-5.95 5.95zm0-7.89c-1.07 0-1.95.87-1.95 1.95s.87 1.95 1.95 1.95 1.95-.87 1.95-1.95-.87-1.95-1.95-1.95zM357.365 104.2c-.6 0-1.19-.27-1.58-.78l-15.31-19.79c-.91-1.13-2.08-1.78-3.26-1.82-1.14-.03-2.25.5-3.21 1.54l-10.37 12.75s-.04.05-.07.08c-1.76 1.94-4.02 2.96-6.35 2.9-2.39-.08-4.63-1.29-6.32-3.42l-16.84-21.26c-.97-1.23-2.19-1.91-3.42-1.91s-2.44.67-3.41 1.89l-22.66 28.44c-.69.87-1.95 1.01-2.81.32a2.002 2.002 0 0 1-.32-2.81l22.65-28.43c1.75-2.19 4.07-3.4 6.54-3.4 2.48 0 4.8 1.22 6.55 3.43l16.84 21.26c.94 1.19 2.12 1.87 3.32 1.91 1.17.02 2.26-.5 3.22-1.54l10.37-12.75s.04-.05.07-.08c1.75-1.93 3.98-2.97 6.32-2.9 2.37.06 4.6 1.25 6.29 3.33l15.34 19.83c.68.87.52 2.13-.36 2.81-.36.28-.79.42-1.22.42v-.02z" fill="#3B28CC"/><path d="M351.734 208.78h-83.06c-4.21 0-7.63-3.42-7.63-7.63V49.63c0-4.21 3.42-7.63 7.63-7.63h83.06c4.21 0 7.63 3.42 7.63 7.63v151.52c0 4.21-3.42 7.63-7.63 7.63zM268.674 46c-2 0-3.63 1.63-3.63 3.63v151.52c0 2 1.63 3.63 3.63 3.63h83.06c2 0 3.63-1.63 3.63-3.63V49.63c0-2-1.63-3.63-3.63-3.63h-83.06z" fill="#3F8EFC"/><path d="M281.785 110.02h-6.27c-.901 0-1.63.73-1.63 1.63v6.27c0 .9.729 1.63 1.63 1.63h6.27c.9 0 1.63-.73 1.63-1.63v-6.27c0-.9-.73-1.63-1.63-1.63z" fill="#3F8EFC"/><path d="M297.925 111.92h-9.26a.75.75 0 0 0-.75.75v.01c0 .414.335.75.75.75h9.26a.75.75 0 0 0 .75-.75v-.01a.75.75 0 0 0-.75-.75zM312.585 116.14h-23.92a.75.75 0 0 0-.75.75v.01c0 .414.335.75.75.75h23.92a.75.75 0 0 0 .75-.75v-.01a.75.75 0 0 0-.75-.75z" fill="#3B28CC"/></g><defs><clipPath id="a"><path fill="#fff" transform="translate(41 42)" d="M0 0h318.59v166.78H0z"/></clipPath></defs></svg>