<svg width="400" height="250" viewBox="0 0 400 250" fill="none" xmlns="http://www.w3.org/2000/svg">
<g clip-path="url(#clip0_425_41)">
<rect width="400" height="250" fill="#FAFDFF"/>
<path fill-rule="evenodd" clip-rule="evenodd" d="M79.163 179.087C79.163 178.259 79.8346 177.587 80.663 177.587H146.795C147.623 177.587 148.295 178.259 148.295 179.087C148.295 179.915 147.623 180.587 146.795 180.587H80.663C79.8346 180.587 79.163 179.915 79.163 179.087Z" fill="#2667FF"/>
<path fill-rule="evenodd" clip-rule="evenodd" d="M79.163 189.361C79.163 188.533 79.8346 187.861 80.663 187.861H127.516C128.344 187.861 129.016 188.533 129.016 189.361C129.016 190.189 128.344 190.861 127.516 190.861H80.663C79.8346 190.861 79.163 190.189 79.163 189.361Z" fill="#DDF1FF"/>
<path fill-rule="evenodd" clip-rule="evenodd" d="M79.163 163.807C79.163 162.979 79.8346 162.307 80.663 162.307H94.786C95.6145 162.307 96.286 162.979 96.286 163.807V169.411C96.286 170.239 95.6145 170.911 94.786 170.911H80.663C79.8346 170.911 79.163 170.239 79.163 169.411V163.807ZM82.163 165.307V167.911H93.286V165.307H82.163Z" fill="#DDF1FF"/>
<path fill-rule="evenodd" clip-rule="evenodd" d="M64 63.0081C64 62.1796 64.6716 61.5081 65.5 61.5081H334.951C335.779 61.5081 336.451 62.1796 336.451 63.0081C336.451 63.8365 335.779 64.5081 334.951 64.5081H65.5C64.6716 64.5081 64 63.8365 64 63.0081Z" fill="#DDF1FF"/>
<path fill-rule="evenodd" clip-rule="evenodd" d="M64 46.5C64 45.6716 64.6716 45 65.5 45H121.768C122.596 45 123.268 45.6716 123.268 46.5C123.268 47.3284 122.596 48 121.768 48H65.5C64.6716 48 64 47.3284 64 46.5Z" fill="#2667FF"/>
<path fill-rule="evenodd" clip-rule="evenodd" d="M318.706 46.5C318.706 45.6716 319.378 45 320.206 45H334.951C335.779 45 336.451 45.6716 336.451 46.5C336.451 47.3284 335.779 48 334.951 48H320.206C319.378 48 318.706 47.3284 318.706 46.5Z" fill="#2667FF"/>
<path fill-rule="evenodd" clip-rule="evenodd" d="M294.413 46.5C294.413 45.6716 295.085 45 295.913 45H310.658C311.486 45 312.158 45.6716 312.158 46.5C312.158 47.3284 311.486 48 310.658 48H295.913C295.085 48 294.413 47.3284 294.413 46.5Z" fill="#2667FF"/>
<path fill-rule="evenodd" clip-rule="evenodd" d="M270.121 46.5C270.121 45.6716 270.793 45 271.621 45H286.366C287.194 45 287.866 45.6716 287.866 46.5C287.866 47.3284 287.194 48 286.366 48H271.621C270.793 48 270.121 47.3284 270.121 46.5Z" fill="#2667FF"/>
<path fill-rule="evenodd" clip-rule="evenodd" d="M85.62 102.077C85.62 96.5226 90.1226 92.02 95.677 92.02C101.231 92.02 105.734 96.5226 105.734 102.077C105.734 107.631 101.231 112.134 95.677 112.134C90.1226 112.134 85.62 107.631 85.62 102.077ZM95.677 95.02C91.7794 95.02 88.62 98.1794 88.62 102.077C88.62 105.975 91.7794 109.134 95.677 109.134C99.5746 109.134 102.734 105.975 102.734 102.077C102.734 98.1794 99.5746 95.02 95.677 95.02Z" fill="#DDF1FF"/>
<path fill-rule="evenodd" clip-rule="evenodd" d="M177.291 83.106C176.822 83.106 176.441 83.4865 176.441 83.956V106.932C176.441 107.401 176.822 107.782 177.291 107.782H200.267C200.736 107.782 201.117 107.401 201.117 106.932V83.956C201.117 83.4865 200.736 83.106 200.267 83.106H177.291ZM173.441 83.956C173.441 81.8297 175.165 80.106 177.291 80.106H200.267C202.393 80.106 204.117 81.8297 204.117 83.956V106.932C204.117 109.058 202.393 110.782 200.267 110.782H177.291C175.165 110.782 173.441 109.058 173.441 106.932V83.956Z" fill="#2667FF"/>
<path fill-rule="evenodd" clip-rule="evenodd" d="M211.798 90.361C211.798 89.5325 212.47 88.861 213.298 88.861H248.733C249.561 88.861 250.233 89.5325 250.233 90.361C250.233 91.1894 249.561 91.861 248.733 91.861H213.298C212.47 91.861 211.798 91.1894 211.798 90.361Z" fill="#2667FF"/>
<path fill-rule="evenodd" clip-rule="evenodd" d="M211.798 102.357C211.798 101.529 212.47 100.857 213.298 100.857H230.217C231.045 100.857 231.717 101.529 231.717 102.357C231.717 103.185 231.045 103.857 230.217 103.857H213.298C212.47 103.857 211.798 103.185 211.798 102.357Z" fill="#DDF1FF"/>
<path fill-rule="evenodd" clip-rule="evenodd" d="M177.291 130.356C176.822 130.356 176.441 130.737 176.441 131.206V154.182C176.441 154.651 176.822 155.032 177.291 155.032H200.267C200.736 155.032 201.117 154.651 201.117 154.182V131.206C201.117 130.737 200.736 130.356 200.267 130.356H177.291ZM173.441 131.206C173.441 129.08 175.165 127.356 177.291 127.356H200.267C202.393 127.356 204.117 129.08 204.117 131.206V154.182C204.117 156.308 202.393 158.032 200.267 158.032H177.291C175.165 158.032 173.441 156.308 173.441 154.182V131.206Z" fill="#2667FF"/>
<path fill-rule="evenodd" clip-rule="evenodd" d="M211.798 137.611C211.798 136.783 212.47 136.111 213.298 136.111H248.733C249.561 136.111 250.233 136.783 250.233 137.611C250.233 138.439 249.561 139.111 248.733 139.111H213.298C212.47 139.111 211.798 138.439 211.798 137.611Z" fill="#2667FF"/>
<path fill-rule="evenodd" clip-rule="evenodd" d="M211.798 149.607C211.798 148.779 212.47 148.107 213.298 148.107H230.217C231.045 148.107 231.717 148.779 231.717 149.607C231.717 150.435 231.045 151.107 230.217 151.107H213.298C212.47 151.107 211.798 150.435 211.798 149.607Z" fill="#DDF1FF"/>
<path fill-rule="evenodd" clip-rule="evenodd" d="M177.291 177.606C176.822 177.606 176.441 177.987 176.441 178.456V201.432C176.441 201.901 176.822 202.282 177.291 202.282H200.267C200.736 202.282 201.117 201.901 201.117 201.432V178.456C201.117 177.987 200.736 177.606 200.267 177.606H177.291ZM173.441 178.456C173.441 176.33 175.165 174.606 177.291 174.606H200.267C202.393 174.606 204.117 176.33 204.117 178.456V201.432C204.117 203.558 202.393 205.282 200.267 205.282H177.291C175.165 205.282 173.441 203.558 173.441 201.432V178.456Z" fill="#2667FF"/>
<path fill-rule="evenodd" clip-rule="evenodd" d="M211.798 184.861C211.798 184.033 212.47 183.361 213.298 183.361H248.733C249.561 183.361 250.233 184.033 250.233 184.861C250.233 185.689 249.561 186.361 248.733 186.361H213.298C212.47 186.361 211.798 185.689 211.798 184.861Z" fill="#2667FF"/>
<path fill-rule="evenodd" clip-rule="evenodd" d="M211.798 196.857C211.798 196.029 212.47 195.357 213.298 195.357H230.217C231.045 195.357 231.717 196.029 231.717 196.857C231.717 197.685 231.045 198.357 230.217 198.357H213.298C212.47 198.357 211.798 197.685 211.798 196.857Z" fill="#DDF1FF"/>
<path fill-rule="evenodd" clip-rule="evenodd" d="M263.938 83.106C263.469 83.106 263.088 83.4865 263.088 83.956V106.932C263.088 107.401 263.469 107.782 263.938 107.782H286.914C287.383 107.782 287.764 107.401 287.764 106.932V83.956C287.764 83.4865 287.383 83.106 286.914 83.106H263.938ZM260.088 83.956C260.088 81.8297 261.812 80.106 263.938 80.106H286.914C289.04 80.106 290.764 81.8297 290.764 83.956V106.932C290.764 109.058 289.04 110.782 286.914 110.782H263.938C261.812 110.782 260.088 109.058 260.088 106.932V83.956Z" fill="#2667FF"/>
<path fill-rule="evenodd" clip-rule="evenodd" d="M298.445 90.361C298.445 89.5325 299.117 88.861 299.945 88.861H335.379C336.207 88.861 336.879 89.5325 336.879 90.361C336.879 91.1894 336.207 91.861 335.379 91.861H299.945C299.117 91.861 298.445 91.1894 298.445 90.361Z" fill="#2667FF"/>
<path fill-rule="evenodd" clip-rule="evenodd" d="M298.445 102.357C298.445 101.529 299.117 100.857 299.945 100.857H316.864C317.692 100.857 318.364 101.529 318.364 102.357C318.364 103.185 317.692 103.857 316.864 103.857H299.945C299.117 103.857 298.445 103.185 298.445 102.357Z" fill="#DDF1FF"/>
<path fill-rule="evenodd" clip-rule="evenodd" d="M263.938 130.356C263.469 130.356 263.088 130.737 263.088 131.206V154.182C263.088 154.651 263.469 155.032 263.938 155.032H286.914C287.383 155.032 287.764 154.651 287.764 154.182V131.206C287.764 130.737 287.383 130.356 286.914 130.356H263.938ZM260.088 131.206C260.088 129.08 261.812 127.356 263.938 127.356H286.914C289.04 127.356 290.764 129.08 290.764 131.206V154.182C290.764 156.308 289.04 158.032 286.914 158.032H263.938C261.812 158.032 260.088 156.308 260.088 154.182V131.206Z" fill="#2667FF"/>
<path fill-rule="evenodd" clip-rule="evenodd" d="M298.445 137.611C298.445 136.783 299.117 136.111 299.945 136.111H335.379C336.207 136.111 336.879 136.783 336.879 137.611C336.879 138.439 336.207 139.111 335.379 139.111H299.945C299.117 139.111 298.445 138.439 298.445 137.611Z" fill="#2667FF"/>
<path fill-rule="evenodd" clip-rule="evenodd" d="M298.445 149.607C298.445 148.779 299.117 148.107 299.945 148.107H316.864C317.692 148.107 318.364 148.779 318.364 149.607C318.364 150.435 317.692 151.107 316.864 151.107H299.945C299.117 151.107 298.445 150.435 298.445 149.607Z" fill="#DDF1FF"/>
<path fill-rule="evenodd" clip-rule="evenodd" d="M263.938 177.606C263.469 177.606 263.088 177.987 263.088 178.456V201.432C263.088 201.901 263.469 202.282 263.938 202.282H286.914C287.383 202.282 287.764 201.901 287.764 201.432V178.456C287.764 177.987 287.383 177.606 286.914 177.606H263.938ZM260.088 178.456C260.088 176.33 261.812 174.606 263.938 174.606H286.914C289.04 174.606 290.764 176.33 290.764 178.456V201.432C290.764 203.558 289.04 205.282 286.914 205.282H263.938C261.812 205.282 260.088 203.558 260.088 201.432V178.456Z" fill="#2667FF"/>
<path fill-rule="evenodd" clip-rule="evenodd" d="M298.445 184.861C298.445 184.033 299.117 183.361 299.945 183.361H335.379C336.207 183.361 336.879 184.033 336.879 184.861C336.879 185.689 336.207 186.361 335.379 186.361H299.945C299.117 186.361 298.445 185.689 298.445 184.861Z" fill="#2667FF"/>
<path fill-rule="evenodd" clip-rule="evenodd" d="M298.445 196.857C298.445 196.029 299.117 195.357 299.945 195.357H316.864C317.692 195.357 318.364 196.029 318.364 196.857C318.364 197.685 317.692 198.357 316.864 198.357H299.945C299.117 198.357 298.445 197.685 298.445 196.857Z" fill="#DDF1FF"/>
<path fill-rule="evenodd" clip-rule="evenodd" d="M157.808 114.031C158.414 114.597 158.445 115.546 157.88 116.151L129.542 146.456C129.525 146.474 129.508 146.491 129.491 146.508C128.544 147.428 127.242 147.801 126.062 147.781C124.884 147.761 123.593 147.344 122.687 146.38L104.937 127.467C104.719 127.236 104.297 127.033 103.744 127.013C103.206 126.993 102.744 127.154 102.466 127.386L68.908 159.202C68.3068 159.771 67.3574 159.746 66.7874 159.145C66.2175 158.544 66.2428 157.594 66.844 157.024L100.429 125.183C100.444 125.169 100.459 125.156 100.474 125.142C101.436 124.302 102.702 123.972 103.854 124.015C105.002 124.057 106.246 124.478 107.123 125.413L124.875 144.326C125.1 144.567 125.542 144.772 126.113 144.782C126.668 144.791 127.124 144.612 127.38 144.375L155.688 114.102C156.254 113.497 157.203 113.466 157.808 114.031Z" fill="#DDF1FF"/>
<path fill-rule="evenodd" clip-rule="evenodd" d="M69.87 83.106C68.8002 83.106 67.933 83.9732 67.933 85.043V200.345C67.933 201.415 68.8002 202.282 69.87 202.282H154.304C155.374 202.282 156.241 201.415 156.241 200.345V85.043C156.241 83.9732 155.374 83.106 154.304 83.106H69.87ZM64.933 85.043C64.933 82.3163 67.1434 80.106 69.87 80.106H154.304C157.031 80.106 159.241 82.3163 159.241 85.043V200.345C159.241 203.072 157.031 205.282 154.304 205.282H69.87C67.1434 205.282 64.933 203.072 64.933 200.345V85.043Z" fill="#2667FF"/>
</g>
<defs>
<clipPath id="clip0_425_41">
<rect width="400" height="250" fill="white"/>
</clipPath>
</defs>
</svg>
