<svg width="400" height="250" fill="none" xmlns="http://www.w3.org/2000/svg"><path fill="#FAFDFF" d="M0 0h400v250H0z"/><path fillRule="evenodd" clipRule="evenodd" d="M79.56 38.34a4.22 4.22 0 0 0-4.22 4.22v52.08a4.22 4.22 0 0 0 4.22 4.22h240.92a4.22 4.22 0 0 0 4.22-4.22V42.56a4.22 4.22 0 0 0-4.22-4.22H79.56zM72 42.56A7.56 7.56 0 0 1 79.56 35h240.92a7.56 7.56 0 0 1 7.56 7.56v52.08a7.56 7.56 0 0 1-7.56 7.56H79.56A7.56 7.56 0 0 1 72 94.64V42.56z" fill="#3F8EFC"/><path d="M136.87 76.53H92.38c-.8 0-1.45.65-1.45 1.45v.01c0 .8.65 1.45 1.45 1.45h44.49c.801 0 1.45-.65 1.45-1.45v-.01c0-.8-.649-1.45-1.45-1.45z" fill="#3B28CC"/><path d="M122.09 84.53H91.55a.62.62 0 0 0 0 1.24h30.54a.62.62 0 1 0 0-1.24zM107.28 71.09H91.37a.437.437 0 0 0-.44.435c0 .24.197.435.44.435h15.91c.243 0 .44-.195.44-.435a.437.437 0 0 0-.44-.435z" fill="#3F8EFC"/><path d="M211.54 58.38a4.72 4.72 0 1 0 0-9.44 4.72 4.72 0 0 0 0 9.44zM227.4 89.18c2.52 0 4.1-2.74 2.82-4.92l-11.29-16.92c-1.61-1.99-4.05-2.08-5.74-.21l-6.24 7.68c-1.7 1.89-4.16 1.78-5.77-.26l-10.1-12.75c-1.69-2.13-4.29-2.13-5.98-.01L169.83 84.2c-1.34 2.18.23 4.98 2.78 4.98h54.79z" fill="#3B28CC"/><path fillRule="evenodd" clipRule="evenodd" d="M77.76 123.79a2.42 2.42 0 0 0-2.42 2.42v28.18a2.42 2.42 0 0 0 2.42 2.42h34.68a2.42 2.42 0 0 0 2.42-2.42v-28.18a2.42 2.42 0 0 0-2.42-2.42H77.76zM72 126.21a5.76 5.76 0 0 1 5.76-5.76h34.68a5.76 5.76 0 0 1 5.76 5.76v28.18a5.76 5.76 0 0 1-5.76 5.76H77.76a5.76 5.76 0 0 1-5.76-5.76v-28.18z" fill="#3F8EFC"/><path d="M230.89 136.45h-94.17a3.078 3.078 0 0 0-3.08 3.075 3.078 3.078 0 0 0 3.08 3.075h94.17a3.078 3.078 0 0 0 3.08-3.075 3.078 3.078 0 0 0-3.08-3.075z" fill="#3B28CC"/><path d="M199.59 150.6h-64.63c-.729 0-1.32.589-1.32 1.315s.591 1.315 1.32 1.315h64.63c.729 0 1.32-.589 1.32-1.315s-.591-1.315-1.32-1.315zM161.91 128.18H134.4c-.42 0-.76.338-.76.755s.34.755.76.755h27.51c.42 0 .76-.338.76-.755a.757.757 0 0 0-.76-.755z" fill="#3F8EFC"/><path d="M99.29 135.18a1.92 1.92 0 1 0 0-3.84 1.92 1.92 0 0 0 0 3.84zM105.75 147.72c1.03 0 1.67-1.12 1.15-2l-4.6-6.89c-.66-.81-1.65-.85-2.34-.09l-2.54 3.12c-.69.77-1.69.72-2.35-.1l-4.11-5.19c-.69-.87-1.75-.87-2.43 0l-6.21 9.12c-.55.89.09 2.03 1.13 2.03h22.3z" fill="#3B28CC"/><path fillRule="evenodd" clipRule="evenodd" d="M77.76 179.59a2.42 2.42 0 0 0-2.42 2.42v28.18a2.42 2.42 0 0 0 2.42 2.42h34.68a2.42 2.42 0 0 0 2.42-2.42v-28.18a2.42 2.42 0 0 0-2.42-2.42H77.76zM72 182.01a5.76 5.76 0 0 1 5.76-5.76h34.68a5.76 5.76 0 0 1 5.76 5.76v28.18a5.76 5.76 0 0 1-5.76 5.76H77.76a5.76 5.76 0 0 1-5.76-5.76v-28.18z" fill="#3F8EFC"/><path d="M230.89 192.25h-94.17a3.078 3.078 0 0 0-3.08 3.075 3.078 3.078 0 0 0 3.08 3.075h94.17a3.078 3.078 0 0 0 3.08-3.075 3.078 3.078 0 0 0-3.08-3.075z" fill="#3B28CC"/><path d="M199.59 206.4h-64.63c-.729 0-1.32.589-1.32 1.315s.591 1.315 1.32 1.315h64.63c.729 0 1.32-.589 1.32-1.315s-.591-1.315-1.32-1.315zM161.91 183.98H134.4c-.42 0-.76.338-.76.755s.34.755.76.755h27.51c.42 0 .76-.338.76-.755a.757.757 0 0 0-.76-.755z" fill="#3F8EFC"/><path d="M99.29 190.98a1.92 1.92 0 1 0 0-3.84 1.92 1.92 0 0 0 0 3.84zM105.75 203.52c1.03 0 1.67-1.12 1.15-2l-4.6-6.89c-.66-.81-1.65-.85-2.34-.09l-2.54 3.12c-.69.77-1.69.72-2.35-.1l-4.11-5.19c-.69-.87-1.75-.87-2.43 0l-6.21 9.12c-.55.89.09 2.03 1.13 2.03h22.3z" fill="#3B28CC"/></svg>