<svg width="400" height="250" fill="none" xmlns="http://www.w3.org/2000/svg"><path fill="#FAFDFF" d="M0 0h400v250H0z"/><g clipPath="url(#a)"><path d="M128.02 55.04h-15.18a.76.76 0 0 0-.76.76v4.69c0 .42.34.76.76.76h15.18c.42 0 .76-.34.76-.76V55.8a.76.76 0 0 0-.76-.76zM89.87 77.83H57.01a4.65 4.65 0 1 0 0 9.3h32.86a4.65 4.65 0 1 0 0-9.3z" fill="#3B28CC"/><path d="M109.83 101.11H54.81a2.01 2.01 0 0 0 0 4.02h55.02a2.01 2.01 0 0 0 0-4.02zM87.26 110.92H54.02c-.674 0-1.22.544-1.22 1.215s.546 1.215 1.22 1.215h33.24c.674 0 1.22-.544 1.22-1.215s-.546-1.215-1.22-1.215z" fill="#3F8EFC"/><path d="M131.69 207.78H48.63c-3.65 0-6.63-2.97-6.63-6.63V49.63c0-3.65 2.97-6.63 6.63-6.63h83.06c3.65 0 6.63 2.97 6.63 6.63v151.52c0 3.65-2.97 6.63-6.63 6.63zM48.62 45a4.64 4.64 0 0 0-4.63 4.63v151.52a4.64 4.64 0 0 0 4.63 4.63h83.06a4.64 4.64 0 0 0 4.63-4.63V49.63a4.64 4.64 0 0 0-4.63-4.63H48.62z" fill="#3F8EFC"/><path d="M68.48 57.39H54.01a1.18 1.18 0 1 0 0 2.36h14.47a1.18 1.18 0 1 0 0-2.36zM56.01 133.34a3.21 3.21 0 1 0 0-6.42 3.21 3.21 0 0 0 0 6.42z" fill="#3F8EFC"/><path d="M55.55 131.52c-.12 0-.25-.05-.35-.14l-1.01-.98c-.2-.19-.2-.51-.01-.71.19-.2.51-.2.71-.01l.67.65 1.57-1.46c.2-.19.52-.18.71.03.19.21.18.52-.03.71l-1.92 1.78c-.1.09-.22.13-.34.13z" fill="#fff"/><path d="M99.96 128.97H66.98c-.64 0-1.16.519-1.16 1.16v.01c0 .641.52 1.16 1.16 1.16h32.98c.64 0 1.16-.519 1.16-1.16v-.01c0-.641-.52-1.16-1.16-1.16zM56.01 144.99a3.21 3.21 0 1 0 0-6.42 3.21 3.21 0 0 0 0 6.42z" fill="#3F8EFC"/><path d="M55.55 143.17c-.12 0-.25-.05-.35-.14l-1.01-.98c-.2-.19-.2-.51-.01-.71.19-.2.51-.2.71-.01l.67.65 1.57-1.46c.2-.19.52-.18.71.03.19.21.18.52-.03.71l-1.92 1.78c-.1.09-.22.13-.34.13z" fill="#fff"/><path d="M109.96 140.61H66.98c-.64 0-1.16.519-1.16 1.16v.01c0 .641.52 1.16 1.16 1.16h42.98c.64 0 1.16-.519 1.16-1.16v-.01c0-.641-.52-1.16-1.16-1.16zM56.01 156.64a3.21 3.21 0 1 0 0-6.42 3.21 3.21 0 0 0 0 6.42z" fill="#3F8EFC"/><path d="M55.55 154.82c-.12 0-.25-.05-.35-.14l-1.01-.98c-.2-.19-.2-.51-.01-.71.19-.2.51-.2.71-.01l.67.65 1.57-1.46c.2-.19.52-.18.71.03.19.21.18.52-.03.71l-1.92 1.78c-.1.09-.22.13-.34.13z" fill="#fff"/><path d="M89.96 152.26H66.98c-.64 0-1.16.519-1.16 1.16v.01c0 .641.52 1.16 1.16 1.16h22.98c.64 0 1.16-.519 1.16-1.16v-.01c0-.641-.52-1.16-1.16-1.16z" fill="#3F8EFC"/><path d="M127.49 170.6H53.7a1.9 1.9 0 0 0-1.9 1.9v8.44a1.9 1.9 0 0 0 1.9 1.9h73.79a1.9 1.9 0 0 0 1.9-1.9v-8.44a1.9 1.9 0 0 0-1.9-1.9z" fill="#3B28CC"/><path d="M53.7 187.11h73.79c.635 0 1.15.515 1.15 1.15v8.44a1.15 1.15 0 0 1-1.15 1.15H53.7a1.15 1.15 0 0 1-1.15-1.15v-8.44c0-.635.515-1.15 1.15-1.15z" stroke="#3F8EFC" strokeWidth="1.5"/><path d="M239.02 55.04h-15.18a.76.76 0 0 0-.76.76v4.69c0 .42.34.76.76.76h15.18c.42 0 .76-.34.76-.76V55.8a.76.76 0 0 0-.76-.76zM200.87 77.83h-32.86a4.65 4.65 0 0 0 0 9.3h32.86a4.65 4.65 0 0 0 0-9.3z" fill="#3B28CC"/><path d="M220.83 101.11h-55.02a2.01 2.01 0 0 0 0 4.02h55.02a2.01 2.01 0 0 0 0-4.02zM198.26 110.92h-33.24c-.674 0-1.22.544-1.22 1.215s.546 1.215 1.22 1.215h33.24c.674 0 1.22-.544 1.22-1.215s-.546-1.215-1.22-1.215z" fill="#3F8EFC"/><path d="M242.69 207.78h-83.06c-3.65 0-6.63-2.97-6.63-6.63V49.63c0-3.65 2.97-6.63 6.63-6.63h83.06c3.65 0 6.63 2.97 6.63 6.63v151.52c0 3.65-2.97 6.63-6.63 6.63zM159.62 45a4.64 4.64 0 0 0-4.63 4.63v151.52a4.64 4.64 0 0 0 4.63 4.63h83.06a4.64 4.64 0 0 0 4.63-4.63V49.63a4.64 4.64 0 0 0-4.63-4.63h-83.06z" fill="#3F8EFC"/><path d="M179.48 57.39h-14.47a1.18 1.18 0 1 0 0 2.36h14.47a1.18 1.18 0 1 0 0-2.36zM167.01 133.34a3.21 3.21 0 1 0 0-6.42 3.21 3.21 0 0 0 0 6.42z" fill="#3F8EFC"/><path d="M166.55 131.52c-.12 0-.25-.05-.35-.14l-1.01-.98c-.2-.19-.2-.51-.01-.71.19-.2.51-.2.71-.01l.67.65 1.57-1.46c.2-.19.52-.18.71.03.19.21.18.52-.03.71l-1.92 1.78c-.1.09-.22.13-.34.13z" fill="#fff"/><path d="M210.96 128.97h-32.98a1.16 1.16 0 0 0-1.16 1.16v.01c0 .641.519 1.16 1.16 1.16h32.98c.64 0 1.16-.519 1.16-1.16v-.01c0-.641-.52-1.16-1.16-1.16zM167.01 144.99a3.21 3.21 0 1 0 0-6.42 3.21 3.21 0 0 0 0 6.42z" fill="#3F8EFC"/><path d="M166.55 143.17c-.12 0-.25-.05-.35-.14l-1.01-.98c-.2-.19-.2-.51-.01-.71.19-.2.51-.2.71-.01l.67.65 1.57-1.46c.2-.19.52-.18.71.03.19.21.18.52-.03.71l-1.92 1.78c-.1.09-.22.13-.34.13z" fill="#fff"/><path d="M220.96 140.61h-42.98a1.16 1.16 0 0 0-1.16 1.16v.01c0 .641.519 1.16 1.16 1.16h42.98c.64 0 1.16-.519 1.16-1.16v-.01c0-.641-.52-1.16-1.16-1.16zM167.01 156.64a3.21 3.21 0 1 0 0-6.42 3.21 3.21 0 0 0 0 6.42z" fill="#3F8EFC"/><path d="M166.55 154.82c-.12 0-.25-.05-.35-.14l-1.01-.98c-.2-.19-.2-.51-.01-.71.19-.2.51-.2.71-.01l.67.65 1.57-1.46c.2-.19.52-.18.71.03.19.21.18.52-.03.71l-1.92 1.78c-.1.09-.22.13-.34.13z" fill="#fff"/><path d="M200.96 152.26h-22.98a1.16 1.16 0 0 0-1.16 1.16v.01c0 .641.519 1.16 1.16 1.16h22.98c.64 0 1.16-.519 1.16-1.16v-.01c0-.641-.52-1.16-1.16-1.16z" fill="#3F8EFC"/><path d="M238.49 170.6H164.7a1.9 1.9 0 0 0-1.9 1.9v8.44a1.9 1.9 0 0 0 1.9 1.9h73.79a1.9 1.9 0 0 0 1.9-1.9v-8.44a1.9 1.9 0 0 0-1.9-1.9z" fill="#3B28CC"/><path d="M164.7 187.11h73.79c.635 0 1.15.515 1.15 1.15v8.44a1.15 1.15 0 0 1-1.15 1.15H164.7a1.15 1.15 0 0 1-1.15-1.15v-8.44c0-.635.515-1.15 1.15-1.15z" stroke="#3F8EFC" strokeWidth="1.5"/><path d="M348.02 55.04h-15.18a.76.76 0 0 0-.76.76v4.69c0 .42.34.76.76.76h15.18c.42 0 .76-.34.76-.76V55.8a.76.76 0 0 0-.76-.76zM309.87 77.83h-32.86a4.65 4.65 0 0 0 0 9.3h32.86a4.65 4.65 0 0 0 0-9.3z" fill="#3B28CC"/><path d="M329.83 101.11h-55.02a2.01 2.01 0 0 0 0 4.02h55.02a2.01 2.01 0 0 0 0-4.02zM307.26 110.92h-33.24c-.674 0-1.22.544-1.22 1.215s.546 1.215 1.22 1.215h33.24c.674 0 1.22-.544 1.22-1.215s-.546-1.215-1.22-1.215z" fill="#3F8EFC"/><path d="M351.69 207.78h-83.06c-3.65 0-6.63-2.97-6.63-6.63V49.63c0-3.65 2.97-6.63 6.63-6.63h83.06c3.65 0 6.63 2.97 6.63 6.63v151.52c0 3.65-2.97 6.63-6.63 6.63zM268.62 45a4.64 4.64 0 0 0-4.63 4.63v151.52a4.64 4.64 0 0 0 4.63 4.63h83.06a4.64 4.64 0 0 0 4.63-4.63V49.63a4.64 4.64 0 0 0-4.63-4.63h-83.06z" fill="#3F8EFC"/><path d="M288.48 57.39h-14.47a1.18 1.18 0 1 0 0 2.36h14.47a1.18 1.18 0 1 0 0-2.36zM276.01 133.34a3.21 3.21 0 1 0 0-6.42 3.21 3.21 0 0 0 0 6.42z" fill="#3F8EFC"/><path d="M275.55 131.52c-.12 0-.25-.05-.35-.14l-1.01-.98c-.2-.19-.2-.51-.01-.71.19-.2.51-.2.71-.01l.67.65 1.57-1.46c.2-.19.52-.18.71.03.19.21.18.52-.03.71l-1.92 1.78c-.1.09-.22.13-.34.13z" fill="#fff"/><path d="M319.96 128.97h-32.98a1.16 1.16 0 0 0-1.16 1.16v.01c0 .641.519 1.16 1.16 1.16h32.98c.64 0 1.16-.519 1.16-1.16v-.01c0-.641-.52-1.16-1.16-1.16zM276.01 144.99a3.21 3.21 0 1 0 0-6.42 3.21 3.21 0 0 0 0 6.42z" fill="#3F8EFC"/><path d="M275.55 143.17c-.12 0-.25-.05-.35-.14l-1.01-.98c-.2-.19-.2-.51-.01-.71.19-.2.51-.2.71-.01l.67.65 1.57-1.46c.2-.19.52-.18.71.03.19.21.18.52-.03.71l-1.92 1.78c-.1.09-.22.13-.34.13z" fill="#fff"/><path d="M329.96 140.61h-42.98a1.16 1.16 0 0 0-1.16 1.16v.01c0 .641.519 1.16 1.16 1.16h42.98c.64 0 1.16-.519 1.16-1.16v-.01c0-.641-.52-1.16-1.16-1.16zM276.01 156.64a3.21 3.21 0 1 0 0-6.42 3.21 3.21 0 0 0 0 6.42z" fill="#3F8EFC"/><path d="M275.55 154.82c-.12 0-.25-.05-.35-.14l-1.01-.98c-.2-.19-.2-.51-.01-.71.19-.2.51-.2.71-.01l.67.65 1.57-1.46c.2-.19.52-.18.71.03.19.21.18.52-.03.71l-1.92 1.78c-.1.09-.22.13-.34.13z" fill="#fff"/><path d="M309.96 152.26h-22.98a1.16 1.16 0 0 0-1.16 1.16v.01c0 .641.519 1.16 1.16 1.16h22.98c.64 0 1.16-.519 1.16-1.16v-.01c0-.641-.52-1.16-1.16-1.16z" fill="#3F8EFC"/><path d="M347.49 170.6H273.7a1.9 1.9 0 0 0-1.9 1.9v8.44a1.9 1.9 0 0 0 1.9 1.9h73.79a1.9 1.9 0 0 0 1.9-1.9v-8.44a1.9 1.9 0 0 0-1.9-1.9z" fill="#3B28CC"/><path d="M273.7 187.11h73.79c.635 0 1.15.515 1.15 1.15v8.44a1.15 1.15 0 0 1-1.15 1.15H273.7a1.15 1.15 0 0 1-1.15-1.15v-8.44c0-.635.515-1.15 1.15-1.15z" stroke="#3F8EFC" strokeWidth="1.5"/></g><defs><clipPath id="a"><path fill="#fff" transform="translate(42 43)" d="M0 0h316.55v164.78H0z"/></clipPath></defs></svg>