<svg width="400" height="250" fill="none" xmlns="http://www.w3.org/2000/svg"><g clipPath="url(#a)"><path fill="#FAFDFF" d="M0 0h400v250H0z"/><path d="M309.199 64H63.801C59.492 64 56 67.58 56 71.995v.01C56 76.421 59.492 80 63.8 80H309.2c4.309 0 7.801-3.58 7.801-7.995v-.01c0-4.416-3.492-7.995-7.801-7.995z" fill="#ACCFFF"/><path d="M237.539 64H63.461C59.341 64 56 67.58 56 71.995v.01C56 76.421 59.34 80 63.461 80H237.54c4.121 0 7.461-3.58 7.461-7.995v-.01c0-4.416-3.34-7.995-7.461-7.995zM330.52 69.16c0-.49.13-.95.4-1.38.27-.43.66-.78 1.17-1.04.51-.26 1.12-.39 1.81-.39.58 0 1.09.08 1.53.23.44.15.81.36 1.1.63.29.27.51.57.65.9.14.33.21.69.21 1.07 0 .48-.12.91-.37 1.28s-.62.68-1.1.92c.42.16.76.37 1.04.63.27.26.48.56.62.91s.21.73.21 1.15c0 .62-.15 1.17-.45 1.68-.3.5-.74.89-1.31 1.18-.58.28-1.26.43-2.04.43s-1.51-.14-2.08-.43c-.58-.28-1.01-.67-1.31-1.17-.29-.5-.44-1.05-.44-1.67 0-1.32.62-2.22 1.86-2.71-1-.47-1.5-1.21-1.5-2.22zm5.26 4.86c0-.38-.08-.71-.23-1-.15-.29-.38-.5-.66-.65-.28-.15-.6-.23-.95-.23-.5 0-.92.17-1.25.5-.34.33-.51.8-.51 1.39 0 .38.08.72.24 1.01.16.29.38.52.65.67.27.16.58.24.92.24.34 0 .65-.08.92-.24.27-.16.49-.39.65-.68.16-.29.23-.63.23-1.01h-.01zm-1.83-6.26c-.46 0-.83.14-1.11.43-.28.29-.42.65-.42 1.1 0 .42.14.76.43 1.04s.66.41 1.12.41c.23 0 .44-.04.63-.11s.35-.17.48-.3c.13-.13.24-.28.31-.46s.11-.38.11-.59c0-.29-.06-.55-.19-.78-.13-.23-.31-.41-.55-.54-.24-.13-.5-.2-.81-.2zM346.65 71.91c0 .8-.05 1.49-.15 2.07-.1.58-.28 1.1-.54 1.57-.33.58-.76 1.02-1.29 1.33-.53.31-1.11.47-1.76.47-.74 0-1.41-.21-2-.63-.59-.42-1.03-1-1.33-1.75-.15-.41-.26-.85-.33-1.35-.07-.49-.11-1.02-.11-1.6 0-.74.04-1.4.12-2 .08-.6.2-1.1.37-1.53.29-.7.71-1.24 1.26-1.61.55-.37 1.21-.55 1.97-.55.5 0 .96.08 1.37.25.41.16.77.4 1.08.72.31.32.57.71.79 1.17.37.81.56 1.95.56 3.43l-.01.01zm-2.01-.15c0-.9-.05-1.63-.16-2.2-.11-.57-.29-1-.54-1.29-.25-.29-.61-.44-1.06-.44-.65 0-1.09.33-1.35.98-.26.65-.38 1.65-.38 3.01 0 .92.05 1.67.16 2.26.11.59.29 1.03.54 1.33.25.3.6.45 1.03.45.43 0 .8-.16 1.06-.47.26-.31.43-.76.54-1.34.1-.58.15-1.34.15-2.29h.01z" fill="#3B28CC"/><path d="M309.199 103H63.801c-4.309 0-7.801 3.579-7.801 7.995v.01c0 4.416 3.492 7.995 7.8 7.995H309.2c4.309 0 7.801-3.579 7.801-7.995v-.01c0-4.416-3.492-7.995-7.801-7.995z" fill="#ACCFFF"/><path d="M208.533 103H63.467c-4.124 0-7.467 3.579-7.467 7.995v.01c0 4.416 3.343 7.995 7.467 7.995h145.066c4.124 0 7.467-3.579 7.467-7.995v-.01c0-4.416-3.343-7.995-7.467-7.995zM331.85 105h4.88c.47 0 .81.07 1.02.22.21.15.32.39.32.73 0 .21-.12.48-.37.81-.25.33-.53.71-.84 1.12-.32.41-.64.92-.98 1.52-.33.61-.64 1.35-.92 2.22-.12.39-.2.71-.25.96-.05.25-.1.58-.16.99-.06.41-.11.72-.15.93-.1.5-.25.84-.44 1.04-.19.19-.44.29-.75.29s-.54-.1-.72-.31c-.18-.21-.27-.51-.27-.92 0-.31.07-.74.2-1.28s.35-1.18.65-1.93c.3-.75.67-1.52 1.12-2.31.45-.79.98-1.58 1.59-2.36h-3.92c-.41 0-.72-.07-.92-.22-.2-.15-.3-.38-.3-.7 0-.34.11-.56.32-.65.21-.09.52-.15.9-.15h-.01zM345.39 106.71h-3.48l-.42 2.38c.69-.37 1.33-.56 1.92-.56.47 0 .91.09 1.32.26.41.18.77.42 1.07.73.31.31.55.68.73 1.1.18.43.26.88.26 1.37 0 .71-.16 1.35-.48 1.94-.32.58-.78 1.04-1.38 1.39-.6.34-1.29.51-2.07.51-.88 0-1.59-.16-2.13-.48-.55-.32-.93-.69-1.16-1.11-.23-.42-.34-.78-.34-1.1 0-.19.08-.37.24-.54.16-.17.36-.26.6-.26.41 0 .72.24.92.71.2.44.46.77.79 1.02.33.24.7.36 1.12.36.38 0 .71-.1.99-.29.28-.2.5-.46.66-.81.16-.35.23-.73.23-1.17 0-.47-.08-.87-.25-1.2-.17-.33-.39-.58-.67-.74a1.85 1.85 0 0 0-.93-.25c-.42 0-.72.05-.9.15-.18.1-.44.28-.78.54s-.62.38-.84.38c-.24 0-.45-.09-.64-.26a.771.771 0 0 1-.28-.59c0-.02.03-.19.08-.5l.62-3.51c.07-.42.2-.73.38-.92.19-.19.49-.29.91-.29h3.87c.76 0 1.14.29 1.14.87 0 .25-.09.46-.28.62-.19.16-.46.23-.82.23v.02z" fill="#3B28CC"/><path d="M309.199 141H63.801c-4.309 0-7.801 3.579-7.801 7.995v.01c0 4.416 3.492 7.995 7.8 7.995H309.2c4.309 0 7.801-3.579 7.801-7.995v-.01c0-4.416-3.492-7.995-7.801-7.995z" fill="#ACCFFF"/><path d="M171.519 141H63.481C59.35 141 56 144.579 56 148.995v.01c0 4.416 3.35 7.995 7.481 7.995H171.52c4.131 0 7.481-3.579 7.481-7.995v-.01c0-4.416-3.35-7.995-7.481-7.995zM336.47 145.18h-3.48l-.42 2.38c.69-.37 1.33-.56 1.92-.56.47 0 .91.09 1.32.26.41.18.77.42 1.07.73.31.31.55.68.73 1.1.18.42.26.88.26 1.37 0 .71-.16 1.35-.48 1.94-.32.58-.78 1.04-1.38 1.39-.6.34-1.29.51-2.07.51-.88 0-1.59-.16-2.13-.48-.55-.32-.93-.69-1.16-1.11-.23-.42-.34-.78-.34-1.1 0-.19.08-.37.24-.54.16-.17.36-.26.6-.26.41 0 .72.24.92.71.2.44.46.77.79 1.02.33.24.7.36 1.12.36.38 0 .71-.1.99-.29.28-.2.5-.46.66-.81.15-.34.23-.73.23-1.17 0-.47-.08-.87-.25-1.2-.17-.33-.39-.58-.67-.74a1.85 1.85 0 0 0-.93-.25c-.42 0-.72.05-.9.15-.18.1-.44.28-.78.54s-.62.38-.84.38c-.24 0-.45-.09-.64-.26a.771.771 0 0 1-.28-.59c0-.02.03-.19.08-.5l.62-3.51c.07-.42.2-.73.38-.92.18-.19.49-.29.91-.29h3.87c.76 0 1.14.29 1.14.87 0 .25-.09.46-.28.62-.19.16-.46.23-.82.23v.02zM346.65 148.85c0 .8-.05 1.49-.15 2.07-.1.58-.28 1.1-.54 1.57-.33.58-.76 1.02-1.29 1.33-.53.31-1.11.47-1.76.47-.74 0-1.41-.21-2-.63-.59-.42-1.03-1-1.33-1.75-.15-.41-.26-.85-.33-1.35-.07-.49-.11-1.02-.11-1.6 0-.74.04-1.4.12-2 .08-.6.2-1.1.37-1.53.29-.7.71-1.24 1.26-1.61.55-.37 1.21-.55 1.97-.55.5 0 .96.08 1.37.25.41.17.77.4 1.08.72.31.32.57.71.79 1.17.37.81.56 1.95.56 3.42l-.01.02zm-2.01-.15c0-.89-.05-1.63-.16-2.2-.11-.57-.29-1-.54-1.29-.25-.29-.61-.44-1.06-.44-.65 0-1.09.33-1.35.98-.26.65-.38 1.65-.38 3.01 0 .92.05 1.67.16 2.26.11.59.29 1.03.54 1.33.25.3.6.45 1.03.45.43 0 .8-.16 1.06-.47.25-.31.43-.76.54-1.34.1-.58.15-1.34.15-2.29h.01z" fill="#3B28CC"/><path d="M309.199 180H63.801c-4.309 0-7.801 3.579-7.801 7.995v.01c0 4.416 3.492 7.995 7.8 7.995H309.2c4.309 0 7.801-3.579 7.801-7.995v-.01c0-4.416-3.492-7.995-7.801-7.995z" fill="#ACCFFF"/><path d="M273.522 180H63.478c-4.13 0-7.478 3.579-7.478 7.995v.01c0 4.416 3.348 7.995 7.478 7.995h210.044c4.13 0 7.478-3.579 7.478-7.995v-.01c0-4.416-3.348-7.995-7.478-7.995zM335.63 187.78c-.32.38-.68.67-1.08.86-.4.19-.84.29-1.32.29a3.075 3.075 0 0 1-2.32-1.02 3.41 3.41 0 0 1-.67-1.12c-.16-.43-.23-.88-.23-1.35 0-.5.09-.98.26-1.43.17-.45.43-.84.76-1.18.33-.33.72-.59 1.17-.78.45-.19.95-.28 1.5-.28.63 0 1.19.12 1.69.34.49.23.91.56 1.25 1 .34.44.6.99.78 1.65.18.66.27 1.42.27 2.26 0 .94-.1 1.77-.29 2.48-.19.71-.47 1.32-.83 1.8-.36.49-.8.85-1.31 1.08-.51.23-1.09.36-1.73.36-.64 0-1.19-.12-1.66-.36s-.83-.54-1.07-.9c-.24-.36-.37-.71-.37-1.04 0-.21.08-.39.23-.55.15-.16.34-.24.58-.24.21 0 .41.06.58.18.17.12.3.3.39.54.11.29.29.53.54.71.25.18.53.27.84.27.28 0 .54-.07.79-.21.25-.14.46-.34.64-.6.35-.52.56-1.45.63-2.77l-.02.01zm-.17-2.24c0-.33-.04-.64-.14-.92-.09-.28-.22-.52-.38-.73-.16-.21-.36-.37-.59-.48-.23-.11-.48-.18-.74-.18-.46 0-.86.2-1.18.6-.32.4-.48.93-.48 1.58s.16 1.17.48 1.55c.32.39.73.58 1.23.58a1.78 1.78 0 0 0 1.54-.93c.17-.3.26-.66.26-1.07zM346.65 187.32c0 .8-.05 1.49-.15 2.07-.1.58-.28 1.1-.54 1.57-.33.58-.76 1.02-1.29 1.33-.53.31-1.11.47-1.76.47-.74 0-1.41-.21-2-.63-.59-.42-1.03-1-1.33-1.75-.15-.41-.26-.85-.33-1.35-.07-.49-.11-1.02-.11-1.6 0-.74.04-1.4.12-2 .08-.6.2-1.1.37-1.53.29-.7.71-1.24 1.26-1.61.55-.37 1.21-.55 1.97-.55.5 0 .96.08 1.37.25.41.17.77.4 1.08.72.31.32.57.71.79 1.17.37.81.56 1.95.56 3.42l-.01.02zm-2.01-.15c0-.89-.05-1.63-.16-2.2-.11-.57-.29-1-.54-1.29-.25-.29-.61-.44-1.06-.44-.65 0-1.09.33-1.35.98-.26.65-.38 1.65-.38 3.01 0 .92.05 1.67.16 2.26.11.59.29 1.03.54 1.33.25.3.6.45 1.03.45.43 0 .8-.16 1.06-.47.25-.31.43-.76.54-1.34.1-.58.15-1.34.15-2.29h.01z" fill="#3B28CC"/></g><defs><clipPath id="a"><path fill="#fff" d="M0 0h400v250H0z"/></clipPath></defs></svg>