<svg width="400" height="250" viewBox="0 0 400 250" fill="none" xmlns="http://www.w3.org/2000/svg">
<g clipPath="url(#clip0_333_23)">
<rect width="400" height="250" fill="#FAFDFF"/>
<path d="M72.57 127.3C71.81 128.1 70.92 128.51 69.91 128.51C68.71 128.51 67.76 128.09 67.05 127.25C66.34 126.41 65.98 125.31 65.98 123.94C65.98 123.04 66.16 122.23 66.52 121.5C66.88 120.77 67.4 120.2 68.06 119.8C68.72 119.4 69.5 119.19 70.38 119.19C71.75 119.19 72.84 119.7 73.64 120.72C74.44 121.74 74.85 123.11 74.85 124.82V125.46C74.85 127.92 74.3 129.79 73.19 131.08C72.08 132.37 70.43 133.02 68.23 133.04H67.96V131.16H68.29C69.63 131.14 70.66 130.82 71.37 130.19C72.09 129.56 72.49 128.6 72.58 127.29L72.57 127.3ZM70.38 126.73C70.84 126.73 71.26 126.6 71.66 126.34C72.06 126.08 72.37 125.72 72.58 125.26V124.37C72.58 123.37 72.37 122.56 71.96 121.95C71.55 121.34 71.02 121.03 70.36 121.03C69.7 121.03 69.18 121.3 68.79 121.84C68.4 122.38 68.21 123.06 68.21 123.88C68.21 124.7 68.41 125.42 68.8 125.95C69.19 126.47 69.72 126.74 70.37 126.74L70.38 126.73Z" fill="#3B28CC"/>
<path d="M85.88 127.26C85.88 129.22 85.51 130.69 84.78 131.69C84.05 132.69 82.93 133.18 81.44 133.18C79.95 133.18 78.86 132.7 78.12 131.73C77.37 130.76 76.99 129.33 76.97 127.42V125.06C76.97 123.1 77.34 121.64 78.07 120.66C78.8 119.68 79.92 119.19 81.42 119.19C82.92 119.19 84.02 119.67 84.75 120.62C85.48 121.57 85.86 123 85.88 124.9V127.26ZM83.61 124.72C83.61 123.44 83.44 122.51 83.09 121.91C82.74 121.31 82.19 121.02 81.43 121.02C80.67 121.02 80.14 121.3 79.79 121.87C79.44 122.43 79.26 123.31 79.24 124.51V127.59C79.24 128.86 79.42 129.81 79.77 130.43C80.13 131.05 80.68 131.36 81.44 131.36C82.2 131.36 82.71 131.07 83.06 130.49C83.41 129.91 83.59 129.01 83.61 127.78V124.7V124.72Z" fill="#3B28CC"/>
<path d="M87.8 122C87.8 121.18 88.06 120.5 88.59 119.98C89.12 119.45 89.81 119.19 90.67 119.19C91.53 119.19 92.24 119.45 92.77 119.98C93.3 120.51 93.56 121.2 93.56 122.05V122.72C93.56 123.54 93.3 124.21 92.77 124.73C92.24 125.25 91.55 125.52 90.69 125.52C89.83 125.52 89.15 125.26 88.61 124.75C88.06 124.24 87.79 123.54 87.79 122.67V122.01L87.8 122ZM89.39 122.72C89.39 123.15 89.51 123.5 89.75 123.76C89.99 124.02 90.31 124.16 90.7 124.16C91.09 124.16 91.4 124.03 91.63 123.76C91.87 123.49 91.99 123.13 91.99 122.68V122C91.99 121.57 91.87 121.22 91.63 120.95C91.39 120.68 91.07 120.55 90.68 120.55C90.29 120.55 89.97 120.69 89.74 120.96C89.51 121.23 89.39 121.59 89.39 122.03V122.72ZM91.17 131.98L90 131.31L96.65 120.67L97.82 121.34L91.17 131.98ZM94.35 129.66C94.35 128.83 94.62 128.15 95.16 127.63C95.7 127.11 96.39 126.85 97.24 126.85C98.09 126.85 98.78 127.11 99.32 127.63C99.86 128.15 100.13 128.85 100.13 129.72V130.38C100.13 131.19 99.87 131.86 99.35 132.38C98.83 132.91 98.13 133.17 97.26 133.17C96.39 133.17 95.68 132.91 95.15 132.39C94.62 131.87 94.35 131.18 94.35 130.33V129.65V129.66ZM95.94 130.38C95.94 130.8 96.06 131.15 96.31 131.42C96.56 131.69 96.87 131.83 97.26 131.83C97.65 131.83 97.97 131.7 98.2 131.44C98.43 131.18 98.54 130.82 98.54 130.35V129.65C98.54 129.21 98.42 128.86 98.18 128.6C97.94 128.34 97.63 128.21 97.24 128.21C96.85 128.21 96.54 128.34 96.3 128.6C96.06 128.86 95.94 129.22 95.94 129.68V130.37V130.38Z" fill="#3B28CC"/>
<path d="M308.45 120.64L303.01 132.99H300.63L306.06 121.2H299.02V119.38H308.45V120.64Z" fill="#3B28CC"/>
<path d="M319.14 127.26C319.14 129.22 318.77 130.69 318.04 131.69C317.31 132.69 316.19 133.18 314.7 133.18C313.21 133.18 312.12 132.7 311.38 131.73C310.63 130.76 310.25 129.33 310.23 127.42V125.06C310.23 123.1 310.6 121.64 311.33 120.66C312.06 119.68 313.18 119.19 314.68 119.19C316.18 119.19 317.28 119.67 318.01 120.62C318.74 121.57 319.12 123 319.14 124.9V127.26ZM316.87 124.72C316.87 123.44 316.7 122.51 316.35 121.91C316 121.31 315.45 121.02 314.69 121.02C313.93 121.02 313.4 121.3 313.05 121.87C312.7 122.43 312.52 123.31 312.5 124.51V127.59C312.5 128.86 312.68 129.81 313.03 130.43C313.39 131.05 313.94 131.36 314.7 131.36C315.46 131.36 315.97 131.07 316.32 130.49C316.67 129.91 316.85 129.01 316.87 127.78V124.7V124.72Z" fill="#3B28CC"/>
<path d="M321.06 122C321.06 121.18 321.32 120.5 321.85 119.98C322.38 119.45 323.07 119.19 323.93 119.19C324.79 119.19 325.5 119.45 326.03 119.98C326.56 120.51 326.82 121.2 326.82 122.05V122.72C326.82 123.54 326.56 124.21 326.03 124.73C325.5 125.25 324.81 125.52 323.95 125.52C323.09 125.52 322.41 125.26 321.87 124.75C321.32 124.24 321.05 123.54 321.05 122.67V122.01L321.06 122ZM322.65 122.72C322.65 123.15 322.77 123.5 323.01 123.76C323.25 124.02 323.57 124.16 323.96 124.16C324.35 124.16 324.66 124.03 324.89 123.76C325.13 123.49 325.25 123.13 325.25 122.68V122C325.25 121.57 325.13 121.22 324.89 120.95C324.65 120.68 324.33 120.55 323.94 120.55C323.55 120.55 323.23 120.69 323 120.96C322.77 121.23 322.65 121.59 322.65 122.03V122.72ZM324.43 131.98L323.26 131.31L329.91 120.67L331.08 121.34L324.43 131.98ZM327.61 129.66C327.61 128.83 327.88 128.15 328.42 127.63C328.96 127.11 329.65 126.85 330.5 126.85C331.35 126.85 332.04 127.11 332.58 127.63C333.12 128.15 333.39 128.85 333.39 129.72V130.38C333.39 131.19 333.13 131.86 332.61 132.38C332.09 132.91 331.39 133.17 330.52 133.17C329.65 133.17 328.94 132.91 328.41 132.39C327.88 131.87 327.61 131.18 327.61 130.33V129.65V129.66ZM329.2 130.38C329.2 130.8 329.32 131.15 329.57 131.42C329.82 131.69 330.13 131.83 330.52 131.83C330.91 131.83 331.23 131.7 331.46 131.44C331.69 131.18 331.8 130.82 331.8 130.35V129.65C331.8 129.21 331.68 128.86 331.44 128.6C331.2 128.34 330.89 128.21 330.5 128.21C330.11 128.21 329.8 128.34 329.56 128.6C329.32 128.86 329.2 129.22 329.2 129.68V130.37V130.38Z" fill="#3B28CC"/>
<path d="M316.75 89.84V78C291 78 270.09 98.5 269.33 124.07H281.17C281.92 105.05 297.54 89.84 316.75 89.84Z" fill="#DDF1FF"/>
<path d="M316.75 78V89.84C336.44 89.84 352.4 105.8 352.4 125.49C352.4 145.18 336.44 161.14 316.75 161.14C297.06 161.14 281.1 145.18 281.1 125.49C281.1 125.01 281.15 124.54 281.17 124.06H269.33C269.32 124.54 269.26 125 269.26 125.49C269.26 151.72 290.52 172.98 316.75 172.98C342.98 172.98 364.24 151.72 364.24 125.49C364.24 99.26 342.98 78 316.75 78Z" fill="#2667FF"/>
<path d="M191.72 122.97C191.72 123.64 191.55 124.23 191.21 124.75C190.87 125.27 190.4 125.68 189.81 125.98C190.52 126.31 191.07 126.76 191.45 127.34C191.83 127.91 192.03 128.56 192.03 129.28C192.03 130.48 191.62 131.43 190.81 132.13C190 132.83 188.92 133.18 187.57 133.18C186.22 133.18 185.13 132.83 184.32 132.12C183.51 131.41 183.1 130.47 183.1 129.28C183.1 128.55 183.29 127.9 183.68 127.32C184.07 126.74 184.61 126.3 185.31 125.98C184.72 125.68 184.26 125.27 183.92 124.75C183.58 124.23 183.41 123.64 183.41 122.97C183.41 121.81 183.78 120.89 184.53 120.21C185.28 119.53 186.29 119.19 187.56 119.19C188.83 119.19 189.85 119.53 190.6 120.21C191.35 120.89 191.72 121.81 191.72 122.97ZM189.75 129.17C189.75 128.5 189.55 127.95 189.15 127.54C188.75 127.13 188.22 126.92 187.56 126.92C186.9 126.92 186.37 127.13 185.98 127.54C185.58 127.95 185.39 128.5 185.39 129.18C185.39 129.86 185.59 130.38 185.97 130.78C186.36 131.18 186.9 131.38 187.58 131.38C188.26 131.38 188.8 131.19 189.18 130.8C189.56 130.41 189.76 129.88 189.76 129.18L189.75 129.17ZM189.46 123.06C189.46 122.47 189.29 121.98 188.95 121.6C188.61 121.22 188.15 121.02 187.57 121.02C186.99 121.02 186.53 121.2 186.19 121.57C185.85 121.94 185.69 122.43 185.69 123.06C185.69 123.69 185.86 124.18 186.2 124.55C186.54 124.92 187 125.1 187.58 125.1C188.16 125.1 188.62 124.92 188.96 124.55C189.3 124.18 189.47 123.69 189.47 123.06H189.46Z" fill="#3B28CC"/>
<path d="M202.9 127.26C202.9 129.22 202.53 130.69 201.8 131.69C201.07 132.69 199.95 133.18 198.46 133.18C196.97 133.18 195.88 132.7 195.14 131.73C194.39 130.76 194.01 129.33 193.99 127.42V125.06C193.99 123.1 194.36 121.64 195.09 120.66C195.82 119.68 196.94 119.19 198.44 119.19C199.94 119.19 201.04 119.67 201.77 120.62C202.5 121.57 202.88 123 202.9 124.9V127.26ZM200.63 124.72C200.63 123.44 200.46 122.51 200.11 121.91C199.76 121.31 199.21 121.02 198.45 121.02C197.69 121.02 197.16 121.3 196.81 121.87C196.46 122.43 196.28 123.31 196.26 124.51V127.59C196.26 128.86 196.44 129.81 196.79 130.43C197.15 131.05 197.7 131.36 198.46 131.36C199.22 131.36 199.73 131.07 200.08 130.49C200.43 129.91 200.61 129.01 200.63 127.78V124.7V124.72Z" fill="#3B28CC"/>
<path d="M204.81 122C204.81 121.18 205.07 120.5 205.6 119.98C206.13 119.45 206.82 119.19 207.68 119.19C208.54 119.19 209.25 119.45 209.78 119.98C210.31 120.51 210.57 121.2 210.57 122.05V122.72C210.57 123.54 210.31 124.21 209.78 124.73C209.25 125.25 208.56 125.52 207.7 125.52C206.84 125.52 206.16 125.26 205.62 124.75C205.07 124.24 204.8 123.54 204.8 122.67V122.01L204.81 122ZM206.4 122.72C206.4 123.15 206.52 123.5 206.76 123.76C207 124.02 207.32 124.16 207.71 124.16C208.1 124.16 208.41 124.03 208.64 123.76C208.88 123.49 209 123.13 209 122.68V122C209 121.57 208.88 121.22 208.64 120.95C208.4 120.68 208.08 120.55 207.69 120.55C207.3 120.55 206.98 120.69 206.75 120.96C206.52 121.23 206.4 121.59 206.4 122.03V122.72ZM208.18 131.98L207.01 131.31L213.66 120.67L214.83 121.34L208.18 131.98ZM211.36 129.66C211.36 128.83 211.63 128.15 212.17 127.63C212.71 127.11 213.4 126.85 214.25 126.85C215.1 126.85 215.79 127.11 216.33 127.63C216.87 128.15 217.14 128.85 217.14 129.72V130.38C217.14 131.19 216.88 131.86 216.36 132.38C215.84 132.91 215.14 133.17 214.27 133.17C213.4 133.17 212.69 132.91 212.16 132.39C211.63 131.87 211.36 131.18 211.36 130.33V129.65V129.66ZM212.95 130.38C212.95 130.8 213.07 131.15 213.32 131.42C213.57 131.69 213.88 131.83 214.27 131.83C214.66 131.83 214.98 131.7 215.21 131.44C215.44 131.18 215.55 130.82 215.55 130.35V129.65C215.55 129.21 215.43 128.86 215.19 128.6C214.95 128.34 214.64 128.21 214.25 128.21C213.86 128.21 213.55 128.34 213.31 128.6C213.07 128.86 212.95 129.22 212.95 129.68V130.37V130.38Z" fill="#3B28CC"/>
<path d="M200.5 89.84V78C181.94 78 165.9 88.68 158.09 104.21L168.73 109.37C174.62 97.79 186.62 89.83 200.5 89.83V89.84Z" fill="#DDF1FF"/>
<path d="M200.5 78V89.84C220.19 89.84 236.15 105.8 236.15 125.49C236.15 145.18 220.19 161.14 200.5 161.14C180.81 161.14 164.85 145.18 164.85 125.49C164.85 119.68 166.27 114.22 168.73 109.37L158.09 104.21C154.87 110.62 153.01 117.83 153.01 125.49C153.01 151.72 174.27 172.98 200.5 172.98C226.73 172.98 247.99 151.72 247.99 125.49C247.99 99.26 226.73 78 200.5 78Z" fill="#2667FF"/>
<path fillRule="evenodd" clipRule="evenodd" d="M83.49 89.84V78C109.72 78 130.99 99.25 130.99 125.48C130.99 151.71 109.73 172.97 83.5 172.97C73.34 172.97 63.95 169.76 56.23 164.33L64.23 155.46C69.78 159.04 76.39 161.14 83.49 161.14C103.18 161.14 119.14 145.18 119.14 125.49C119.14 105.8 103.18 89.84 83.49 89.84ZM56.22 164.34C44.01 155.74 36 141.56 36 125.49C36 108.85 44.57 94.22 57.52 85.75L62.82 96.46C53.75 102.92 47.83 112.91 47.83 125.5C47.83 138.09 54.37 149.13 64.22 155.47L56.22 164.34Z" fill="#2667FF"/>
<path d="M83.49 78C73.9 78 64.99 80.85 57.52 85.74L62.82 96.45C68.65 92.29 75.78 89.84 83.49 89.84V78Z" fill="#DDF1FF"/>
</g>
<defs>
<clipPath id="clip0_333_23">
<rect width="400" height="250" fill="white"/>
</clipPath>
</defs>
</svg>
