<svg xmlns="http://www.w3.org/2000/svg" width="400" height="250" viewBox="0 0 400 250" fill="none">
<g clip-path="url(#clip0_412_86)">
<rect width="400" height="250" fill="#FAFDFF"/>
<rect x="116" y="41" width="168" height="168" rx="15" fill="#FFFEFE"/>
<path fill-rule="evenodd" clip-rule="evenodd" d="M171.415 96.4096V111.527H185.974V96.4096H171.415ZM162.68 95.7282C162.68 91.3784 166.15 87.6743 170.647 87.6743H186.742C191.239 87.6743 194.709 91.3784 194.709 95.7282V112.209C194.709 116.559 191.239 120.263 186.742 120.263H170.647C166.15 120.263 162.68 116.559 162.68 112.209V95.7282Z" fill="#3F8EFC"/>
<path fill-rule="evenodd" clip-rule="evenodd" d="M213.769 96.4096V111.527H228.328V96.4096H213.769ZM205.034 95.7282C205.034 91.3784 208.504 87.6743 213.002 87.6743H229.096C233.593 87.6743 237.064 91.3784 237.064 95.7282V112.209C237.064 116.559 233.593 120.263 229.096 120.263H213.002C208.504 120.263 205.034 116.559 205.034 112.209V95.7282Z" fill="#3F8EFC"/>
<path fill-rule="evenodd" clip-rule="evenodd" d="M171.415 138.764V153.882H185.974V138.764H171.415ZM162.68 138.083C162.68 133.733 166.15 130.029 170.647 130.029H186.742C191.239 130.029 194.709 133.733 194.709 138.083V154.564C194.709 158.913 191.239 162.617 186.742 162.617H170.647C166.15 162.617 162.68 158.913 162.68 154.564V138.083Z" fill="#3F8EFC"/>
<path fill-rule="evenodd" clip-rule="evenodd" d="M205.244 158.251C205.244 155.839 207.2 153.883 209.612 153.883H232.906C235.318 153.883 237.274 155.839 237.274 158.251C237.274 160.663 235.318 162.618 232.906 162.618H209.612C207.2 162.618 205.244 160.663 205.244 158.251Z" fill="#3F8EFC"/>
<path fill-rule="evenodd" clip-rule="evenodd" d="M210.123 130.029C212.535 130.029 214.491 131.985 214.491 134.397V143.604C214.491 146.016 212.535 147.971 210.123 147.971C207.711 147.971 205.756 146.016 205.756 143.604V134.397C205.756 131.985 207.711 130.029 210.123 130.029Z" fill="#3F8EFC"/>
<path fill-rule="evenodd" clip-rule="evenodd" d="M220.297 135.735C220.297 133.323 222.253 131.367 224.665 131.367H236.312C238.724 131.367 240.68 133.323 240.68 135.735C240.68 138.147 238.724 140.102 236.312 140.102H224.665C222.253 140.102 220.297 138.147 220.297 135.735Z" fill="#3F8EFC"/>
<path fill-rule="evenodd" clip-rule="evenodd" d="M147.137 136.662C149.549 136.662 151.505 138.618 151.505 141.03V164.458C151.505 169.696 155.647 173.793 160.575 173.793H182.078C184.49 173.793 186.446 175.749 186.446 178.161C186.446 180.573 184.49 182.528 182.078 182.528H160.575C150.666 182.528 142.769 174.361 142.769 164.458V141.03C142.769 138.618 144.725 136.662 147.137 136.662Z" fill="#3F8EFC"/>
<path fill-rule="evenodd" clip-rule="evenodd" d="M252.904 136.662C255.317 136.662 257.272 138.618 257.272 141.03V164.458C257.272 174.404 249.26 182.528 239.301 182.528H217.963C215.551 182.528 213.596 180.573 213.596 178.161C213.596 175.749 215.551 173.793 217.963 173.793H239.301C244.373 173.793 248.537 169.642 248.537 164.458V141.03C248.537 138.618 250.492 136.662 252.904 136.662Z" fill="#3F8EFC"/>
<path fill-rule="evenodd" clip-rule="evenodd" d="M213.596 72.1369C213.596 69.7247 215.551 67.7693 217.963 67.7693H239.301C249.252 67.7693 257.272 75.8858 257.272 85.8397V108.021C257.272 110.434 255.317 112.389 252.904 112.389C250.492 112.389 248.537 110.434 248.537 108.021V85.8397C248.537 80.6523 244.37 76.5046 239.301 76.5046H217.963C215.551 76.5046 213.596 74.5491 213.596 72.1369Z" fill="#3F8EFC"/>
<path fill-rule="evenodd" clip-rule="evenodd" d="M160.575 76.5046C155.643 76.5046 151.505 80.6007 151.505 85.8397V109.268C151.505 111.68 149.549 113.635 147.137 113.635C144.725 113.635 142.769 111.68 142.769 109.268V85.8397C142.769 75.9375 150.659 67.7693 160.575 67.7693H182.078C184.49 67.7693 186.446 69.7247 186.446 72.1369C186.446 74.5491 184.49 76.5046 182.078 76.5046H160.575Z" fill="#3F8EFC"/>
</g>
<defs>
<clipPath id="clip0_412_86">
<rect width="400" height="250" fill="white"/>
</clipPath>
</defs>
</svg>