<svg width="400" height="250" fill="none" xmlns="http://www.w3.org/2000/svg"><path fill="#FAFDFF" d="M0 0h400v250H0z"/><g clipPath="url(#a)"><path d="M183.12 217.08H70.91c-4.92 0-8.91-4-8.91-8.91v-66.21c0-4.92 4-8.91 8.91-8.91h112.21c4.92 0 8.91 4 8.91 8.91v66.21c0 4.92-4 8.91-8.91 8.91zM70.91 137.04c-2.71 0-4.91 2.2-4.91 4.91v66.21c0 2.71 2.2 4.91 4.91 4.91h112.21c2.71 0 4.91-2.2 4.91-4.91v-66.21c0-2.71-2.2-4.91-4.91-4.91H70.91z" fill="#3F8EFC"/><path d="m108.89 200.49.96 1.95 2.14.31-1.55 1.51.37 2.13-1.92-1-1.92 1 .37-2.13-1.55-1.51 2.14-.31.96-1.95zM117.95 200.49l.96 1.95 2.15.31-1.55 1.51.36 2.13-1.92-1-1.91 1 .36-2.13-1.55-1.51 2.15-.31.95-1.95zM127.02 200.49l.96 1.95 2.14.31-1.55 1.51.37 2.13-1.92-1-1.92 1 .37-2.13-1.55-1.51 2.14-.31.96-1.95zM136.08 200.49l.96 1.95 2.15.31-1.56 1.51.37 2.13-1.92-1-1.91 1 .36-2.13-1.55-1.51 2.15-.31.95-1.95zM145.15 200.49l.96 1.95 2.14.31-1.55 1.51.37 2.13-1.92-1-1.92 1 .37-2.13-1.55-1.51 2.14-.31.96-1.95zM163.95 178.17H90.08a2.65 2.65 0 0 0-2.65 2.65v.01a2.65 2.65 0 0 0 2.65 2.65h73.87a2.65 2.65 0 0 0 2.65-2.65v-.01a2.65 2.65 0 0 0-2.65-2.65z" fill="#3B28CC"/><path d="M154.27 188.81h-54.5a1.26 1.26 0 1 0 0 2.52h54.5a1.26 1.26 0 1 0 0-2.52zM183.12 117.03H70.91c-4.92 0-8.91-4-8.91-8.91V41.91c0-4.92 4-8.91 8.91-8.91h112.21c4.92 0 8.91 4 8.91 8.91v66.21c0 4.92-4 8.91-8.91 8.91zM70.91 36.99c-2.71 0-4.91 2.2-4.91 4.91v66.21c0 2.71 2.2 4.91 4.91 4.91h112.21c2.71 0 4.91-2.2 4.91-4.91V41.9c0-2.71-2.2-4.91-4.91-4.91H70.91z" fill="#3F8EFC"/><path d="m108.89 100.44.96 1.95 2.14.31-1.55 1.51.37 2.13-1.92-1-1.92 1 .37-2.13-1.55-1.51 2.14-.31.96-1.95zM117.95 100.44l.96 1.95 2.15.31-1.55 1.51.36 2.13-1.92-1-1.91 1 .36-2.13-1.55-1.51 2.15-.31.95-1.95zM127.02 100.44l.96 1.95 2.14.31-1.55 1.51.37 2.13-1.92-1-1.92 1 .37-2.13-1.55-1.51 2.14-.31.96-1.95zM136.08 100.44l.96 1.95 2.15.31-1.56 1.51.37 2.13-1.92-1-1.91 1 .36-2.13-1.55-1.51 2.15-.31.95-1.95zM145.15 100.44l.96 1.95 2.14.31-1.55 1.51.37 2.13-1.92-1-1.92 1 .37-2.13-1.55-1.51 2.14-.31.96-1.95zM163.95 78.12H90.08a2.65 2.65 0 0 0-2.65 2.65v.01a2.65 2.65 0 0 0 2.65 2.65h73.87a2.65 2.65 0 0 0 2.65-2.65v-.01a2.65 2.65 0 0 0-2.65-2.65z" fill="#3B28CC"/><path d="M154.27 88.76h-54.5a1.26 1.26 0 1 0 0 2.52h54.5a1.26 1.26 0 1 0 0-2.52z" fill="#3F8EFC"/><path fillRule="evenodd" clipRule="evenodd" d="M138.772 61.302a12.778 12.778 0 0 0 1.068-5.132c0-7.08-5.74-12.82-12.82-12.82s-12.82 5.74-12.82 12.82c0 1.676.322 3.277.906 4.744l4.704-5.904c.54-.68 1.27-1.05 2.05-1.05.78 0 1.51.38 2.05 1.06l4.29 5.41c.15.19.32.29.47.3.15.02.35-.13.45-.24l2.61-3.22c.58-.64 1.26-.96 2.02-.94.75.02 1.45.39 1.97 1.03l3.052 3.942zm-1.036 1.907L134.17 58.6c-.13-.17-.3-.27-.46-.27-.18.03-.34.13-.45.24l-2.61 3.22c-.58.64-1.29.96-2.03.94-.75-.02-1.46-.4-1.98-1.06l-4.29-5.41c-.15-.19-.33-.3-.49-.3-.16 0-.33.11-.48.3l-5.281 6.628a12.812 12.812 0 0 0 10.921 6.102c4.481 0 8.424-2.299 10.716-5.781zM132.5 52.67a2 2 0 1 1-.001-3.999 2 2 0 0 1 .001 3.999zM283.572 61.302a12.778 12.778 0 0 0 1.068-5.132c0-7.08-5.74-12.82-12.82-12.82S259 49.09 259 56.17c0 1.676.322 3.277.906 4.744l4.704-5.904c.54-.68 1.27-1.05 2.05-1.05.78 0 1.51.38 2.05 1.06l4.29 5.41c.15.19.32.29.47.3.15.02.35-.13.45-.24l2.61-3.22c.58-.64 1.26-.96 2.02-.94.75.02 1.45.39 1.97 1.03l3.052 3.942zm-1.036 1.907L278.97 58.6c-.13-.17-.3-.27-.46-.27-.18.03-.34.13-.45.24l-2.61 3.22c-.58.64-1.29.96-2.03.94-.75-.02-1.46-.4-1.98-1.06l-4.29-5.41c-.15-.19-.33-.3-.49-.3-.16 0-.33.11-.48.3l-5.281 6.628a12.812 12.812 0 0 0 10.921 6.102c4.481 0 8.424-2.299 10.716-5.781zM277.3 52.67a2 2 0 1 1-.001-3.999 2 2 0 0 1 .001 3.999zM283.572 160.952a12.781 12.781 0 0 0 1.068-5.132c0-7.08-5.74-12.82-12.82-12.82S259 148.74 259 155.82a12.8 12.8 0 0 0 .906 4.744l4.704-5.904c.54-.68 1.27-1.05 2.05-1.05.78 0 1.51.38 2.05 1.06l4.29 5.41c.15.19.32.29.47.3.15.02.35-.13.45-.24l2.61-3.22c.58-.64 1.26-.96 2.02-.94.75.02 1.45.39 1.97 1.03l3.052 3.942zm-1.036 1.907-3.566-4.609c-.13-.17-.3-.27-.46-.27-.18.03-.34.13-.45.24l-2.61 3.22c-.58.64-1.29.96-2.03.94-.75-.02-1.46-.4-1.98-1.06l-4.29-5.41c-.15-.19-.33-.3-.49-.3-.16 0-.33.11-.48.3l-5.281 6.628a12.81 12.81 0 0 0 10.921 6.102c4.481 0 8.424-2.299 10.716-5.781zM277.3 152.32a2 2 0 1 1-.001-3.999 2 2 0 0 1 .001 3.999zM138.572 160.952a12.781 12.781 0 0 0 1.068-5.132c0-7.08-5.74-12.82-12.82-12.82S114 148.74 114 155.82a12.8 12.8 0 0 0 .906 4.744l4.704-5.904c.54-.68 1.27-1.05 2.05-1.05.78 0 1.51.38 2.05 1.06l4.29 5.41c.15.19.32.29.47.3.15.02.35-.13.45-.24l2.61-3.22c.58-.64 1.26-.96 2.02-.94.75.02 1.45.39 1.97 1.03l3.052 3.942zm-1.036 1.907-3.566-4.609c-.13-.17-.3-.27-.46-.27-.18.03-.34.13-.45.24l-2.61 3.22c-.58.64-1.29.96-2.03.94-.75-.02-1.46-.4-1.98-1.06l-4.29-5.41c-.15-.19-.33-.3-.49-.3-.16 0-.33.11-.48.3l-5.281 6.628a12.81 12.81 0 0 0 10.921 6.102c4.481 0 8.424-2.299 10.716-5.781zM132.3 152.32a2 2 0 1 1-.001-3.999 2 2 0 0 1 .001 3.999z" fill="#3F8EFC"/><path d="M328.12 217.08H215.91c-4.92 0-8.91-4-8.91-8.91v-66.21c0-4.92 4-8.91 8.91-8.91h112.21c4.92 0 8.91 4 8.91 8.91v66.21c0 4.92-4 8.91-8.91 8.91zm-112.21-80.04c-2.71 0-4.91 2.2-4.91 4.91v66.21c0 2.71 2.2 4.91 4.91 4.91h112.21c2.71 0 4.91-2.2 4.91-4.91v-66.21c0-2.71-2.2-4.91-4.91-4.91H215.91z" fill="#3F8EFC"/><path d="m253.89 200.49.96 1.95 2.14.31-1.55 1.51.37 2.13-1.92-1-1.92 1 .37-2.13-1.55-1.51 2.14-.31.96-1.95zM262.95 200.49l.96 1.95 2.15.31-1.55 1.51.36 2.13-1.92-1-1.91 1 .36-2.13-1.55-1.51 2.15-.31.95-1.95zM272.02 200.49l.96 1.95 2.14.31-1.55 1.51.37 2.13-1.92-1-1.92 1 .37-2.13-1.55-1.51 2.14-.31.96-1.95zM281.08 200.49l.96 1.95 2.15.31-1.56 1.51.37 2.13-1.92-1-1.91 1 .36-2.13-1.55-1.51 2.15-.31.95-1.95zM290.15 200.49l.96 1.95 2.14.31-1.55 1.51.37 2.13-1.92-1-1.92 1 .37-2.13-1.55-1.51 2.14-.31.96-1.95zM308.95 178.17h-73.87a2.65 2.65 0 0 0-2.65 2.65v.01a2.65 2.65 0 0 0 2.65 2.65h73.87a2.65 2.65 0 0 0 2.65-2.65v-.01a2.65 2.65 0 0 0-2.65-2.65z" fill="#3B28CC"/><path d="M299.27 188.81h-54.5a1.26 1.26 0 1 0 0 2.52h54.5a1.26 1.26 0 1 0 0-2.52zM328.12 117.03H215.91c-4.92 0-8.91-4-8.91-8.91V41.91c0-4.92 4-8.91 8.91-8.91h112.21c4.92 0 8.91 4 8.91 8.91v66.21c0 4.92-4 8.91-8.91 8.91zM215.91 36.99c-2.71 0-4.91 2.2-4.91 4.91v66.21c0 2.71 2.2 4.91 4.91 4.91h112.21c2.71 0 4.91-2.2 4.91-4.91V41.9c0-2.71-2.2-4.91-4.91-4.91H215.91z" fill="#3F8EFC"/><path d="m253.89 100.44.96 1.95 2.14.31-1.55 1.51.37 2.13-1.92-1-1.92 1 .37-2.13-1.55-1.51 2.14-.31.96-1.95zM262.95 100.44l.96 1.95 2.15.31-1.55 1.51.36 2.13-1.92-1-1.91 1 .36-2.13-1.55-1.51 2.15-.31.95-1.95zM272.02 100.44l.96 1.95 2.14.31-1.55 1.51.37 2.13-1.92-1-1.92 1 .37-2.13-1.55-1.51 2.14-.31.96-1.95zM281.08 100.44l.96 1.95 2.15.31-1.56 1.51.37 2.13-1.92-1-1.91 1 .36-2.13-1.55-1.51 2.15-.31.95-1.95zM290.15 100.44l.96 1.95 2.14.31-1.55 1.51.37 2.13-1.92-1-1.92 1 .37-2.13-1.55-1.51 2.14-.31.96-1.95zM308.95 78.12h-73.87a2.65 2.65 0 0 0-2.65 2.65v.01a2.65 2.65 0 0 0 2.65 2.65h73.87a2.65 2.65 0 0 0 2.65-2.65v-.01a2.65 2.65 0 0 0-2.65-2.65z" fill="#3B28CC"/><path d="M299.27 88.76h-54.5a1.26 1.26 0 1 0 0 2.52h54.5a1.26 1.26 0 1 0 0-2.52z" fill="#3F8EFC"/></g><defs><clipPath id="a"><path fill="#fff" transform="translate(62 33)" d="M0 0h275v184.08H0z"/></clipPath></defs></svg>