<svg width="400" height="250" fill="none" xmlns="http://www.w3.org/2000/svg"><path fill="#FAFDFF" d="M0 0h400v250H0z"/><g clipPath="url(#a)"><path d="m204.55 72.99 1.94 3.91 4.32.63-3.13 3.05.74 4.31-3.87-2.03-3.86 2.03.73-4.31-3.12-3.05 4.32-.63 1.93-3.91zM222.84 72.99l1.94 3.91 4.32.63-3.13 3.05.74 4.31-3.87-2.03-3.87 2.03.74-4.31-3.13-3.05 4.33-.63 1.93-3.91zM241.13 72.99l1.93 3.91 4.33.63-3.13 3.05.74 4.31-3.87-2.03-3.87 2.03.74-4.31-3.13-3.05 4.33-.63 1.93-3.91zM259.42 72.99l1.93 3.91 4.33.63-3.13 3.05.74 4.31-3.87-2.03-3.87 2.03.74-4.31-3.13-3.05 4.33-.63 1.93-3.91zM277.71 72.99l1.93 3.91 4.33.63-3.13 3.05.74 4.31-3.87-2.03-3.87 2.03.74-4.31-3.13-3.05 4.32-.63 1.94-3.91z" fill="#3B28CC"/><path d="M342.5 111.25H200.22a2.667 2.667 0 0 0-2.67 2.665 2.667 2.667 0 0 0 2.67 2.665H342.5a2.667 2.667 0 0 0 2.67-2.665 2.667 2.667 0 0 0-2.67-2.665z" fill="#3F8EFC"/><path d="M274.93 130.99h-76.08c-.718 0-1.3.58-1.3 1.295s.582 1.295 1.3 1.295h76.08c.718 0 1.3-.58 1.3-1.295s-.582-1.295-1.3-1.295z" fill="#3B28CC"/><path d="M244.86 165.43h-46.33a.978.978 0 0 0-.98.975c0 .538.439.975.98.975h46.33c.541 0 .98-.437.98-.975a.978.978 0 0 0-.98-.975z" fill="#3F8EFC"/><path fillRule="evenodd" clipRule="evenodd" d="M166.093 154.665c-10.224 17.578-29.263 29.395-51.063 29.395-22.488 0-42.04-12.575-52.005-31.077L87.73 121.98c1.06-1.32 2.35-2.05 3.65-2.05 1.3.01 2.6.74 3.65 2.07l19.73 24.91c2.06 2.6 4.81 4.08 7.75 4.18 2.89.1 5.65-1.16 7.8-3.54.03-.04.09-.11.09-.11l12.14-14.93c1.02-1.11 2.25-1.68 3.4-1.65 1.24.03 2.49.74 3.47 1.95L166 154.5a.808.808 0 0 1 .093.165zm2.901-5.673L153.78 129.35c-2.06-2.54-4.8-3.99-7.71-4.07-2.88-.08-5.62 1.18-7.75 3.54-.03.04-.09.11-.09.11l-12.14 14.93c-1.03 1.12-2.19 1.7-3.42 1.65-1.26-.04-2.52-.77-3.54-2.06L99.4 118.54c-2.13-2.7-4.99-4.19-8.03-4.19h-.01c-3.04 0-5.88 1.48-8.02 4.16l-22.973 28.842A58.857 58.857 0 0 1 56 125.03C56 92.429 82.429 66 115.03 66s59.03 26.429 59.03 59.03c0 8.531-1.81 16.639-5.066 23.962z" fill="#3F8EFC"/><path d="M139.27 115.47c-4.09 0-7.42-3.33-7.42-7.42s3.33-7.42 7.42-7.42 7.42 3.33 7.42 7.42-3.33 7.42-7.42 7.42zm0-9.25a1.83 1.83 0 1 0 .002 3.662 1.83 1.83 0 0 0-.002-3.662z" fill="#fff"/></g><defs><clipPath id="a"><path fill="#fff" transform="translate(56 66)" d="M0 0h289.17v118.06H0z"/></clipPath></defs></svg>