<svg width="400" height="250" fill="none" xmlns="http://www.w3.org/2000/svg"><path fill="#FAFDFF" d="M0 0h400v250H0z"/><g clipPath="url(#a)"><path d="M255.95 73h-110.1a5.648 5.648 0 0 0-5.65 5.645 5.648 5.648 0 0 0 5.65 5.645h110.1a5.647 5.647 0 0 0 5.65-5.645A5.647 5.647 0 0 0 255.95 73z" fill="#3B28CC"/><path d="M287.54 110.5H115.25a2.32 2.32 0 0 0-2.32 2.32v.01a2.32 2.32 0 0 0 2.32 2.32h172.29a2.32 2.32 0 0 0 2.32-2.32v-.01a2.32 2.32 0 0 0-2.32-2.32z" fill="#3F8EFC"/><path d="M333.669 125c-.415 0-.829-.152-1.161-.473a1.69 1.69 0 0 1-.033-2.383l10.53-11.052-10.182-10.19a1.725 1.725 0 0 1-.016-2.4 1.649 1.649 0 0 1 2.354-.016l11.343 11.356c.647.659.664 1.724.034 2.383l-11.675 12.268a1.668 1.668 0 0 1-1.194.507zM64.331 98c.415 0 .83.152 1.16.473a1.69 1.69 0 0 1 .034 2.383l-10.53 11.052 10.182 10.19c.647.659.663 1.723.016 2.399a1.65 1.65 0 0 1-2.354.017l-11.343-11.356c-.647-.659-.664-1.724-.034-2.383l11.675-12.268A1.668 1.668 0 0 1 64.331 98z" fill="#3B28CC"/><path d="M224.71 140.64h-46.63a3.04 3.04 0 0 0-3.04 3.04v9.41a3.04 3.04 0 0 0 3.04 3.04h46.63a3.04 3.04 0 0 0 3.04-3.04v-9.41a3.04 3.04 0 0 0-3.04-3.04z" fill="#3F8EFC"/><path d="M212.16 149.98h-21.53c-.61 0-1.11-.5-1.11-1.11 0-.61.5-1.11 1.11-1.11h21.53c.61 0 1.11.5 1.11 1.11 0 .61-.5 1.11-1.11 1.11z" fill="#fff"/><path d="M200.96 181.36a2.68 2.68 0 1 0 0-5.36 2.68 2.68 0 0 0 0 5.36z" fill="#3B28CC"/><path d="M190.26 180.82a2.14 2.14 0 1 0 0-4.28 2.14 2.14 0 0 0 0 4.28zM211.67 180.82a2.14 2.14 0 1 0 0-4.28 2.14 2.14 0 0 0 0 4.28z" fill="#3F8EFC"/></g><defs><clipPath id="a"><path fill="#fff" transform="translate(51 69)" d="M0 0h297.22v112.36H0z"/></clipPath></defs></svg>