<svg width="400" height="250" viewBox="0 0 400 250" fill="none" xmlns="http://www.w3.org/2000/svg">
<rect width="400" height="250" fill="#FAFDFF"/>
<g clip-path="url(#clip0_27_138)">
<path d="M106.44 95H53.56C51.5939 95 50 96.5939 50 98.56V151.44C50 153.406 51.5939 155 53.56 155H106.44C108.406 155 110 153.406 110 151.44V98.56C110 96.5939 108.406 95 106.44 95Z" fill="#3B28CC"/>
<path d="M82 140H77.2C76.4 140 75.74 139.35 75.74 138.54V127.7H72.94C72.14 127.7 71.48 127.05 71.48 126.24V121.6C71.48 120.8 72.13 120.14 72.94 120.14H75.74V117.81C75.74 115.5 76.46 113.54 77.83 112.14C79.21 110.73 81.13 109.98 83.39 109.98H87.05C87.85 109.98 88.5 110.64 88.5 111.44V115.75C88.5 116.55 87.85 117.21 87.05 117.21H84.58C83.83 117.21 83.64 117.36 83.6 117.41C83.53 117.49 83.45 117.7 83.45 118.3V120.14H86.86C87.12 120.14 87.37 120.2 87.58 120.32C88.04 120.58 88.33 121.07 88.33 121.59V126.23C88.33 127.03 87.68 127.68 86.87 127.68H83.44V138.52C83.44 139.32 82.79 139.98 81.98 139.98L82 140ZM77.5 138.24H81.7V126.92C81.7 126.38 82.14 125.95 82.67 125.95H86.58V121.91H82.67C82.13 121.91 81.7 121.47 81.7 120.94V118.32C81.7 117.63 81.77 116.85 82.29 116.26C82.92 115.55 83.9 115.47 84.59 115.47H86.75V111.76H83.39C79.76 111.76 77.5 114.08 77.5 117.83V120.94C77.5 121.48 77.06 121.91 76.53 121.91H73.24V125.95H76.53C77.07 125.95 77.5 126.39 77.5 126.92V138.24Z" fill="white"/>
<path d="M266.38 95H213.5C211.534 95 209.94 96.5939 209.94 98.56V151.44C209.94 153.406 211.534 155 213.5 155H266.38C268.346 155 269.94 153.406 269.94 151.44V98.56C269.94 96.5939 268.346 95 266.38 95Z" fill="#3B28CC"/>
<path d="M246.82 110H233.06C228.58 110 224.94 113.64 224.94 118.12V131.88C224.94 136.36 228.58 140 233.06 140H246.82C251.3 140 254.94 136.36 254.94 131.88V118.12C254.94 113.64 251.3 110 246.82 110ZM253.18 131.88C253.18 135.39 250.33 138.24 246.82 138.24H233.06C229.55 138.24 226.7 135.39 226.7 131.88V118.12C226.7 114.61 229.55 111.76 233.06 111.76H246.82C250.33 111.76 253.18 114.61 253.18 118.12V131.88Z" fill="white"/>
<path d="M239.94 116.8C235.42 116.8 231.74 120.48 231.74 125C231.74 129.52 235.42 133.2 239.94 133.2C244.46 133.2 248.14 129.52 248.14 125C248.14 120.48 244.46 116.8 239.94 116.8ZM239.94 131.45C236.39 131.45 233.5 128.56 233.5 125.01C233.5 121.46 236.39 118.57 239.94 118.57C243.49 118.57 246.38 121.46 246.38 125.01C246.38 128.56 243.49 131.45 239.94 131.45Z" fill="white"/>
<path d="M248.34 113.88C247 113.88 245.92 114.97 245.92 116.3C245.92 117.63 247.01 118.72 248.34 118.72C249.67 118.72 250.76 117.63 250.76 116.3C250.76 114.97 249.67 113.88 248.34 113.88ZM248.34 116.97C247.97 116.97 247.67 116.67 247.67 116.3C247.67 115.93 247.97 115.63 248.34 115.63C248.71 115.63 249.01 115.93 249.01 116.3C249.01 116.67 248.71 116.97 248.34 116.97Z" fill="white"/>
<path d="M186.41 95H133.53C131.564 95 129.97 96.5939 129.97 98.56V151.44C129.97 153.406 131.564 155 133.53 155H186.41C188.376 155 189.97 153.406 189.97 151.44V98.56C189.97 96.5939 188.376 95 186.41 95Z" fill="#3F8EFC"/>
<path d="M162.76 122.7L173.69 110H171.1L161.61 121.03L154.03 110H145.29L156.75 126.68L145.29 140H147.88L157.9 128.35L165.9 140H174.64L162.75 122.7H162.76ZM159.21 126.82L158.05 125.16L148.81 111.94H152.79L160.25 122.61L161.41 124.27L171.1 138.13H167.12L159.21 126.82Z" fill="white"/>
<path d="M346.36 95H293.48C291.514 95 289.92 96.5939 289.92 98.56V151.44C289.92 153.406 291.514 155 293.48 155H346.36C348.326 155 349.92 153.406 349.92 151.44V98.56C349.92 96.5939 348.326 95 346.36 95Z" fill="#3F8EFC"/>
<path d="M307.93 108.42C306.78 108.42 305.73 108.84 304.94 109.63C304.1 110.47 303.68 111.52 303.68 112.62C303.68 113.72 304.15 114.82 304.94 115.61C305.73 116.4 306.83 116.87 307.88 116.82H307.98C309.03 116.82 310.03 116.4 310.81 115.61C311.59 114.82 312.07 113.77 312.07 112.62C312.12 111.52 311.65 110.47 310.86 109.68C310.07 108.84 309.02 108.42 307.92 108.42H307.93ZM310.08 114.87C309.5 115.45 308.72 115.81 307.88 115.76C307.09 115.76 306.25 115.45 305.68 114.87C305.05 114.29 304.74 113.45 304.74 112.61C304.74 111.77 305.05 110.98 305.68 110.35C306.26 109.77 307.04 109.46 307.94 109.46C308.73 109.46 309.51 109.77 310.09 110.35C310.72 110.98 311.03 111.77 311.03 112.61C311.03 113.45 310.72 114.29 310.09 114.87H310.08Z" fill="white" stroke="white" stroke-width="0.5" stroke-linecap="round" stroke-linejoin="round"/>
<path d="M309.979 118.5H305.729C304.889 118.5 304.209 119.18 304.209 120.07V138.43C304.209 139.27 304.939 140 305.779 140H309.979C310.819 140 311.549 139.27 311.549 138.48V120.06C311.549 119.22 310.819 118.49 309.979 118.49V118.5ZM310.499 138.49C310.499 138.75 310.239 138.96 309.979 138.96H305.779C305.519 138.96 305.259 138.7 305.259 138.44V120.08C305.259 119.82 305.469 119.56 305.729 119.56H309.979C310.239 119.56 310.499 119.82 310.499 120.08V138.5V138.49Z" fill="white" stroke="white" stroke-width="0.5" stroke-linecap="round" stroke-linejoin="round"/>
<path d="M327.82 117.98H326.72C324.67 117.98 322.73 118.87 321.47 120.29V119.56C321.47 119.04 320.95 118.51 320.42 118.51H315.17C314.7 118.51 314.12 118.93 314.12 119.51V139.08C314.12 139.66 314.7 140.02 315.17 140.02H320.94C321.41 140.02 321.99 139.65 321.99 139.08V127.75C321.99 126.02 323.25 124.65 324.88 124.65C325.72 124.65 326.51 124.96 327.08 125.54C327.6 126.01 327.81 126.75 327.81 127.69V138.97C327.81 139.49 328.33 140.02 328.86 140.02H334.11C334.63 140.02 335.16 139.5 335.16 138.97V125.43C335.16 121.23 331.96 117.98 327.81 117.98H327.82ZM334.12 138.91L334.07 138.96H328.93L328.88 127.68C328.88 126.42 328.57 125.48 327.88 124.79C327.09 124 326.04 123.58 324.94 123.58C322.74 123.63 321.01 125.42 321.01 127.72V138.95H315.24V119.54H320.43L320.48 119.59V122.9L321.9 121.48L321.95 121.43C323 119.96 324.84 119.02 326.78 119.02H327.88C331.4 119.02 334.12 121.85 334.12 125.42V138.9V138.91Z" fill="white" stroke="white" stroke-width="0.5" stroke-linecap="round" stroke-linejoin="round"/>
</g>
<defs>
<clipPath id="clip0_27_138">
<rect width="299.92" height="60" fill="white" transform="translate(50 95)"/>
</clipPath>
</defs>
</svg>
