<svg width="400" height="250" fill="none" xmlns="http://www.w3.org/2000/svg"><path fill="#FAFDFF" d="M0 0h400v250H0z"/><g clipPath="url(#a)"><path d="M280.86 95H119.15a2.93 2.93 0 0 0 0 5.86h161.71a2.93 2.93 0 0 0 0-5.86z" fill="#3F8EFC"/><path d="m110.34 126.49 4.74 9.61 10.6 1.54-7.67 7.48 1.81 10.55-9.48-4.98-9.48 4.98 1.81-10.55-7.67-7.48 10.6-1.54 4.74-9.61zM155.17 126.49l4.74 9.61 10.6 1.54-7.67 7.48 1.82 10.55-9.49-4.98-9.48 4.98 1.81-10.55-7.67-7.48 10.6-1.54 4.74-9.61zM200.01 126.49l4.74 9.61 10.6 1.54-7.67 7.48 1.81 10.55-9.48-4.98-9.48 4.98 1.81-10.55-7.67-7.48 10.6-1.54 4.74-9.61zM244.84 126.49l4.74 9.61 10.6 1.54-7.67 7.48 1.81 10.55-9.48-4.98-9.48 4.98 1.81-10.55-7.67-7.48 10.6-1.54 4.74-9.61zM289.68 126.49l4.74 9.61 10.6 1.54-7.67 7.48 1.81 10.55-9.48-4.98-9.48 4.98 1.81-10.55-7.67-7.48 10.6-1.54 4.74-9.61z" fill="#3B28CC"/></g><defs><clipPath id="a"><path fill="#fff" transform="translate(95 95)" d="M0 0h210.02v60.67H0z"/></clipPath></defs></svg>