<svg width="400" height="250" viewBox="0 0 400 250" fill="none" xmlns="http://www.w3.org/2000/svg">
<g clipPath="url(#clip0_232_23)">
<rect width="400" height="250" fill="#FAFDFF"/>
<path d="M176.36 50.48H94.3V77.67H176.36V50.48Z" fill="#3B28CC"/>
<path fillRule="evenodd" clipRule="evenodd" d="M96.75 51C95.7846 51 95 51.7837 95 52.75V77.21H249.51V52.75C249.51 51.7846 248.726 51 247.76 51H96.75ZM87 52.75C87 47.3563 91.3754 43 96.75 43H247.76C253.154 43 257.51 47.3754 257.51 52.75V85.21H87V52.75Z" fill="#3B28CC"/>
<path fillRule="evenodd" clipRule="evenodd" d="M87 77.21H303.83C309.224 77.21 313.58 81.5854 313.58 86.96V196.54C313.58 201.934 309.205 206.29 303.83 206.29H96.75C91.3563 206.29 87 201.915 87 196.54V77.21ZM95 85.21V196.54C95 197.505 95.7837 198.29 96.75 198.29H303.83C304.795 198.29 305.58 197.506 305.58 196.54V86.96C305.58 85.9946 304.796 85.21 303.83 85.21H95Z" fill="#3B28CC"/>
<path fillRule="evenodd" clipRule="evenodd" d="M121.44 129.02C121.44 126.811 123.231 125.02 125.44 125.02H246.24C248.449 125.02 250.24 126.811 250.24 129.02C250.24 131.229 248.449 133.02 246.24 133.02H125.44C123.231 133.02 121.44 131.229 121.44 129.02Z" fill="#DDF1FF"/>
<path fillRule="evenodd" clipRule="evenodd" d="M121.44 156.2C121.44 153.991 123.231 152.2 125.44 152.2H210.74C212.949 152.2 214.74 153.991 214.74 156.2C214.74 158.409 212.949 160.2 210.74 160.2H125.44C123.231 160.2 121.44 158.409 121.44 156.2Z" fill="#DDF1FF"/>
<path fillRule="evenodd" clipRule="evenodd" d="M196.25 64.19C196.25 61.9809 198.041 60.19 200.25 60.19H227.18C229.389 60.19 231.18 61.9809 231.18 64.19C231.18 66.3991 229.389 68.19 227.18 68.19H200.25C198.041 68.19 196.25 66.3991 196.25 64.19Z" fill="#DDF1FF"/>
<path fillRule="evenodd" clipRule="evenodd" d="M116.26 64.19C116.26 61.9809 118.051 60.19 120.26 60.19H152.89C155.099 60.19 156.89 61.9809 156.89 64.19C156.89 66.3991 155.099 68.19 152.89 68.19H120.26C118.051 68.19 116.26 66.3991 116.26 64.19Z" fill="white"/>
</g>
<defs>
<clipPath id="clip0_232_23">
<rect width="400" height="250" fill="white"/>
</clipPath>
</defs>
</svg>
