<svg width="400" height="250" viewBox="0 0 400 250" fill="none" xmlns="http://www.w3.org/2000/svg">
<g clip-path="url(#clip0_425_171)">
<rect width="400" height="250" fill="#FAFDFF"/>
<path fill-rule="evenodd" clip-rule="evenodd" d="M40.588 64.24C39.2912 64.24 38.24 65.2912 38.24 66.588V90.811C38.24 92.1078 39.2912 93.159 40.588 93.159H106.033C107.33 93.159 108.381 92.1078 108.381 90.811V66.588C108.381 65.2912 107.33 64.24 106.033 64.24H40.588ZM36 66.588C36 64.0541 38.0541 62 40.588 62H106.033C108.567 62 110.621 64.0541 110.621 66.588V90.811C110.621 93.3449 108.567 95.399 106.033 95.399H40.588C38.0541 95.399 36 93.3449 36 90.811V66.588Z" fill="#2667FF"/>
<path fill-rule="evenodd" clip-rule="evenodd" d="M45.353 78.7C45.353 78.0814 45.8545 77.58 46.473 77.58H71.087C71.7056 77.58 72.207 78.0814 72.207 78.7C72.207 79.3185 71.7056 79.82 71.087 79.82H46.473C45.8545 79.82 45.353 79.3185 45.353 78.7Z" fill="#DDF1FF"/>
<path fill-rule="evenodd" clip-rule="evenodd" d="M86.215 73.0551C86.215 72.4365 86.7164 71.9351 87.335 71.9351H98.625C99.2435 71.9351 99.745 72.4365 99.745 73.0551V84.3451C99.745 84.9636 99.2435 85.4651 98.625 85.4651H87.335C86.7164 85.4651 86.215 84.9636 86.215 84.3451V73.0551ZM88.455 74.1751V83.2251H97.505V74.1751H88.455Z" fill="#DDF1FF"/>
<path fill-rule="evenodd" clip-rule="evenodd" d="M210.075 64.24C208.778 64.24 207.727 65.2912 207.727 66.588V90.811C207.727 92.1078 208.778 93.159 210.075 93.159H275.52C276.817 93.159 277.868 92.1078 277.868 90.811V66.588C277.868 65.2912 276.817 64.24 275.52 64.24H210.075ZM205.487 66.588C205.487 64.0541 207.541 62 210.075 62H275.52C278.054 62 280.108 64.0541 280.108 66.588V90.811C280.108 93.3449 278.054 95.399 275.52 95.399H210.075C207.541 95.399 205.487 93.3449 205.487 90.811V66.588Z" fill="#2667FF"/>
<path fill-rule="evenodd" clip-rule="evenodd" d="M214.841 78.7C214.841 78.0814 215.342 77.58 215.961 77.58H240.575C241.194 77.58 241.695 78.0814 241.695 78.7C241.695 79.3185 241.194 79.82 240.575 79.82H215.961C215.342 79.82 214.841 79.3185 214.841 78.7Z" fill="#DDF1FF"/>
<path fill-rule="evenodd" clip-rule="evenodd" d="M255.703 73.0551C255.703 72.4365 256.204 71.9351 256.823 71.9351H268.113C268.732 71.9351 269.233 72.4365 269.233 73.0551V84.3451C269.233 84.9636 268.732 85.4651 268.113 85.4651H256.823C256.204 85.4651 255.703 84.9636 255.703 84.3451V73.0551ZM257.943 74.1751V83.2251H266.993V74.1751H257.943Z" fill="#DDF1FF"/>
<path fill-rule="evenodd" clip-rule="evenodd" d="M40.588 110.615C39.2912 110.615 38.24 111.666 38.24 112.963V137.186C38.24 138.483 39.2912 139.534 40.588 139.534H106.033C107.33 139.534 108.381 138.483 108.381 137.186V112.963C108.381 111.666 107.33 110.615 106.033 110.615H40.588ZM36 112.963C36 110.429 38.0541 108.375 40.588 108.375H106.033C108.567 108.375 110.621 110.429 110.621 112.963V137.186C110.621 139.72 108.567 141.774 106.033 141.774H40.588C38.0541 141.774 36 139.72 36 137.186V112.963Z" fill="#DDF1FF"/>
<path fill-rule="evenodd" clip-rule="evenodd" d="M45.353 125.075C45.353 124.456 45.8545 123.955 46.473 123.955H71.087C71.7056 123.955 72.207 124.456 72.207 125.075C72.207 125.694 71.7056 126.195 71.087 126.195H46.473C45.8545 126.195 45.353 125.694 45.353 125.075Z" fill="#2667FF"/>
<path fill-rule="evenodd" clip-rule="evenodd" d="M86.215 119.43C86.215 118.811 86.7164 118.31 87.335 118.31H98.625C99.2435 118.31 99.745 118.811 99.745 119.43V130.72C99.745 131.339 99.2435 131.84 98.625 131.84H87.335C86.7164 131.84 86.215 131.339 86.215 130.72V119.43ZM88.455 120.55V129.6H97.505V120.55H88.455Z" fill="#2667FF"/>
<path fill-rule="evenodd" clip-rule="evenodd" d="M130.097 78.7C130.097 78.0814 130.598 77.58 131.217 77.58H155.831C156.45 77.58 156.951 78.0814 156.951 78.7C156.951 79.3185 156.45 79.82 155.831 79.82H131.217C130.598 79.82 130.097 79.3185 130.097 78.7Z" fill="#2667FF"/>
<path fill-rule="evenodd" clip-rule="evenodd" d="M130.097 125.075C130.097 124.456 130.598 123.955 131.217 123.955H155.831C156.45 123.955 156.951 124.456 156.951 125.075C156.951 125.694 156.45 126.195 155.831 126.195H131.217C130.598 126.195 130.097 125.694 130.097 125.075Z" fill="#DDF1FF"/>
<path fill-rule="evenodd" clip-rule="evenodd" d="M125.332 64.24C124.035 64.24 122.984 65.2912 122.984 66.588V90.811C122.984 92.1078 124.035 93.159 125.332 93.159H190.777C192.074 93.159 193.125 92.1078 193.125 90.811V66.588C193.125 65.2912 192.074 64.24 190.777 64.24H125.332ZM120.744 66.588C120.744 64.0541 122.798 62 125.332 62H190.777C193.311 62 195.365 64.0541 195.365 66.588V90.811C195.365 93.3449 193.311 95.399 190.777 95.399H125.332C122.798 95.399 120.744 93.3449 120.744 90.811V66.588Z" fill="#DDF1FF"/>
<path fill-rule="evenodd" clip-rule="evenodd" d="M170.959 73.0551C170.959 72.4365 171.46 71.9351 172.079 71.9351H183.369C183.988 71.9351 184.489 72.4365 184.489 73.0551V84.3451C184.489 84.9636 183.988 85.4651 183.369 85.4651H172.079C171.46 85.4651 170.959 84.9636 170.959 84.3451V73.0551ZM173.199 74.1751V83.2251H182.249V74.1751H173.199Z" fill="#2667FF"/>
<path fill-rule="evenodd" clip-rule="evenodd" d="M125.332 110.615C124.035 110.615 122.984 111.666 122.984 112.963V137.186C122.984 138.483 124.035 139.534 125.332 139.534H190.777C192.074 139.534 193.125 138.483 193.125 137.186V112.963C193.125 111.666 192.074 110.615 190.777 110.615H125.332ZM120.744 112.963C120.744 110.429 122.798 108.375 125.332 108.375H190.777C193.311 108.375 195.365 110.429 195.365 112.963V137.186C195.365 139.72 193.311 141.774 190.777 141.774H125.332C122.798 141.774 120.744 139.72 120.744 137.186V112.963Z" fill="#2667FF"/>
<path fill-rule="evenodd" clip-rule="evenodd" d="M170.959 119.43C170.959 118.811 171.46 118.31 172.079 118.31H183.369C183.988 118.31 184.489 118.811 184.489 119.43V130.72C184.489 131.339 183.988 131.84 183.369 131.84H172.079C171.46 131.84 170.959 131.339 170.959 130.72V119.43ZM173.199 120.55V129.6H182.249V120.55H173.199Z" fill="#DDF1FF"/>
<path fill-rule="evenodd" clip-rule="evenodd" d="M299.584 125.075C299.584 124.456 300.085 123.955 300.704 123.955H325.318C325.937 123.955 326.438 124.456 326.438 125.075C326.438 125.694 325.937 126.195 325.318 126.195H300.704C300.085 126.195 299.584 125.694 299.584 125.075Z" fill="#DDF1FF"/>
<path fill-rule="evenodd" clip-rule="evenodd" d="M40.588 156.99C39.2912 156.99 38.24 158.041 38.24 159.338V183.561C38.24 184.858 39.2912 185.909 40.588 185.909H106.033C107.33 185.909 108.381 184.858 108.381 183.561V159.338C108.381 158.041 107.33 156.99 106.033 156.99H40.588ZM36 159.338C36 156.804 38.0541 154.75 40.588 154.75H106.033C108.567 154.75 110.621 156.804 110.621 159.338V183.561C110.621 186.095 108.567 188.149 106.033 188.149H40.588C38.0541 188.149 36 186.095 36 183.561V159.338Z" fill="#2667FF"/>
<path fill-rule="evenodd" clip-rule="evenodd" d="M45.353 171.45C45.353 170.831 45.8545 170.33 46.473 170.33H71.087C71.7056 170.33 72.207 170.831 72.207 171.45C72.207 172.069 71.7056 172.57 71.087 172.57H46.473C45.8545 172.57 45.353 172.069 45.353 171.45Z" fill="#DDF1FF"/>
<path fill-rule="evenodd" clip-rule="evenodd" d="M86.215 165.805C86.215 165.186 86.7164 164.685 87.335 164.685H98.625C99.2435 164.685 99.745 165.186 99.745 165.805V177.095C99.745 177.713 99.2435 178.215 98.625 178.215H87.335C86.7164 178.215 86.215 177.713 86.215 177.095V165.805ZM88.455 166.925V175.975H97.505V166.925H88.455Z" fill="#DDF1FF"/>
<path fill-rule="evenodd" clip-rule="evenodd" d="M130.097 171.45C130.097 170.831 130.598 170.33 131.217 170.33H155.831C156.45 170.33 156.951 170.831 156.951 171.45C156.951 172.069 156.45 172.57 155.831 172.57H131.217C130.598 172.57 130.097 172.069 130.097 171.45Z" fill="#2667FF"/>
<path fill-rule="evenodd" clip-rule="evenodd" d="M125.332 156.99C124.035 156.99 122.984 158.041 122.984 159.338V183.561C122.984 184.858 124.035 185.909 125.332 185.909H190.777C192.074 185.909 193.125 184.858 193.125 183.561V159.338C193.125 158.041 192.074 156.99 190.777 156.99H125.332ZM120.744 159.338C120.744 156.804 122.798 154.75 125.332 154.75H190.777C193.311 154.75 195.365 156.804 195.365 159.338V183.561C195.365 186.095 193.311 188.149 190.777 188.149H125.332C122.798 188.149 120.744 186.095 120.744 183.561V159.338Z" fill="#DDF1FF"/>
<path fill-rule="evenodd" clip-rule="evenodd" d="M170.959 165.805C170.959 165.186 171.46 164.685 172.079 164.685H183.369C183.988 164.685 184.489 165.186 184.489 165.805V177.095C184.489 177.713 183.988 178.215 183.369 178.215H172.079C171.46 178.215 170.959 177.713 170.959 177.095V165.805ZM173.199 166.925V175.975H182.249V166.925H173.199Z" fill="#2667FF"/>
<path fill-rule="evenodd" clip-rule="evenodd" d="M294.819 110.615C293.522 110.615 292.471 111.666 292.471 112.963V137.186C292.471 138.483 293.522 139.534 294.819 139.534H360.264C361.561 139.534 362.612 138.483 362.612 137.186V112.963C362.612 111.666 361.561 110.615 360.264 110.615H294.819ZM290.231 112.963C290.231 110.429 292.285 108.375 294.819 108.375H360.264C362.798 108.375 364.852 110.429 364.852 112.963V137.186C364.852 139.72 362.798 141.774 360.264 141.774H294.819C292.285 141.774 290.231 139.72 290.231 137.186V112.963Z" fill="#2667FF"/>
<path fill-rule="evenodd" clip-rule="evenodd" d="M340.447 119.43C340.447 118.811 340.948 118.31 341.567 118.31H352.857C353.476 118.31 353.977 118.811 353.977 119.43V130.72C353.977 131.339 353.476 131.84 352.857 131.84H341.567C340.948 131.84 340.447 131.339 340.447 130.72V119.43ZM342.687 120.55V129.6H351.737V120.55H342.687Z" fill="#DDF1FF"/>
<path fill-rule="evenodd" clip-rule="evenodd" d="M210.075 110.615C208.778 110.615 207.727 111.666 207.727 112.963V137.186C207.727 138.483 208.778 139.534 210.075 139.534H275.52C276.817 139.534 277.868 138.483 277.868 137.186V112.963C277.868 111.666 276.817 110.615 275.52 110.615H210.075ZM205.487 112.963C205.487 110.429 207.541 108.375 210.075 108.375H275.52C278.054 108.375 280.108 110.429 280.108 112.963V137.186C280.108 139.72 278.054 141.774 275.52 141.774H210.075C207.541 141.774 205.487 139.72 205.487 137.186V112.963Z" fill="#DDF1FF"/>
<path fill-rule="evenodd" clip-rule="evenodd" d="M214.841 125.075C214.841 124.456 215.342 123.955 215.961 123.955H240.575C241.194 123.955 241.695 124.456 241.695 125.075C241.695 125.694 241.194 126.195 240.575 126.195H215.961C215.342 126.195 214.841 125.694 214.841 125.075Z" fill="#2667FF"/>
<path fill-rule="evenodd" clip-rule="evenodd" d="M255.703 119.43C255.703 118.811 256.204 118.31 256.823 118.31H268.113C268.732 118.31 269.233 118.811 269.233 119.43V130.72C269.233 131.339 268.732 131.84 268.113 131.84H256.823C256.204 131.84 255.703 131.339 255.703 130.72V119.43ZM257.943 120.55V129.6H266.993V120.55H257.943Z" fill="#2667FF"/>
</g>
<defs>
<clipPath id="clip0_425_171">
<rect width="400" height="250" fill="white"/>
</clipPath>
</defs>
</svg>
