<svg width="400" height="250" fill="none" xmlns="http://www.w3.org/2000/svg"><path fill="#FAFDFF" d="M0 0h400v250H0z"/><g clipPath="url(#a)"><path fillRule="evenodd" clipRule="evenodd" d="M55.17 58.2a2.97 2.97 0 0 0-2.97 2.97v127.25a2.97 2.97 0 0 0 2.97 2.97h74.84a2.97 2.97 0 0 0 2.97-2.97V61.17a2.97 2.97 0 0 0-2.97-2.97H55.17zM48 61.17A7.17 7.17 0 0 1 55.17 54h74.84a7.17 7.17 0 0 1 7.17 7.17v127.25a7.17 7.17 0 0 1-7.17 7.17H55.17a7.17 7.17 0 0 1-7.17-7.17V61.17z" fill="#3F8EFC"/><path d="M64.23 180.2h-1.15c-.19 0-.35-.16-.35-.35v-2.59h-.67c-.19 0-.35-.16-.35-.35v-1.11c0-.19.16-.35.35-.35h.67v-.56c0-.55.17-1.02.5-1.35.33-.34.79-.52 1.33-.52h.87c.19 0 .35.16.35.35v1.03c0 .19-.16.35-.35.35h-.59c-.18 0-.23.04-.24.05-.02.02-.04.07-.04.21v.44h.82c.06 0 .12.02.17.04.11.06.18.18.18.3v1.11c0 .19-.16.35-.35.35h-.82v2.59c0 .19-.16.35-.35.35l.02.01zm-1.07-.42h1v-2.7c0-.13.1-.23.23-.23h.93v-.96h-.93c-.13 0-.23-.1-.23-.23v-.63c0-.16.02-.35.14-.49.15-.17.39-.19.55-.19h.52v-.88h-.8c-.87 0-1.41.55-1.41 1.45v.74c0 .13-.1.23-.23.23h-.78v.96h.78c.13 0 .23.1.23.23v2.7zM87.5 176.13l2.41-2.8h-.57l-2.09 2.43-1.67-2.43h-1.93l2.53 3.68-2.53 2.94h.57l2.21-2.57 1.77 2.57h1.93l-2.62-3.82h-.01zm-.78.91-.26-.37-2.04-2.92h.88l1.65 2.35.26.37 2.14 3.06h-.88l-1.75-2.5v.01zM76.72 173.3h-3.05c-.99 0-1.8.81-1.8 1.8v3.05c0 .99.81 1.8 1.8 1.8h3.05c.99 0 1.8-.81 1.8-1.8v-3.05c0-.99-.81-1.8-1.8-1.8zm1.41 4.85c0 .78-.63 1.41-1.41 1.41h-3.05c-.78 0-1.41-.63-1.41-1.41v-3.05c0-.78.63-1.41 1.41-1.41h3.05c.78 0 1.41.63 1.41 1.41v3.05z" fill="#3B28CC"/><path d="M75.2 174.81c-1 0-1.82.82-1.82 1.82s.82 1.82 1.82 1.82 1.82-.82 1.82-1.82-.82-1.82-1.82-1.82zm0 3.25a1.43 1.43 0 1 1 0-2.86 1.43 1.43 0 0 1 0 2.86zM77.06 174.16c-.3 0-.54.24-.54.54 0 .3.24.54.54.54.3 0 .54-.24.54-.54 0-.3-.24-.54-.54-.54zm0 .68c-.08 0-.15-.07-.15-.15 0-.08.07-.15.15-.15.08 0 .15.07.15.15 0 .08-.07.15-.15.15zM121.38 116.12H64.76c-1.06 0-1.92.857-1.92 1.915s.86 1.915 1.92 1.915h56.62c1.06 0 1.92-.857 1.92-1.915s-.86-1.915-1.92-1.915z" fill="#3B28CC"/><path d="M111.02 125.47H75.14a1.16 1.16 0 1 0 0 2.32h35.88a1.16 1.16 0 1 0 0-2.32zM121.79 142.82H64.35a.887.887 0 0 0-.89.885c0 .489.398.885.89.885h57.44c.491 0 .89-.396.89-.885a.888.888 0 0 0-.89-.885zM112.68 148.84H73.47a.887.887 0 0 0-.89.885c0 .489.398.885.89.885h39.21c.492 0 .89-.396.89-.885a.887.887 0 0 0-.89-.885z" fill="#3F8EFC"/><path d="M122.56 168.13h-10.3a2.5 2.5 0 0 0-2.5 2.5v10.3a2.5 2.5 0 0 0 2.5 2.5h10.3a2.5 2.5 0 0 0 2.5-2.5v-10.3a2.5 2.5 0 0 0-2.5-2.5z" fill="#3B28CC"/><path fillRule="evenodd" clipRule="evenodd" d="M118.974 172.837a.63.63 0 0 1 .879.147l1.85 2.59a.63.63 0 0 1-.052.796l-2.11 2.26a.63.63 0 0 1-.921-.86l1.758-1.883-1.55-2.171a.63.63 0 0 1 .146-.879z" fill="#fff"/><path fillRule="evenodd" clipRule="evenodd" d="M113 175.93a.63.63 0 0 1 .63-.63h7.46a.63.63 0 1 1 0 1.26h-7.46a.63.63 0 0 1-.63-.63z" fill="#fff"/><path fillRule="evenodd" clipRule="evenodd" d="M162.17 58.2a2.97 2.97 0 0 0-2.97 2.97v127.25a2.97 2.97 0 0 0 2.97 2.97h74.84a2.97 2.97 0 0 0 2.97-2.97V61.17a2.97 2.97 0 0 0-2.97-2.97h-74.84zM155 61.17a7.17 7.17 0 0 1 7.17-7.17h74.84a7.17 7.17 0 0 1 7.17 7.17v127.25a7.17 7.17 0 0 1-7.17 7.17h-74.84a7.17 7.17 0 0 1-7.17-7.17V61.17z" fill="#3F8EFC"/><path d="M171.23 180.2h-1.15c-.19 0-.35-.16-.35-.35v-2.59h-.67c-.19 0-.35-.16-.35-.35v-1.11c0-.19.16-.35.35-.35h.67v-.56c0-.55.17-1.02.5-1.35.33-.34.79-.52 1.33-.52h.87c.19 0 .35.16.35.35v1.03c0 .19-.16.35-.35.35h-.59c-.18 0-.23.04-.24.05-.02.02-.04.07-.04.21v.44h.82c.06 0 .12.02.17.04.11.06.18.18.18.3v1.11c0 .19-.16.35-.35.35h-.82v2.59c0 .19-.16.35-.35.35l.02.01zm-1.07-.42h1v-2.7c0-.13.1-.23.23-.23h.93v-.96h-.93c-.13 0-.23-.1-.23-.23v-.63c0-.16.02-.35.14-.49.15-.17.39-.19.55-.19h.52v-.88h-.8c-.87 0-1.41.55-1.41 1.45v.74c0 .13-.1.23-.23.23h-.78v.96h.78c.13 0 .23.1.23.23v2.7zM194.5 176.13l2.41-2.8h-.57l-2.09 2.43-1.67-2.43h-1.93l2.53 3.68-2.53 2.94h.57l2.21-2.57 1.77 2.57h1.93l-2.62-3.82h-.01zm-.78.91-.26-.37-2.04-2.92h.88l1.65 2.35.26.37 2.14 3.06h-.88l-1.75-2.5v.01zM183.72 173.3h-3.05c-.99 0-1.8.81-1.8 1.8v3.05c0 .99.81 1.8 1.8 1.8h3.05c.99 0 1.8-.81 1.8-1.8v-3.05c0-.99-.81-1.8-1.8-1.8zm1.41 4.85c0 .78-.63 1.41-1.41 1.41h-3.05c-.78 0-1.41-.63-1.41-1.41v-3.05c0-.78.63-1.41 1.41-1.41h3.05c.78 0 1.41.63 1.41 1.41v3.05z" fill="#3B28CC"/><path d="M182.2 174.81c-1 0-1.82.82-1.82 1.82s.82 1.82 1.82 1.82 1.82-.82 1.82-1.82-.82-1.82-1.82-1.82zm0 3.25a1.43 1.43 0 1 1 0-2.86 1.43 1.43 0 0 1 0 2.86zM184.06 174.16c-.3 0-.54.24-.54.54 0 .3.24.54.54.54.3 0 .54-.24.54-.54 0-.3-.24-.54-.54-.54zm0 .68c-.08 0-.15-.07-.15-.15 0-.08.07-.15.15-.15.08 0 .15.07.15.15 0 .08-.07.15-.15.15zM228.38 116.12h-56.62c-1.061 0-1.92.857-1.92 1.915s.859 1.915 1.92 1.915h56.62c1.06 0 1.92-.857 1.92-1.915s-.86-1.915-1.92-1.915z" fill="#3B28CC"/><path d="M218.02 125.47h-35.88a1.16 1.16 0 1 0 0 2.32h35.88a1.16 1.16 0 1 0 0-2.32zM228.79 142.82h-57.44a.887.887 0 0 0-.89.885c0 .489.398.885.89.885h57.44c.491 0 .89-.396.89-.885a.888.888 0 0 0-.89-.885zM219.68 148.84h-39.21a.888.888 0 0 0-.89.885c0 .489.399.885.89.885h39.21c.492 0 .89-.396.89-.885a.887.887 0 0 0-.89-.885z" fill="#3F8EFC"/><path d="M229.56 168.13h-10.3a2.5 2.5 0 0 0-2.5 2.5v10.3a2.5 2.5 0 0 0 2.5 2.5h10.3a2.5 2.5 0 0 0 2.5-2.5v-10.3a2.5 2.5 0 0 0-2.5-2.5z" fill="#3B28CC"/><path fillRule="evenodd" clipRule="evenodd" d="M225.974 172.837a.63.63 0 0 1 .879.147l1.85 2.59a.63.63 0 0 1-.052.796l-2.11 2.26a.63.63 0 0 1-.921-.86l1.758-1.883-1.55-2.171a.63.63 0 0 1 .146-.879z" fill="#fff"/><path fillRule="evenodd" clipRule="evenodd" d="M220 175.93a.63.63 0 0 1 .63-.63h7.46a.63.63 0 1 1 0 1.26h-7.46a.63.63 0 0 1-.63-.63z" fill="#fff"/><path fillRule="evenodd" clipRule="evenodd" d="M270.17 58.2a2.97 2.97 0 0 0-2.97 2.97v127.25a2.97 2.97 0 0 0 2.97 2.97h74.84a2.97 2.97 0 0 0 2.97-2.97V61.17a2.97 2.97 0 0 0-2.97-2.97h-74.84zM263 61.17a7.17 7.17 0 0 1 7.17-7.17h74.84a7.17 7.17 0 0 1 7.17 7.17v127.25a7.17 7.17 0 0 1-7.17 7.17h-74.84a7.17 7.17 0 0 1-7.17-7.17V61.17z" fill="#3F8EFC"/><path d="M279.23 180.2h-1.15c-.19 0-.35-.16-.35-.35v-2.59h-.67c-.19 0-.35-.16-.35-.35v-1.11c0-.19.16-.35.35-.35h.67v-.56c0-.55.17-1.02.5-1.35.33-.34.79-.52 1.33-.52h.87c.19 0 .35.16.35.35v1.03c0 .19-.16.35-.35.35h-.59c-.18 0-.23.04-.24.05-.02.02-.04.07-.04.21v.44h.82c.06 0 .12.02.17.04.11.06.18.18.18.3v1.11c0 .19-.16.35-.35.35h-.82v2.59c0 .19-.16.35-.35.35l.02.01zm-1.07-.42h1v-2.7c0-.13.1-.23.23-.23h.93v-.96h-.93c-.13 0-.23-.1-.23-.23v-.63c0-.16.02-.35.14-.49.15-.17.39-.19.55-.19h.52v-.88h-.8c-.87 0-1.41.55-1.41 1.45v.74c0 .13-.1.23-.23.23h-.78v.96h.78c.13 0 .23.1.23.23v2.7zM302.5 176.13l2.41-2.8h-.57l-2.09 2.43-1.67-2.43h-1.93l2.53 3.68-2.53 2.94h.57l2.21-2.57 1.77 2.57h1.93l-2.62-3.82h-.01zm-.78.91-.26-.37-2.04-2.92h.88l1.65 2.35.26.37 2.14 3.06h-.88l-1.75-2.5v.01zM291.72 173.3h-3.05c-.99 0-1.8.81-1.8 1.8v3.05c0 .99.81 1.8 1.8 1.8h3.05c.99 0 1.8-.81 1.8-1.8v-3.05c0-.99-.81-1.8-1.8-1.8zm1.41 4.85c0 .78-.63 1.41-1.41 1.41h-3.05c-.78 0-1.41-.63-1.41-1.41v-3.05c0-.78.63-1.41 1.41-1.41h3.05c.78 0 1.41.63 1.41 1.41v3.05z" fill="#3B28CC"/><path d="M290.2 174.81c-1 0-1.82.82-1.82 1.82s.82 1.82 1.82 1.82 1.82-.82 1.82-1.82-.82-1.82-1.82-1.82zm0 3.25a1.43 1.43 0 1 1 0-2.86 1.43 1.43 0 0 1 0 2.86zM292.06 174.16c-.3 0-.54.24-.54.54 0 .3.24.54.54.54.3 0 .54-.24.54-.54 0-.3-.24-.54-.54-.54zm0 .68c-.08 0-.15-.07-.15-.15 0-.08.07-.15.15-.15.08 0 .15.07.15.15 0 .08-.07.15-.15.15zM336.38 116.12h-56.62c-1.061 0-1.92.857-1.92 1.915s.859 1.915 1.92 1.915h56.62c1.06 0 1.92-.857 1.92-1.915s-.86-1.915-1.92-1.915z" fill="#3B28CC"/><path d="M326.02 125.47h-35.88a1.16 1.16 0 1 0 0 2.32h35.88a1.16 1.16 0 1 0 0-2.32zM336.79 142.82h-57.44a.887.887 0 0 0-.89.885c0 .489.398.885.89.885h57.44c.491 0 .89-.396.89-.885a.888.888 0 0 0-.89-.885zM327.68 148.84h-39.21a.888.888 0 0 0-.89.885c0 .489.399.885.89.885h39.21c.492 0 .89-.396.89-.885a.887.887 0 0 0-.89-.885z" fill="#3F8EFC"/><path d="M337.56 168.13h-10.3a2.5 2.5 0 0 0-2.5 2.5v10.3a2.5 2.5 0 0 0 2.5 2.5h10.3a2.5 2.5 0 0 0 2.5-2.5v-10.3a2.5 2.5 0 0 0-2.5-2.5z" fill="#3B28CC"/><path fillRule="evenodd" clipRule="evenodd" d="M333.974 172.837a.63.63 0 0 1 .879.147l1.85 2.59a.63.63 0 0 1-.052.796l-2.11 2.26a.63.63 0 0 1-.921-.86l1.758-1.883-1.55-2.171a.63.63 0 0 1 .146-.879z" fill="#fff"/><path fillRule="evenodd" clipRule="evenodd" d="M328 175.93a.63.63 0 0 1 .63-.63h7.46a.63.63 0 1 1 0 1.26h-7.46a.63.63 0 0 1-.63-.63z" fill="#fff"/><path fillRule="evenodd" clipRule="evenodd" d="M110.05 92.26a17.441 17.441 0 0 0 1.459-7.006c0-9.665-7.835-17.5-17.5-17.5s-17.5 7.835-17.5 17.5c0 2.288.439 4.473 1.237 6.476l6.42-8.06c.737-.927 1.734-1.432 2.799-1.432 1.064 0 2.06.518 2.798 1.447l5.856 7.385c.205.259.437.395.642.41.204.026.477-.178.614-.329l3.563-4.395c.791-.874 1.72-1.31 2.757-1.283 1.024.027 1.979.532 2.689 1.406l4.166 5.38zm-1.413 2.603-4.869-6.291c-.177-.233-.409-.37-.628-.37a1.17 1.17 0 0 0-.614.329l-3.563 4.395c-.791.874-1.76 1.31-2.77 1.283-1.025-.027-1.994-.546-2.703-1.447l-5.857-7.385c-.204-.26-.45-.41-.668-.41-.219 0-.45.15-.656.41l-7.208 9.048c3.081 4.998 8.606 8.329 14.908 8.329 6.116 0 11.499-3.137 14.628-7.89zm-7.148-14.386a2.73 2.73 0 0 1-2.73-2.73 2.738 2.738 0 0 1 2.73-2.73 2.738 2.738 0 0 1 2.73 2.73 2.738 2.738 0 0 1-2.73 2.73zM323.542 92.26A17.44 17.44 0 0 0 325 85.254c0-9.665-7.835-17.5-17.5-17.5S290 75.59 290 85.254c0 2.288.439 4.473 1.237 6.476l6.42-8.06c.738-.927 1.734-1.432 2.799-1.432s2.061.518 2.798 1.447l5.856 7.385c.205.259.437.395.642.41.205.026.478-.178.614-.329l3.563-4.395c.792-.874 1.72-1.31 2.757-1.283 1.024.027 1.98.532 2.689 1.406l4.167 5.38zm-1.414 2.603-4.868-6.291c-.178-.233-.41-.37-.628-.37a1.173 1.173 0 0 0-.615.329l-3.562 4.395c-.792.874-1.761 1.31-2.771 1.283-1.024-.027-1.993-.546-2.703-1.447l-5.856-7.385c-.205-.26-.451-.41-.669-.41-.219 0-.451.15-.655.41l-7.209 9.048c3.082 4.998 8.606 8.329 14.908 8.329 6.116 0 11.5-3.137 14.628-7.89zm-7.148-14.386a2.73 2.73 0 1 1 2.73-2.73 2.738 2.738 0 0 1-2.73 2.73zM216.542 92.26A17.44 17.44 0 0 0 218 85.254c0-9.665-7.835-17.5-17.5-17.5S183 75.59 183 85.254c0 2.288.439 4.473 1.237 6.476l6.42-8.06c.738-.927 1.734-1.432 2.799-1.432s2.061.518 2.798 1.447l5.856 7.385c.205.259.437.395.642.41.205.026.478-.178.614-.329l3.563-4.395c.792-.874 1.72-1.31 2.757-1.283 1.024.027 1.98.532 2.689 1.406l4.167 5.38zm-1.414 2.603-4.868-6.291c-.178-.233-.41-.37-.628-.37a1.173 1.173 0 0 0-.615.329l-3.562 4.395c-.792.874-1.761 1.31-2.771 1.283-1.024-.027-1.993-.546-2.703-1.447l-5.856-7.385c-.205-.26-.451-.41-.669-.41-.219 0-.451.15-.655.41l-7.209 9.048c3.082 4.998 8.606 8.329 14.908 8.329 6.116 0 11.5-3.137 14.628-7.89zm-7.148-14.386a2.73 2.73 0 1 1 2.73-2.73 2.738 2.738 0 0 1-2.73 2.73z" fill="#3F8EFC"/></g><defs><clipPath id="a"><path fill="#fff" transform="translate(48 54)" d="M0 0h303.9v141.58H0z"/></clipPath></defs></svg>