<svg width="400" height="250" fill="none" xmlns="http://www.w3.org/2000/svg"><g clip-path="url(#a)"><path fill="#FAFDFF" d="M0 0h400v250H0z"/><path d="M111.718 164.113c-17.59 0-51.495-5.031-62.633-42.075a1.999 1.999 0 1 1 3.83-1.152c13.462 44.774 62.962 39.404 68.562 38.645a56.545 56.545 0 0 0 10.147-2.366c14.637-4.852 66.228-21.874 115.612-37.24 30.549-9.19 50.857 1.885 62.519 12.796 12.555 11.748 17.837 25.462 18.056 26.04a1.998 1.998 0 0 1-1.161 2.577 1.999 1.999 0 0 1-2.579-1.16c-.051-.134-5.23-13.528-17.153-24.635-15.83-14.745-35.513-18.715-58.511-11.793-49.334 15.35-100.896 32.363-115.523 37.212a60.34 60.34 0 0 1-10.868 2.532c-1.354.184-5.118.619-10.298.619z" fill="#DDF1FF"/><path d="M347.122 138.521a3.998 3.998 0 0 1-3.491-2.042c-.116-.203-4.513-7.874-12.812-16.701a3.999 3.999 0 0 1 .174-5.654 3.998 3.998 0 0 1 5.654.174c9.082 9.66 13.763 17.917 13.958 18.264a4 4 0 0 1-3.483 5.959zm-221.235-5.122c-3.291 0-6.621-.201-9.899-.599a4 4 0 0 1-3.49-4.451c.265-2.193 2.258-3.772 4.451-3.49 2.961.358 5.968.54 8.938.54 3.86 0 6.574-.312 7.46-.431l3.562-1.234a4 4 0 1 1 2.613 7.561l-3.627 1.258c-.34.118-.66.197-.963.245l.004.024c-.146.023-3.613.577-9.049.577zm46.452-13.487a4.001 4.001 0 0 1-3.791-2.729 3.998 3.998 0 0 1 2.521-5.063 4145.015 4145.015 0 0 1 20.911-6.952 4 4 0 1 1 2.504 7.598 4421.558 4421.558 0 0 0-20.872 6.938 3.983 3.983 0 0 1-1.272.209l-.001-.001zm-88.987-.092c-.847 0-1.7-.268-2.425-.821a66.787 66.787 0 0 1-11.516-11.268 4.002 4.002 0 0 1 .614-5.624 4.002 4.002 0 0 1 5.624.614 58.805 58.805 0 0 0 10.133 9.92 3.999 3.999 0 0 1-2.43 7.178v.001zm144.144-17.97a4.002 4.002 0 0 1-3.81-2.785 3.998 3.998 0 0 1 2.595-5.026 3019.02 3019.02 0 0 1 20.363-6.417l.785-.224a4 4 0 0 1 2.139 7.71l-.623.175a3157.028 3157.028 0 0 0-20.232 6.377c-.404.129-.814.19-1.217.19zm77.524-2.225a3.985 3.985 0 0 1-1.721-.392c-6.392-3.05-13.061-5.165-19.821-6.284a4 4 0 0 1-3.293-4.6 3.988 3.988 0 0 1 4.6-3.293c7.502 1.241 14.892 3.582 21.962 6.958a4 4 0 0 1-1.726 7.61l-.001.001z" fill="#2667FF"/></g><defs><clipPath id="a"><path fill="#fff" d="M0 0h400v250H0z"/></clipPath></defs></svg>