<svg width="400" height="250" fill="none" xmlns="http://www.w3.org/2000/svg"><g clipPath="url(#a)"><path fill="#FAFDFF" d="M0 0h400v250H0z"/><path fillRule="evenodd" clipRule="evenodd" d="M121.18 98.93a5.18 5.18 0 0 0-5.18 5.18v78.11a5.18 5.18 0 0 0 5.18 5.18h158.21a5.18 5.18 0 0 0 5.18-5.18v-78.11a5.18 5.18 0 0 0-5.18-5.18H121.18zM108 104.11c0-7.28 5.901-13.18 13.18-13.18h158.21c7.279 0 13.18 5.9 13.18 13.18v78.11c0 7.279-5.901 13.18-13.18 13.18H121.18c-7.279 0-13.18-5.901-13.18-13.18v-78.11zM110.56 58a4 4 0 0 1 4-4h54.36a4 4 0 0 1 0 8h-54.36a4 4 0 0 1-4-4z" fill="#3B28CC"/><path fillRule="evenodd" clipRule="evenodd" d="M131.13 118.67c0-.895.725-1.62 1.62-1.62h130.89a1.62 1.62 0 1 1 0 3.24H132.75a1.62 1.62 0 0 1-1.62-1.62zM131.13 143.29c0-.895.725-1.62 1.62-1.62h91.13a1.62 1.62 0 1 1 0 3.24h-91.13a1.62 1.62 0 0 1-1.62-1.62zM131.13 167.92c0-.895.725-1.62 1.62-1.62h61.48a1.62 1.62 0 1 1 0 3.24h-61.48a1.62 1.62 0 0 1-1.62-1.62z" fill="#DDF1FF"/></g><defs><clipPath id="a"><path fill="#fff" d="M0 0h400v250H0z"/></clipPath></defs></svg>