<svg width="400" height="250" fill="none" xmlns="http://www.w3.org/2000/svg"><g clipPath="url(#a)"><path fill="#FAFDFF" d="M0 0h400v250H0z"/><path fillRule="evenodd" clipRule="evenodd" d="M121.18 115.93a5.18 5.18 0 0 0-5.18 5.18v45.11a5.18 5.18 0 0 0 5.18 5.18h158.21a5.18 5.18 0 0 0 5.18-5.18v-45.11a5.18 5.18 0 0 0-5.18-5.18H121.18zM108 121.11c0-7.279 5.901-13.18 13.18-13.18h158.21c7.279 0 13.18 5.901 13.18 13.18v45.11c0 7.279-5.901 13.18-13.18 13.18H121.18c-7.279 0-13.18-5.901-13.18-13.18v-45.11zM110.56 75a4 4 0 0 1 4-4h54.36a4 4 0 0 1 0 8h-54.36a4 4 0 0 1-4-4z" fill="#3B28CC"/><path fillRule="evenodd" clipRule="evenodd" d="M135.38 144c0-.895.725-1.62 1.62-1.62h76.59a1.62 1.62 0 1 1 0 3.24H137a1.62 1.62 0 0 1-1.62-1.62z" fill="#DDF1FF"/></g><defs><clipPath id="a"><path fill="#fff" d="M0 0h400v250H0z"/></clipPath></defs></svg>